<?xml version = "1.0"?>
<!DOCTYPE svg PUBLIC "-//W3C//DTD SVG 20010904//EN" "http://www.w3.org/TR/2001/REC-SVG-20010904/DTD/svg10.dtd">
<svg width = "242pt" height = "213pt" viewBox = "0 0 242 213" xmlns = "http://www.w3.org/2000/svg" xmlns:xlink = "http://www.w3.org/1999/xlink">
	<defs>
		<style type = "text/css"><![CDATA[
rect.attrGroup { fill: ivory ; stroke: black; stroke-width: 1 }
rect.element { fill: ivory ; stroke: black; stroke-width: 1 }
rect.elTypeBkgnd { fill: lightgray ; stroke: none }
text.elName { font-family: helvetica ; font-size : 10 }
text.elType { font-family: helvetica ; font-size : 7 }
text.occurLarge { font-family: helvetica ; font-size : 9; fill : blue }
text.occurSmall { font-family: helvetica ; font-size : 7; fill : blue }
rect.typeIconDark { fill : darkslategray }
circle.occurs { stroke : black ; stroke-width: 1; fill : white }
circle.ellipsis { fill : black }
path.typeIconDark { stroke : lightgray ; stroke-width: 1 }
path.connector { stroke : red ; stroke-width: 1 ; fill: none; }
path.modelGroup { stroke : black ; stroke-width: 1 ; fill: lightgray; }
polyline.connector { stroke : red ; stroke-width: 1 ; fill: none; }
.nodeStyle { fill : blue }
]]></style>
	</defs>
	<rect x = "5" y = "92" width = "46" height = "28" class = "element"/>
	<polygon class = "nodeStyle" points = "11,94 7,98 11,102 15,98"/>
	<text x = "16" y = "103" class = "elName">jboss</text>
	<rect x = "6" y = "107" width = "44" height = "12" class = "elTypeBkgnd"/>
	<image xlink:href = "../dgmTypeComplex.gif" width = "10" height = "10" x = "41" y = "102"/>
	<polyline class = "connector" points = "81,19 61,19 61,106 51,106 61,106 61,194 81,194"/>
	<circle class = "occurs" cx = "87" cy = "19" r = "6"/>
	<text x = "84" y = "22" class = "occurLarge">?</text>
	<rect x = "93" y = "5" width = "128" height = "28" class = "element"/>
	<polygon class = "nodeStyle" points = "99,7 95,11 99,15 103,11"/>
	<text x = "104" y = "16" class = "elName">enforce-ejb-restrictions</text>
	<rect x = "94" y = "20" width = "126" height = "12" class = "elTypeBkgnd"/>
	<image xlink:href = "../dgmDtString.gif" width = "10" height = "10" x = "211" y = "15"/>
	<circle class = "occurs" cx = "87" cy = "54" r = "6"/>
	<text x = "84" y = "57" class = "occurLarge">?</text>
	<rect x = "93" y = "40" width = "97" height = "28" class = "element"/>
	<polygon class = "nodeStyle" points = "99,42 95,46 99,50 103,46"/>
	<text x = "104" y = "51" class = "elName">security-domain</text>
	<rect x = "94" y = "55" width = "95" height = "12" class = "elTypeBkgnd"/>
	<image xlink:href = "../dgmDtString.gif" width = "10" height = "10" x = "180" y = "50"/>
	<circle class = "occurs" cx = "87" cy = "89" r = "6"/>
	<text x = "84" y = "92" class = "occurLarge">?</text>
	<rect x = "93" y = "75" width = "144" height = "28" class = "element"/>
	<polygon class = "nodeStyle" points = "99,77 95,81 99,85 103,81"/>
	<text x = "104" y = "86" class = "elName">unauthenticated-principal</text>
	<rect x = "94" y = "90" width = "142" height = "12" class = "elTypeBkgnd"/>
	<image xlink:href = "../dgmDtString.gif" width = "10" height = "10" x = "227" y = "85"/>
	<circle class = "occurs" cx = "87" cy = "124" r = "6"/>
	<text x = "84" y = "127" class = "occurLarge">?</text>
	<rect x = "93" y = "110" width = "100" height = "28" class = "element"/>
	<polygon class = "nodeStyle" points = "99,112 95,116 99,120 103,116"/>
	<text x = "104" y = "121" class = "elName">enterprise-beans</text>
	<rect x = "94" y = "125" width = "98" height = "12" class = "elTypeBkgnd"/>
	<image xlink:href = "../dgmTypeComplex.gif" width = "10" height = "10" x = "183" y = "120"/>
	<circle class = "occurs" cx = "87" cy = "159" r = "6"/>
	<text x = "84" y = "162" class = "occurLarge">?</text>
	<rect x = "93" y = "145" width = "111" height = "28" class = "element"/>
	<polygon class = "nodeStyle" points = "99,147 95,151 99,155 103,151"/>
	<text x = "104" y = "156" class = "elName">resource-managers</text>
	<rect x = "94" y = "160" width = "109" height = "12" class = "elTypeBkgnd"/>
	<image xlink:href = "../dgmTypeComplex.gif" width = "10" height = "10" x = "194" y = "155"/>
	<circle class = "occurs" cx = "87" cy = "194" r = "6"/>
	<text x = "84" y = "197" class = "occurLarge">?</text>
	<rect x = "93" y = "180" width = "136" height = "28" class = "element"/>
	<polygon class = "nodeStyle" points = "99,182 95,186 99,190 103,186"/>
	<text x = "104" y = "191" class = "elName">container-configurations</text>
	<rect x = "94" y = "195" width = "134" height = "12" class = "elTypeBkgnd"/>
	<image xlink:href = "../dgmTypeComplex.gif" width = "10" height = "10" x = "219" y = "190"/>
</svg>