<?xml version = "1.0"?>
<!DOCTYPE svg PUBLIC "-//W3C//DTD SVG 20010904//EN" "http://www.w3.org/TR/2001/REC-SVG-20010904/DTD/svg10.dtd">
<svg width = "273pt" height = "108pt" viewBox = "0 0 273 108" xmlns = "http://www.w3.org/2000/svg" xmlns:xlink = "http://www.w3.org/1999/xlink">
	<defs>
		<style type = "text/css"><![CDATA[
rect.attrGroup { fill: ivory ; stroke: black; stroke-width: 1 }
rect.element { fill: ivory ; stroke: black; stroke-width: 1 }
rect.elTypeBkgnd { fill: lightgray ; stroke: none }
text.elName { font-family: helvetica ; font-size : 10 }
text.elType { font-family: helvetica ; font-size : 7 }
text.occurLarge { font-family: helvetica ; font-size : 9; fill : blue }
text.occurSmall { font-family: helvetica ; font-size : 7; fill : blue }
rect.typeIconDark { fill : darkslategray }
circle.occurs { stroke : black ; stroke-width: 1; fill : white }
circle.ellipsis { fill : black }
path.typeIconDark { stroke : lightgray ; stroke-width: 1 }
path.connector { stroke : red ; stroke-width: 1 ; fill: none; }
path.modelGroup { stroke : black ; stroke-width: 1 ; fill: lightgray; }
polyline.connector { stroke : red ; stroke-width: 1 ; fill: none; }
.nodeStyle { fill : blue }
]]></style>
	</defs>
	<rect x = "5" y = "40" width = "114" height = "28" class = "element"/>
	<polygon class = "nodeStyle" points = "11,42 7,46 11,50 15,46"/>
	<text x = "16" y = "51" class = "elName">container-pool-conf</text>
	<rect x = "6" y = "55" width = "112" height = "12" class = "elTypeBkgnd"/>
	<image xlink:href = "../dgmTypeComplex.gif" width = "10" height = "10" x = "109" y = "50"/>
	<polyline class = "connector" points = "149,19 129,19 129,54 119,54 129,54 129,89 149,89"/>
	<polyline class = "connector" points = "149,19 161,19"/>
	<rect x = "161" y = "5" width = "91" height = "28" class = "element"/>
	<polygon class = "nodeStyle" points = "167,7 163,11 167,15 171,11"/>
	<text x = "172" y = "16" class = "elName">MaximumSize</text>
	<rect x = "162" y = "20" width = "89" height = "12" class = "elTypeBkgnd"/>
	<image xlink:href = "../dgmDtString.gif" width = "10" height = "10" x = "242" y = "15"/>
	<rect x = "161" y = "40" width = "84" height = "28" class = "element"/>
	<polygon class = "nodeStyle" points = "167,42 163,46 167,50 171,46"/>
	<text x = "172" y = "51" class = "elName">feeder-policy</text>
	<rect x = "162" y = "55" width = "82" height = "12" class = "elTypeBkgnd"/>
	<image xlink:href = "../dgmDtString.gif" width = "10" height = "10" x = "235" y = "50"/>
	<polyline class = "connector" points = "149,89 161,89"/>
	<rect x = "161" y = "75" width = "107" height = "28" class = "element"/>
	<polygon class = "nodeStyle" points = "167,77 163,81 167,85 171,81"/>
	<text x = "172" y = "86" class = "elName">feeder-policy-conf</text>
	<rect x = "162" y = "90" width = "105" height = "12" class = "elTypeBkgnd"/>
	<image xlink:href = "../dgmTypeComplex.gif" width = "10" height = "10" x = "258" y = "85"/>
</svg>