<?xml version = "1.0"?>
<!DOCTYPE svg PUBLIC "-//W3C//DTD SVG 20010904//EN" "http://www.w3.org/TR/2001/REC-SVG-20010904/DTD/svg10.dtd">
<svg width = "428pt" height = "114pt" viewBox = "0 0 428 114" xmlns = "http://www.w3.org/2000/svg" xmlns:xlink = "http://www.w3.org/1999/xlink">
	<defs>
		<style type = "text/css"><![CDATA[
rect.attrGroup { fill: ivory ; stroke: black; stroke-width: 1 }
rect.element { fill: ivory ; stroke: black; stroke-width: 1 }
rect.elTypeBkgnd { fill: lightgray ; stroke: none }
text.elName { font-family: helvetica ; font-size : 10 }
text.elType { font-family: helvetica ; font-size : 7 }
text.occurLarge { font-family: helvetica ; font-size : 9; fill : blue }
text.occurSmall { font-family: helvetica ; font-size : 7; fill : blue }
rect.typeIconDark { fill : darkslategray }
circle.occurs { stroke : black ; stroke-width: 1; fill : white }
circle.ellipsis { fill : black }
path.typeIconDark { stroke : lightgray ; stroke-width: 1 }
path.connector { stroke : red ; stroke-width: 1 ; fill: none; }
path.modelGroup { stroke : black ; stroke-width: 1 ; fill: lightgray; }
polyline.connector { stroke : red ; stroke-width: 1 ; fill: none; }
.nodeStyle { fill : blue }
]]></style>
	</defs>
	<rect x = "145" y = "5" width = "278" height = "71" class = "attrGroup" rx = "5" ry = "5"/>
	<circle class = "occurs" cx = "156" cy = "24" r = "6"/>
	<text x = "153" y = "27" class = "occurLarge">?</text>
	<rect x = "162" y = "10" width = "32" height = "28" class = "element" rx = "5" ry = "5"/>
	<circle class = "nodeStyle" cx = "168" cy = "16" r = "4"/>
	<text x = "173" y = "21" class = "elName">id</text>
	<rect x = "163" y = "11" width = "30" height = "26" class = "elTypeBkgnd" rx = "5" ry = "5" clip-path = "url(#e:message-resources/a:id)"/>
	<defs/>
	<clipPath id = "e:message-resources/a:id">
		<rect x = "162" y = "25" width = "32" height = "12"/>
	</clipPath>
	<text x = "163" y = "33" class = "elType">ID</text>
	<image xlink:href = "../dgmDtName.gif" width = "10" height = "10" x = "184" y = "20"/>
	<circle class = "occurs" cx = "295" cy = "24" r = "6"/>
	<text x = "292" y = "27" class = "occurLarge">?</text>
	<rect x = "301" y = "10" width = "41" height = "28" class = "element" rx = "5" ry = "5"/>
	<circle class = "nodeStyle" cx = "307" cy = "16" r = "4"/>
	<text x = "312" y = "21" class = "elName">null</text>
	<rect x = "302" y = "11" width = "39" height = "26" class = "elTypeBkgnd" rx = "5" ry = "5" clip-path = "url(#e:message-resources/a:null)"/>
	<defs/>
	<clipPath id = "e:message-resources/a:null">
		<rect x = "301" y = "25" width = "41" height = "12"/>
	</clipPath>
	<image xlink:href = "../dgmDtString.gif" width = "10" height = "10" x = "332" y = "20"/>
	<circle class = "occurs" cx = "156" cy = "57" r = "6"/>
	<text x = "153" y = "60" class = "occurLarge">?</text>
	<rect x = "162" y = "43" width = "54" height = "28" class = "element" rx = "5" ry = "5"/>
	<circle class = "nodeStyle" cx = "168" cy = "49" r = "4"/>
	<text x = "173" y = "54" class = "elName">factory</text>
	<rect x = "163" y = "44" width = "52" height = "26" class = "elTypeBkgnd" rx = "5" ry = "5" clip-path = "url(#e:message-resources/a:factory)"/>
	<defs/>
	<clipPath id = "e:message-resources/a:factory">
		<rect x = "162" y = "58" width = "54" height = "12"/>
	</clipPath>
	<text x = "163" y = "66" class = "elType">ClassName</text>
	<image xlink:href = "../dgmDtString.gif" width = "10" height = "10" x = "206" y = "53"/>
	<circle class = "occurs" cx = "227" cy = "57" r = "6"/>
	<text x = "224" y = "60" class = "occurLarge">?</text>
	<rect x = "233" y = "43" width = "59" height = "28" class = "element" rx = "5" ry = "5"/>
	<circle class = "nodeStyle" cx = "239" cy = "49" r = "4"/>
	<text x = "244" y = "54" class = "elName">key</text>
	<rect x = "234" y = "44" width = "57" height = "26" class = "elTypeBkgnd" rx = "5" ry = "5" clip-path = "url(#e:message-resources/a:key)"/>
	<defs/>
	<clipPath id = "e:message-resources/a:key">
		<rect x = "233" y = "58" width = "59" height = "12"/>
	</clipPath>
	<text x = "234" y = "66" class = "elType">AttributeName</text>
	<image xlink:href = "../dgmDtString.gif" width = "10" height = "10" x = "282" y = "53"/>
	<rect x = "347" y = "10" width = "71" height = "28" class = "element" rx = "5" ry = "5"/>
	<circle class = "nodeStyle" cx = "353" cy = "16" r = "4"/>
	<text x = "358" y = "21" class = "elName">parameter</text>
	<rect x = "348" y = "11" width = "69" height = "26" class = "elTypeBkgnd" rx = "5" ry = "5" clip-path = "url(#e:message-resources/a:parameter)"/>
	<defs/>
	<clipPath id = "e:message-resources/a:parameter">
		<rect x = "347" y = "25" width = "71" height = "12"/>
	</clipPath>
	<text x = "348" y = "33" class = "elType">string</text>
	<image xlink:href = "../dgmDtString.gif" width = "10" height = "10" x = "408" y = "20"/>
	<circle class = "occurs" cx = "205" cy = "24" r = "6"/>
	<text x = "202" y = "27" class = "occurLarge">?</text>
	<rect x = "211" y = "10" width = "73" height = "28" class = "element" rx = "5" ry = "5"/>
	<circle class = "nodeStyle" cx = "217" cy = "16" r = "4"/>
	<text x = "222" y = "21" class = "elName">className</text>
	<rect x = "212" y = "11" width = "71" height = "26" class = "elTypeBkgnd" rx = "5" ry = "5" clip-path = "url(#e:message-resources/a:className)"/>
	<defs/>
	<clipPath id = "e:message-resources/a:className">
		<rect x = "211" y = "25" width = "73" height = "12"/>
	</clipPath>
	<text x = "212" y = "33" class = "elType">ClassName</text>
	<image xlink:href = "../dgmDtString.gif" width = "10" height = "10" x = "274" y = "20"/>
	<rect x = "5" y = "81" width = "110" height = "28" class = "element"/>
	<polygon class = "nodeStyle" points = "11,83 7,87 11,91 15,87"/>
	<text x = "16" y = "92" class = "elName">message-resources</text>
	<rect x = "6" y = "96" width = "108" height = "12" class = "elTypeBkgnd"/>
	<image xlink:href = "../dgmTypeComplex.gif" width = "10" height = "10" x = "105" y = "91"/>
	<polyline class = "connector" points = "115,95 145,95"/>
	<polyline class = "connector" points = "115,93 123,93 123,40 145,40"/>
	<circle class = "occurs" cx = "151" cy = "95" r = "6"/>
	<text x = "148" y = "98" class = "occurLarge">*</text>
	<rect x = "157" y = "81" width = "77" height = "28" class = "element"/>
	<polygon class = "nodeStyle" points = "163,83 159,87 163,91 167,87"/>
	<text x = "168" y = "92" class = "elName">set-property</text>
	<rect x = "158" y = "96" width = "75" height = "12" class = "elTypeBkgnd"/>
	<image xlink:href = "../dgmTypeEmpty.gif" width = "10" height = "10" x = "224" y = "91"/>
</svg>