<?xml version = "1.0"?>
<!DOCTYPE svg PUBLIC "-//W3C//DTD SVG 20010904//EN" "http://www.w3.org/TR/2001/REC-SVG-20010904/DTD/svg10.dtd">
<svg width = "371pt" height = "151pt" viewBox = "0 0 371 151" xmlns = "http://www.w3.org/2000/svg" xmlns:xlink = "http://www.w3.org/1999/xlink">
	<defs>
		<style type = "text/css"><![CDATA[
rect.attrGroup { fill: ivory ; stroke: black; stroke-width: 1 }
rect.element { fill: ivory ; stroke: black; stroke-width: 1 }
rect.elTypeBkgnd { fill: lightgray ; stroke: none }
text.elName { font-family: helvetica ; font-size : 10 }
text.elType { font-family: helvetica ; font-size : 7 }
text.occurLarge { font-family: helvetica ; font-size : 9; fill : blue }
text.occurSmall { font-family: helvetica ; font-size : 7; fill : blue }
rect.typeIconDark { fill : darkslategray }
circle.occurs { stroke : black ; stroke-width: 1; fill : white }
circle.ellipsis { fill : black }
path.typeIconDark { stroke : lightgray ; stroke-width: 1 }
path.connector { stroke : red ; stroke-width: 1 ; fill: none; }
path.modelGroup { stroke : black ; stroke-width: 1 ; fill: lightgray; }
polyline.connector { stroke : red ; stroke-width: 1 ; fill: none; }
.nodeStyle { fill : blue }
]]></style>
	</defs>
	<rect x = "183" y = "5" width = "54" height = "38" class = "attrGroup" rx = "5" ry = "5"/>
	<circle class = "occurs" cx = "194" cy = "24" r = "6"/>
	<text x = "191" y = "27" class = "occurLarge">?</text>
	<rect x = "200" y = "10" width = "32" height = "28" class = "element" rx = "5" ry = "5"/>
	<circle class = "nodeStyle" cx = "206" cy = "16" r = "4"/>
	<text x = "211" y = "21" class = "elName">id</text>
	<rect x = "201" y = "11" width = "30" height = "26" class = "elTypeBkgnd" rx = "5" ry = "5" clip-path = "url(#e:authentication-mechanism/a:id)"/>
	<defs/>
	<clipPath id = "e:authentication-mechanism/a:id">
		<rect x = "200" y = "25" width = "32" height = "12"/>
	</clipPath>
	<text x = "201" y = "33" class = "elType">ID</text>
	<image xlink:href = "../dgmDtName.gif" width = "10" height = "10" x = "222" y = "20"/>
	<rect x = "5" y = "83" width = "148" height = "28" class = "element"/>
	<polygon class = "nodeStyle" points = "11,85 7,89 11,93 15,89"/>
	<text x = "16" y = "94" class = "elName">authentication-mechanism</text>
	<rect x = "6" y = "98" width = "146" height = "12" class = "elTypeBkgnd"/>
	<image xlink:href = "../dgmTypeComplex.gif" width = "10" height = "10" x = "143" y = "93"/>
	<polyline class = "connector" points = "183,62 163,62 163,97 153,97 163,97 163,132 183,132"/>
	<polyline class = "connector" points = "153,95 161,95 161,24 183,24"/>
	<circle class = "occurs" cx = "189" cy = "62" r = "6"/>
	<text x = "186" y = "65" class = "occurLarge">?</text>
	<rect x = "195" y = "48" width = "74" height = "28" class = "element"/>
	<polygon class = "nodeStyle" points = "201,50 197,54 201,58 205,54"/>
	<text x = "206" y = "59" class = "elName">description</text>
	<rect x = "196" y = "63" width = "72" height = "12" class = "elTypeBkgnd"/>
	<image xlink:href = "../dgmDtString.gif" width = "10" height = "10" x = "259" y = "58"/>
	<rect x = "195" y = "83" width = "171" height = "28" class = "element"/>
	<polygon class = "nodeStyle" points = "201,85 197,89 201,93 205,89"/>
	<text x = "206" y = "94" class = "elName">authentication-mechanism-type</text>
	<rect x = "196" y = "98" width = "169" height = "12" class = "elTypeBkgnd"/>
	<image xlink:href = "../dgmDtString.gif" width = "10" height = "10" x = "356" y = "93"/>
	<polyline class = "connector" points = "183,132 195,132"/>
	<rect x = "195" y = "118" width = "114" height = "28" class = "element"/>
	<polygon class = "nodeStyle" points = "201,120 197,124 201,128 205,124"/>
	<text x = "206" y = "129" class = "elName">credential-interface</text>
	<rect x = "196" y = "133" width = "112" height = "12" class = "elTypeBkgnd"/>
	<image xlink:href = "../dgmDtString.gif" width = "10" height = "10" x = "299" y = "128"/>
</svg>