<?xml version = "1.0"?>
<!DOCTYPE svg PUBLIC "-//W3C//DTD SVG 20010904//EN" "http://www.w3.org/TR/2001/REC-SVG-20010904/DTD/svg10.dtd">
<svg width = "326pt" height = "396pt" viewBox = "0 0 326 396" xmlns = "http://www.w3.org/2000/svg" xmlns:xlink = "http://www.w3.org/1999/xlink">
	<defs>
		<style type = "text/css"><![CDATA[
rect.attrGroup { fill: ivory ; stroke: black; stroke-width: 1 }
rect.element { fill: ivory ; stroke: black; stroke-width: 1 }
rect.elTypeBkgnd { fill: lightgray ; stroke: none }
text.elName { font-family: helvetica ; font-size : 10 }
text.elType { font-family: helvetica ; font-size : 7 }
text.occurLarge { font-family: helvetica ; font-size : 9; fill : blue }
text.occurSmall { font-family: helvetica ; font-size : 7; fill : blue }
rect.typeIconDark { fill : darkslategray }
circle.occurs { stroke : black ; stroke-width: 1; fill : white }
circle.ellipsis { fill : black }
path.typeIconDark { stroke : lightgray ; stroke-width: 1 }
path.connector { stroke : red ; stroke-width: 1 ; fill: none; }
path.modelGroup { stroke : black ; stroke-width: 1 ; fill: lightgray; }
polyline.connector { stroke : red ; stroke-width: 1 ; fill: none; }
.nodeStyle { fill : blue }
]]></style>
	</defs>
	<rect x = "133" y = "5" width = "54" height = "38" class = "attrGroup" rx = "5" ry = "5"/>
	<circle class = "occurs" cx = "144" cy = "24" r = "6"/>
	<text x = "141" y = "27" class = "occurLarge">?</text>
	<rect x = "150" y = "10" width = "32" height = "28" class = "element" rx = "5" ry = "5"/>
	<circle class = "nodeStyle" cx = "156" cy = "16" r = "4"/>
	<text x = "161" y = "21" class = "elName">id</text>
	<rect x = "151" y = "11" width = "30" height = "26" class = "elTypeBkgnd" rx = "5" ry = "5" clip-path = "url(#e:resourceadapter/a:id)"/>
	<defs/>
	<clipPath id = "e:resourceadapter/a:id">
		<rect x = "150" y = "25" width = "32" height = "12"/>
	</clipPath>
	<text x = "151" y = "33" class = "elType">ID</text>
	<image xlink:href = "../dgmDtName.gif" width = "10" height = "10" x = "172" y = "20"/>
	<rect x = "5" y = "205" width = "98" height = "28" class = "element"/>
	<polygon class = "nodeStyle" points = "11,207 7,211 11,215 15,211"/>
	<text x = "16" y = "216" class = "elName">resourceadapter</text>
	<rect x = "6" y = "220" width = "96" height = "12" class = "elTypeBkgnd"/>
	<image xlink:href = "../dgmTypeComplex.gif" width = "10" height = "10" x = "93" y = "215"/>
	<polyline class = "connector" points = "133,62 113,62 113,219 103,219 113,219 113,377 133,377"/>
	<polyline class = "connector" points = "103,217 111,217 111,24 133,24"/>
	<polyline class = "connector" points = "133,62 145,62"/>
	<rect x = "145" y = "48" width = "176" height = "28" class = "element"/>
	<polygon class = "nodeStyle" points = "151,50 147,54 151,58 155,54"/>
	<text x = "156" y = "59" class = "elName">managedconnectionfactory-class</text>
	<rect x = "146" y = "63" width = "174" height = "12" class = "elTypeBkgnd"/>
	<image xlink:href = "../dgmDtString.gif" width = "10" height = "10" x = "311" y = "58"/>
	<rect x = "145" y = "83" width = "150" height = "28" class = "element"/>
	<polygon class = "nodeStyle" points = "151,85 147,89 151,93 155,89"/>
	<text x = "156" y = "94" class = "elName">connectionfactory-interface</text>
	<rect x = "146" y = "98" width = "148" height = "12" class = "elTypeBkgnd"/>
	<image xlink:href = "../dgmDtString.gif" width = "10" height = "10" x = "285" y = "93"/>
	<rect x = "145" y = "118" width = "155" height = "28" class = "element"/>
	<polygon class = "nodeStyle" points = "151,120 147,124 151,128 155,124"/>
	<text x = "156" y = "129" class = "elName">connectionfactory-impl-class</text>
	<rect x = "146" y = "133" width = "153" height = "12" class = "elTypeBkgnd"/>
	<image xlink:href = "../dgmDtString.gif" width = "10" height = "10" x = "290" y = "128"/>
	<rect x = "145" y = "153" width = "119" height = "28" class = "element"/>
	<polygon class = "nodeStyle" points = "151,155 147,159 151,163 155,159"/>
	<text x = "156" y = "164" class = "elName">connection-interface</text>
	<rect x = "146" y = "168" width = "117" height = "12" class = "elTypeBkgnd"/>
	<image xlink:href = "../dgmDtString.gif" width = "10" height = "10" x = "254" y = "163"/>
	<rect x = "145" y = "188" width = "124" height = "28" class = "element"/>
	<polygon class = "nodeStyle" points = "151,190 147,194 151,198 155,194"/>
	<text x = "156" y = "199" class = "elName">connection-impl-class</text>
	<rect x = "146" y = "203" width = "122" height = "12" class = "elTypeBkgnd"/>
	<image xlink:href = "../dgmDtString.gif" width = "10" height = "10" x = "259" y = "198"/>
	<rect x = "145" y = "223" width = "111" height = "28" class = "element"/>
	<polygon class = "nodeStyle" points = "151,225 147,229 151,233 155,229"/>
	<text x = "156" y = "234" class = "elName">transaction-support</text>
	<rect x = "146" y = "238" width = "109" height = "12" class = "elTypeBkgnd"/>
	<image xlink:href = "../dgmDtString.gif" width = "10" height = "10" x = "246" y = "233"/>
	<circle class = "occurs" cx = "139" cy = "272" r = "6"/>
	<text x = "136" y = "275" class = "occurLarge">*</text>
	<rect x = "145" y = "258" width = "93" height = "28" class = "element"/>
	<polygon class = "nodeStyle" points = "151,260 147,264 151,268 155,264"/>
	<text x = "156" y = "269" class = "elName">config-property</text>
	<rect x = "146" y = "273" width = "91" height = "12" class = "elTypeBkgnd"/>
	<image xlink:href = "../dgmTypeComplex.gif" width = "10" height = "10" x = "228" y = "268"/>
	<circle class = "occurs" cx = "139" cy = "307" r = "6"/>
	<text x = "136" y = "310" class = "occurLarge">*</text>
	<rect x = "145" y = "293" width = "148" height = "28" class = "element"/>
	<polygon class = "nodeStyle" points = "151,295 147,299 151,303 155,299"/>
	<text x = "156" y = "304" class = "elName">authentication-mechanism</text>
	<rect x = "146" y = "308" width = "146" height = "12" class = "elTypeBkgnd"/>
	<image xlink:href = "../dgmTypeComplex.gif" width = "10" height = "10" x = "283" y = "303"/>
	<rect x = "145" y = "328" width = "137" height = "28" class = "element"/>
	<polygon class = "nodeStyle" points = "151,330 147,334 151,338 155,334"/>
	<text x = "156" y = "339" class = "elName">reauthentication-support</text>
	<rect x = "146" y = "343" width = "135" height = "12" class = "elTypeBkgnd"/>
	<image xlink:href = "../dgmDtString.gif" width = "10" height = "10" x = "272" y = "338"/>
	<circle class = "occurs" cx = "139" cy = "377" r = "6"/>
	<text x = "136" y = "380" class = "occurLarge">*</text>
	<rect x = "145" y = "363" width = "111" height = "28" class = "element"/>
	<polygon class = "nodeStyle" points = "151,365 147,369 151,373 155,369"/>
	<text x = "156" y = "374" class = "elName">security-permission</text>
	<rect x = "146" y = "378" width = "109" height = "12" class = "elTypeBkgnd"/>
	<image xlink:href = "../dgmTypeComplex.gif" width = "10" height = "10" x = "246" y = "373"/>
</svg>