<?xml version = "1.0"?>
<!DOCTYPE svg PUBLIC "-//W3C//DTD SVG 20010904//EN" "http://www.w3.org/TR/2001/REC-SVG-20010904/DTD/svg10.dtd">
<svg width = "268pt" height = "186pt" viewBox = "0 0 268 186" xmlns = "http://www.w3.org/2000/svg" xmlns:xlink = "http://www.w3.org/1999/xlink">
	<defs>
		<style type = "text/css"><![CDATA[
rect.attrGroup { fill: ivory ; stroke: black; stroke-width: 1 }
rect.element { fill: ivory ; stroke: black; stroke-width: 1 }
rect.elTypeBkgnd { fill: lightgray ; stroke: none }
text.elName { font-family: helvetica ; font-size : 10 }
text.elType { font-family: helvetica ; font-size : 7 }
text.occurLarge { font-family: helvetica ; font-size : 9; fill : blue }
text.occurSmall { font-family: helvetica ; font-size : 7; fill : blue }
rect.typeIconDark { fill : darkslategray }
circle.occurs { stroke : black ; stroke-width: 1; fill : white }
circle.ellipsis { fill : black }
path.typeIconDark { stroke : lightgray ; stroke-width: 1 }
path.connector { stroke : red ; stroke-width: 1 ; fill: none; }
path.modelGroup { stroke : black ; stroke-width: 1 ; fill: lightgray; }
polyline.connector { stroke : red ; stroke-width: 1 ; fill: none; }
.nodeStyle { fill : blue }
]]></style>
	</defs>
	<rect x = "128" y = "5" width = "54" height = "38" class = "attrGroup" rx = "5" ry = "5"/>
	<circle class = "occurs" cx = "139" cy = "24" r = "6"/>
	<text x = "136" y = "27" class = "occurLarge">?</text>
	<rect x = "145" y = "10" width = "32" height = "28" class = "element" rx = "5" ry = "5"/>
	<circle class = "nodeStyle" cx = "151" cy = "16" r = "4"/>
	<text x = "156" y = "21" class = "elName">id</text>
	<rect x = "146" y = "11" width = "30" height = "26" class = "elTypeBkgnd" rx = "5" ry = "5" clip-path = "url(#e:config-property/a:id)"/>
	<defs/>
	<clipPath id = "e:config-property/a:id">
		<rect x = "145" y = "25" width = "32" height = "12"/>
	</clipPath>
	<text x = "146" y = "33" class = "elType">ID</text>
	<image xlink:href = "../dgmDtName.gif" width = "10" height = "10" x = "167" y = "20"/>
	<rect x = "5" y = "100" width = "93" height = "28" class = "element"/>
	<polygon class = "nodeStyle" points = "11,102 7,106 11,110 15,106"/>
	<text x = "16" y = "111" class = "elName">config-property</text>
	<rect x = "6" y = "115" width = "91" height = "12" class = "elTypeBkgnd"/>
	<image xlink:href = "../dgmTypeComplex.gif" width = "10" height = "10" x = "88" y = "110"/>
	<polyline class = "connector" points = "128,62 108,62 108,114 98,114 108,114 108,167 128,167"/>
	<polyline class = "connector" points = "98,112 106,112 106,24 128,24"/>
	<circle class = "occurs" cx = "134" cy = "62" r = "6"/>
	<text x = "131" y = "65" class = "occurLarge">?</text>
	<rect x = "140" y = "48" width = "74" height = "28" class = "element"/>
	<polygon class = "nodeStyle" points = "146,50 142,54 146,58 150,54"/>
	<text x = "151" y = "59" class = "elName">description</text>
	<rect x = "141" y = "63" width = "72" height = "12" class = "elTypeBkgnd"/>
	<image xlink:href = "../dgmDtString.gif" width = "10" height = "10" x = "204" y = "58"/>
	<rect x = "140" y = "83" width = "123" height = "28" class = "element"/>
	<polygon class = "nodeStyle" points = "146,85 142,89 146,93 150,89"/>
	<text x = "151" y = "94" class = "elName">config-property-name</text>
	<rect x = "141" y = "98" width = "121" height = "12" class = "elTypeBkgnd"/>
	<image xlink:href = "../dgmDtString.gif" width = "10" height = "10" x = "253" y = "93"/>
	<rect x = "140" y = "118" width = "116" height = "28" class = "element"/>
	<polygon class = "nodeStyle" points = "146,120 142,124 146,128 150,124"/>
	<text x = "151" y = "129" class = "elName">config-property-type</text>
	<rect x = "141" y = "133" width = "114" height = "12" class = "elTypeBkgnd"/>
	<image xlink:href = "../dgmDtString.gif" width = "10" height = "10" x = "246" y = "128"/>
	<circle class = "occurs" cx = "134" cy = "167" r = "6"/>
	<text x = "131" y = "170" class = "occurLarge">?</text>
	<rect x = "140" y = "153" width = "122" height = "28" class = "element"/>
	<polygon class = "nodeStyle" points = "146,155 142,159 146,163 150,159"/>
	<text x = "151" y = "164" class = "elName">config-property-value</text>
	<rect x = "141" y = "168" width = "120" height = "12" class = "elTypeBkgnd"/>
	<image xlink:href = "../dgmDtString.gif" width = "10" height = "10" x = "252" y = "163"/>
</svg>