<?xml version = "1.0"?>
<!DOCTYPE svg PUBLIC "-//W3C//DTD SVG 20010904//EN" "http://www.w3.org/TR/2001/REC-SVG-20010904/DTD/svg10.dtd">
<svg width = "230pt" height = "81pt" viewBox = "0 0 230 81" xmlns = "http://www.w3.org/2000/svg" xmlns:xlink = "http://www.w3.org/1999/xlink">
	<defs>
		<style type = "text/css"><![CDATA[
rect.attrGroup { fill: ivory ; stroke: black; stroke-width: 1 }
rect.element { fill: ivory ; stroke: black; stroke-width: 1 }
rect.elTypeBkgnd { fill: lightgray ; stroke: none }
text.elName { font-family: helvetica ; font-size : 10 }
text.elType { font-family: helvetica ; font-size : 7 }
text.occurLarge { font-family: helvetica ; font-size : 9; fill : blue }
text.occurSmall { font-family: helvetica ; font-size : 7; fill : blue }
rect.typeIconDark { fill : darkslategray }
circle.occurs { stroke : black ; stroke-width: 1; fill : white }
circle.ellipsis { fill : black }
path.typeIconDark { stroke : lightgray ; stroke-width: 1 }
path.connector { stroke : red ; stroke-width: 1 ; fill: none; }
path.modelGroup { stroke : black ; stroke-width: 1 ; fill: lightgray; }
polyline.connector { stroke : red ; stroke-width: 1 ; fill: none; }
.nodeStyle { fill : blue }
]]></style>
	</defs>
	<rect x = "121" y = "5" width = "102" height = "38" class = "attrGroup" rx = "5" ry = "5"/>
	<rect x = "126" y = "10" width = "41" height = "28" class = "element" rx = "5" ry = "5"/>
	<circle class = "nodeStyle" cx = "132" cy = "16" r = "4"/>
	<text x = "137" y = "21" class = "elName">flag</text>
	<rect x = "127" y = "11" width = "39" height = "26" class = "elTypeBkgnd" rx = "5" ry = "5" clip-path = "url(#e:login-module/a:flag)"/>
	<defs/>
	<clipPath id = "e:login-module/a:flag">
		<rect x = "126" y = "25" width = "41" height = "12"/>
	</clipPath>
	<image xlink:href = "../dgmDtString.gif" width = "10" height = "10" x = "157" y = "20"/>
	<rect x = "172" y = "10" width = "46" height = "28" class = "element" rx = "5" ry = "5"/>
	<circle class = "nodeStyle" cx = "178" cy = "16" r = "4"/>
	<text x = "183" y = "21" class = "elName">code</text>
	<rect x = "173" y = "11" width = "44" height = "26" class = "elTypeBkgnd" rx = "5" ry = "5" clip-path = "url(#e:login-module/a:code)"/>
	<defs/>
	<clipPath id = "e:login-module/a:code">
		<rect x = "172" y = "25" width = "46" height = "12"/>
	</clipPath>
	<text x = "173" y = "33" class = "elType">string</text>
	<image xlink:href = "../dgmDtString.gif" width = "10" height = "10" x = "208" y = "20"/>
	<rect x = "5" y = "48" width = "86" height = "28" class = "element"/>
	<polygon class = "nodeStyle" points = "11,50 7,54 11,58 15,54"/>
	<text x = "16" y = "59" class = "elName">login-module</text>
	<rect x = "6" y = "63" width = "84" height = "12" class = "elTypeBkgnd"/>
	<image xlink:href = "../dgmTypeComplex.gif" width = "10" height = "10" x = "81" y = "58"/>
	<polyline class = "connector" points = "91,62 121,62"/>
	<polyline class = "connector" points = "91,60 99,60 99,24 121,24"/>
	<circle class = "occurs" cx = "127" cy = "62" r = "6"/>
	<text x = "124" y = "65" class = "occurLarge">*</text>
	<rect x = "133" y = "48" width = "92" height = "28" class = "element"/>
	<polygon class = "nodeStyle" points = "139,50 135,54 139,58 143,54"/>
	<text x = "144" y = "59" class = "elName">module-option</text>
	<rect x = "134" y = "63" width = "90" height = "12" class = "elTypeBkgnd"/>
	<image xlink:href = "../dgmDtString.gif" width = "10" height = "10" x = "215" y = "58"/>
</svg>