<?xml version = "1.0"?>
<!DOCTYPE svg PUBLIC "-//W3C//DTD SVG 20010904//EN" "http://www.w3.org/TR/2001/REC-SVG-20010904/DTD/svg10.dtd">
<svg width = "210pt" height = "151pt" viewBox = "0 0 210 151" xmlns = "http://www.w3.org/2000/svg" xmlns:xlink = "http://www.w3.org/1999/xlink">
	<defs>
		<style type = "text/css"><![CDATA[
rect.attrGroup { fill: ivory ; stroke: black; stroke-width: 1 }
rect.element { fill: ivory ; stroke: black; stroke-width: 1 }
rect.elTypeBkgnd { fill: lightgray ; stroke: none }
text.elName { font-family: helvetica ; font-size : 10 }
text.elType { font-family: helvetica ; font-size : 7 }
text.occurLarge { font-family: helvetica ; font-size : 9; fill : blue }
text.occurSmall { font-family: helvetica ; font-size : 7; fill : blue }
rect.typeIconDark { fill : darkslategray }
circle.occurs { stroke : black ; stroke-width: 1; fill : white }
circle.ellipsis { fill : black }
path.typeIconDark { stroke : lightgray ; stroke-width: 1 }
path.connector { stroke : red ; stroke-width: 1 ; fill: none; }
path.modelGroup { stroke : black ; stroke-width: 1 ; fill: lightgray; }
polyline.connector { stroke : red ; stroke-width: 1 ; fill: none; }
.nodeStyle { fill : blue }
]]></style>
	</defs>
	<rect x = "99" y = "5" width = "54" height = "38" class = "attrGroup" rx = "5" ry = "5"/>
	<circle class = "occurs" cx = "110" cy = "24" r = "6"/>
	<text x = "107" y = "27" class = "occurLarge">?</text>
	<rect x = "116" y = "10" width = "32" height = "28" class = "element" rx = "5" ry = "5"/>
	<circle class = "nodeStyle" cx = "122" cy = "16" r = "4"/>
	<text x = "127" y = "21" class = "elName">id</text>
	<rect x = "117" y = "11" width = "30" height = "26" class = "elTypeBkgnd" rx = "5" ry = "5" clip-path = "url(#e:cmr-field/a:id)"/>
	<defs/>
	<clipPath id = "e:cmr-field/a:id">
		<rect x = "116" y = "25" width = "32" height = "12"/>
	</clipPath>
	<text x = "117" y = "33" class = "elType">ID</text>
	<image xlink:href = "../dgmDtName.gif" width = "10" height = "10" x = "138" y = "20"/>
	<rect x = "5" y = "83" width = "64" height = "28" class = "element"/>
	<polygon class = "nodeStyle" points = "11,85 7,89 11,93 15,89"/>
	<text x = "16" y = "94" class = "elName">cmr-field</text>
	<rect x = "6" y = "98" width = "62" height = "12" class = "elTypeBkgnd"/>
	<image xlink:href = "../dgmTypeComplex.gif" width = "10" height = "10" x = "59" y = "93"/>
	<polyline class = "connector" points = "99,62 79,62 79,97 69,97 79,97 79,132 99,132"/>
	<polyline class = "connector" points = "69,95 77,95 77,24 99,24"/>
	<circle class = "occurs" cx = "105" cy = "62" r = "6"/>
	<text x = "102" y = "65" class = "occurLarge">?</text>
	<rect x = "111" y = "48" width = "74" height = "28" class = "element"/>
	<polygon class = "nodeStyle" points = "117,50 113,54 117,58 121,54"/>
	<text x = "122" y = "59" class = "elName">description</text>
	<rect x = "112" y = "63" width = "72" height = "12" class = "elTypeBkgnd"/>
	<image xlink:href = "../dgmDtString.gif" width = "10" height = "10" x = "175" y = "58"/>
	<rect x = "111" y = "83" width = "94" height = "28" class = "element"/>
	<polygon class = "nodeStyle" points = "117,85 113,89 117,93 121,89"/>
	<text x = "122" y = "94" class = "elName">cmr-field-name</text>
	<rect x = "112" y = "98" width = "92" height = "12" class = "elTypeBkgnd"/>
	<image xlink:href = "../dgmDtString.gif" width = "10" height = "10" x = "195" y = "93"/>
	<circle class = "occurs" cx = "105" cy = "132" r = "6"/>
	<text x = "102" y = "135" class = "occurLarge">?</text>
	<rect x = "111" y = "118" width = "87" height = "28" class = "element"/>
	<polygon class = "nodeStyle" points = "117,120 113,124 117,128 121,124"/>
	<text x = "122" y = "129" class = "elName">cmr-field-type</text>
	<rect x = "112" y = "133" width = "85" height = "12" class = "elTypeBkgnd"/>
	<image xlink:href = "../dgmDtString.gif" width = "10" height = "10" x = "188" y = "128"/>
</svg>