<?xml version = "1.0"?>
<!DOCTYPE svg PUBLIC "-//W3C//DTD SVG 20010904//EN" "http://www.w3.org/TR/2001/REC-SVG-20010904/DTD/svg10.dtd">
<svg width = "177pt" height = "116pt" viewBox = "0 0 177 116" xmlns = "http://www.w3.org/2000/svg" xmlns:xlink = "http://www.w3.org/1999/xlink">
	<defs>
		<style type = "text/css"><![CDATA[
rect.attrGroup { fill: ivory ; stroke: black; stroke-width: 1 }
rect.element { fill: ivory ; stroke: black; stroke-width: 1 }
rect.elTypeBkgnd { fill: lightgray ; stroke: none }
text.elName { font-family: helvetica ; font-size : 10 }
text.elType { font-family: helvetica ; font-size : 7 }
text.occurLarge { font-family: helvetica ; font-size : 9; fill : blue }
text.occurSmall { font-family: helvetica ; font-size : 7; fill : blue }
rect.typeIconDark { fill : darkslategray }
circle.occurs { stroke : black ; stroke-width: 1; fill : white }
circle.ellipsis { fill : black }
path.typeIconDark { stroke : lightgray ; stroke-width: 1 }
path.connector { stroke : red ; stroke-width: 1 ; fill: none; }
path.modelGroup { stroke : black ; stroke-width: 1 ; fill: lightgray; }
polyline.connector { stroke : red ; stroke-width: 1 ; fill: none; }
.nodeStyle { fill : blue }
]]></style>
	</defs>
	<rect x = "86" y = "5" width = "54" height = "38" class = "attrGroup" rx = "5" ry = "5"/>
	<circle class = "occurs" cx = "97" cy = "24" r = "6"/>
	<text x = "94" y = "27" class = "occurLarge">?</text>
	<rect x = "103" y = "10" width = "32" height = "28" class = "element" rx = "5" ry = "5"/>
	<circle class = "nodeStyle" cx = "109" cy = "16" r = "4"/>
	<text x = "114" y = "21" class = "elName">id</text>
	<rect x = "104" y = "11" width = "30" height = "26" class = "elTypeBkgnd" rx = "5" ry = "5" clip-path = "url(#e:run-as/a:id)"/>
	<defs/>
	<clipPath id = "e:run-as/a:id">
		<rect x = "103" y = "25" width = "32" height = "12"/>
	</clipPath>
	<text x = "104" y = "33" class = "elType">ID</text>
	<image xlink:href = "../dgmDtName.gif" width = "10" height = "10" x = "125" y = "20"/>
	<rect x = "5" y = "65" width = "51" height = "28" class = "element"/>
	<polygon class = "nodeStyle" points = "11,67 7,71 11,75 15,71"/>
	<text x = "16" y = "76" class = "elName">run-as</text>
	<rect x = "6" y = "80" width = "49" height = "12" class = "elTypeBkgnd"/>
	<image xlink:href = "../dgmTypeComplex.gif" width = "10" height = "10" x = "46" y = "75"/>
	<polyline class = "connector" points = "86,62 66,62 66,79 56,79 66,79 66,97 86,97"/>
	<polyline class = "connector" points = "56,77 64,77 64,24 86,24"/>
	<circle class = "occurs" cx = "92" cy = "62" r = "6"/>
	<text x = "89" y = "65" class = "occurLarge">?</text>
	<rect x = "98" y = "48" width = "74" height = "28" class = "element"/>
	<polygon class = "nodeStyle" points = "104,50 100,54 104,58 108,54"/>
	<text x = "109" y = "59" class = "elName">description</text>
	<rect x = "99" y = "63" width = "72" height = "12" class = "elTypeBkgnd"/>
	<image xlink:href = "../dgmDtString.gif" width = "10" height = "10" x = "162" y = "58"/>
	<polyline class = "connector" points = "86,97 98,97"/>
	<rect x = "98" y = "83" width = "71" height = "28" class = "element"/>
	<polygon class = "nodeStyle" points = "104,85 100,89 104,93 108,89"/>
	<text x = "109" y = "94" class = "elName">role-name</text>
	<rect x = "99" y = "98" width = "69" height = "12" class = "elTypeBkgnd"/>
	<image xlink:href = "../dgmDtString.gif" width = "10" height = "10" x = "159" y = "93"/>
</svg>