<?xml version = "1.0"?>
<!DOCTYPE svg PUBLIC "-//W3C//DTD SVG 20010904//EN" "http://www.w3.org/TR/2001/REC-SVG-20010904/DTD/svg10.dtd">
<svg width = "316pt" height = "256pt" viewBox = "0 0 316 256" xmlns = "http://www.w3.org/2000/svg" xmlns:xlink = "http://www.w3.org/1999/xlink">
	<defs>
		<style type = "text/css"><![CDATA[
rect.attrGroup { fill: ivory ; stroke: black; stroke-width: 1 }
rect.element { fill: ivory ; stroke: black; stroke-width: 1 }
rect.elTypeBkgnd { fill: lightgray ; stroke: none }
text.elName { font-family: helvetica ; font-size : 10 }
text.elType { font-family: helvetica ; font-size : 7 }
text.occurLarge { font-family: helvetica ; font-size : 9; fill : blue }
text.occurSmall { font-family: helvetica ; font-size : 7; fill : blue }
rect.typeIconDark { fill : darkslategray }
circle.occurs { stroke : black ; stroke-width: 1; fill : white }
circle.ellipsis { fill : black }
path.typeIconDark { stroke : lightgray ; stroke-width: 1 }
path.connector { stroke : red ; stroke-width: 1 ; fill: none; }
path.modelGroup { stroke : black ; stroke-width: 1 ; fill: lightgray; }
polyline.connector { stroke : red ; stroke-width: 1 ; fill: none; }
.nodeStyle { fill : blue }
]]></style>
	</defs>
	<rect x = "152" y = "5" width = "54" height = "38" class = "attrGroup" rx = "5" ry = "5"/>
	<circle class = "occurs" cx = "163" cy = "24" r = "6"/>
	<text x = "160" y = "27" class = "occurLarge">?</text>
	<rect x = "169" y = "10" width = "32" height = "28" class = "element" rx = "5" ry = "5"/>
	<circle class = "nodeStyle" cx = "175" cy = "16" r = "4"/>
	<text x = "180" y = "21" class = "elName">id</text>
	<rect x = "170" y = "11" width = "30" height = "26" class = "elTypeBkgnd" rx = "5" ry = "5" clip-path = "url(#e:ejb-relationship-role/a:id)"/>
	<defs/>
	<clipPath id = "e:ejb-relationship-role/a:id">
		<rect x = "169" y = "25" width = "32" height = "12"/>
	</clipPath>
	<text x = "170" y = "33" class = "elType">ID</text>
	<image xlink:href = "../dgmDtName.gif" width = "10" height = "10" x = "191" y = "20"/>
	<rect x = "5" y = "135" width = "117" height = "28" class = "element"/>
	<polygon class = "nodeStyle" points = "11,137 7,141 11,145 15,141"/>
	<text x = "16" y = "146" class = "elName">ejb-relationship-role</text>
	<rect x = "6" y = "150" width = "115" height = "12" class = "elTypeBkgnd"/>
	<image xlink:href = "../dgmTypeComplex.gif" width = "10" height = "10" x = "112" y = "145"/>
	<polyline class = "connector" points = "152,62 132,62 132,149 122,149 132,149 132,237 152,237"/>
	<polyline class = "connector" points = "122,147 130,147 130,24 152,24"/>
	<circle class = "occurs" cx = "158" cy = "62" r = "6"/>
	<text x = "155" y = "65" class = "occurLarge">?</text>
	<rect x = "164" y = "48" width = "74" height = "28" class = "element"/>
	<polygon class = "nodeStyle" points = "170,50 166,54 170,58 174,54"/>
	<text x = "175" y = "59" class = "elName">description</text>
	<rect x = "165" y = "63" width = "72" height = "12" class = "elTypeBkgnd"/>
	<image xlink:href = "../dgmDtString.gif" width = "10" height = "10" x = "228" y = "58"/>
	<circle class = "occurs" cx = "158" cy = "97" r = "6"/>
	<text x = "155" y = "100" class = "occurLarge">?</text>
	<rect x = "164" y = "83" width = "147" height = "28" class = "element"/>
	<polygon class = "nodeStyle" points = "170,85 166,89 170,93 174,89"/>
	<text x = "175" y = "94" class = "elName">ejb-relationship-role-name</text>
	<rect x = "165" y = "98" width = "145" height = "12" class = "elTypeBkgnd"/>
	<image xlink:href = "../dgmDtString.gif" width = "10" height = "10" x = "301" y = "93"/>
	<rect x = "164" y = "118" width = "75" height = "28" class = "element"/>
	<polygon class = "nodeStyle" points = "170,120 166,124 170,128 174,124"/>
	<text x = "175" y = "129" class = "elName">multiplicity</text>
	<rect x = "165" y = "133" width = "73" height = "12" class = "elTypeBkgnd"/>
	<image xlink:href = "../dgmDtString.gif" width = "10" height = "10" x = "229" y = "128"/>
	<circle class = "occurs" cx = "158" cy = "167" r = "6"/>
	<text x = "155" y = "170" class = "occurLarge">?</text>
	<rect x = "164" y = "153" width = "94" height = "28" class = "element"/>
	<polygon class = "nodeStyle" points = "170,155 166,159 170,163 174,159"/>
	<text x = "175" y = "164" class = "elName">cascade-delete</text>
	<rect x = "165" y = "168" width = "92" height = "12" class = "elTypeBkgnd"/>
	<image xlink:href = "../dgmTypeEmpty.gif" width = "10" height = "10" x = "248" y = "163"/>
	<rect x = "164" y = "188" width = "132" height = "28" class = "element"/>
	<polygon class = "nodeStyle" points = "170,190 166,194 170,198 174,194"/>
	<text x = "175" y = "199" class = "elName">relationship-role-source</text>
	<rect x = "165" y = "203" width = "130" height = "12" class = "elTypeBkgnd"/>
	<image xlink:href = "../dgmTypeComplex.gif" width = "10" height = "10" x = "286" y = "198"/>
	<circle class = "occurs" cx = "158" cy = "237" r = "6"/>
	<text x = "155" y = "240" class = "occurLarge">?</text>
	<rect x = "164" y = "223" width = "64" height = "28" class = "element"/>
	<polygon class = "nodeStyle" points = "170,225 166,229 170,233 174,229"/>
	<text x = "175" y = "234" class = "elName">cmr-field</text>
	<rect x = "165" y = "238" width = "62" height = "12" class = "elTypeBkgnd"/>
	<image xlink:href = "../dgmTypeComplex.gif" width = "10" height = "10" x = "218" y = "233"/>
</svg>