<?xml version = "1.0"?>
<!DOCTYPE svg PUBLIC "-//W3C//DTD SVG 20010904//EN" "http://www.w3.org/TR/2001/REC-SVG-20010904/DTD/svg10.dtd">
<svg width = "328pt" height = "116pt" viewBox = "0 0 328 116" xmlns = "http://www.w3.org/2000/svg" xmlns:xlink = "http://www.w3.org/1999/xlink">
	<defs>
		<style type = "text/css"><![CDATA[
rect.attrGroup { fill: ivory ; stroke: black; stroke-width: 1 }
rect.element { fill: ivory ; stroke: black; stroke-width: 1 }
rect.elTypeBkgnd { fill: lightgray ; stroke: none }
text.elName { font-family: helvetica ; font-size : 10 }
text.elType { font-family: helvetica ; font-size : 7 }
text.occurLarge { font-family: helvetica ; font-size : 9; fill : blue }
text.occurSmall { font-family: helvetica ; font-size : 7; fill : blue }
rect.typeIconDark { fill : darkslategray }
circle.occurs { stroke : black ; stroke-width: 1; fill : white }
circle.ellipsis { fill : black }
path.typeIconDark { stroke : lightgray ; stroke-width: 1 }
path.connector { stroke : red ; stroke-width: 1 ; fill: none; }
path.modelGroup { stroke : black ; stroke-width: 1 ; fill: lightgray; }
polyline.connector { stroke : red ; stroke-width: 1 ; fill: none; }
.nodeStyle { fill : blue }
]]></style>
	</defs>
	<rect x = "186" y = "5" width = "54" height = "38" class = "attrGroup" rx = "5" ry = "5"/>
	<circle class = "occurs" cx = "197" cy = "24" r = "6"/>
	<text x = "194" y = "27" class = "occurLarge">?</text>
	<rect x = "203" y = "10" width = "32" height = "28" class = "element" rx = "5" ry = "5"/>
	<circle class = "nodeStyle" cx = "209" cy = "16" r = "4"/>
	<text x = "214" y = "21" class = "elName">id</text>
	<rect x = "204" y = "11" width = "30" height = "26" class = "elTypeBkgnd" rx = "5" ry = "5" clip-path = "url(#e:message-driven-destination/a:id)"/>
	<defs/>
	<clipPath id = "e:message-driven-destination/a:id">
		<rect x = "203" y = "25" width = "32" height = "12"/>
	</clipPath>
	<text x = "204" y = "33" class = "elType">ID</text>
	<image xlink:href = "../dgmDtName.gif" width = "10" height = "10" x = "225" y = "20"/>
	<rect x = "5" y = "65" width = "151" height = "28" class = "element"/>
	<polygon class = "nodeStyle" points = "11,67 7,71 11,75 15,71"/>
	<text x = "16" y = "76" class = "elName">message-driven-destination</text>
	<rect x = "6" y = "80" width = "149" height = "12" class = "elTypeBkgnd"/>
	<image xlink:href = "../dgmTypeComplex.gif" width = "10" height = "10" x = "146" y = "75"/>
	<polyline class = "connector" points = "186,62 166,62 166,79 156,79 166,79 166,97 186,97"/>
	<polyline class = "connector" points = "156,77 164,77 164,24 186,24"/>
	<polyline class = "connector" points = "186,62 198,62"/>
	<rect x = "198" y = "48" width = "98" height = "28" class = "element"/>
	<polygon class = "nodeStyle" points = "204,50 200,54 204,58 208,54"/>
	<text x = "209" y = "59" class = "elName">destination-type</text>
	<rect x = "199" y = "63" width = "96" height = "12" class = "elTypeBkgnd"/>
	<image xlink:href = "../dgmDtString.gif" width = "10" height = "10" x = "286" y = "58"/>
	<circle class = "occurs" cx = "192" cy = "97" r = "6"/>
	<text x = "189" y = "100" class = "occurLarge">?</text>
	<rect x = "198" y = "83" width = "125" height = "28" class = "element"/>
	<polygon class = "nodeStyle" points = "204,85 200,89 204,93 208,89"/>
	<text x = "209" y = "94" class = "elName">subscription-durability</text>
	<rect x = "199" y = "98" width = "123" height = "12" class = "elTypeBkgnd"/>
	<image xlink:href = "../dgmDtString.gif" width = "10" height = "10" x = "313" y = "93"/>
</svg>