<?xml version = "1.0"?>
<!DOCTYPE svg PUBLIC "-//W3C//DTD SVG 20010904//EN" "http://www.w3.org/TR/2001/REC-SVG-20010904/DTD/svg10.dtd">
<svg width = "260pt" height = "151pt" viewBox = "0 0 260 151" xmlns = "http://www.w3.org/2000/svg" xmlns:xlink = "http://www.w3.org/1999/xlink">
	<defs>
		<style type = "text/css"><![CDATA[
rect.attrGroup { fill: ivory ; stroke: black; stroke-width: 1 }
rect.element { fill: ivory ; stroke: black; stroke-width: 1 }
rect.elTypeBkgnd { fill: lightgray ; stroke: none }
text.elName { font-family: helvetica ; font-size : 10 }
text.elType { font-family: helvetica ; font-size : 7 }
text.occurLarge { font-family: helvetica ; font-size : 9; fill : blue }
text.occurSmall { font-family: helvetica ; font-size : 7; fill : blue }
rect.typeIconDark { fill : darkslategray }
circle.occurs { stroke : black ; stroke-width: 1; fill : white }
circle.ellipsis { fill : black }
path.typeIconDark { stroke : lightgray ; stroke-width: 1 }
path.connector { stroke : red ; stroke-width: 1 ; fill: none; }
path.modelGroup { stroke : black ; stroke-width: 1 ; fill: lightgray; }
polyline.connector { stroke : red ; stroke-width: 1 ; fill: none; }
.nodeStyle { fill : blue }
]]></style>
	</defs>
	<rect x = "156" y = "5" width = "54" height = "38" class = "attrGroup" rx = "5" ry = "5"/>
	<circle class = "occurs" cx = "167" cy = "24" r = "6"/>
	<text x = "164" y = "27" class = "occurLarge">?</text>
	<rect x = "173" y = "10" width = "32" height = "28" class = "element" rx = "5" ry = "5"/>
	<circle class = "nodeStyle" cx = "179" cy = "16" r = "4"/>
	<text x = "184" y = "21" class = "elName">id</text>
	<rect x = "174" y = "11" width = "30" height = "26" class = "elTypeBkgnd" rx = "5" ry = "5" clip-path = "url(#e:container-transaction/a:id)"/>
	<defs/>
	<clipPath id = "e:container-transaction/a:id">
		<rect x = "173" y = "25" width = "32" height = "12"/>
	</clipPath>
	<text x = "174" y = "33" class = "elType">ID</text>
	<image xlink:href = "../dgmDtName.gif" width = "10" height = "10" x = "195" y = "20"/>
	<rect x = "5" y = "83" width = "121" height = "28" class = "element"/>
	<polygon class = "nodeStyle" points = "11,85 7,89 11,93 15,89"/>
	<text x = "16" y = "94" class = "elName">container-transaction</text>
	<rect x = "6" y = "98" width = "119" height = "12" class = "elTypeBkgnd"/>
	<image xlink:href = "../dgmTypeComplex.gif" width = "10" height = "10" x = "116" y = "93"/>
	<polyline class = "connector" points = "156,62 136,62 136,97 126,97 136,97 136,132 156,132"/>
	<polyline class = "connector" points = "126,95 134,95 134,24 156,24"/>
	<circle class = "occurs" cx = "162" cy = "62" r = "6"/>
	<text x = "159" y = "65" class = "occurLarge">?</text>
	<rect x = "168" y = "48" width = "74" height = "28" class = "element"/>
	<polygon class = "nodeStyle" points = "174,50 170,54 174,58 178,54"/>
	<text x = "179" y = "59" class = "elName">description</text>
	<rect x = "169" y = "63" width = "72" height = "12" class = "elTypeBkgnd"/>
	<image xlink:href = "../dgmDtString.gif" width = "10" height = "10" x = "232" y = "58"/>
	<circle class = "occurs" cx = "162" cy = "97" r = "6"/>
	<text x = "159" y = "100" class = "occurLarge">+</text>
	<rect x = "168" y = "83" width = "59" height = "28" class = "element"/>
	<polygon class = "nodeStyle" points = "174,85 170,89 174,93 178,89"/>
	<text x = "179" y = "94" class = "elName">method</text>
	<rect x = "169" y = "98" width = "57" height = "12" class = "elTypeBkgnd"/>
	<image xlink:href = "../dgmTypeComplex.gif" width = "10" height = "10" x = "217" y = "93"/>
	<polyline class = "connector" points = "156,132 168,132"/>
	<rect x = "168" y = "118" width = "87" height = "28" class = "element"/>
	<polygon class = "nodeStyle" points = "174,120 170,124 174,128 178,124"/>
	<text x = "179" y = "129" class = "elName">trans-attribute</text>
	<rect x = "169" y = "133" width = "85" height = "12" class = "elTypeBkgnd"/>
	<image xlink:href = "../dgmDtString.gif" width = "10" height = "10" x = "245" y = "128"/>
</svg>