<?xml version = "1.0"?>
<!DOCTYPE svg PUBLIC "-//W3C//DTD SVG 20010904//EN" "http://www.w3.org/TR/2001/REC-SVG-20010904/DTD/svg10.dtd">
<svg width = "188pt" height = "256pt" viewBox = "0 0 188 256" xmlns = "http://www.w3.org/2000/svg" xmlns:xlink = "http://www.w3.org/1999/xlink">
	<defs>
		<style type = "text/css"><![CDATA[
rect.attrGroup { fill: ivory ; stroke: black; stroke-width: 1 }
rect.element { fill: ivory ; stroke: black; stroke-width: 1 }
rect.elTypeBkgnd { fill: lightgray ; stroke: none }
text.elName { font-family: helvetica ; font-size : 10 }
text.elType { font-family: helvetica ; font-size : 7 }
text.occurLarge { font-family: helvetica ; font-size : 9; fill : blue }
text.occurSmall { font-family: helvetica ; font-size : 7; fill : blue }
rect.typeIconDark { fill : darkslategray }
circle.occurs { stroke : black ; stroke-width: 1; fill : white }
circle.ellipsis { fill : black }
path.typeIconDark { stroke : lightgray ; stroke-width: 1 }
path.connector { stroke : red ; stroke-width: 1 ; fill: none; }
path.modelGroup { stroke : black ; stroke-width: 1 ; fill: lightgray; }
polyline.connector { stroke : red ; stroke-width: 1 ; fill: none; }
.nodeStyle { fill : blue }
]]></style>
	</defs>
	<rect x = "88" y = "5" width = "54" height = "38" class = "attrGroup" rx = "5" ry = "5"/>
	<circle class = "occurs" cx = "99" cy = "24" r = "6"/>
	<text x = "96" y = "27" class = "occurLarge">?</text>
	<rect x = "105" y = "10" width = "32" height = "28" class = "element" rx = "5" ry = "5"/>
	<circle class = "nodeStyle" cx = "111" cy = "16" r = "4"/>
	<text x = "116" y = "21" class = "elName">id</text>
	<rect x = "106" y = "11" width = "30" height = "26" class = "elTypeBkgnd" rx = "5" ry = "5" clip-path = "url(#e:ejb-ref/a:id)"/>
	<defs/>
	<clipPath id = "e:ejb-ref/a:id">
		<rect x = "105" y = "25" width = "32" height = "12"/>
	</clipPath>
	<text x = "106" y = "33" class = "elType">ID</text>
	<image xlink:href = "../dgmDtName.gif" width = "10" height = "10" x = "127" y = "20"/>
	<rect x = "5" y = "135" width = "53" height = "28" class = "element"/>
	<polygon class = "nodeStyle" points = "11,137 7,141 11,145 15,141"/>
	<text x = "16" y = "146" class = "elName">ejb-ref</text>
	<rect x = "6" y = "150" width = "51" height = "12" class = "elTypeBkgnd"/>
	<image xlink:href = "../dgmTypeComplex.gif" width = "10" height = "10" x = "48" y = "145"/>
	<polyline class = "connector" points = "88,62 68,62 68,149 58,149 68,149 68,237 88,237"/>
	<polyline class = "connector" points = "58,147 66,147 66,24 88,24"/>
	<circle class = "occurs" cx = "94" cy = "62" r = "6"/>
	<text x = "91" y = "65" class = "occurLarge">?</text>
	<rect x = "100" y = "48" width = "74" height = "28" class = "element"/>
	<polygon class = "nodeStyle" points = "106,50 102,54 106,58 110,54"/>
	<text x = "111" y = "59" class = "elName">description</text>
	<rect x = "101" y = "63" width = "72" height = "12" class = "elTypeBkgnd"/>
	<image xlink:href = "../dgmDtString.gif" width = "10" height = "10" x = "164" y = "58"/>
	<rect x = "100" y = "83" width = "83" height = "28" class = "element"/>
	<polygon class = "nodeStyle" points = "106,85 102,89 106,93 110,89"/>
	<text x = "111" y = "94" class = "elName">ejb-ref-name</text>
	<rect x = "101" y = "98" width = "81" height = "12" class = "elTypeBkgnd"/>
	<image xlink:href = "../dgmDtString.gif" width = "10" height = "10" x = "173" y = "93"/>
	<rect x = "100" y = "118" width = "76" height = "28" class = "element"/>
	<polygon class = "nodeStyle" points = "106,120 102,124 106,128 110,124"/>
	<text x = "111" y = "129" class = "elName">ejb-ref-type</text>
	<rect x = "101" y = "133" width = "74" height = "12" class = "elTypeBkgnd"/>
	<image xlink:href = "../dgmDtString.gif" width = "10" height = "10" x = "166" y = "128"/>
	<rect x = "100" y = "153" width = "50" height = "28" class = "element"/>
	<polygon class = "nodeStyle" points = "106,155 102,159 106,163 110,159"/>
	<text x = "111" y = "164" class = "elName">home</text>
	<rect x = "101" y = "168" width = "48" height = "12" class = "elTypeBkgnd"/>
	<image xlink:href = "../dgmDtString.gif" width = "10" height = "10" x = "140" y = "163"/>
	<rect x = "100" y = "188" width = "56" height = "28" class = "element"/>
	<polygon class = "nodeStyle" points = "106,190 102,194 106,198 110,194"/>
	<text x = "111" y = "199" class = "elName">remote</text>
	<rect x = "101" y = "203" width = "54" height = "12" class = "elTypeBkgnd"/>
	<image xlink:href = "../dgmDtString.gif" width = "10" height = "10" x = "146" y = "198"/>
	<circle class = "occurs" cx = "94" cy = "237" r = "6"/>
	<text x = "91" y = "240" class = "occurLarge">?</text>
	<rect x = "100" y = "223" width = "57" height = "28" class = "element"/>
	<polygon class = "nodeStyle" points = "106,225 102,229 106,233 110,229"/>
	<text x = "111" y = "234" class = "elName">ejb-link</text>
	<rect x = "101" y = "238" width = "55" height = "12" class = "elTypeBkgnd"/>
	<image xlink:href = "../dgmDtString.gif" width = "10" height = "10" x = "147" y = "233"/>
</svg>