<?xml version = "1.0"?>
<!DOCTYPE svg PUBLIC "-//W3C//DTD SVG 20010904//EN" "http://www.w3.org/TR/2001/REC-SVG-20010904/DTD/svg10.dtd">
<svg width = "220pt" height = "151pt" viewBox = "0 0 220 151" xmlns = "http://www.w3.org/2000/svg" xmlns:xlink = "http://www.w3.org/1999/xlink">
	<defs>
		<style type = "text/css"><![CDATA[
rect.attrGroup { fill: ivory ; stroke: black; stroke-width: 1 }
rect.element { fill: ivory ; stroke: black; stroke-width: 1 }
rect.elTypeBkgnd { fill: lightgray ; stroke: none }
text.elName { font-family: helvetica ; font-size : 10 }
text.elType { font-family: helvetica ; font-size : 7 }
text.occurLarge { font-family: helvetica ; font-size : 9; fill : blue }
text.occurSmall { font-family: helvetica ; font-size : 7; fill : blue }
rect.typeIconDark { fill : darkslategray }
circle.occurs { stroke : black ; stroke-width: 1; fill : white }
circle.ellipsis { fill : black }
path.typeIconDark { stroke : lightgray ; stroke-width: 1 }
path.connector { stroke : red ; stroke-width: 1 ; fill: none; }
path.modelGroup { stroke : black ; stroke-width: 1 ; fill: lightgray; }
polyline.connector { stroke : red ; stroke-width: 1 ; fill: none; }
.nodeStyle { fill : blue }
]]></style>
	</defs>
	<rect x = "129" y = "5" width = "54" height = "38" class = "attrGroup" rx = "5" ry = "5"/>
	<circle class = "occurs" cx = "140" cy = "24" r = "6"/>
	<text x = "137" y = "27" class = "occurLarge">?</text>
	<rect x = "146" y = "10" width = "32" height = "28" class = "element" rx = "5" ry = "5"/>
	<circle class = "nodeStyle" cx = "152" cy = "16" r = "4"/>
	<text x = "157" y = "21" class = "elName">id</text>
	<rect x = "147" y = "11" width = "30" height = "26" class = "elTypeBkgnd" rx = "5" ry = "5" clip-path = "url(#e:security-role-ref/a:id)"/>
	<defs/>
	<clipPath id = "e:security-role-ref/a:id">
		<rect x = "146" y = "25" width = "32" height = "12"/>
	</clipPath>
	<text x = "147" y = "33" class = "elType">ID</text>
	<image xlink:href = "../dgmDtName.gif" width = "10" height = "10" x = "168" y = "20"/>
	<rect x = "5" y = "83" width = "94" height = "28" class = "element"/>
	<polygon class = "nodeStyle" points = "11,85 7,89 11,93 15,89"/>
	<text x = "16" y = "94" class = "elName">security-role-ref</text>
	<rect x = "6" y = "98" width = "92" height = "12" class = "elTypeBkgnd"/>
	<image xlink:href = "../dgmTypeComplex.gif" width = "10" height = "10" x = "89" y = "93"/>
	<polyline class = "connector" points = "129,62 109,62 109,97 99,97 109,97 109,132 129,132"/>
	<polyline class = "connector" points = "99,95 107,95 107,24 129,24"/>
	<circle class = "occurs" cx = "135" cy = "62" r = "6"/>
	<text x = "132" y = "65" class = "occurLarge">?</text>
	<rect x = "141" y = "48" width = "74" height = "28" class = "element"/>
	<polygon class = "nodeStyle" points = "147,50 143,54 147,58 151,54"/>
	<text x = "152" y = "59" class = "elName">description</text>
	<rect x = "142" y = "63" width = "72" height = "12" class = "elTypeBkgnd"/>
	<image xlink:href = "../dgmDtString.gif" width = "10" height = "10" x = "205" y = "58"/>
	<rect x = "141" y = "83" width = "71" height = "28" class = "element"/>
	<polygon class = "nodeStyle" points = "147,85 143,89 147,93 151,89"/>
	<text x = "152" y = "94" class = "elName">role-name</text>
	<rect x = "142" y = "98" width = "69" height = "12" class = "elTypeBkgnd"/>
	<image xlink:href = "../dgmDtString.gif" width = "10" height = "10" x = "202" y = "93"/>
	<circle class = "occurs" cx = "135" cy = "132" r = "6"/>
	<text x = "132" y = "135" class = "occurLarge">?</text>
	<rect x = "141" y = "118" width = "60" height = "28" class = "element"/>
	<polygon class = "nodeStyle" points = "147,120 143,124 147,128 151,124"/>
	<text x = "152" y = "129" class = "elName">role-link</text>
	<rect x = "142" y = "133" width = "58" height = "12" class = "elTypeBkgnd"/>
	<image xlink:href = "../dgmDtString.gif" width = "10" height = "10" x = "191" y = "128"/>
</svg>