<?xml version = "1.0"?>
<!DOCTYPE svg PUBLIC "-//W3C//DTD SVG 20010904//EN" "http://www.w3.org/TR/2001/REC-SVG-20010904/DTD/svg10.dtd">
<svg width = "217pt" height = "186pt" viewBox = "0 0 217 186" xmlns = "http://www.w3.org/2000/svg" xmlns:xlink = "http://www.w3.org/1999/xlink">
	<defs>
		<style type = "text/css"><![CDATA[
rect.attrGroup { fill: ivory ; stroke: black; stroke-width: 1 }
rect.element { fill: ivory ; stroke: black; stroke-width: 1 }
rect.elTypeBkgnd { fill: lightgray ; stroke: none }
text.elName { font-family: helvetica ; font-size : 10 }
text.elType { font-family: helvetica ; font-size : 7 }
text.occurLarge { font-family: helvetica ; font-size : 9; fill : blue }
text.occurSmall { font-family: helvetica ; font-size : 7; fill : blue }
rect.typeIconDark { fill : darkslategray }
circle.occurs { stroke : black ; stroke-width: 1; fill : white }
circle.ellipsis { fill : black }
path.typeIconDark { stroke : lightgray ; stroke-width: 1 }
path.connector { stroke : red ; stroke-width: 1 ; fill: none; }
path.modelGroup { stroke : black ; stroke-width: 1 ; fill: lightgray; }
polyline.connector { stroke : red ; stroke-width: 1 ; fill: none; }
.nodeStyle { fill : blue }
]]></style>
	</defs>
	<rect x = "84" y = "5" width = "54" height = "38" class = "attrGroup" rx = "5" ry = "5"/>
	<circle class = "occurs" cx = "95" cy = "24" r = "6"/>
	<text x = "92" y = "27" class = "occurLarge">?</text>
	<rect x = "101" y = "10" width = "32" height = "28" class = "element" rx = "5" ry = "5"/>
	<circle class = "nodeStyle" cx = "107" cy = "16" r = "4"/>
	<text x = "112" y = "21" class = "elName">id</text>
	<rect x = "102" y = "11" width = "30" height = "26" class = "elTypeBkgnd" rx = "5" ry = "5" clip-path = "url(#e:query/a:id)"/>
	<defs/>
	<clipPath id = "e:query/a:id">
		<rect x = "101" y = "25" width = "32" height = "12"/>
	</clipPath>
	<text x = "102" y = "33" class = "elType">ID</text>
	<image xlink:href = "../dgmDtName.gif" width = "10" height = "10" x = "123" y = "20"/>
	<rect x = "5" y = "100" width = "49" height = "28" class = "element"/>
	<polygon class = "nodeStyle" points = "11,102 7,106 11,110 15,106"/>
	<text x = "16" y = "111" class = "elName">query</text>
	<rect x = "6" y = "115" width = "47" height = "12" class = "elTypeBkgnd"/>
	<image xlink:href = "../dgmTypeComplex.gif" width = "10" height = "10" x = "44" y = "110"/>
	<polyline class = "connector" points = "84,62 64,62 64,114 54,114 64,114 64,167 84,167"/>
	<polyline class = "connector" points = "54,112 62,112 62,24 84,24"/>
	<circle class = "occurs" cx = "90" cy = "62" r = "6"/>
	<text x = "87" y = "65" class = "occurLarge">?</text>
	<rect x = "96" y = "48" width = "74" height = "28" class = "element"/>
	<polygon class = "nodeStyle" points = "102,50 98,54 102,58 106,54"/>
	<text x = "107" y = "59" class = "elName">description</text>
	<rect x = "97" y = "63" width = "72" height = "12" class = "elTypeBkgnd"/>
	<image xlink:href = "../dgmDtString.gif" width = "10" height = "10" x = "160" y = "58"/>
	<rect x = "96" y = "83" width = "88" height = "28" class = "element"/>
	<polygon class = "nodeStyle" points = "102,85 98,89 102,93 106,89"/>
	<text x = "107" y = "94" class = "elName">query-method</text>
	<rect x = "97" y = "98" width = "86" height = "12" class = "elTypeBkgnd"/>
	<image xlink:href = "../dgmTypeComplex.gif" width = "10" height = "10" x = "174" y = "93"/>
	<circle class = "occurs" cx = "90" cy = "132" r = "6"/>
	<text x = "87" y = "135" class = "occurLarge">?</text>
	<rect x = "96" y = "118" width = "116" height = "28" class = "element"/>
	<polygon class = "nodeStyle" points = "102,120 98,124 102,128 106,124"/>
	<text x = "107" y = "129" class = "elName">result-type-mapping</text>
	<rect x = "97" y = "133" width = "114" height = "12" class = "elTypeBkgnd"/>
	<image xlink:href = "../dgmDtString.gif" width = "10" height = "10" x = "202" y = "128"/>
	<polyline class = "connector" points = "84,167 96,167"/>
	<rect x = "96" y = "153" width = "50" height = "28" class = "element"/>
	<polygon class = "nodeStyle" points = "102,155 98,159 102,163 106,159"/>
	<text x = "107" y = "164" class = "elName">ejb-ql</text>
	<rect x = "97" y = "168" width = "48" height = "12" class = "elTypeBkgnd"/>
	<image xlink:href = "../dgmDtString.gif" width = "10" height = "10" x = "136" y = "163"/>
</svg>