<?xml version = "1.0"?>
<!DOCTYPE svg PUBLIC "-//W3C//DTD SVG 20010904//EN" "http://www.w3.org/TR/2001/REC-SVG-20010904/DTD/svg10.dtd">
<svg width = "207pt" height = "221pt" viewBox = "0 0 207 221" xmlns = "http://www.w3.org/2000/svg" xmlns:xlink = "http://www.w3.org/1999/xlink">
	<defs>
		<style type = "text/css"><![CDATA[
rect.attrGroup { fill: ivory ; stroke: black; stroke-width: 1 }
rect.element { fill: ivory ; stroke: black; stroke-width: 1 }
rect.elTypeBkgnd { fill: lightgray ; stroke: none }
text.elName { font-family: helvetica ; font-size : 10 }
text.elType { font-family: helvetica ; font-size : 7 }
text.occurLarge { font-family: helvetica ; font-size : 9; fill : blue }
text.occurSmall { font-family: helvetica ; font-size : 7; fill : blue }
rect.typeIconDark { fill : darkslategray }
circle.occurs { stroke : black ; stroke-width: 1; fill : white }
circle.ellipsis { fill : black }
path.typeIconDark { stroke : lightgray ; stroke-width: 1 }
path.connector { stroke : red ; stroke-width: 1 ; fill: none; }
path.modelGroup { stroke : black ; stroke-width: 1 ; fill: lightgray; }
polyline.connector { stroke : red ; stroke-width: 1 ; fill: none; }
.nodeStyle { fill : blue }
]]></style>
	</defs>
	<rect x = "94" y = "5" width = "54" height = "38" class = "attrGroup" rx = "5" ry = "5"/>
	<circle class = "occurs" cx = "105" cy = "24" r = "6"/>
	<text x = "102" y = "27" class = "occurLarge">?</text>
	<rect x = "111" y = "10" width = "32" height = "28" class = "element" rx = "5" ry = "5"/>
	<circle class = "nodeStyle" cx = "117" cy = "16" r = "4"/>
	<text x = "122" y = "21" class = "elName">id</text>
	<rect x = "112" y = "11" width = "30" height = "26" class = "elTypeBkgnd" rx = "5" ry = "5" clip-path = "url(#e:method/a:id)"/>
	<defs/>
	<clipPath id = "e:method/a:id">
		<rect x = "111" y = "25" width = "32" height = "12"/>
	</clipPath>
	<text x = "112" y = "33" class = "elType">ID</text>
	<image xlink:href = "../dgmDtName.gif" width = "10" height = "10" x = "133" y = "20"/>
	<rect x = "5" y = "118" width = "59" height = "28" class = "element"/>
	<polygon class = "nodeStyle" points = "11,120 7,124 11,128 15,124"/>
	<text x = "16" y = "129" class = "elName">method</text>
	<rect x = "6" y = "133" width = "57" height = "12" class = "elTypeBkgnd"/>
	<image xlink:href = "../dgmTypeComplex.gif" width = "10" height = "10" x = "54" y = "128"/>
	<polyline class = "connector" points = "94,62 74,62 74,132 64,132 74,132 74,202 94,202"/>
	<polyline class = "connector" points = "64,130 72,130 72,24 94,24"/>
	<circle class = "occurs" cx = "100" cy = "62" r = "6"/>
	<text x = "97" y = "65" class = "occurLarge">?</text>
	<rect x = "106" y = "48" width = "74" height = "28" class = "element"/>
	<polygon class = "nodeStyle" points = "112,50 108,54 112,58 116,54"/>
	<text x = "117" y = "59" class = "elName">description</text>
	<rect x = "107" y = "63" width = "72" height = "12" class = "elTypeBkgnd"/>
	<image xlink:href = "../dgmDtString.gif" width = "10" height = "10" x = "170" y = "58"/>
	<rect x = "106" y = "83" width = "68" height = "28" class = "element"/>
	<polygon class = "nodeStyle" points = "112,85 108,89 112,93 116,89"/>
	<text x = "117" y = "94" class = "elName">ejb-name</text>
	<rect x = "107" y = "98" width = "66" height = "12" class = "elTypeBkgnd"/>
	<image xlink:href = "../dgmDtString.gif" width = "10" height = "10" x = "164" y = "93"/>
	<circle class = "occurs" cx = "100" cy = "132" r = "6"/>
	<text x = "97" y = "135" class = "occurLarge">?</text>
	<rect x = "106" y = "118" width = "77" height = "28" class = "element"/>
	<polygon class = "nodeStyle" points = "112,120 108,124 112,128 116,124"/>
	<text x = "117" y = "129" class = "elName">method-intf</text>
	<rect x = "107" y = "133" width = "75" height = "12" class = "elTypeBkgnd"/>
	<image xlink:href = "../dgmDtString.gif" width = "10" height = "10" x = "173" y = "128"/>
	<rect x = "106" y = "153" width = "89" height = "28" class = "element"/>
	<polygon class = "nodeStyle" points = "112,155 108,159 112,163 116,159"/>
	<text x = "117" y = "164" class = "elName">method-name</text>
	<rect x = "107" y = "168" width = "87" height = "12" class = "elTypeBkgnd"/>
	<image xlink:href = "../dgmDtString.gif" width = "10" height = "10" x = "185" y = "163"/>
	<circle class = "occurs" cx = "100" cy = "202" r = "6"/>
	<text x = "97" y = "205" class = "occurLarge">?</text>
	<rect x = "106" y = "188" width = "96" height = "28" class = "element"/>
	<polygon class = "nodeStyle" points = "112,190 108,194 112,198 116,194"/>
	<text x = "117" y = "199" class = "elName">method-params</text>
	<rect x = "107" y = "203" width = "94" height = "12" class = "elTypeBkgnd"/>
	<image xlink:href = "../dgmTypeComplex.gif" width = "10" height = "10" x = "192" y = "198"/>
</svg>