<?xml version = "1.0"?>
<!DOCTYPE svg PUBLIC "-//W3C//DTD SVG 20010904//EN" "http://www.w3.org/TR/2001/REC-SVG-20010904/DTD/svg10.dtd">
<svg width = "246pt" height = "186pt" viewBox = "0 0 246 186" xmlns = "http://www.w3.org/2000/svg" xmlns:xlink = "http://www.w3.org/1999/xlink">
	<defs>
		<style type = "text/css"><![CDATA[
rect.attrGroup { fill: ivory ; stroke: black; stroke-width: 1 }
rect.element { fill: ivory ; stroke: black; stroke-width: 1 }
rect.elTypeBkgnd { fill: lightgray ; stroke: none }
text.elName { font-family: helvetica ; font-size : 10 }
text.elType { font-family: helvetica ; font-size : 7 }
text.occurLarge { font-family: helvetica ; font-size : 9; fill : blue }
text.occurSmall { font-family: helvetica ; font-size : 7; fill : blue }
rect.typeIconDark { fill : darkslategray }
circle.occurs { stroke : black ; stroke-width: 1; fill : white }
circle.ellipsis { fill : black }
path.typeIconDark { stroke : lightgray ; stroke-width: 1 }
path.connector { stroke : red ; stroke-width: 1 ; fill: none; }
path.modelGroup { stroke : black ; stroke-width: 1 ; fill: lightgray; }
polyline.connector { stroke : red ; stroke-width: 1 ; fill: none; }
.nodeStyle { fill : blue }
]]></style>
	</defs>
	<rect x = "112" y = "5" width = "54" height = "38" class = "attrGroup" rx = "5" ry = "5"/>
	<circle class = "occurs" cx = "123" cy = "24" r = "6"/>
	<text x = "120" y = "27" class = "occurLarge">?</text>
	<rect x = "129" y = "10" width = "32" height = "28" class = "element" rx = "5" ry = "5"/>
	<circle class = "nodeStyle" cx = "135" cy = "16" r = "4"/>
	<text x = "140" y = "21" class = "elName">id</text>
	<rect x = "130" y = "11" width = "30" height = "26" class = "elTypeBkgnd" rx = "5" ry = "5" clip-path = "url(#e:ejb-relation/a:id)"/>
	<defs/>
	<clipPath id = "e:ejb-relation/a:id">
		<rect x = "129" y = "25" width = "32" height = "12"/>
	</clipPath>
	<text x = "130" y = "33" class = "elType">ID</text>
	<image xlink:href = "../dgmDtName.gif" width = "10" height = "10" x = "151" y = "20"/>
	<rect x = "5" y = "100" width = "77" height = "28" class = "element"/>
	<polygon class = "nodeStyle" points = "11,102 7,106 11,110 15,106"/>
	<text x = "16" y = "111" class = "elName">ejb-relation</text>
	<rect x = "6" y = "115" width = "75" height = "12" class = "elTypeBkgnd"/>
	<image xlink:href = "../dgmTypeComplex.gif" width = "10" height = "10" x = "72" y = "110"/>
	<polyline class = "connector" points = "112,62 92,62 92,114 82,114 92,114 92,167 112,167"/>
	<polyline class = "connector" points = "82,112 90,112 90,24 112,24"/>
	<circle class = "occurs" cx = "118" cy = "62" r = "6"/>
	<text x = "115" y = "65" class = "occurLarge">?</text>
	<rect x = "124" y = "48" width = "74" height = "28" class = "element"/>
	<polygon class = "nodeStyle" points = "130,50 126,54 130,58 134,54"/>
	<text x = "135" y = "59" class = "elName">description</text>
	<rect x = "125" y = "63" width = "72" height = "12" class = "elTypeBkgnd"/>
	<image xlink:href = "../dgmDtString.gif" width = "10" height = "10" x = "188" y = "58"/>
	<circle class = "occurs" cx = "118" cy = "97" r = "6"/>
	<text x = "115" y = "100" class = "occurLarge">?</text>
	<rect x = "124" y = "83" width = "107" height = "28" class = "element"/>
	<polygon class = "nodeStyle" points = "130,85 126,89 130,93 134,89"/>
	<text x = "135" y = "94" class = "elName">ejb-relation-name</text>
	<rect x = "125" y = "98" width = "105" height = "12" class = "elTypeBkgnd"/>
	<image xlink:href = "../dgmDtString.gif" width = "10" height = "10" x = "221" y = "93"/>
	<rect x = "124" y = "118" width = "117" height = "28" class = "element"/>
	<polygon class = "nodeStyle" points = "130,120 126,124 130,128 134,124"/>
	<text x = "135" y = "129" class = "elName">ejb-relationship-role</text>
	<rect x = "125" y = "133" width = "115" height = "12" class = "elTypeBkgnd"/>
	<image xlink:href = "../dgmTypeComplex.gif" width = "10" height = "10" x = "231" y = "128"/>
	<polyline class = "connector" points = "112,167 124,167"/>
	<rect x = "124" y = "153" width = "117" height = "28" class = "element"/>
	<polygon class = "nodeStyle" points = "130,155 126,159 130,163 134,159"/>
	<text x = "135" y = "164" class = "elName">ejb-relationship-role</text>
	<rect x = "125" y = "168" width = "115" height = "12" class = "elTypeBkgnd"/>
	<image xlink:href = "../dgmTypeComplex.gif" width = "10" height = "10" x = "231" y = "163"/>
</svg>