<?xml version = "1.0"?>
<!DOCTYPE svg PUBLIC "-//W3C//DTD SVG 20010904//EN" "http://www.w3.org/TR/2001/REC-SVG-20010904/DTD/svg10.dtd">
<svg width = "402pt" height = "388pt" viewBox = "0 0 402 388" xmlns = "http://www.w3.org/2000/svg" xmlns:xlink = "http://www.w3.org/1999/xlink">
	<defs>
		<style type = "text/css"><![CDATA[
rect.attrGroup { fill: ivory ; stroke: black; stroke-width: 1 }
rect.element { fill: ivory ; stroke: black; stroke-width: 1 }
rect.elTypeBkgnd { fill: lightgray ; stroke: none }
text.elName { font-family: helvetica ; font-size : 10 }
text.elType { font-family: helvetica ; font-size : 7 }
text.occurLarge { font-family: helvetica ; font-size : 9; fill : blue }
text.occurSmall { font-family: helvetica ; font-size : 7; fill : blue }
rect.typeIconDark { fill : darkslategray }
circle.occurs { stroke : black ; stroke-width: 1; fill : white }
circle.ellipsis { fill : black }
path.typeIconDark { stroke : lightgray ; stroke-width: 1 }
path.connector { stroke : red ; stroke-width: 1 ; fill: none; }
path.modelGroup { stroke : black ; stroke-width: 1 ; fill: lightgray; }
polyline.connector { stroke : red ; stroke-width: 1 ; fill: none; }
.nodeStyle { fill : blue }
]]></style>
	</defs>
	<rect x = "5" y = "180" width = "104" height = "28" class = "element"/>
	<polygon class = "nodeStyle" points = "11,182 7,186 11,190 15,186"/>
	<text x = "16" y = "191" class = "elName">optimistic-locking</text>
	<rect x = "6" y = "195" width = "102" height = "12" class = "elTypeBkgnd"/>
	<image xlink:href = "../dgmTypeComplex.gif" width = "10" height = "10" x = "99" y = "190"/>
	<polyline class = "connector" points = "139,19 119,194 109,194 119,194 139,246"/>
	<polyline class = "connector" points = "139,19 151,19"/>
	<rect x = "151" y = "5" width = "80" height = "28" class = "element"/>
	<polygon class = "nodeStyle" points = "157,7 153,11 157,15 161,11"/>
	<text x = "162" y = "16" class = "elName">group-name</text>
	<rect x = "152" y = "20" width = "78" height = "12" class = "elTypeBkgnd"/>
	<image xlink:href = "../dgmDtString.gif" width = "10" height = "10" x = "221" y = "15"/>
	<rect x = "151" y = "40" width = "104" height = "28" class = "element"/>
	<polygon class = "nodeStyle" points = "157,42 153,46 157,50 161,46"/>
	<text x = "162" y = "51" class = "elName">modified-strategy</text>
	<rect x = "152" y = "55" width = "102" height = "12" class = "elTypeBkgnd"/>
	<image xlink:href = "../dgmTypeEmpty.gif" width = "10" height = "10" x = "245" y = "50"/>
	<rect x = "151" y = "75" width = "83" height = "28" class = "element"/>
	<polygon class = "nodeStyle" points = "157,77 153,81 157,85 161,81"/>
	<text x = "162" y = "86" class = "elName">read-strategy</text>
	<rect x = "152" y = "90" width = "81" height = "12" class = "elTypeBkgnd"/>
	<image xlink:href = "../dgmTypeEmpty.gif" width = "10" height = "10" x = "224" y = "85"/>
	<circle class = "occurs" cx = "145" cy = "246" r = "6"/>
	<text x = "142" y = "249" class = "occurLarge">1</text>
	<polyline class = "connector" points = "181,176 161,176 161,246 151,246 161,246 161,351 181,351"/>
	<circle class = "occurs" cx = "187" cy = "176" r = "6"/>
	<text x = "184" y = "179" class = "occurLarge">1</text>
	<polyline class = "connector" points = "223,124 203,176 193,176 203,176 223,211"/>
	<polyline class = "connector" points = "223,124 235,124"/>
	<rect x = "235" y = "110" width = "94" height = "28" class = "element"/>
	<polygon class = "nodeStyle" points = "241,112 237,116 241,120 245,116"/>
	<text x = "246" y = "121" class = "elName">version-column</text>
	<rect x = "236" y = "125" width = "92" height = "12" class = "elTypeBkgnd"/>
	<image xlink:href = "../dgmTypeEmpty.gif" width = "10" height = "10" x = "319" y = "120"/>
	<rect x = "235" y = "145" width = "110" height = "28" class = "element"/>
	<polygon class = "nodeStyle" points = "241,147 237,151 241,155 245,151"/>
	<text x = "246" y = "156" class = "elName">timestamp-column</text>
	<rect x = "236" y = "160" width = "108" height = "12" class = "elTypeBkgnd"/>
	<image xlink:href = "../dgmTypeEmpty.gif" width = "10" height = "10" x = "335" y = "155"/>
	<circle class = "occurs" cx = "229" cy = "211" r = "6"/>
	<text x = "226" y = "214" class = "occurLarge">1</text>
	<polyline class = "connector" points = "265,194 245,194 245,211 235,211 245,211 245,229 265,229"/>
	<polyline class = "connector" points = "265,194 277,194"/>
	<rect x = "277" y = "180" width = "120" height = "28" class = "element"/>
	<polygon class = "nodeStyle" points = "283,182 279,186 283,190 287,186"/>
	<text x = "288" y = "191" class = "elName">key-generator-factory</text>
	<rect x = "278" y = "195" width = "118" height = "12" class = "elTypeBkgnd"/>
	<image xlink:href = "../dgmDtString.gif" width = "10" height = "10" x = "387" y = "190"/>
	<polyline class = "connector" points = "265,229 277,229"/>
	<rect x = "277" y = "215" width = "67" height = "28" class = "element"/>
	<polygon class = "nodeStyle" points = "283,217 279,221 283,225 287,221"/>
	<text x = "288" y = "226" class = "elName">field-type</text>
	<rect x = "278" y = "230" width = "65" height = "12" class = "elTypeBkgnd"/>
	<image xlink:href = "../dgmDtString.gif" width = "10" height = "10" x = "334" y = "225"/>
	<circle class = "occurs" cx = "187" cy = "264" r = "6"/>
	<text x = "184" y = "267" class = "occurLarge">?</text>
	<rect x = "193" y = "250" width = "74" height = "28" class = "element"/>
	<polygon class = "nodeStyle" points = "199,252 195,256 199,260 203,256"/>
	<text x = "204" y = "261" class = "elName">field-name</text>
	<rect x = "194" y = "265" width = "72" height = "12" class = "elTypeBkgnd"/>
	<image xlink:href = "../dgmDtString.gif" width = "10" height = "10" x = "257" y = "260"/>
	<circle class = "occurs" cx = "187" cy = "299" r = "6"/>
	<text x = "184" y = "302" class = "occurLarge">?</text>
	<rect x = "193" y = "285" width = "88" height = "28" class = "element"/>
	<polygon class = "nodeStyle" points = "199,287 195,291 199,295 203,291"/>
	<text x = "204" y = "296" class = "elName">column-name</text>
	<rect x = "194" y = "300" width = "86" height = "12" class = "elTypeBkgnd"/>
	<image xlink:href = "../dgmDtString.gif" width = "10" height = "10" x = "271" y = "295"/>
	<circle class = "occurs" cx = "187" cy = "351" r = "6"/>
	<text x = "184" y = "354" class = "occurLarge">?</text>
	<polyline class = "connector" points = "223,334 203,334 203,351 193,351 203,351 203,369 223,369"/>
	<polyline class = "connector" points = "223,334 235,334"/>
	<rect x = "235" y = "320" width = "66" height = "28" class = "element"/>
	<polygon class = "nodeStyle" points = "241,322 237,326 241,330 245,326"/>
	<text x = "246" y = "331" class = "elName">jdbc-type</text>
	<rect x = "236" y = "335" width = "64" height = "12" class = "elTypeBkgnd"/>
	<image xlink:href = "../dgmDtString.gif" width = "10" height = "10" x = "291" y = "330"/>
	<polyline class = "connector" points = "223,369 235,369"/>
	<rect x = "235" y = "355" width = "59" height = "28" class = "element"/>
	<polygon class = "nodeStyle" points = "241,357 237,361 241,365 245,361"/>
	<text x = "246" y = "366" class = "elName">sql-type</text>
	<rect x = "236" y = "370" width = "57" height = "12" class = "elTypeBkgnd"/>
	<image xlink:href = "../dgmDtString.gif" width = "10" height = "10" x = "284" y = "365"/>
</svg>