<?xml version = "1.0"?>
<!DOCTYPE svg PUBLIC "-//W3C//DTD SVG 20010904//EN" "http://www.w3.org/TR/2001/REC-SVG-20010904/DTD/svg10.dtd">
<svg width = "316pt" height = "178pt" viewBox = "0 0 316 178" xmlns = "http://www.w3.org/2000/svg" xmlns:xlink = "http://www.w3.org/1999/xlink">
	<defs>
		<style type = "text/css"><![CDATA[
rect.attrGroup { fill: ivory ; stroke: black; stroke-width: 1 }
rect.element { fill: ivory ; stroke: black; stroke-width: 1 }
rect.elTypeBkgnd { fill: lightgray ; stroke: none }
text.elName { font-family: helvetica ; font-size : 10 }
text.elType { font-family: helvetica ; font-size : 7 }
text.occurLarge { font-family: helvetica ; font-size : 9; fill : blue }
text.occurSmall { font-family: helvetica ; font-size : 7; fill : blue }
rect.typeIconDark { fill : darkslategray }
circle.occurs { stroke : black ; stroke-width: 1; fill : white }
circle.ellipsis { fill : black }
path.typeIconDark { stroke : lightgray ; stroke-width: 1 }
path.connector { stroke : red ; stroke-width: 1 ; fill: none; }
path.modelGroup { stroke : black ; stroke-width: 1 ; fill: lightgray; }
polyline.connector { stroke : red ; stroke-width: 1 ; fill: none; }
.nodeStyle { fill : blue }
]]></style>
	</defs>
	<rect x = "5" y = "75" width = "117" height = "28" class = "element"/>
	<polygon class = "nodeStyle" points = "11,77 7,81 11,85 15,81"/>
	<text x = "16" y = "86" class = "elName">ejb-relationship-role</text>
	<rect x = "6" y = "90" width = "115" height = "12" class = "elTypeBkgnd"/>
	<image xlink:href = "../dgmTypeComplex.gif" width = "10" height = "10" x = "112" y = "85"/>
	<polyline class = "connector" points = "152,19 132,19 132,89 122,89 132,89 132,159 152,159"/>
	<polyline class = "connector" points = "152,19 164,19"/>
	<rect x = "164" y = "5" width = "147" height = "28" class = "element"/>
	<polygon class = "nodeStyle" points = "170,7 166,11 170,15 174,11"/>
	<text x = "175" y = "16" class = "elName">ejb-relationship-role-name</text>
	<rect x = "165" y = "20" width = "145" height = "12" class = "elTypeBkgnd"/>
	<image xlink:href = "../dgmDtString.gif" width = "10" height = "10" x = "301" y = "15"/>
	<circle class = "occurs" cx = "158" cy = "54" r = "6"/>
	<text x = "155" y = "57" class = "occurLarge">?</text>
	<rect x = "164" y = "40" width = "78" height = "28" class = "element"/>
	<polygon class = "nodeStyle" points = "170,42 166,46 170,50 174,46"/>
	<text x = "175" y = "51" class = "elName">fk-constraint</text>
	<rect x = "165" y = "55" width = "76" height = "12" class = "elTypeBkgnd"/>
	<image xlink:href = "../dgmDtString.gif" width = "10" height = "10" x = "232" y = "50"/>
	<circle class = "occurs" cx = "158" cy = "89" r = "6"/>
	<text x = "155" y = "92" class = "occurLarge">?</text>
	<rect x = "164" y = "75" width = "66" height = "28" class = "element"/>
	<polygon class = "nodeStyle" points = "170,77 166,81 170,85 174,81"/>
	<text x = "175" y = "86" class = "elName">key-fields</text>
	<rect x = "165" y = "90" width = "64" height = "12" class = "elTypeBkgnd"/>
	<image xlink:href = "../dgmTypeComplex.gif" width = "10" height = "10" x = "220" y = "85"/>
	<circle class = "occurs" cx = "158" cy = "124" r = "6"/>
	<text x = "155" y = "127" class = "occurLarge">?</text>
	<rect x = "164" y = "110" width = "77" height = "28" class = "element"/>
	<polygon class = "nodeStyle" points = "170,112 166,116 170,120 174,116"/>
	<text x = "175" y = "121" class = "elName">read-ahead</text>
	<rect x = "165" y = "125" width = "75" height = "12" class = "elTypeBkgnd"/>
	<image xlink:href = "../dgmTypeComplex.gif" width = "10" height = "10" x = "231" y = "120"/>
	<circle class = "occurs" cx = "158" cy = "159" r = "6"/>
	<text x = "155" y = "162" class = "occurLarge">?</text>
	<rect x = "164" y = "145" width = "123" height = "28" class = "element"/>
	<polygon class = "nodeStyle" points = "170,147 166,151 170,155 174,151"/>
	<text x = "175" y = "156" class = "elName">batch-cascade-delete</text>
	<rect x = "165" y = "160" width = "121" height = "12" class = "elTypeBkgnd"/>
	<image xlink:href = "../dgmTypeEmpty.gif" width = "10" height = "10" x = "277" y = "155"/>
</svg>