<?xml version = "1.0"?>
<!DOCTYPE svg PUBLIC "-//W3C//DTD SVG 20010904//EN" "http://www.w3.org/TR/2001/REC-SVG-20010904/DTD/svg10.dtd">
<svg width = "306pt" height = "213pt" viewBox = "0 0 306 213" xmlns = "http://www.w3.org/2000/svg" xmlns:xlink = "http://www.w3.org/1999/xlink">
	<defs>
		<style type = "text/css"><![CDATA[
rect.attrGroup { fill: ivory ; stroke: black; stroke-width: 1 }
rect.element { fill: ivory ; stroke: black; stroke-width: 1 }
rect.elTypeBkgnd { fill: lightgray ; stroke: none }
text.elName { font-family: helvetica ; font-size : 10 }
text.elType { font-family: helvetica ; font-size : 7 }
text.occurLarge { font-family: helvetica ; font-size : 9; fill : blue }
text.occurSmall { font-family: helvetica ; font-size : 7; fill : blue }
rect.typeIconDark { fill : darkslategray }
circle.occurs { stroke : black ; stroke-width: 1; fill : white }
circle.ellipsis { fill : black }
path.typeIconDark { stroke : lightgray ; stroke-width: 1 }
path.connector { stroke : red ; stroke-width: 1 ; fill: none; }
path.modelGroup { stroke : black ; stroke-width: 1 ; fill: lightgray; }
polyline.connector { stroke : red ; stroke-width: 1 ; fill: none; }
.nodeStyle { fill : blue }
]]></style>
	</defs>
	<rect x = "5" y = "92" width = "62" height = "28" class = "element"/>
	<polygon class = "nodeStyle" points = "11,94 7,98 11,102 15,98"/>
	<text x = "16" y = "103" class = "elName">key-field</text>
	<rect x = "6" y = "107" width = "60" height = "12" class = "elTypeBkgnd"/>
	<image xlink:href = "../dgmTypeComplex.gif" width = "10" height = "10" x = "57" y = "102"/>
	<polyline class = "connector" points = "97,19 77,19 77,106 67,106 77,106 77,194 97,194"/>
	<polyline class = "connector" points = "97,19 109,19"/>
	<rect x = "109" y = "5" width = "74" height = "28" class = "element"/>
	<polygon class = "nodeStyle" points = "115,7 111,11 115,15 119,11"/>
	<text x = "120" y = "16" class = "elName">field-name</text>
	<rect x = "110" y = "20" width = "72" height = "12" class = "elTypeBkgnd"/>
	<image xlink:href = "../dgmDtString.gif" width = "10" height = "10" x = "173" y = "15"/>
	<circle class = "occurs" cx = "103" cy = "106" r = "6"/>
	<text x = "100" y = "109" class = "occurLarge">1</text>
	<polyline class = "connector" points = "139,89 119,106 109,106 119,106 139,159"/>
	<circle class = "occurs" cx = "145" cy = "89" r = "6"/>
	<text x = "142" y = "92" class = "occurLarge">1</text>
	<polyline class = "connector" points = "181,54 161,54 161,89 151,89 161,89 161,106 181,106"/>
	<polyline class = "connector" points = "181,54 193,54"/>
	<rect x = "193" y = "40" width = "88" height = "28" class = "element"/>
	<polygon class = "nodeStyle" points = "199,42 195,46 199,50 203,46"/>
	<text x = "204" y = "51" class = "elName">column-name</text>
	<rect x = "194" y = "55" width = "86" height = "12" class = "elTypeBkgnd"/>
	<image xlink:href = "../dgmDtString.gif" width = "10" height = "10" x = "271" y = "50"/>
	<circle class = "occurs" cx = "187" cy = "106" r = "6"/>
	<text x = "184" y = "109" class = "occurLarge">?</text>
	<polyline class = "connector" points = "223,89 203,89 203,106 193,106 203,106 203,124 223,124"/>
	<polyline class = "connector" points = "223,89 235,89"/>
	<rect x = "235" y = "75" width = "66" height = "28" class = "element"/>
	<polygon class = "nodeStyle" points = "241,77 237,81 241,85 245,81"/>
	<text x = "246" y = "86" class = "elName">jdbc-type</text>
	<rect x = "236" y = "90" width = "64" height = "12" class = "elTypeBkgnd"/>
	<image xlink:href = "../dgmDtString.gif" width = "10" height = "10" x = "291" y = "85"/>
	<polyline class = "connector" points = "223,124 235,124"/>
	<rect x = "235" y = "110" width = "59" height = "28" class = "element"/>
	<polygon class = "nodeStyle" points = "241,112 237,116 241,120 245,116"/>
	<text x = "246" y = "121" class = "elName">sql-type</text>
	<rect x = "236" y = "125" width = "57" height = "12" class = "elTypeBkgnd"/>
	<image xlink:href = "../dgmDtString.gif" width = "10" height = "10" x = "284" y = "120"/>
	<circle class = "occurs" cx = "145" cy = "159" r = "6"/>
	<text x = "142" y = "162" class = "occurLarge">1</text>
	<polyline class = "connector" points = "151,159 181,159"/>
	<circle class = "occurs" cx = "187" cy = "159" r = "6"/>
	<text x = "184" y = "162" class = "occurLarge">*</text>
	<rect x = "193" y = "145" width = "61" height = "28" class = "element"/>
	<polygon class = "nodeStyle" points = "199,147 195,151 199,155 203,151"/>
	<text x = "204" y = "156" class = "elName">property</text>
	<rect x = "194" y = "160" width = "59" height = "12" class = "elTypeBkgnd"/>
	<image xlink:href = "../dgmTypeComplex.gif" width = "10" height = "10" x = "244" y = "155"/>
	<circle class = "occurs" cx = "103" cy = "194" r = "6"/>
	<text x = "100" y = "197" class = "occurLarge">?</text>
	<rect x = "109" y = "180" width = "61" height = "28" class = "element"/>
	<polygon class = "nodeStyle" points = "115,182 111,186 115,190 119,186"/>
	<text x = "120" y = "191" class = "elName">dbindex</text>
	<rect x = "110" y = "195" width = "59" height = "12" class = "elTypeBkgnd"/>
	<image xlink:href = "../dgmTypeEmpty.gif" width = "10" height = "10" x = "160" y = "190"/>
</svg>