<?xml version = "1.0"?>
<!DOCTYPE svg PUBLIC "-//W3C//DTD SVG 20010904//EN" "http://www.w3.org/TR/2001/REC-SVG-20010904/DTD/svg10.dtd">
<svg width = "269pt" height = "423pt" viewBox = "0 0 269 423" xmlns = "http://www.w3.org/2000/svg" xmlns:xlink = "http://www.w3.org/1999/xlink">
	<defs>
		<style type = "text/css"><![CDATA[
rect.attrGroup { fill: ivory ; stroke: black; stroke-width: 1 }
rect.element { fill: ivory ; stroke: black; stroke-width: 1 }
rect.elTypeBkgnd { fill: lightgray ; stroke: none }
text.elName { font-family: helvetica ; font-size : 10 }
text.elType { font-family: helvetica ; font-size : 7 }
text.occurLarge { font-family: helvetica ; font-size : 9; fill : blue }
text.occurSmall { font-family: helvetica ; font-size : 7; fill : blue }
rect.typeIconDark { fill : darkslategray }
circle.occurs { stroke : black ; stroke-width: 1; fill : white }
circle.ellipsis { fill : black }
path.typeIconDark { stroke : lightgray ; stroke-width: 1 }
path.connector { stroke : red ; stroke-width: 1 ; fill: none; }
path.modelGroup { stroke : black ; stroke-width: 1 ; fill: lightgray; }
polyline.connector { stroke : red ; stroke-width: 1 ; fill: none; }
.nodeStyle { fill : blue }
]]></style>
	</defs>
	<rect x = "5" y = "197" width = "67" height = "28" class = "element"/>
	<polygon class = "nodeStyle" points = "11,199 7,203 11,207 15,203"/>
	<text x = "16" y = "208" class = "elName">cmp-field</text>
	<rect x = "6" y = "212" width = "65" height = "12" class = "elTypeBkgnd"/>
	<image xlink:href = "../dgmTypeComplex.gif" width = "10" height = "10" x = "62" y = "207"/>
	<polyline class = "connector" points = "102,19 82,19 82,211 72,211 82,211 82,404 102,404"/>
	<polyline class = "connector" points = "102,19 114,19"/>
	<rect x = "114" y = "5" width = "74" height = "28" class = "element"/>
	<polygon class = "nodeStyle" points = "120,7 116,11 120,15 124,11"/>
	<text x = "125" y = "16" class = "elName">field-name</text>
	<rect x = "115" y = "20" width = "72" height = "12" class = "elTypeBkgnd"/>
	<image xlink:href = "../dgmDtString.gif" width = "10" height = "10" x = "178" y = "15"/>
	<circle class = "occurs" cx = "108" cy = "54" r = "6"/>
	<text x = "105" y = "57" class = "occurLarge">?</text>
	<rect x = "114" y = "40" width = "67" height = "28" class = "element"/>
	<polygon class = "nodeStyle" points = "120,42 116,46 120,50 124,46"/>
	<text x = "125" y = "51" class = "elName">read-only</text>
	<rect x = "115" y = "55" width = "65" height = "12" class = "elTypeBkgnd"/>
	<image xlink:href = "../dgmDtString.gif" width = "10" height = "10" x = "171" y = "50"/>
	<circle class = "occurs" cx = "108" cy = "89" r = "6"/>
	<text x = "105" y = "92" class = "occurLarge">?</text>
	<rect x = "114" y = "75" width = "86" height = "28" class = "element"/>
	<polygon class = "nodeStyle" points = "120,77 116,81 120,85 124,81"/>
	<text x = "125" y = "86" class = "elName">read-time-out</text>
	<rect x = "115" y = "90" width = "84" height = "12" class = "elTypeBkgnd"/>
	<image xlink:href = "../dgmDtString.gif" width = "10" height = "10" x = "190" y = "85"/>
	<circle class = "occurs" cx = "108" cy = "124" r = "6"/>
	<text x = "105" y = "127" class = "occurLarge">?</text>
	<rect x = "114" y = "110" width = "88" height = "28" class = "element"/>
	<polygon class = "nodeStyle" points = "120,112 116,116 120,120 124,116"/>
	<text x = "125" y = "121" class = "elName">column-name</text>
	<rect x = "115" y = "125" width = "86" height = "12" class = "elTypeBkgnd"/>
	<image xlink:href = "../dgmDtString.gif" width = "10" height = "10" x = "192" y = "120"/>
	<circle class = "occurs" cx = "108" cy = "159" r = "6"/>
	<text x = "105" y = "162" class = "occurLarge">?</text>
	<rect x = "114" y = "145" width = "59" height = "28" class = "element"/>
	<polygon class = "nodeStyle" points = "120,147 116,151 120,155 124,151"/>
	<text x = "125" y = "156" class = "elName">not-null</text>
	<rect x = "115" y = "160" width = "57" height = "12" class = "elTypeBkgnd"/>
	<image xlink:href = "../dgmTypeEmpty.gif" width = "10" height = "10" x = "163" y = "155"/>
	<circle class = "occurs" cx = "108" cy = "229" r = "6"/>
	<text x = "105" y = "232" class = "occurLarge">?</text>
	<polyline class = "connector" points = "144,211 124,229 114,229 124,229 144,264"/>
	<circle class = "occurs" cx = "150" cy = "211" r = "6"/>
	<text x = "147" y = "214" class = "occurLarge">1</text>
	<polyline class = "connector" points = "186,194 166,194 166,211 156,211 166,211 166,229 186,229"/>
	<polyline class = "connector" points = "186,194 198,194"/>
	<rect x = "198" y = "180" width = "66" height = "28" class = "element"/>
	<polygon class = "nodeStyle" points = "204,182 200,186 204,190 208,186"/>
	<text x = "209" y = "191" class = "elName">jdbc-type</text>
	<rect x = "199" y = "195" width = "64" height = "12" class = "elTypeBkgnd"/>
	<image xlink:href = "../dgmDtString.gif" width = "10" height = "10" x = "254" y = "190"/>
	<polyline class = "connector" points = "186,229 198,229"/>
	<rect x = "198" y = "215" width = "59" height = "28" class = "element"/>
	<polygon class = "nodeStyle" points = "204,217 200,221 204,225 208,221"/>
	<text x = "209" y = "226" class = "elName">sql-type</text>
	<rect x = "199" y = "230" width = "57" height = "12" class = "elTypeBkgnd"/>
	<image xlink:href = "../dgmDtString.gif" width = "10" height = "10" x = "247" y = "225"/>
	<circle class = "occurs" cx = "150" cy = "264" r = "6"/>
	<text x = "147" y = "267" class = "occurLarge">1</text>
	<polyline class = "connector" points = "156,264 186,264"/>
	<circle class = "occurs" cx = "192" cy = "264" r = "6"/>
	<text x = "189" y = "267" class = "occurLarge">+</text>
	<rect x = "198" y = "250" width = "61" height = "28" class = "element"/>
	<polygon class = "nodeStyle" points = "204,252 200,256 204,260 208,256"/>
	<text x = "209" y = "261" class = "elName">property</text>
	<rect x = "199" y = "265" width = "59" height = "12" class = "elTypeBkgnd"/>
	<image xlink:href = "../dgmTypeComplex.gif" width = "10" height = "10" x = "249" y = "260"/>
	<circle class = "occurs" cx = "108" cy = "299" r = "6"/>
	<text x = "105" y = "302" class = "occurLarge">?</text>
	<rect x = "114" y = "285" width = "94" height = "28" class = "element"/>
	<polygon class = "nodeStyle" points = "120,287 116,291 120,295 124,291"/>
	<text x = "125" y = "296" class = "elName">auto-increment</text>
	<rect x = "115" y = "300" width = "92" height = "12" class = "elTypeBkgnd"/>
	<image xlink:href = "../dgmTypeEmpty.gif" width = "10" height = "10" x = "198" y = "295"/>
	<circle class = "occurs" cx = "108" cy = "334" r = "6"/>
	<text x = "105" y = "337" class = "occurLarge">?</text>
	<rect x = "114" y = "320" width = "61" height = "28" class = "element"/>
	<polygon class = "nodeStyle" points = "120,322 116,326 120,330 124,326"/>
	<text x = "125" y = "331" class = "elName">dbindex</text>
	<rect x = "115" y = "335" width = "59" height = "12" class = "elTypeBkgnd"/>
	<image xlink:href = "../dgmTypeEmpty.gif" width = "10" height = "10" x = "165" y = "330"/>
	<circle class = "occurs" cx = "108" cy = "369" r = "6"/>
	<text x = "105" y = "372" class = "occurLarge">?</text>
	<rect x = "114" y = "355" width = "114" height = "28" class = "element"/>
	<polygon class = "nodeStyle" points = "120,357 116,361 120,365 124,361"/>
	<text x = "125" y = "366" class = "elName">check-dirty-after-get</text>
	<rect x = "115" y = "370" width = "112" height = "12" class = "elTypeBkgnd"/>
	<image xlink:href = "../dgmDtString.gif" width = "10" height = "10" x = "218" y = "365"/>
	<circle class = "occurs" cx = "108" cy = "404" r = "6"/>
	<text x = "105" y = "407" class = "occurLarge">?</text>
	<rect x = "114" y = "390" width = "79" height = "28" class = "element"/>
	<polygon class = "nodeStyle" points = "120,392 116,396 120,400 124,396"/>
	<text x = "125" y = "401" class = "elName">state-factory</text>
	<rect x = "115" y = "405" width = "77" height = "12" class = "elTypeBkgnd"/>
	<image xlink:href = "../dgmDtString.gif" width = "10" height = "10" x = "183" y = "400"/>
</svg>