<?xml version = "1.0"?>
<!DOCTYPE svg PUBLIC "-//W3C//DTD SVG 20010904//EN" "http://www.w3.org/TR/2001/REC-SVG-20010904/DTD/svg10.dtd">
<svg width = "279pt" height = "283pt" viewBox = "0 0 279 283" xmlns = "http://www.w3.org/2000/svg" xmlns:xlink = "http://www.w3.org/1999/xlink">
	<defs>
		<style type = "text/css"><![CDATA[
rect.attrGroup { fill: ivory ; stroke: black; stroke-width: 1 }
rect.element { fill: ivory ; stroke: black; stroke-width: 1 }
rect.elTypeBkgnd { fill: lightgray ; stroke: none }
text.elName { font-family: helvetica ; font-size : 10 }
text.elType { font-family: helvetica ; font-size : 7 }
text.occurLarge { font-family: helvetica ; font-size : 9; fill : blue }
text.occurSmall { font-family: helvetica ; font-size : 7; fill : blue }
rect.typeIconDark { fill : darkslategray }
circle.occurs { stroke : black ; stroke-width: 1; fill : white }
circle.ellipsis { fill : black }
path.typeIconDark { stroke : lightgray ; stroke-width: 1 }
path.connector { stroke : red ; stroke-width: 1 ; fill: none; }
path.modelGroup { stroke : black ; stroke-width: 1 ; fill: lightgray; }
polyline.connector { stroke : red ; stroke-width: 1 ; fill: none; }
.nodeStyle { fill : blue }
]]></style>
	</defs>
	<rect x = "5" y = "127" width = "89" height = "28" class = "element"/>
	<polygon class = "nodeStyle" points = "11,129 7,133 11,137 15,133"/>
	<text x = "16" y = "138" class = "elName">jbosscmp-jdbc</text>
	<rect x = "6" y = "142" width = "87" height = "12" class = "elTypeBkgnd"/>
	<image xlink:href = "../dgmTypeComplex.gif" width = "10" height = "10" x = "84" y = "137"/>
	<polyline class = "connector" points = "124,19 104,19 104,141 94,141 104,141 104,264 124,264"/>
	<circle class = "occurs" cx = "130" cy = "19" r = "6"/>
	<text x = "127" y = "22" class = "occurLarge">?</text>
	<rect x = "136" y = "5" width = "60" height = "28" class = "element"/>
	<polygon class = "nodeStyle" points = "142,7 138,11 142,15 146,11"/>
	<text x = "147" y = "16" class = "elName">defaults</text>
	<rect x = "137" y = "20" width = "58" height = "12" class = "elTypeBkgnd"/>
	<image xlink:href = "../dgmTypeComplex.gif" width = "10" height = "10" x = "186" y = "15"/>
	<circle class = "occurs" cx = "130" cy = "54" r = "6"/>
	<text x = "127" y = "57" class = "occurLarge">?</text>
	<rect x = "136" y = "40" width = "100" height = "28" class = "element"/>
	<polygon class = "nodeStyle" points = "142,42 138,46 142,50 146,46"/>
	<text x = "147" y = "51" class = "elName">enterprise-beans</text>
	<rect x = "137" y = "55" width = "98" height = "12" class = "elTypeBkgnd"/>
	<image xlink:href = "../dgmTypeComplex.gif" width = "10" height = "10" x = "226" y = "50"/>
	<circle class = "occurs" cx = "130" cy = "89" r = "6"/>
	<text x = "127" y = "92" class = "occurLarge">?</text>
	<rect x = "136" y = "75" width = "82" height = "28" class = "element"/>
	<polygon class = "nodeStyle" points = "142,77 138,81 142,85 146,81"/>
	<text x = "147" y = "86" class = "elName">relationships</text>
	<rect x = "137" y = "90" width = "80" height = "12" class = "elTypeBkgnd"/>
	<image xlink:href = "../dgmTypeComplex.gif" width = "10" height = "10" x = "208" y = "85"/>
	<circle class = "occurs" cx = "130" cy = "124" r = "6"/>
	<text x = "127" y = "127" class = "occurLarge">?</text>
	<rect x = "136" y = "110" width = "138" height = "28" class = "element"/>
	<polygon class = "nodeStyle" points = "142,112 138,116 142,120 146,116"/>
	<text x = "147" y = "121" class = "elName">dependent-value-classes</text>
	<rect x = "137" y = "125" width = "136" height = "12" class = "elTypeBkgnd"/>
	<image xlink:href = "../dgmTypeComplex.gif" width = "10" height = "10" x = "264" y = "120"/>
	<circle class = "occurs" cx = "130" cy = "159" r = "6"/>
	<text x = "127" y = "162" class = "occurLarge">?</text>
	<rect x = "136" y = "145" width = "92" height = "28" class = "element"/>
	<polygon class = "nodeStyle" points = "142,147 138,151 142,155 146,151"/>
	<text x = "147" y = "156" class = "elName">type-mappings</text>
	<rect x = "137" y = "160" width = "90" height = "12" class = "elTypeBkgnd"/>
	<image xlink:href = "../dgmTypeComplex.gif" width = "10" height = "10" x = "218" y = "155"/>
	<circle class = "occurs" cx = "130" cy = "194" r = "6"/>
	<text x = "127" y = "197" class = "occurLarge">?</text>
	<rect x = "136" y = "180" width = "103" height = "28" class = "element"/>
	<polygon class = "nodeStyle" points = "142,182 138,186 142,190 146,186"/>
	<text x = "147" y = "191" class = "elName">entity-commands</text>
	<rect x = "137" y = "195" width = "101" height = "12" class = "elTypeBkgnd"/>
	<image xlink:href = "../dgmTypeComplex.gif" width = "10" height = "10" x = "229" y = "190"/>
	<circle class = "occurs" cx = "130" cy = "229" r = "6"/>
	<text x = "127" y = "232" class = "occurLarge">?</text>
	<rect x = "136" y = "215" width = "114" height = "28" class = "element"/>
	<polygon class = "nodeStyle" points = "142,217 138,221 142,225 146,221"/>
	<text x = "147" y = "226" class = "elName">user-type-mappings</text>
	<rect x = "137" y = "230" width = "112" height = "12" class = "elTypeBkgnd"/>
	<image xlink:href = "../dgmTypeComplex.gif" width = "10" height = "10" x = "240" y = "225"/>
	<circle class = "occurs" cx = "130" cy = "264" r = "6"/>
	<text x = "127" y = "267" class = "occurLarge">?</text>
	<rect x = "136" y = "250" width = "91" height = "28" class = "element"/>
	<polygon class = "nodeStyle" points = "142,252 138,256 142,260 146,256"/>
	<text x = "147" y = "261" class = "elName">reserved-words</text>
	<rect x = "137" y = "265" width = "89" height = "12" class = "elTypeBkgnd"/>
	<image xlink:href = "../dgmTypeComplex.gif" width = "10" height = "10" x = "217" y = "260"/>
</svg>