<?xml version = "1.0"?>
<!DOCTYPE svg PUBLIC "-//W3C//DTD SVG 20010904//EN" "http://www.w3.org/TR/2001/REC-SVG-20010904/DTD/svg10.dtd">
<svg width = "242pt" height = "143pt" viewBox = "0 0 242 143" xmlns = "http://www.w3.org/2000/svg" xmlns:xlink = "http://www.w3.org/1999/xlink">
	<defs>
		<style type = "text/css"><![CDATA[
rect.attrGroup { fill: ivory ; stroke: black; stroke-width: 1 }
rect.element { fill: ivory ; stroke: black; stroke-width: 1 }
rect.elTypeBkgnd { fill: lightgray ; stroke: none }
text.elName { font-family: helvetica ; font-size : 10 }
text.elType { font-family: helvetica ; font-size : 7 }
text.occurLarge { font-family: helvetica ; font-size : 9; fill : blue }
text.occurSmall { font-family: helvetica ; font-size : 7; fill : blue }
rect.typeIconDark { fill : darkslategray }
circle.occurs { stroke : black ; stroke-width: 1; fill : white }
circle.ellipsis { fill : black }
path.typeIconDark { stroke : lightgray ; stroke-width: 1 }
path.connector { stroke : red ; stroke-width: 1 ; fill: none; }
path.modelGroup { stroke : black ; stroke-width: 1 ; fill: lightgray; }
polyline.connector { stroke : red ; stroke-width: 1 ; fill: none; }
.nodeStyle { fill : blue }
]]></style>
	</defs>
	<rect x = "5" y = "57" width = "82" height = "28" class = "element"/>
	<polygon class = "nodeStyle" points = "11,59 7,63 11,67 15,63"/>
	<text x = "16" y = "68" class = "elName">created-time</text>
	<rect x = "6" y = "72" width = "80" height = "12" class = "elTypeBkgnd"/>
	<image xlink:href = "../dgmTypeComplex.gif" width = "10" height = "10" x = "77" y = "67"/>
	<polyline class = "connector" points = "117,19 97,19 97,71 87,71 97,71 97,106 117,106"/>
	<circle class = "occurs" cx = "123" cy = "19" r = "6"/>
	<text x = "120" y = "22" class = "occurLarge">?</text>
	<rect x = "129" y = "5" width = "74" height = "28" class = "element"/>
	<polygon class = "nodeStyle" points = "135,7 131,11 135,15 139,11"/>
	<text x = "140" y = "16" class = "elName">field-name</text>
	<rect x = "130" y = "20" width = "72" height = "12" class = "elTypeBkgnd"/>
	<image xlink:href = "../dgmDtString.gif" width = "10" height = "10" x = "193" y = "15"/>
	<circle class = "occurs" cx = "123" cy = "54" r = "6"/>
	<text x = "120" y = "57" class = "occurLarge">?</text>
	<rect x = "129" y = "40" width = "88" height = "28" class = "element"/>
	<polygon class = "nodeStyle" points = "135,42 131,46 135,50 139,46"/>
	<text x = "140" y = "51" class = "elName">column-name</text>
	<rect x = "130" y = "55" width = "86" height = "12" class = "elTypeBkgnd"/>
	<image xlink:href = "../dgmDtString.gif" width = "10" height = "10" x = "207" y = "50"/>
	<circle class = "occurs" cx = "123" cy = "106" r = "6"/>
	<text x = "120" y = "109" class = "occurLarge">?</text>
	<polyline class = "connector" points = "159,89 139,89 139,106 129,106 139,106 139,124 159,124"/>
	<polyline class = "connector" points = "159,89 171,89"/>
	<rect x = "171" y = "75" width = "66" height = "28" class = "element"/>
	<polygon class = "nodeStyle" points = "177,77 173,81 177,85 181,81"/>
	<text x = "182" y = "86" class = "elName">jdbc-type</text>
	<rect x = "172" y = "90" width = "64" height = "12" class = "elTypeBkgnd"/>
	<image xlink:href = "../dgmDtString.gif" width = "10" height = "10" x = "227" y = "85"/>
	<polyline class = "connector" points = "159,124 171,124"/>
	<rect x = "171" y = "110" width = "59" height = "28" class = "element"/>
	<polygon class = "nodeStyle" points = "177,112 173,116 177,120 181,116"/>
	<text x = "182" y = "121" class = "elName">sql-type</text>
	<rect x = "172" y = "125" width = "57" height = "12" class = "elTypeBkgnd"/>
	<image xlink:href = "../dgmDtString.gif" width = "10" height = "10" x = "220" y = "120"/>
</svg>