<?xml version = "1.0"?>
<!DOCTYPE svg PUBLIC "-//W3C//DTD SVG 20010904//EN" "http://www.w3.org/TR/2001/REC-SVG-20010904/DTD/svg10.dtd">
<svg width = "246pt" height = "143pt" viewBox = "0 0 246 143" xmlns = "http://www.w3.org/2000/svg" xmlns:xlink = "http://www.w3.org/1999/xlink">
	<defs>
		<style type = "text/css"><![CDATA[
rect.attrGroup { fill: ivory ; stroke: black; stroke-width: 1 }
rect.element { fill: ivory ; stroke: black; stroke-width: 1 }
rect.elTypeBkgnd { fill: lightgray ; stroke: none }
text.elName { font-family: helvetica ; font-size : 10 }
text.elType { font-family: helvetica ; font-size : 7 }
text.occurLarge { font-family: helvetica ; font-size : 9; fill : blue }
text.occurSmall { font-family: helvetica ; font-size : 7; fill : blue }
rect.typeIconDark { fill : darkslategray }
circle.occurs { stroke : black ; stroke-width: 1; fill : white }
circle.ellipsis { fill : black }
path.typeIconDark { stroke : lightgray ; stroke-width: 1 }
path.connector { stroke : red ; stroke-width: 1 ; fill: none; }
path.modelGroup { stroke : black ; stroke-width: 1 ; fill: lightgray; }
polyline.connector { stroke : red ; stroke-width: 1 ; fill: none; }
.nodeStyle { fill : blue }
]]></style>
	</defs>
	<rect x = "5" y = "57" width = "86" height = "28" class = "element"/>
	<polygon class = "nodeStyle" points = "11,59 7,63 11,67 15,63"/>
	<text x = "16" y = "68" class = "elName">updated-time</text>
	<rect x = "6" y = "72" width = "84" height = "12" class = "elTypeBkgnd"/>
	<image xlink:href = "../dgmTypeComplex.gif" width = "10" height = "10" x = "81" y = "67"/>
	<polyline class = "connector" points = "121,19 101,19 101,71 91,71 101,71 101,106 121,106"/>
	<circle class = "occurs" cx = "127" cy = "19" r = "6"/>
	<text x = "124" y = "22" class = "occurLarge">?</text>
	<rect x = "133" y = "5" width = "74" height = "28" class = "element"/>
	<polygon class = "nodeStyle" points = "139,7 135,11 139,15 143,11"/>
	<text x = "144" y = "16" class = "elName">field-name</text>
	<rect x = "134" y = "20" width = "72" height = "12" class = "elTypeBkgnd"/>
	<image xlink:href = "../dgmDtString.gif" width = "10" height = "10" x = "197" y = "15"/>
	<circle class = "occurs" cx = "127" cy = "54" r = "6"/>
	<text x = "124" y = "57" class = "occurLarge">?</text>
	<rect x = "133" y = "40" width = "88" height = "28" class = "element"/>
	<polygon class = "nodeStyle" points = "139,42 135,46 139,50 143,46"/>
	<text x = "144" y = "51" class = "elName">column-name</text>
	<rect x = "134" y = "55" width = "86" height = "12" class = "elTypeBkgnd"/>
	<image xlink:href = "../dgmDtString.gif" width = "10" height = "10" x = "211" y = "50"/>
	<circle class = "occurs" cx = "127" cy = "106" r = "6"/>
	<text x = "124" y = "109" class = "occurLarge">?</text>
	<polyline class = "connector" points = "163,89 143,89 143,106 133,106 143,106 143,124 163,124"/>
	<polyline class = "connector" points = "163,89 175,89"/>
	<rect x = "175" y = "75" width = "66" height = "28" class = "element"/>
	<polygon class = "nodeStyle" points = "181,77 177,81 181,85 185,81"/>
	<text x = "186" y = "86" class = "elName">jdbc-type</text>
	<rect x = "176" y = "90" width = "64" height = "12" class = "elTypeBkgnd"/>
	<image xlink:href = "../dgmDtString.gif" width = "10" height = "10" x = "231" y = "85"/>
	<polyline class = "connector" points = "163,124 175,124"/>
	<rect x = "175" y = "110" width = "59" height = "28" class = "element"/>
	<polygon class = "nodeStyle" points = "181,112 177,116 181,120 185,116"/>
	<text x = "186" y = "121" class = "elName">sql-type</text>
	<rect x = "176" y = "125" width = "57" height = "12" class = "elTypeBkgnd"/>
	<image xlink:href = "../dgmDtString.gif" width = "10" height = "10" x = "224" y = "120"/>
</svg>