<?xml version = "1.0"?>
<!DOCTYPE svg PUBLIC "-//W3C//DTD SVG 20010904//EN" "http://www.w3.org/TR/2001/REC-SVG-20010904/DTD/svg10.dtd">
<svg width = "262pt" height = "808pt" viewBox = "0 0 262 808" xmlns = "http://www.w3.org/2000/svg" xmlns:xlink = "http://www.w3.org/1999/xlink">
	<defs>
		<style type = "text/css"><![CDATA[
rect.attrGroup { fill: ivory ; stroke: black; stroke-width: 1 }
rect.element { fill: ivory ; stroke: black; stroke-width: 1 }
rect.elTypeBkgnd { fill: lightgray ; stroke: none }
text.elName { font-family: helvetica ; font-size : 10 }
text.elType { font-family: helvetica ; font-size : 7 }
text.occurLarge { font-family: helvetica ; font-size : 9; fill : blue }
text.occurSmall { font-family: helvetica ; font-size : 7; fill : blue }
rect.typeIconDark { fill : darkslategray }
circle.occurs { stroke : black ; stroke-width: 1; fill : white }
circle.ellipsis { fill : black }
path.typeIconDark { stroke : lightgray ; stroke-width: 1 }
path.connector { stroke : red ; stroke-width: 1 ; fill: none; }
path.modelGroup { stroke : black ; stroke-width: 1 ; fill: lightgray; }
polyline.connector { stroke : red ; stroke-width: 1 ; fill: none; }
.nodeStyle { fill : blue }
]]></style>
	</defs>
	<rect x = "5" y = "390" width = "49" height = "28" class = "element"/>
	<polygon class = "nodeStyle" points = "11,392 7,396 11,400 15,396"/>
	<text x = "16" y = "401" class = "elName">entity</text>
	<rect x = "6" y = "405" width = "47" height = "12" class = "elTypeBkgnd"/>
	<image xlink:href = "../dgmTypeComplex.gif" width = "10" height = "10" x = "44" y = "400"/>
	<polyline class = "connector" points = "84,19 64,19 64,404 54,404 64,404 64,789 84,789"/>
	<polyline class = "connector" points = "84,19 96,19"/>
	<rect x = "96" y = "5" width = "68" height = "28" class = "element"/>
	<polygon class = "nodeStyle" points = "102,7 98,11 102,15 106,11"/>
	<text x = "107" y = "16" class = "elName">ejb-name</text>
	<rect x = "97" y = "20" width = "66" height = "12" class = "elTypeBkgnd"/>
	<image xlink:href = "../dgmDtString.gif" width = "10" height = "10" x = "154" y = "15"/>
	<circle class = "occurs" cx = "90" cy = "71" r = "6"/>
	<text x = "87" y = "74" class = "occurLarge">?</text>
	<polyline class = "connector" points = "126,54 106,54 106,71 96,71 106,71 106,89 126,89"/>
	<polyline class = "connector" points = "126,54 138,54"/>
	<rect x = "138" y = "40" width = "74" height = "28" class = "element"/>
	<polygon class = "nodeStyle" points = "144,42 140,46 144,50 148,46"/>
	<text x = "149" y = "51" class = "elName">datasource</text>
	<rect x = "139" y = "55" width = "72" height = "12" class = "elTypeBkgnd"/>
	<image xlink:href = "../dgmDtString.gif" width = "10" height = "10" x = "202" y = "50"/>
	<polyline class = "connector" points = "126,89 138,89"/>
	<rect x = "138" y = "75" width = "119" height = "28" class = "element"/>
	<polygon class = "nodeStyle" points = "144,77 140,81 144,85 148,81"/>
	<text x = "149" y = "86" class = "elName">datasource-mapping</text>
	<rect x = "139" y = "90" width = "117" height = "12" class = "elTypeBkgnd"/>
	<image xlink:href = "../dgmDtString.gif" width = "10" height = "10" x = "247" y = "85"/>
	<circle class = "occurs" cx = "90" cy = "124" r = "6"/>
	<text x = "87" y = "127" class = "occurLarge">?</text>
	<rect x = "96" y = "110" width = "79" height = "28" class = "element"/>
	<polygon class = "nodeStyle" points = "102,112 98,116 102,120 106,116"/>
	<text x = "107" y = "121" class = "elName">create-table</text>
	<rect x = "97" y = "125" width = "77" height = "12" class = "elTypeBkgnd"/>
	<image xlink:href = "../dgmDtString.gif" width = "10" height = "10" x = "165" y = "120"/>
	<circle class = "occurs" cx = "90" cy = "159" r = "6"/>
	<text x = "87" y = "162" class = "occurLarge">?</text>
	<rect x = "96" y = "145" width = "85" height = "28" class = "element"/>
	<polygon class = "nodeStyle" points = "102,147 98,151 102,155 106,151"/>
	<text x = "107" y = "156" class = "elName">remove-table</text>
	<rect x = "97" y = "160" width = "83" height = "12" class = "elTypeBkgnd"/>
	<image xlink:href = "../dgmDtString.gif" width = "10" height = "10" x = "171" y = "155"/>
	<circle class = "occurs" cx = "90" cy = "194" r = "6"/>
	<text x = "87" y = "197" class = "occurLarge">?</text>
	<rect x = "96" y = "180" width = "101" height = "28" class = "element"/>
	<polygon class = "nodeStyle" points = "102,182 98,186 102,190 106,186"/>
	<text x = "107" y = "191" class = "elName">post-table-create</text>
	<rect x = "97" y = "195" width = "99" height = "12" class = "elTypeBkgnd"/>
	<image xlink:href = "../dgmTypeComplex.gif" width = "10" height = "10" x = "187" y = "190"/>
	<circle class = "occurs" cx = "90" cy = "229" r = "6"/>
	<text x = "87" y = "232" class = "occurLarge">?</text>
	<rect x = "96" y = "215" width = "67" height = "28" class = "element"/>
	<polygon class = "nodeStyle" points = "102,217 98,221 102,225 106,221"/>
	<text x = "107" y = "226" class = "elName">read-only</text>
	<rect x = "97" y = "230" width = "65" height = "12" class = "elTypeBkgnd"/>
	<image xlink:href = "../dgmDtString.gif" width = "10" height = "10" x = "153" y = "225"/>
	<circle class = "occurs" cx = "90" cy = "264" r = "6"/>
	<text x = "87" y = "267" class = "occurLarge">?</text>
	<rect x = "96" y = "250" width = "86" height = "28" class = "element"/>
	<polygon class = "nodeStyle" points = "102,252 98,256 102,260 106,256"/>
	<text x = "107" y = "261" class = "elName">read-time-out</text>
	<rect x = "97" y = "265" width = "84" height = "12" class = "elTypeBkgnd"/>
	<image xlink:href = "../dgmDtString.gif" width = "10" height = "10" x = "172" y = "260"/>
	<circle class = "occurs" cx = "90" cy = "299" r = "6"/>
	<text x = "87" y = "302" class = "occurLarge">?</text>
	<rect x = "96" y = "285" width = "75" height = "28" class = "element"/>
	<polygon class = "nodeStyle" points = "102,287 98,291 102,295 106,291"/>
	<text x = "107" y = "296" class = "elName">row-locking</text>
	<rect x = "97" y = "300" width = "73" height = "12" class = "elTypeBkgnd"/>
	<image xlink:href = "../dgmDtString.gif" width = "10" height = "10" x = "161" y = "295"/>
	<circle class = "occurs" cx = "90" cy = "334" r = "6"/>
	<text x = "87" y = "337" class = "occurLarge">?</text>
	<rect x = "96" y = "320" width = "81" height = "28" class = "element"/>
	<polygon class = "nodeStyle" points = "102,322 98,326 102,330 106,326"/>
	<text x = "107" y = "331" class = "elName">pk-constraint</text>
	<rect x = "97" y = "335" width = "79" height = "12" class = "elTypeBkgnd"/>
	<image xlink:href = "../dgmDtString.gif" width = "10" height = "10" x = "167" y = "330"/>
	<circle class = "occurs" cx = "90" cy = "369" r = "6"/>
	<text x = "87" y = "372" class = "occurLarge">?</text>
	<rect x = "96" y = "355" width = "77" height = "28" class = "element"/>
	<polygon class = "nodeStyle" points = "102,357 98,361 102,365 106,361"/>
	<text x = "107" y = "366" class = "elName">read-ahead</text>
	<rect x = "97" y = "370" width = "75" height = "12" class = "elTypeBkgnd"/>
	<image xlink:href = "../dgmTypeComplex.gif" width = "10" height = "10" x = "163" y = "365"/>
	<circle class = "occurs" cx = "90" cy = "404" r = "6"/>
	<text x = "87" y = "407" class = "occurLarge">?</text>
	<rect x = "96" y = "390" width = "90" height = "28" class = "element"/>
	<polygon class = "nodeStyle" points = "102,392 98,396 102,400 106,396"/>
	<text x = "107" y = "401" class = "elName">list-cache-max</text>
	<rect x = "97" y = "405" width = "88" height = "12" class = "elTypeBkgnd"/>
	<image xlink:href = "../dgmDtString.gif" width = "10" height = "10" x = "176" y = "400"/>
	<circle class = "occurs" cx = "90" cy = "439" r = "6"/>
	<text x = "87" y = "442" class = "occurLarge">?</text>
	<rect x = "96" y = "425" width = "67" height = "28" class = "element"/>
	<polygon class = "nodeStyle" points = "102,427 98,431 102,435 106,431"/>
	<text x = "107" y = "436" class = "elName">fetch-size</text>
	<rect x = "97" y = "440" width = "65" height = "12" class = "elTypeBkgnd"/>
	<image xlink:href = "../dgmDtString.gif" width = "10" height = "10" x = "153" y = "435"/>
	<circle class = "occurs" cx = "90" cy = "474" r = "6"/>
	<text x = "87" y = "477" class = "occurLarge">?</text>
	<rect x = "96" y = "460" width = "77" height = "28" class = "element"/>
	<polygon class = "nodeStyle" points = "102,462 98,466 102,470 106,466"/>
	<text x = "107" y = "471" class = "elName">table-name</text>
	<rect x = "97" y = "475" width = "75" height = "12" class = "elTypeBkgnd"/>
	<image xlink:href = "../dgmDtString.gif" width = "10" height = "10" x = "163" y = "470"/>
	<circle class = "occurs" cx = "90" cy = "509" r = "6"/>
	<text x = "87" y = "512" class = "occurLarge">*</text>
	<rect x = "96" y = "495" width = "67" height = "28" class = "element"/>
	<polygon class = "nodeStyle" points = "102,497 98,501 102,505 106,501"/>
	<text x = "107" y = "506" class = "elName">cmp-field</text>
	<rect x = "97" y = "510" width = "65" height = "12" class = "elTypeBkgnd"/>
	<image xlink:href = "../dgmTypeComplex.gif" width = "10" height = "10" x = "153" y = "505"/>
	<circle class = "occurs" cx = "90" cy = "544" r = "6"/>
	<text x = "87" y = "547" class = "occurLarge">?</text>
	<rect x = "96" y = "530" width = "78" height = "28" class = "element"/>
	<polygon class = "nodeStyle" points = "102,532 98,536 102,540 106,536"/>
	<text x = "107" y = "541" class = "elName">load-groups</text>
	<rect x = "97" y = "545" width = "76" height = "12" class = "elTypeBkgnd"/>
	<image xlink:href = "../dgmTypeComplex.gif" width = "10" height = "10" x = "164" y = "540"/>
	<circle class = "occurs" cx = "90" cy = "579" r = "6"/>
	<text x = "87" y = "582" class = "occurLarge">?</text>
	<rect x = "96" y = "565" width = "104" height = "28" class = "element"/>
	<polygon class = "nodeStyle" points = "102,567 98,571 102,575 106,571"/>
	<text x = "107" y = "576" class = "elName">eager-load-group</text>
	<rect x = "97" y = "580" width = "102" height = "12" class = "elTypeBkgnd"/>
	<image xlink:href = "../dgmDtString.gif" width = "10" height = "10" x = "190" y = "575"/>
	<circle class = "occurs" cx = "90" cy = "614" r = "6"/>
	<text x = "87" y = "617" class = "occurLarge">?</text>
	<rect x = "96" y = "600" width = "100" height = "28" class = "element"/>
	<polygon class = "nodeStyle" points = "102,602 98,606 102,610 106,606"/>
	<text x = "107" y = "611" class = "elName">lazy-load-groups</text>
	<rect x = "97" y = "615" width = "98" height = "12" class = "elTypeBkgnd"/>
	<image xlink:href = "../dgmTypeComplex.gif" width = "10" height = "10" x = "186" y = "610"/>
	<circle class = "occurs" cx = "90" cy = "649" r = "6"/>
	<text x = "87" y = "652" class = "occurLarge">*</text>
	<rect x = "96" y = "635" width = "49" height = "28" class = "element"/>
	<polygon class = "nodeStyle" points = "102,637 98,641 102,645 106,641"/>
	<text x = "107" y = "646" class = "elName">query</text>
	<rect x = "97" y = "650" width = "47" height = "12" class = "elTypeBkgnd"/>
	<image xlink:href = "../dgmTypeComplex.gif" width = "10" height = "10" x = "135" y = "645"/>
	<circle class = "occurs" cx = "90" cy = "684" r = "6"/>
	<text x = "87" y = "687" class = "occurLarge">?</text>
	<rect x = "96" y = "670" width = "77" height = "28" class = "element"/>
	<polygon class = "nodeStyle" points = "102,672 98,676 102,680 106,676"/>
	<text x = "107" y = "681" class = "elName">unknown-pk</text>
	<rect x = "97" y = "685" width = "75" height = "12" class = "elTypeBkgnd"/>
	<image xlink:href = "../dgmTypeComplex.gif" width = "10" height = "10" x = "163" y = "680"/>
	<circle class = "occurs" cx = "90" cy = "719" r = "6"/>
	<text x = "87" y = "722" class = "occurLarge">?</text>
	<rect x = "96" y = "705" width = "99" height = "28" class = "element"/>
	<polygon class = "nodeStyle" points = "102,707 98,711 102,715 106,711"/>
	<text x = "107" y = "716" class = "elName">entity-command</text>
	<rect x = "97" y = "720" width = "97" height = "12" class = "elTypeBkgnd"/>
	<image xlink:href = "../dgmTypeComplex.gif" width = "10" height = "10" x = "185" y = "715"/>
	<circle class = "occurs" cx = "90" cy = "754" r = "6"/>
	<text x = "87" y = "757" class = "occurLarge">?</text>
	<rect x = "96" y = "740" width = "104" height = "28" class = "element"/>
	<polygon class = "nodeStyle" points = "102,742 98,746 102,750 106,746"/>
	<text x = "107" y = "751" class = "elName">optimistic-locking</text>
	<rect x = "97" y = "755" width = "102" height = "12" class = "elTypeBkgnd"/>
	<image xlink:href = "../dgmTypeComplex.gif" width = "10" height = "10" x = "190" y = "750"/>
	<circle class = "occurs" cx = "90" cy = "789" r = "6"/>
	<text x = "87" y = "792" class = "occurLarge">?</text>
	<rect x = "96" y = "775" width = "47" height = "28" class = "element"/>
	<polygon class = "nodeStyle" points = "102,777 98,781 102,785 106,781"/>
	<text x = "107" y = "786" class = "elName">audit</text>
	<rect x = "97" y = "790" width = "45" height = "12" class = "elTypeBkgnd"/>
	<image xlink:href = "../dgmTypeComplex.gif" width = "10" height = "10" x = "133" y = "785"/>
</svg>