<?xml version = "1.0"?>
<!DOCTYPE svg PUBLIC "-//W3C//DTD SVG 20010904//EN" "http://www.w3.org/TR/2001/REC-SVG-20010904/DTD/svg10.dtd">
<svg width = "183pt" height = "178pt" viewBox = "0 0 183 178" xmlns = "http://www.w3.org/2000/svg" xmlns:xlink = "http://www.w3.org/1999/xlink">
	<defs>
		<style type = "text/css"><![CDATA[
rect.attrGroup { fill: ivory ; stroke: black; stroke-width: 1 }
rect.element { fill: ivory ; stroke: black; stroke-width: 1 }
rect.elTypeBkgnd { fill: lightgray ; stroke: none }
text.elName { font-family: helvetica ; font-size : 10 }
text.elType { font-family: helvetica ; font-size : 7 }
text.occurLarge { font-family: helvetica ; font-size : 9; fill : blue }
text.occurSmall { font-family: helvetica ; font-size : 7; fill : blue }
rect.typeIconDark { fill : darkslategray }
circle.occurs { stroke : black ; stroke-width: 1; fill : white }
circle.ellipsis { fill : black }
path.typeIconDark { stroke : lightgray ; stroke-width: 1 }
path.connector { stroke : red ; stroke-width: 1 ; fill: none; }
path.modelGroup { stroke : black ; stroke-width: 1 ; fill: lightgray; }
polyline.connector { stroke : red ; stroke-width: 1 ; fill: none; }
.nodeStyle { fill : blue }
]]></style>
	</defs>
	<rect x = "5" y = "75" width = "80" height = "28" class = "element"/>
	<polygon class = "nodeStyle" points = "11,77 7,81 11,85 15,81"/>
	<text x = "16" y = "86" class = "elName">declared-sql</text>
	<rect x = "6" y = "90" width = "78" height = "12" class = "elTypeBkgnd"/>
	<image xlink:href = "../dgmTypeComplex.gif" width = "10" height = "10" x = "75" y = "85"/>
	<polyline class = "connector" points = "115,19 95,19 95,89 85,89 95,89 95,159 115,159"/>
	<circle class = "occurs" cx = "121" cy = "19" r = "6"/>
	<text x = "118" y = "22" class = "occurLarge">?</text>
	<rect x = "127" y = "5" width = "50" height = "28" class = "element"/>
	<polygon class = "nodeStyle" points = "133,7 129,11 133,15 137,11"/>
	<text x = "138" y = "16" class = "elName">select</text>
	<rect x = "128" y = "20" width = "48" height = "12" class = "elTypeBkgnd"/>
	<image xlink:href = "../dgmTypeComplex.gif" width = "10" height = "10" x = "167" y = "15"/>
	<circle class = "occurs" cx = "121" cy = "54" r = "6"/>
	<text x = "118" y = "57" class = "occurLarge">?</text>
	<rect x = "127" y = "40" width = "44" height = "28" class = "element"/>
	<polygon class = "nodeStyle" points = "133,42 129,46 133,50 137,46"/>
	<text x = "138" y = "51" class = "elName">from</text>
	<rect x = "128" y = "55" width = "42" height = "12" class = "elTypeBkgnd"/>
	<image xlink:href = "../dgmDtString.gif" width = "10" height = "10" x = "161" y = "50"/>
	<circle class = "occurs" cx = "121" cy = "89" r = "6"/>
	<text x = "118" y = "92" class = "occurLarge">?</text>
	<rect x = "127" y = "75" width = "51" height = "28" class = "element"/>
	<polygon class = "nodeStyle" points = "133,77 129,81 133,85 137,81"/>
	<text x = "138" y = "86" class = "elName">where</text>
	<rect x = "128" y = "90" width = "49" height = "12" class = "elTypeBkgnd"/>
	<image xlink:href = "../dgmDtString.gif" width = "10" height = "10" x = "168" y = "85"/>
	<circle class = "occurs" cx = "121" cy = "124" r = "6"/>
	<text x = "118" y = "127" class = "occurLarge">?</text>
	<rect x = "127" y = "110" width = "47" height = "28" class = "element"/>
	<polygon class = "nodeStyle" points = "133,112 129,116 133,120 137,116"/>
	<text x = "138" y = "121" class = "elName">order</text>
	<rect x = "128" y = "125" width = "45" height = "12" class = "elTypeBkgnd"/>
	<image xlink:href = "../dgmDtString.gif" width = "10" height = "10" x = "164" y = "120"/>
	<circle class = "occurs" cx = "121" cy = "159" r = "6"/>
	<text x = "118" y = "162" class = "occurLarge">?</text>
	<rect x = "127" y = "145" width = "47" height = "28" class = "element"/>
	<polygon class = "nodeStyle" points = "133,147 129,151 133,155 137,151"/>
	<text x = "138" y = "156" class = "elName">other</text>
	<rect x = "128" y = "160" width = "45" height = "12" class = "elTypeBkgnd"/>
	<image xlink:href = "../dgmDtString.gif" width = "10" height = "10" x = "164" y = "155"/>
</svg>