<?xml version = "1.0"?>
<!DOCTYPE svg PUBLIC "-//W3C//DTD SVG 20010904//EN" "http://www.w3.org/TR/2001/REC-SVG-20010904/DTD/svg10.dtd">
<svg width = "218pt" height = "178pt" viewBox = "0 0 218 178" xmlns = "http://www.w3.org/2000/svg" xmlns:xlink = "http://www.w3.org/1999/xlink">
	<defs>
		<style type = "text/css"><![CDATA[
rect.attrGroup { fill: ivory ; stroke: black; stroke-width: 1 }
rect.element { fill: ivory ; stroke: black; stroke-width: 1 }
rect.elTypeBkgnd { fill: lightgray ; stroke: none }
text.elName { font-family: helvetica ; font-size : 10 }
text.elType { font-family: helvetica ; font-size : 7 }
text.occurLarge { font-family: helvetica ; font-size : 9; fill : blue }
text.occurSmall { font-family: helvetica ; font-size : 7; fill : blue }
rect.typeIconDark { fill : darkslategray }
circle.occurs { stroke : black ; stroke-width: 1; fill : white }
circle.ellipsis { fill : black }
path.typeIconDark { stroke : lightgray ; stroke-width: 1 }
path.connector { stroke : red ; stroke-width: 1 ; fill: none; }
path.modelGroup { stroke : black ; stroke-width: 1 ; fill: lightgray; }
polyline.connector { stroke : red ; stroke-width: 1 ; fill: none; }
.nodeStyle { fill : blue }
]]></style>
	</defs>
	<rect x = "5" y = "75" width = "50" height = "28" class = "element"/>
	<polygon class = "nodeStyle" points = "11,77 7,81 11,85 15,81"/>
	<text x = "16" y = "86" class = "elName">select</text>
	<rect x = "6" y = "90" width = "48" height = "12" class = "elTypeBkgnd"/>
	<image xlink:href = "../dgmTypeComplex.gif" width = "10" height = "10" x = "45" y = "85"/>
	<polyline class = "connector" points = "85,19 65,19 65,89 55,89 65,89 65,159 85,159"/>
	<circle class = "occurs" cx = "91" cy = "19" r = "6"/>
	<text x = "88" y = "22" class = "occurLarge">?</text>
	<rect x = "97" y = "5" width = "56" height = "28" class = "element"/>
	<polygon class = "nodeStyle" points = "103,7 99,11 103,15 107,11"/>
	<text x = "108" y = "16" class = "elName">distinct</text>
	<rect x = "98" y = "20" width = "54" height = "12" class = "elTypeBkgnd"/>
	<image xlink:href = "../dgmTypeEmpty.gif" width = "10" height = "10" x = "143" y = "15"/>
	<circle class = "occurs" cx = "91" cy = "71" r = "6"/>
	<text x = "88" y = "74" class = "occurLarge">?</text>
	<polyline class = "connector" points = "127,54 107,54 107,71 97,71 107,71 107,89 127,89"/>
	<polyline class = "connector" points = "127,54 139,54"/>
	<rect x = "139" y = "40" width = "68" height = "28" class = "element"/>
	<polygon class = "nodeStyle" points = "145,42 141,46 145,50 149,46"/>
	<text x = "150" y = "51" class = "elName">ejb-name</text>
	<rect x = "140" y = "55" width = "66" height = "12" class = "elTypeBkgnd"/>
	<image xlink:href = "../dgmDtString.gif" width = "10" height = "10" x = "197" y = "50"/>
	<circle class = "occurs" cx = "133" cy = "89" r = "6"/>
	<text x = "130" y = "92" class = "occurLarge">?</text>
	<rect x = "139" y = "75" width = "74" height = "28" class = "element"/>
	<polygon class = "nodeStyle" points = "145,77 141,81 145,85 149,81"/>
	<text x = "150" y = "86" class = "elName">field-name</text>
	<rect x = "140" y = "90" width = "72" height = "12" class = "elTypeBkgnd"/>
	<image xlink:href = "../dgmDtString.gif" width = "10" height = "10" x = "203" y = "85"/>
	<circle class = "occurs" cx = "91" cy = "124" r = "6"/>
	<text x = "88" y = "127" class = "occurLarge">?</text>
	<rect x = "97" y = "110" width = "45" height = "28" class = "element"/>
	<polygon class = "nodeStyle" points = "103,112 99,116 103,120 107,116"/>
	<text x = "108" y = "121" class = "elName">alias</text>
	<rect x = "98" y = "125" width = "43" height = "12" class = "elTypeBkgnd"/>
	<image xlink:href = "../dgmDtString.gif" width = "10" height = "10" x = "132" y = "120"/>
	<circle class = "occurs" cx = "91" cy = "159" r = "6"/>
	<text x = "88" y = "162" class = "occurLarge">?</text>
	<rect x = "97" y = "145" width = "113" height = "28" class = "element"/>
	<polygon class = "nodeStyle" points = "103,147 99,151 103,155 107,151"/>
	<text x = "108" y = "156" class = "elName">additional-columns</text>
	<rect x = "98" y = "160" width = "111" height = "12" class = "elTypeBkgnd"/>
	<image xlink:href = "../dgmDtString.gif" width = "10" height = "10" x = "200" y = "155"/>
</svg>