<?xml version = "1.0"?>
<!DOCTYPE svg PUBLIC "-//W3C//DTD SVG 20010904//EN" "http://www.w3.org/TR/2001/REC-SVG-20010904/DTD/svg10.dtd">
<svg width = "233pt" height = "143pt" viewBox = "0 0 233 143" xmlns = "http://www.w3.org/2000/svg" xmlns:xlink = "http://www.w3.org/1999/xlink">
	<defs>
		<style type = "text/css"><![CDATA[
rect.attrGroup { fill: ivory ; stroke: black; stroke-width: 1 }
rect.element { fill: ivory ; stroke: black; stroke-width: 1 }
rect.elTypeBkgnd { fill: lightgray ; stroke: none }
text.elName { font-family: helvetica ; font-size : 10 }
text.elType { font-family: helvetica ; font-size : 7 }
text.occurLarge { font-family: helvetica ; font-size : 9; fill : blue }
text.occurSmall { font-family: helvetica ; font-size : 7; fill : blue }
rect.typeIconDark { fill : darkslategray }
circle.occurs { stroke : black ; stroke-width: 1; fill : white }
circle.ellipsis { fill : black }
path.typeIconDark { stroke : lightgray ; stroke-width: 1 }
path.connector { stroke : red ; stroke-width: 1 ; fill: none; }
path.modelGroup { stroke : black ; stroke-width: 1 ; fill: lightgray; }
polyline.connector { stroke : red ; stroke-width: 1 ; fill: none; }
.nodeStyle { fill : blue }
]]></style>
	</defs>
	<rect x = "5" y = "57" width = "77" height = "28" class = "element"/>
	<polygon class = "nodeStyle" points = "11,59 7,63 11,67 15,63"/>
	<text x = "16" y = "68" class = "elName">read-ahead</text>
	<rect x = "6" y = "72" width = "75" height = "12" class = "elTypeBkgnd"/>
	<image xlink:href = "../dgmTypeComplex.gif" width = "10" height = "10" x = "72" y = "67"/>
	<polyline class = "connector" points = "112,19 92,19 92,71 82,71 92,71 92,124 112,124"/>
	<polyline class = "connector" points = "112,19 124,19"/>
	<rect x = "124" y = "5" width = "59" height = "28" class = "element"/>
	<polygon class = "nodeStyle" points = "130,7 126,11 130,15 134,11"/>
	<text x = "135" y = "16" class = "elName">strategy</text>
	<rect x = "125" y = "20" width = "57" height = "12" class = "elTypeBkgnd"/>
	<image xlink:href = "../dgmDtString.gif" width = "10" height = "10" x = "173" y = "15"/>
	<circle class = "occurs" cx = "118" cy = "54" r = "6"/>
	<text x = "115" y = "57" class = "occurLarge">?</text>
	<rect x = "124" y = "40" width = "104" height = "28" class = "element"/>
	<polygon class = "nodeStyle" points = "130,42 126,46 130,50 134,46"/>
	<text x = "135" y = "51" class = "elName">deep-read-ahead</text>
	<rect x = "125" y = "55" width = "102" height = "12" class = "elTypeBkgnd"/>
	<image xlink:href = "../dgmTypeEmpty.gif" width = "10" height = "10" x = "218" y = "50"/>
	<circle class = "occurs" cx = "118" cy = "89" r = "6"/>
	<text x = "115" y = "92" class = "occurLarge">?</text>
	<rect x = "124" y = "75" width = "68" height = "28" class = "element"/>
	<polygon class = "nodeStyle" points = "130,77 126,81 130,85 134,81"/>
	<text x = "135" y = "86" class = "elName">page-size</text>
	<rect x = "125" y = "90" width = "66" height = "12" class = "elTypeBkgnd"/>
	<image xlink:href = "../dgmDtString.gif" width = "10" height = "10" x = "182" y = "85"/>
	<circle class = "occurs" cx = "118" cy = "124" r = "6"/>
	<text x = "115" y = "127" class = "occurLarge">?</text>
	<rect x = "124" y = "110" width = "104" height = "28" class = "element"/>
	<polygon class = "nodeStyle" points = "130,112 126,116 130,120 134,116"/>
	<text x = "135" y = "121" class = "elName">eager-load-group</text>
	<rect x = "125" y = "125" width = "102" height = "12" class = "elTypeBkgnd"/>
	<image xlink:href = "../dgmDtString.gif" width = "10" height = "10" x = "218" y = "120"/>
</svg>