<?xml version = "1.0"?>
<!DOCTYPE svg PUBLIC "-//W3C//DTD SVG 20010904//EN" "http://www.w3.org/TR/2001/REC-SVG-20010904/DTD/svg10.dtd">
<svg width = "220pt" height = "73pt" viewBox = "0 0 220 73" xmlns = "http://www.w3.org/2000/svg" xmlns:xlink = "http://www.w3.org/1999/xlink">
	<defs>
		<style type = "text/css"><![CDATA[
rect.attrGroup { fill: ivory ; stroke: black; stroke-width: 1 }
rect.element { fill: ivory ; stroke: black; stroke-width: 1 }
rect.elTypeBkgnd { fill: lightgray ; stroke: none }
text.elName { font-family: helvetica ; font-size : 10 }
text.elType { font-family: helvetica ; font-size : 7 }
text.occurLarge { font-family: helvetica ; font-size : 9; fill : blue }
text.occurSmall { font-family: helvetica ; font-size : 7; fill : blue }
rect.typeIconDark { fill : darkslategray }
circle.occurs { stroke : black ; stroke-width: 1; fill : white }
circle.ellipsis { fill : black }
path.typeIconDark { stroke : lightgray ; stroke-width: 1 }
path.connector { stroke : red ; stroke-width: 1 ; fill: none; }
path.modelGroup { stroke : black ; stroke-width: 1 ; fill: lightgray; }
polyline.connector { stroke : red ; stroke-width: 1 ; fill: none; }
.nodeStyle { fill : blue }
]]></style>
	</defs>
	<rect x = "5" y = "22" width = "67" height = "28" class = "element"/>
	<polygon class = "nodeStyle" points = "11,24 7,28 11,32 15,28"/>
	<text x = "16" y = "33" class = "elName">jboss-app</text>
	<rect x = "6" y = "37" width = "65" height = "12" class = "elTypeBkgnd"/>
	<image xlink:href = "../dgmTypeComplex.gif" width = "10" height = "10" x = "62" y = "32"/>
	<polyline class = "connector" points = "102,19 82,19 82,36 72,36 82,36 82,54 102,54"/>
	<circle class = "occurs" cx = "108" cy = "19" r = "6"/>
	<text x = "105" y = "22" class = "occurLarge">?</text>
	<rect x = "114" y = "5" width = "101" height = "28" class = "element"/>
	<polygon class = "nodeStyle" points = "120,7 116,11 120,15 124,11"/>
	<text x = "125" y = "16" class = "elName">loader-repository</text>
	<rect x = "115" y = "20" width = "99" height = "12" class = "elTypeBkgnd"/>
	<image xlink:href = "../dgmTypeMixed.gif" width = "10" height = "10" x = "205" y = "15"/>
	<circle class = "occurs" cx = "108" cy = "54" r = "6"/>
	<text x = "105" y = "57" class = "occurLarge">*</text>
	<rect x = "114" y = "40" width = "59" height = "28" class = "element"/>
	<polygon class = "nodeStyle" points = "120,42 116,46 120,50 124,46"/>
	<text x = "125" y = "51" class = "elName">module</text>
	<rect x = "115" y = "55" width = "57" height = "12" class = "elTypeBkgnd"/>
	<image xlink:href = "../dgmTypeComplex.gif" width = "10" height = "10" x = "163" y = "50"/>
</svg>