<?xml version = "1.0"?>
<!DOCTYPE svg PUBLIC "-//W3C//DTD SVG 20010904//EN" "http://www.w3.org/TR/2001/REC-SVG-20010904/DTD/svg10.dtd">
<svg width = "219pt" height = "361pt" viewBox = "0 0 219 361" xmlns = "http://www.w3.org/2000/svg" xmlns:xlink = "http://www.w3.org/1999/xlink">
	<defs>
		<style type = "text/css"><![CDATA[
rect.attrGroup { fill: ivory ; stroke: black; stroke-width: 1 }
rect.element { fill: ivory ; stroke: black; stroke-width: 1 }
rect.elTypeBkgnd { fill: lightgray ; stroke: none }
text.elName { font-family: helvetica ; font-size : 10 }
text.elType { font-family: helvetica ; font-size : 7 }
text.occurLarge { font-family: helvetica ; font-size : 9; fill : blue }
text.occurSmall { font-family: helvetica ; font-size : 7; fill : blue }
rect.typeIconDark { fill : darkslategray }
circle.occurs { stroke : black ; stroke-width: 1; fill : white }
circle.ellipsis { fill : black }
path.typeIconDark { stroke : lightgray ; stroke-width: 1 }
path.connector { stroke : red ; stroke-width: 1 ; fill: none; }
path.modelGroup { stroke : black ; stroke-width: 1 ; fill: lightgray; }
polyline.connector { stroke : red ; stroke-width: 1 ; fill: none; }
.nodeStyle { fill : blue }
]]></style>
	</defs>
	<rect x = "104" y = "5" width = "54" height = "38" class = "attrGroup" rx = "5" ry = "5"/>
	<circle class = "occurs" cx = "115" cy = "24" r = "6"/>
	<text x = "112" y = "27" class = "occurLarge">?</text>
	<rect x = "121" y = "10" width = "32" height = "28" class = "element" rx = "5" ry = "5"/>
	<circle class = "nodeStyle" cx = "127" cy = "16" r = "4"/>
	<text x = "132" y = "21" class = "elName">id</text>
	<rect x = "122" y = "11" width = "30" height = "26" class = "elTypeBkgnd" rx = "5" ry = "5" clip-path = "url(#e:connector/a:id)"/>
	<defs/>
	<clipPath id = "e:connector/a:id">
		<rect x = "121" y = "25" width = "32" height = "12"/>
	</clipPath>
	<text x = "122" y = "33" class = "elType">ID</text>
	<image xlink:href = "../dgmDtName.gif" width = "10" height = "10" x = "143" y = "20"/>
	<rect x = "5" y = "188" width = "69" height = "28" class = "element"/>
	<polygon class = "nodeStyle" points = "11,190 7,194 11,198 15,194"/>
	<text x = "16" y = "199" class = "elName">connector</text>
	<rect x = "6" y = "203" width = "67" height = "12" class = "elTypeBkgnd"/>
	<image xlink:href = "../dgmTypeComplex.gif" width = "10" height = "10" x = "64" y = "198"/>
	<polyline class = "connector" points = "104,62 84,62 84,202 74,202 84,202 84,342 104,342"/>
	<polyline class = "connector" points = "74,200 82,200 82,24 104,24"/>
	<polyline class = "connector" points = "104,62 116,62"/>
	<rect x = "116" y = "48" width = "86" height = "28" class = "element"/>
	<polygon class = "nodeStyle" points = "122,50 118,54 122,58 126,54"/>
	<text x = "127" y = "59" class = "elName">display-name</text>
	<rect x = "117" y = "63" width = "84" height = "12" class = "elTypeBkgnd"/>
	<image xlink:href = "../dgmDtString.gif" width = "10" height = "10" x = "192" y = "58"/>
	<circle class = "occurs" cx = "110" cy = "97" r = "6"/>
	<text x = "107" y = "100" class = "occurLarge">?</text>
	<rect x = "116" y = "83" width = "74" height = "28" class = "element"/>
	<polygon class = "nodeStyle" points = "122,85 118,89 122,93 126,89"/>
	<text x = "127" y = "94" class = "elName">description</text>
	<rect x = "117" y = "98" width = "72" height = "12" class = "elTypeBkgnd"/>
	<image xlink:href = "../dgmDtString.gif" width = "10" height = "10" x = "180" y = "93"/>
	<circle class = "occurs" cx = "110" cy = "132" r = "6"/>
	<text x = "107" y = "135" class = "occurLarge">?</text>
	<rect x = "116" y = "118" width = "43" height = "28" class = "element"/>
	<polygon class = "nodeStyle" points = "122,120 118,124 122,128 126,124"/>
	<text x = "127" y = "129" class = "elName">icon</text>
	<rect x = "117" y = "133" width = "41" height = "12" class = "elTypeBkgnd"/>
	<image xlink:href = "../dgmTypeComplex.gif" width = "10" height = "10" x = "149" y = "128"/>
	<rect x = "116" y = "153" width = "85" height = "28" class = "element"/>
	<polygon class = "nodeStyle" points = "122,155 118,159 122,163 126,159"/>
	<text x = "127" y = "164" class = "elName">vendor-name</text>
	<rect x = "117" y = "168" width = "83" height = "12" class = "elTypeBkgnd"/>
	<image xlink:href = "../dgmDtString.gif" width = "10" height = "10" x = "191" y = "163"/>
	<rect x = "116" y = "188" width = "80" height = "28" class = "element"/>
	<polygon class = "nodeStyle" points = "122,190 118,194 122,198 126,194"/>
	<text x = "127" y = "199" class = "elName">spec-version</text>
	<rect x = "117" y = "203" width = "78" height = "12" class = "elTypeBkgnd"/>
	<image xlink:href = "../dgmDtString.gif" width = "10" height = "10" x = "186" y = "198"/>
	<rect x = "116" y = "223" width = "59" height = "28" class = "element"/>
	<polygon class = "nodeStyle" points = "122,225 118,229 122,233 126,229"/>
	<text x = "127" y = "234" class = "elName">eis-type</text>
	<rect x = "117" y = "238" width = "57" height = "12" class = "elTypeBkgnd"/>
	<image xlink:href = "../dgmDtString.gif" width = "10" height = "10" x = "165" y = "233"/>
	<rect x = "116" y = "258" width = "56" height = "28" class = "element"/>
	<polygon class = "nodeStyle" points = "122,260 118,264 122,268 126,264"/>
	<text x = "127" y = "269" class = "elName">version</text>
	<rect x = "117" y = "273" width = "54" height = "12" class = "elTypeBkgnd"/>
	<image xlink:href = "../dgmDtString.gif" width = "10" height = "10" x = "162" y = "268"/>
	<circle class = "occurs" cx = "110" cy = "307" r = "6"/>
	<text x = "107" y = "310" class = "occurLarge">?</text>
	<rect x = "116" y = "293" width = "56" height = "28" class = "element"/>
	<polygon class = "nodeStyle" points = "122,295 118,299 122,303 126,299"/>
	<text x = "127" y = "304" class = "elName">license</text>
	<rect x = "117" y = "308" width = "54" height = "12" class = "elTypeBkgnd"/>
	<image xlink:href = "../dgmTypeComplex.gif" width = "10" height = "10" x = "162" y = "303"/>
	<polyline class = "connector" points = "104,342 116,342"/>
	<rect x = "116" y = "328" width = "98" height = "28" class = "element"/>
	<polygon class = "nodeStyle" points = "122,330 118,334 122,338 126,334"/>
	<text x = "127" y = "339" class = "elName">resourceadapter</text>
	<rect x = "117" y = "343" width = "96" height = "12" class = "elTypeBkgnd"/>
	<image xlink:href = "../dgmTypeComplex.gif" width = "10" height = "10" x = "204" y = "338"/>
</svg>