<?xml version = "1.0"?>
<!DOCTYPE svg PUBLIC "-//W3C//DTD SVG 20010904//EN" "http://www.w3.org/TR/2001/REC-SVG-20010904/DTD/svg10.dtd">
<svg width = "291pt" height = "186pt" viewBox = "0 0 291 186" xmlns = "http://www.w3.org/2000/svg" xmlns:xlink = "http://www.w3.org/1999/xlink">
	<defs>
		<style type = "text/css"><![CDATA[
rect.attrGroup { fill: ivory ; stroke: black; stroke-width: 1 }
rect.element { fill: ivory ; stroke: black; stroke-width: 1 }
rect.elTypeBkgnd { fill: lightgray ; stroke: none }
text.elName { font-family: helvetica ; font-size : 10 }
text.elType { font-family: helvetica ; font-size : 7 }
text.occurLarge { font-family: helvetica ; font-size : 9; fill : blue }
text.occurSmall { font-family: helvetica ; font-size : 7; fill : blue }
rect.typeIconDark { fill : darkslategray }
circle.occurs { stroke : black ; stroke-width: 1; fill : white }
circle.ellipsis { fill : black }
path.typeIconDark { stroke : lightgray ; stroke-width: 1 }
path.connector { stroke : red ; stroke-width: 1 ; fill: none; }
path.modelGroup { stroke : black ; stroke-width: 1 ; fill: lightgray; }
polyline.connector { stroke : red ; stroke-width: 1 ; fill: none; }
.nodeStyle { fill : blue }
]]></style>
	</defs>
	<rect x = "141" y = "5" width = "54" height = "38" class = "attrGroup" rx = "5" ry = "5"/>
	<circle class = "occurs" cx = "152" cy = "24" r = "6"/>
	<text x = "149" y = "27" class = "occurLarge">?</text>
	<rect x = "158" y = "10" width = "32" height = "28" class = "element" rx = "5" ry = "5"/>
	<circle class = "nodeStyle" cx = "164" cy = "16" r = "4"/>
	<text x = "169" y = "21" class = "elName">id</text>
	<rect x = "159" y = "11" width = "30" height = "26" class = "elTypeBkgnd" rx = "5" ry = "5" clip-path = "url(#e:security-constraint/a:id)"/>
	<defs/>
	<clipPath id = "e:security-constraint/a:id">
		<rect x = "158" y = "25" width = "32" height = "12"/>
	</clipPath>
	<text x = "159" y = "33" class = "elType">ID</text>
	<image xlink:href = "../dgmDtName.gif" width = "10" height = "10" x = "180" y = "20"/>
	<rect x = "5" y = "100" width = "106" height = "28" class = "element"/>
	<polygon class = "nodeStyle" points = "11,102 7,106 11,110 15,106"/>
	<text x = "16" y = "111" class = "elName">security-constraint</text>
	<rect x = "6" y = "115" width = "104" height = "12" class = "elTypeBkgnd"/>
	<image xlink:href = "../dgmTypeComplex.gif" width = "10" height = "10" x = "101" y = "110"/>
	<polyline class = "connector" points = "141,62 121,62 121,114 111,114 121,114 121,167 141,167"/>
	<polyline class = "connector" points = "111,112 119,112 119,24 141,24"/>
	<circle class = "occurs" cx = "147" cy = "62" r = "6"/>
	<text x = "144" y = "65" class = "occurLarge">?</text>
	<rect x = "153" y = "48" width = "86" height = "28" class = "element"/>
	<polygon class = "nodeStyle" points = "159,50 155,54 159,58 163,54"/>
	<text x = "164" y = "59" class = "elName">display-name</text>
	<rect x = "154" y = "63" width = "84" height = "12" class = "elTypeBkgnd"/>
	<image xlink:href = "../dgmDtString.gif" width = "10" height = "10" x = "229" y = "58"/>
	<circle class = "occurs" cx = "147" cy = "97" r = "6"/>
	<text x = "144" y = "100" class = "occurLarge">+</text>
	<rect x = "153" y = "83" width = "133" height = "28" class = "element"/>
	<polygon class = "nodeStyle" points = "159,85 155,89 159,93 163,89"/>
	<text x = "164" y = "94" class = "elName">web-resource-collection</text>
	<rect x = "154" y = "98" width = "131" height = "12" class = "elTypeBkgnd"/>
	<image xlink:href = "../dgmTypeComplex.gif" width = "10" height = "10" x = "276" y = "93"/>
	<circle class = "occurs" cx = "147" cy = "132" r = "6"/>
	<text x = "144" y = "135" class = "occurLarge">?</text>
	<rect x = "153" y = "118" width = "92" height = "28" class = "element"/>
	<polygon class = "nodeStyle" points = "159,120 155,124 159,128 163,124"/>
	<text x = "164" y = "129" class = "elName">auth-constraint</text>
	<rect x = "154" y = "133" width = "90" height = "12" class = "elTypeBkgnd"/>
	<image xlink:href = "../dgmTypeComplex.gif" width = "10" height = "10" x = "235" y = "128"/>
	<circle class = "occurs" cx = "147" cy = "167" r = "6"/>
	<text x = "144" y = "170" class = "occurLarge">?</text>
	<rect x = "153" y = "153" width = "114" height = "28" class = "element"/>
	<polygon class = "nodeStyle" points = "159,155 155,159 159,163 163,159"/>
	<text x = "164" y = "164" class = "elName">user-data-constraint</text>
	<rect x = "154" y = "168" width = "112" height = "12" class = "elTypeBkgnd"/>
	<image xlink:href = "../dgmTypeComplex.gif" width = "10" height = "10" x = "257" y = "163"/>
</svg>