<?xml version = "1.0"?>
<!DOCTYPE svg PUBLIC "-//W3C//DTD SVG 20010904//EN" "http://www.w3.org/TR/2001/REC-SVG-20010904/DTD/svg10.dtd">
<svg width = "182pt" height = "256pt" viewBox = "0 0 182 256" xmlns = "http://www.w3.org/2000/svg" xmlns:xlink = "http://www.w3.org/1999/xlink">
	<defs>
		<style type = "text/css"><![CDATA[
rect.attrGroup { fill: ivory ; stroke: black; stroke-width: 1 }
rect.element { fill: ivory ; stroke: black; stroke-width: 1 }
rect.elTypeBkgnd { fill: lightgray ; stroke: none }
text.elName { font-family: helvetica ; font-size : 10 }
text.elType { font-family: helvetica ; font-size : 7 }
text.occurLarge { font-family: helvetica ; font-size : 9; fill : blue }
text.occurSmall { font-family: helvetica ; font-size : 7; fill : blue }
rect.typeIconDark { fill : darkslategray }
circle.occurs { stroke : black ; stroke-width: 1; fill : white }
circle.ellipsis { fill : black }
path.typeIconDark { stroke : lightgray ; stroke-width: 1 }
path.connector { stroke : red ; stroke-width: 1 ; fill: none; }
path.modelGroup { stroke : black ; stroke-width: 1 ; fill: lightgray; }
polyline.connector { stroke : red ; stroke-width: 1 ; fill: none; }
.nodeStyle { fill : blue }
]]></style>
	</defs>
	<rect x = "79" y = "5" width = "54" height = "38" class = "attrGroup" rx = "5" ry = "5"/>
	<circle class = "occurs" cx = "90" cy = "24" r = "6"/>
	<text x = "87" y = "27" class = "occurLarge">?</text>
	<rect x = "96" y = "10" width = "32" height = "28" class = "element" rx = "5" ry = "5"/>
	<circle class = "nodeStyle" cx = "102" cy = "16" r = "4"/>
	<text x = "107" y = "21" class = "elName">id</text>
	<rect x = "97" y = "11" width = "30" height = "26" class = "elTypeBkgnd" rx = "5" ry = "5" clip-path = "url(#e:filter/a:id)"/>
	<defs/>
	<clipPath id = "e:filter/a:id">
		<rect x = "96" y = "25" width = "32" height = "12"/>
	</clipPath>
	<text x = "97" y = "33" class = "elType">ID</text>
	<image xlink:href = "../dgmDtName.gif" width = "10" height = "10" x = "118" y = "20"/>
	<rect x = "5" y = "135" width = "44" height = "28" class = "element"/>
	<polygon class = "nodeStyle" points = "11,137 7,141 11,145 15,141"/>
	<text x = "16" y = "146" class = "elName">filter</text>
	<rect x = "6" y = "150" width = "42" height = "12" class = "elTypeBkgnd"/>
	<image xlink:href = "../dgmTypeComplex.gif" width = "10" height = "10" x = "39" y = "145"/>
	<polyline class = "connector" points = "79,62 59,62 59,149 49,149 59,149 59,237 79,237"/>
	<polyline class = "connector" points = "49,147 57,147 57,24 79,24"/>
	<circle class = "occurs" cx = "85" cy = "62" r = "6"/>
	<text x = "82" y = "65" class = "occurLarge">?</text>
	<rect x = "91" y = "48" width = "43" height = "28" class = "element"/>
	<polygon class = "nodeStyle" points = "97,50 93,54 97,58 101,54"/>
	<text x = "102" y = "59" class = "elName">icon</text>
	<rect x = "92" y = "63" width = "41" height = "12" class = "elTypeBkgnd"/>
	<image xlink:href = "../dgmTypeComplex.gif" width = "10" height = "10" x = "124" y = "58"/>
	<rect x = "91" y = "83" width = "74" height = "28" class = "element"/>
	<polygon class = "nodeStyle" points = "97,85 93,89 97,93 101,89"/>
	<text x = "102" y = "94" class = "elName">filter-name</text>
	<rect x = "92" y = "98" width = "72" height = "12" class = "elTypeBkgnd"/>
	<image xlink:href = "../dgmDtString.gif" width = "10" height = "10" x = "155" y = "93"/>
	<circle class = "occurs" cx = "85" cy = "132" r = "6"/>
	<text x = "82" y = "135" class = "occurLarge">?</text>
	<rect x = "91" y = "118" width = "86" height = "28" class = "element"/>
	<polygon class = "nodeStyle" points = "97,120 93,124 97,128 101,124"/>
	<text x = "102" y = "129" class = "elName">display-name</text>
	<rect x = "92" y = "133" width = "84" height = "12" class = "elTypeBkgnd"/>
	<image xlink:href = "../dgmDtString.gif" width = "10" height = "10" x = "167" y = "128"/>
	<circle class = "occurs" cx = "85" cy = "167" r = "6"/>
	<text x = "82" y = "170" class = "occurLarge">?</text>
	<rect x = "91" y = "153" width = "74" height = "28" class = "element"/>
	<polygon class = "nodeStyle" points = "97,155 93,159 97,163 101,159"/>
	<text x = "102" y = "164" class = "elName">description</text>
	<rect x = "92" y = "168" width = "72" height = "12" class = "elTypeBkgnd"/>
	<image xlink:href = "../dgmDtString.gif" width = "10" height = "10" x = "155" y = "163"/>
	<rect x = "91" y = "188" width = "69" height = "28" class = "element"/>
	<polygon class = "nodeStyle" points = "97,190 93,194 97,198 101,194"/>
	<text x = "102" y = "199" class = "elName">filter-class</text>
	<rect x = "92" y = "203" width = "67" height = "12" class = "elTypeBkgnd"/>
	<image xlink:href = "../dgmDtString.gif" width = "10" height = "10" x = "150" y = "198"/>
	<circle class = "occurs" cx = "85" cy = "237" r = "6"/>
	<text x = "82" y = "240" class = "occurLarge">*</text>
	<rect x = "91" y = "223" width = "71" height = "28" class = "element"/>
	<polygon class = "nodeStyle" points = "97,225 93,229 97,233 101,229"/>
	<text x = "102" y = "234" class = "elName">init-param</text>
	<rect x = "92" y = "238" width = "69" height = "12" class = "elTypeBkgnd"/>
	<image xlink:href = "../dgmTypeComplex.gif" width = "10" height = "10" x = "152" y = "233"/>
</svg>