<?xml version = "1.0"?>
<!DOCTYPE svg PUBLIC "-//W3C//DTD SVG 20010904//EN" "http://www.w3.org/TR/2001/REC-SVG-20010904/DTD/svg10.dtd">
<svg width = "233pt" height = "116pt" viewBox = "0 0 233 116" xmlns = "http://www.w3.org/2000/svg" xmlns:xlink = "http://www.w3.org/1999/xlink">
	<defs>
		<style type = "text/css"><![CDATA[
rect.attrGroup { fill: ivory ; stroke: black; stroke-width: 1 }
rect.element { fill: ivory ; stroke: black; stroke-width: 1 }
rect.elTypeBkgnd { fill: lightgray ; stroke: none }
text.elName { font-family: helvetica ; font-size : 10 }
text.elType { font-family: helvetica ; font-size : 7 }
text.occurLarge { font-family: helvetica ; font-size : 9; fill : blue }
text.occurSmall { font-family: helvetica ; font-size : 7; fill : blue }
rect.typeIconDark { fill : darkslategray }
circle.occurs { stroke : black ; stroke-width: 1; fill : white }
circle.ellipsis { fill : black }
path.typeIconDark { stroke : lightgray ; stroke-width: 1 }
path.connector { stroke : red ; stroke-width: 1 ; fill: none; }
path.modelGroup { stroke : black ; stroke-width: 1 ; fill: lightgray; }
polyline.connector { stroke : red ; stroke-width: 1 ; fill: none; }
.nodeStyle { fill : blue }
]]></style>
	</defs>
	<rect x = "133" y = "5" width = "54" height = "38" class = "attrGroup" rx = "5" ry = "5"/>
	<circle class = "occurs" cx = "144" cy = "24" r = "6"/>
	<text x = "141" y = "27" class = "occurLarge">?</text>
	<rect x = "150" y = "10" width = "32" height = "28" class = "element" rx = "5" ry = "5"/>
	<circle class = "nodeStyle" cx = "156" cy = "16" r = "4"/>
	<text x = "161" y = "21" class = "elName">id</text>
	<rect x = "151" y = "11" width = "30" height = "26" class = "elTypeBkgnd" rx = "5" ry = "5" clip-path = "url(#e:servlet-mapping/a:id)"/>
	<defs/>
	<clipPath id = "e:servlet-mapping/a:id">
		<rect x = "150" y = "25" width = "32" height = "12"/>
	</clipPath>
	<text x = "151" y = "33" class = "elType">ID</text>
	<image xlink:href = "../dgmDtName.gif" width = "10" height = "10" x = "172" y = "20"/>
	<rect x = "5" y = "65" width = "98" height = "28" class = "element"/>
	<polygon class = "nodeStyle" points = "11,67 7,71 11,75 15,71"/>
	<text x = "16" y = "76" class = "elName">servlet-mapping</text>
	<rect x = "6" y = "80" width = "96" height = "12" class = "elTypeBkgnd"/>
	<image xlink:href = "../dgmTypeComplex.gif" width = "10" height = "10" x = "93" y = "75"/>
	<polyline class = "connector" points = "133,62 113,62 113,79 103,79 113,79 113,97 133,97"/>
	<polyline class = "connector" points = "103,77 111,77 111,24 133,24"/>
	<polyline class = "connector" points = "133,62 145,62"/>
	<rect x = "145" y = "48" width = "83" height = "28" class = "element"/>
	<polygon class = "nodeStyle" points = "151,50 147,54 151,58 155,54"/>
	<text x = "156" y = "59" class = "elName">servlet-name</text>
	<rect x = "146" y = "63" width = "81" height = "12" class = "elTypeBkgnd"/>
	<image xlink:href = "../dgmDtString.gif" width = "10" height = "10" x = "218" y = "58"/>
	<polyline class = "connector" points = "133,97 145,97"/>
	<rect x = "145" y = "83" width = "71" height = "28" class = "element"/>
	<polygon class = "nodeStyle" points = "151,85 147,89 151,93 155,89"/>
	<text x = "156" y = "94" class = "elName">url-pattern</text>
	<rect x = "146" y = "98" width = "69" height = "12" class = "elTypeBkgnd"/>
	<image xlink:href = "../dgmDtString.gif" width = "10" height = "10" x = "206" y = "93"/>
</svg>