<?xml version = "1.0"?>
<!DOCTYPE svg PUBLIC "-//W3C//DTD SVG 20010904//EN" "http://www.w3.org/TR/2001/REC-SVG-20010904/DTD/svg10.dtd">
<svg width = "214pt" height = "256pt" viewBox = "0 0 214 256" xmlns = "http://www.w3.org/2000/svg" xmlns:xlink = "http://www.w3.org/1999/xlink">
	<defs>
		<style type = "text/css"><![CDATA[
rect.attrGroup { fill: ivory ; stroke: black; stroke-width: 1 }
rect.element { fill: ivory ; stroke: black; stroke-width: 1 }
rect.elTypeBkgnd { fill: lightgray ; stroke: none }
text.elName { font-family: helvetica ; font-size : 10 }
text.elType { font-family: helvetica ; font-size : 7 }
text.occurLarge { font-family: helvetica ; font-size : 9; fill : blue }
text.occurSmall { font-family: helvetica ; font-size : 7; fill : blue }
rect.typeIconDark { fill : darkslategray }
circle.occurs { stroke : black ; stroke-width: 1; fill : white }
circle.ellipsis { fill : black }
path.typeIconDark { stroke : lightgray ; stroke-width: 1 }
path.connector { stroke : red ; stroke-width: 1 ; fill: none; }
path.modelGroup { stroke : black ; stroke-width: 1 ; fill: lightgray; }
polyline.connector { stroke : red ; stroke-width: 1 ; fill: none; }
.nodeStyle { fill : blue }
]]></style>
	</defs>
	<rect x = "114" y = "5" width = "54" height = "38" class = "attrGroup" rx = "5" ry = "5"/>
	<circle class = "occurs" cx = "125" cy = "24" r = "6"/>
	<text x = "122" y = "27" class = "occurLarge">?</text>
	<rect x = "131" y = "10" width = "32" height = "28" class = "element" rx = "5" ry = "5"/>
	<circle class = "nodeStyle" cx = "137" cy = "16" r = "4"/>
	<text x = "142" y = "21" class = "elName">id</text>
	<rect x = "132" y = "11" width = "30" height = "26" class = "elTypeBkgnd" rx = "5" ry = "5" clip-path = "url(#e:ejb-local-ref/a:id)"/>
	<defs/>
	<clipPath id = "e:ejb-local-ref/a:id">
		<rect x = "131" y = "25" width = "32" height = "12"/>
	</clipPath>
	<text x = "132" y = "33" class = "elType">ID</text>
	<image xlink:href = "../dgmDtName.gif" width = "10" height = "10" x = "153" y = "20"/>
	<rect x = "5" y = "135" width = "79" height = "28" class = "element"/>
	<polygon class = "nodeStyle" points = "11,137 7,141 11,145 15,141"/>
	<text x = "16" y = "146" class = "elName">ejb-local-ref</text>
	<rect x = "6" y = "150" width = "77" height = "12" class = "elTypeBkgnd"/>
	<image xlink:href = "../dgmTypeComplex.gif" width = "10" height = "10" x = "74" y = "145"/>
	<polyline class = "connector" points = "114,62 94,62 94,149 84,149 94,149 94,237 114,237"/>
	<polyline class = "connector" points = "84,147 92,147 92,24 114,24"/>
	<circle class = "occurs" cx = "120" cy = "62" r = "6"/>
	<text x = "117" y = "65" class = "occurLarge">?</text>
	<rect x = "126" y = "48" width = "74" height = "28" class = "element"/>
	<polygon class = "nodeStyle" points = "132,50 128,54 132,58 136,54"/>
	<text x = "137" y = "59" class = "elName">description</text>
	<rect x = "127" y = "63" width = "72" height = "12" class = "elTypeBkgnd"/>
	<image xlink:href = "../dgmDtString.gif" width = "10" height = "10" x = "190" y = "58"/>
	<rect x = "126" y = "83" width = "83" height = "28" class = "element"/>
	<polygon class = "nodeStyle" points = "132,85 128,89 132,93 136,89"/>
	<text x = "137" y = "94" class = "elName">ejb-ref-name</text>
	<rect x = "127" y = "98" width = "81" height = "12" class = "elTypeBkgnd"/>
	<image xlink:href = "../dgmDtString.gif" width = "10" height = "10" x = "199" y = "93"/>
	<rect x = "126" y = "118" width = "76" height = "28" class = "element"/>
	<polygon class = "nodeStyle" points = "132,120 128,124 132,128 136,124"/>
	<text x = "137" y = "129" class = "elName">ejb-ref-type</text>
	<rect x = "127" y = "133" width = "74" height = "12" class = "elTypeBkgnd"/>
	<image xlink:href = "../dgmDtString.gif" width = "10" height = "10" x = "192" y = "128"/>
	<rect x = "126" y = "153" width = "76" height = "28" class = "element"/>
	<polygon class = "nodeStyle" points = "132,155 128,159 132,163 136,159"/>
	<text x = "137" y = "164" class = "elName">local-home</text>
	<rect x = "127" y = "168" width = "74" height = "12" class = "elTypeBkgnd"/>
	<image xlink:href = "../dgmDtString.gif" width = "10" height = "10" x = "192" y = "163"/>
	<rect x = "126" y = "188" width = "46" height = "28" class = "element"/>
	<polygon class = "nodeStyle" points = "132,190 128,194 132,198 136,194"/>
	<text x = "137" y = "199" class = "elName">local</text>
	<rect x = "127" y = "203" width = "44" height = "12" class = "elTypeBkgnd"/>
	<image xlink:href = "../dgmDtString.gif" width = "10" height = "10" x = "162" y = "198"/>
	<circle class = "occurs" cx = "120" cy = "237" r = "6"/>
	<text x = "117" y = "240" class = "occurLarge">?</text>
	<rect x = "126" y = "223" width = "57" height = "28" class = "element"/>
	<polygon class = "nodeStyle" points = "132,225 128,229 132,233 136,229"/>
	<text x = "137" y = "234" class = "elName">ejb-link</text>
	<rect x = "127" y = "238" width = "55" height = "12" class = "elTypeBkgnd"/>
	<image xlink:href = "../dgmDtString.gif" width = "10" height = "10" x = "173" y = "233"/>
</svg>