<?xml version = "1.0"?>
<!DOCTYPE svg PUBLIC "-//W3C//DTD SVG 20010904//EN" "http://www.w3.org/TR/2001/REC-SVG-20010904/DTD/svg10.dtd">
<svg width = "253pt" height = "116pt" viewBox = "0 0 253 116" xmlns = "http://www.w3.org/2000/svg" xmlns:xlink = "http://www.w3.org/1999/xlink">
	<defs>
		<style type = "text/css"><![CDATA[
rect.attrGroup { fill: ivory ; stroke: black; stroke-width: 1 }
rect.element { fill: ivory ; stroke: black; stroke-width: 1 }
rect.elTypeBkgnd { fill: lightgray ; stroke: none }
text.elName { font-family: helvetica ; font-size : 10 }
text.elType { font-family: helvetica ; font-size : 7 }
text.occurLarge { font-family: helvetica ; font-size : 9; fill : blue }
text.occurSmall { font-family: helvetica ; font-size : 7; fill : blue }
rect.typeIconDark { fill : darkslategray }
circle.occurs { stroke : black ; stroke-width: 1; fill : white }
circle.ellipsis { fill : black }
path.typeIconDark { stroke : lightgray ; stroke-width: 1 }
path.connector { stroke : red ; stroke-width: 1 ; fill: none; }
path.modelGroup { stroke : black ; stroke-width: 1 ; fill: lightgray; }
polyline.connector { stroke : red ; stroke-width: 1 ; fill: none; }
.nodeStyle { fill : blue }
]]></style>
	</defs>
	<rect x = "138" y = "5" width = "54" height = "38" class = "attrGroup" rx = "5" ry = "5"/>
	<circle class = "occurs" cx = "149" cy = "24" r = "6"/>
	<text x = "146" y = "27" class = "occurLarge">?</text>
	<rect x = "155" y = "10" width = "32" height = "28" class = "element" rx = "5" ry = "5"/>
	<circle class = "nodeStyle" cx = "161" cy = "16" r = "4"/>
	<text x = "166" y = "21" class = "elName">id</text>
	<rect x = "156" y = "11" width = "30" height = "26" class = "elTypeBkgnd" rx = "5" ry = "5" clip-path = "url(#e:form-login-config/a:id)"/>
	<defs/>
	<clipPath id = "e:form-login-config/a:id">
		<rect x = "155" y = "25" width = "32" height = "12"/>
	</clipPath>
	<text x = "156" y = "33" class = "elType">ID</text>
	<image xlink:href = "../dgmDtName.gif" width = "10" height = "10" x = "177" y = "20"/>
	<rect x = "5" y = "65" width = "103" height = "28" class = "element"/>
	<polygon class = "nodeStyle" points = "11,67 7,71 11,75 15,71"/>
	<text x = "16" y = "76" class = "elName">form-login-config</text>
	<rect x = "6" y = "80" width = "101" height = "12" class = "elTypeBkgnd"/>
	<image xlink:href = "../dgmTypeComplex.gif" width = "10" height = "10" x = "98" y = "75"/>
	<polyline class = "connector" points = "138,62 118,62 118,79 108,79 118,79 118,97 138,97"/>
	<polyline class = "connector" points = "108,77 116,77 116,24 138,24"/>
	<polyline class = "connector" points = "138,62 150,62"/>
	<rect x = "150" y = "48" width = "98" height = "28" class = "element"/>
	<polygon class = "nodeStyle" points = "156,50 152,54 156,58 160,54"/>
	<text x = "161" y = "59" class = "elName">form-login-page</text>
	<rect x = "151" y = "63" width = "96" height = "12" class = "elTypeBkgnd"/>
	<image xlink:href = "../dgmDtString.gif" width = "10" height = "10" x = "238" y = "58"/>
	<polyline class = "connector" points = "138,97 150,97"/>
	<rect x = "150" y = "83" width = "95" height = "28" class = "element"/>
	<polygon class = "nodeStyle" points = "156,85 152,89 156,93 160,89"/>
	<text x = "161" y = "94" class = "elName">form-error-page</text>
	<rect x = "151" y = "98" width = "93" height = "12" class = "elTypeBkgnd"/>
	<image xlink:href = "../dgmDtString.gif" width = "10" height = "10" x = "235" y = "93"/>
</svg>