<?xml version = "1.0"?>
<!DOCTYPE svg PUBLIC "-//W3C//DTD SVG 20010904//EN" "http://www.w3.org/TR/2001/REC-SVG-20010904/DTD/svg10.dtd">
<svg width = "206pt" height = "151pt" viewBox = "0 0 206 151" xmlns = "http://www.w3.org/2000/svg" xmlns:xlink = "http://www.w3.org/1999/xlink">
	<defs>
		<style type = "text/css"><![CDATA[
rect.attrGroup { fill: ivory ; stroke: black; stroke-width: 1 }
rect.element { fill: ivory ; stroke: black; stroke-width: 1 }
rect.elTypeBkgnd { fill: lightgray ; stroke: none }
text.elName { font-family: helvetica ; font-size : 10 }
text.elType { font-family: helvetica ; font-size : 7 }
text.occurLarge { font-family: helvetica ; font-size : 9; fill : blue }
text.occurSmall { font-family: helvetica ; font-size : 7; fill : blue }
rect.typeIconDark { fill : darkslategray }
circle.occurs { stroke : black ; stroke-width: 1; fill : white }
circle.ellipsis { fill : black }
path.typeIconDark { stroke : lightgray ; stroke-width: 1 }
path.connector { stroke : red ; stroke-width: 1 ; fill: none; }
path.modelGroup { stroke : black ; stroke-width: 1 ; fill: lightgray; }
polyline.connector { stroke : red ; stroke-width: 1 ; fill: none; }
.nodeStyle { fill : blue }
]]></style>
	</defs>
	<rect x = "106" y = "5" width = "54" height = "38" class = "attrGroup" rx = "5" ry = "5"/>
	<circle class = "occurs" cx = "117" cy = "24" r = "6"/>
	<text x = "114" y = "27" class = "occurLarge">?</text>
	<rect x = "123" y = "10" width = "32" height = "28" class = "element" rx = "5" ry = "5"/>
	<circle class = "nodeStyle" cx = "129" cy = "16" r = "4"/>
	<text x = "134" y = "21" class = "elName">id</text>
	<rect x = "124" y = "11" width = "30" height = "26" class = "elTypeBkgnd" rx = "5" ry = "5" clip-path = "url(#e:init-param/a:id)"/>
	<defs/>
	<clipPath id = "e:init-param/a:id">
		<rect x = "123" y = "25" width = "32" height = "12"/>
	</clipPath>
	<text x = "124" y = "33" class = "elType">ID</text>
	<image xlink:href = "../dgmDtName.gif" width = "10" height = "10" x = "145" y = "20"/>
	<rect x = "5" y = "83" width = "71" height = "28" class = "element"/>
	<polygon class = "nodeStyle" points = "11,85 7,89 11,93 15,89"/>
	<text x = "16" y = "94" class = "elName">init-param</text>
	<rect x = "6" y = "98" width = "69" height = "12" class = "elTypeBkgnd"/>
	<image xlink:href = "../dgmTypeComplex.gif" width = "10" height = "10" x = "66" y = "93"/>
	<polyline class = "connector" points = "106,62 86,62 86,97 76,97 86,97 86,132 106,132"/>
	<polyline class = "connector" points = "76,95 84,95 84,24 106,24"/>
	<polyline class = "connector" points = "106,62 118,62"/>
	<rect x = "118" y = "48" width = "83" height = "28" class = "element"/>
	<polygon class = "nodeStyle" points = "124,50 120,54 124,58 128,54"/>
	<text x = "129" y = "59" class = "elName">param-name</text>
	<rect x = "119" y = "63" width = "81" height = "12" class = "elTypeBkgnd"/>
	<image xlink:href = "../dgmDtString.gif" width = "10" height = "10" x = "191" y = "58"/>
	<rect x = "118" y = "83" width = "82" height = "28" class = "element"/>
	<polygon class = "nodeStyle" points = "124,85 120,89 124,93 128,89"/>
	<text x = "129" y = "94" class = "elName">param-value</text>
	<rect x = "119" y = "98" width = "80" height = "12" class = "elTypeBkgnd"/>
	<image xlink:href = "../dgmDtString.gif" width = "10" height = "10" x = "190" y = "93"/>
	<circle class = "occurs" cx = "112" cy = "132" r = "6"/>
	<text x = "109" y = "135" class = "occurLarge">?</text>
	<rect x = "118" y = "118" width = "74" height = "28" class = "element"/>
	<polygon class = "nodeStyle" points = "124,120 120,124 124,128 128,124"/>
	<text x = "129" y = "129" class = "elName">description</text>
	<rect x = "119" y = "133" width = "72" height = "12" class = "elTypeBkgnd"/>
	<image xlink:href = "../dgmDtString.gif" width = "10" height = "10" x = "182" y = "128"/>
</svg>