<?xml version = "1.0"?>
<!DOCTYPE svg PUBLIC "-//W3C//DTD SVG 20010904//EN" "http://www.w3.org/TR/2001/REC-SVG-20010904/DTD/svg10.dtd">
<svg width = "205pt" height = "116pt" viewBox = "0 0 205 116" xmlns = "http://www.w3.org/2000/svg" xmlns:xlink = "http://www.w3.org/1999/xlink">
	<defs>
		<style type = "text/css"><![CDATA[
rect.attrGroup { fill: ivory ; stroke: black; stroke-width: 1 }
rect.element { fill: ivory ; stroke: black; stroke-width: 1 }
rect.elTypeBkgnd { fill: lightgray ; stroke: none }
text.elName { font-family: helvetica ; font-size : 10 }
text.elType { font-family: helvetica ; font-size : 7 }
text.occurLarge { font-family: helvetica ; font-size : 9; fill : blue }
text.occurSmall { font-family: helvetica ; font-size : 7; fill : blue }
rect.typeIconDark { fill : darkslategray }
circle.occurs { stroke : black ; stroke-width: 1; fill : white }
circle.ellipsis { fill : black }
path.typeIconDark { stroke : lightgray ; stroke-width: 1 }
path.connector { stroke : red ; stroke-width: 1 ; fill: none; }
path.modelGroup { stroke : black ; stroke-width: 1 ; fill: lightgray; }
polyline.connector { stroke : red ; stroke-width: 1 ; fill: none; }
.nodeStyle { fill : blue }
]]></style>
	</defs>
	<rect x = "114" y = "5" width = "54" height = "38" class = "attrGroup" rx = "5" ry = "5"/>
	<circle class = "occurs" cx = "125" cy = "24" r = "6"/>
	<text x = "122" y = "27" class = "occurLarge">?</text>
	<rect x = "131" y = "10" width = "32" height = "28" class = "element" rx = "5" ry = "5"/>
	<circle class = "nodeStyle" cx = "137" cy = "16" r = "4"/>
	<text x = "142" y = "21" class = "elName">id</text>
	<rect x = "132" y = "11" width = "30" height = "26" class = "elTypeBkgnd" rx = "5" ry = "5" clip-path = "url(#e:security-role/a:id)"/>
	<defs/>
	<clipPath id = "e:security-role/a:id">
		<rect x = "131" y = "25" width = "32" height = "12"/>
	</clipPath>
	<text x = "132" y = "33" class = "elType">ID</text>
	<image xlink:href = "../dgmDtName.gif" width = "10" height = "10" x = "153" y = "20"/>
	<rect x = "5" y = "65" width = "79" height = "28" class = "element"/>
	<polygon class = "nodeStyle" points = "11,67 7,71 11,75 15,71"/>
	<text x = "16" y = "76" class = "elName">security-role</text>
	<rect x = "6" y = "80" width = "77" height = "12" class = "elTypeBkgnd"/>
	<image xlink:href = "../dgmTypeComplex.gif" width = "10" height = "10" x = "74" y = "75"/>
	<polyline class = "connector" points = "114,62 94,62 94,79 84,79 94,79 94,97 114,97"/>
	<polyline class = "connector" points = "84,77 92,77 92,24 114,24"/>
	<circle class = "occurs" cx = "120" cy = "62" r = "6"/>
	<text x = "117" y = "65" class = "occurLarge">?</text>
	<rect x = "126" y = "48" width = "74" height = "28" class = "element"/>
	<polygon class = "nodeStyle" points = "132,50 128,54 132,58 136,54"/>
	<text x = "137" y = "59" class = "elName">description</text>
	<rect x = "127" y = "63" width = "72" height = "12" class = "elTypeBkgnd"/>
	<image xlink:href = "../dgmDtString.gif" width = "10" height = "10" x = "190" y = "58"/>
	<polyline class = "connector" points = "114,97 126,97"/>
	<rect x = "126" y = "83" width = "71" height = "28" class = "element"/>
	<polygon class = "nodeStyle" points = "132,85 128,89 132,93 136,89"/>
	<text x = "137" y = "94" class = "elName">role-name</text>
	<rect x = "127" y = "98" width = "69" height = "12" class = "elTypeBkgnd"/>
	<image xlink:href = "../dgmDtString.gif" width = "10" height = "10" x = "187" y = "93"/>
</svg>