<?xml version = "1.0"?>
<!DOCTYPE svg PUBLIC "-//W3C//DTD SVG 20010904//EN" "http://www.w3.org/TR/2001/REC-SVG-20010904/DTD/svg10.dtd">
<svg width = "220pt" height = "116pt" viewBox = "0 0 220 116" xmlns = "http://www.w3.org/2000/svg" xmlns:xlink = "http://www.w3.org/1999/xlink">
	<defs>
		<style type = "text/css"><![CDATA[
rect.attrGroup { fill: ivory ; stroke: black; stroke-width: 1 }
rect.element { fill: ivory ; stroke: black; stroke-width: 1 }
rect.elTypeBkgnd { fill: lightgray ; stroke: none }
text.elName { font-family: helvetica ; font-size : 10 }
text.elType { font-family: helvetica ; font-size : 7 }
text.occurLarge { font-family: helvetica ; font-size : 9; fill : blue }
text.occurSmall { font-family: helvetica ; font-size : 7; fill : blue }
rect.typeIconDark { fill : darkslategray }
circle.occurs { stroke : black ; stroke-width: 1; fill : white }
circle.ellipsis { fill : black }
path.typeIconDark { stroke : lightgray ; stroke-width: 1 }
path.connector { stroke : red ; stroke-width: 1 ; fill: none; }
path.modelGroup { stroke : black ; stroke-width: 1 ; fill: lightgray; }
polyline.connector { stroke : red ; stroke-width: 1 ; fill: none; }
.nodeStyle { fill : blue }
]]></style>
	</defs>
	<rect x = "130" y = "5" width = "54" height = "38" class = "attrGroup" rx = "5" ry = "5"/>
	<circle class = "occurs" cx = "141" cy = "24" r = "6"/>
	<text x = "138" y = "27" class = "occurLarge">?</text>
	<rect x = "147" y = "10" width = "32" height = "28" class = "element" rx = "5" ry = "5"/>
	<circle class = "nodeStyle" cx = "153" cy = "16" r = "4"/>
	<text x = "158" y = "21" class = "elName">id</text>
	<rect x = "148" y = "11" width = "30" height = "26" class = "elTypeBkgnd" rx = "5" ry = "5" clip-path = "url(#e:mime-mapping/a:id)"/>
	<defs/>
	<clipPath id = "e:mime-mapping/a:id">
		<rect x = "147" y = "25" width = "32" height = "12"/>
	</clipPath>
	<text x = "148" y = "33" class = "elType">ID</text>
	<image xlink:href = "../dgmDtName.gif" width = "10" height = "10" x = "169" y = "20"/>
	<rect x = "5" y = "65" width = "95" height = "28" class = "element"/>
	<polygon class = "nodeStyle" points = "11,67 7,71 11,75 15,71"/>
	<text x = "16" y = "76" class = "elName">mime-mapping</text>
	<rect x = "6" y = "80" width = "93" height = "12" class = "elTypeBkgnd"/>
	<image xlink:href = "../dgmTypeComplex.gif" width = "10" height = "10" x = "90" y = "75"/>
	<polyline class = "connector" points = "130,62 110,62 110,79 100,79 110,79 110,97 130,97"/>
	<polyline class = "connector" points = "100,77 108,77 108,24 130,24"/>
	<polyline class = "connector" points = "130,62 142,62"/>
	<rect x = "142" y = "48" width = "68" height = "28" class = "element"/>
	<polygon class = "nodeStyle" points = "148,50 144,54 148,58 152,54"/>
	<text x = "153" y = "59" class = "elName">extension</text>
	<rect x = "143" y = "63" width = "66" height = "12" class = "elTypeBkgnd"/>
	<image xlink:href = "../dgmDtString.gif" width = "10" height = "10" x = "200" y = "58"/>
	<polyline class = "connector" points = "130,97 142,97"/>
	<rect x = "142" y = "83" width = "73" height = "28" class = "element"/>
	<polygon class = "nodeStyle" points = "148,85 144,89 148,93 152,89"/>
	<text x = "153" y = "94" class = "elName">mime-type</text>
	<rect x = "143" y = "98" width = "71" height = "12" class = "elTypeBkgnd"/>
	<image xlink:href = "../dgmDtString.gif" width = "10" height = "10" x = "205" y = "93"/>
</svg>