<?xml version = "1.0"?>
<!DOCTYPE svg PUBLIC "-//W3C//DTD SVG 20010904//EN" "http://www.w3.org/TR/2001/REC-SVG-20010904/DTD/svg10.dtd">
<svg width = "225pt" height = "396pt" viewBox = "0 0 225 396" xmlns = "http://www.w3.org/2000/svg" xmlns:xlink = "http://www.w3.org/1999/xlink">
	<defs>
		<style type = "text/css"><![CDATA[
rect.attrGroup { fill: ivory ; stroke: black; stroke-width: 1 }
rect.element { fill: ivory ; stroke: black; stroke-width: 1 }
rect.elTypeBkgnd { fill: lightgray ; stroke: none }
text.elName { font-family: helvetica ; font-size : 10 }
text.elType { font-family: helvetica ; font-size : 7 }
text.occurLarge { font-family: helvetica ; font-size : 9; fill : blue }
text.occurSmall { font-family: helvetica ; font-size : 7; fill : blue }
rect.typeIconDark { fill : darkslategray }
circle.occurs { stroke : black ; stroke-width: 1; fill : white }
circle.ellipsis { fill : black }
path.typeIconDark { stroke : lightgray ; stroke-width: 1 }
path.connector { stroke : red ; stroke-width: 1 ; fill: none; }
path.modelGroup { stroke : black ; stroke-width: 1 ; fill: lightgray; }
polyline.connector { stroke : red ; stroke-width: 1 ; fill: none; }
.nodeStyle { fill : blue }
]]></style>
	</defs>
	<rect x = "88" y = "5" width = "54" height = "38" class = "attrGroup" rx = "5" ry = "5"/>
	<circle class = "occurs" cx = "99" cy = "24" r = "6"/>
	<text x = "96" y = "27" class = "occurLarge">?</text>
	<rect x = "105" y = "10" width = "32" height = "28" class = "element" rx = "5" ry = "5"/>
	<circle class = "nodeStyle" cx = "111" cy = "16" r = "4"/>
	<text x = "116" y = "21" class = "elName">id</text>
	<rect x = "106" y = "11" width = "30" height = "26" class = "elTypeBkgnd" rx = "5" ry = "5" clip-path = "url(#e:servlet/a:id)"/>
	<defs/>
	<clipPath id = "e:servlet/a:id">
		<rect x = "105" y = "25" width = "32" height = "12"/>
	</clipPath>
	<text x = "106" y = "33" class = "elType">ID</text>
	<image xlink:href = "../dgmDtName.gif" width = "10" height = "10" x = "127" y = "20"/>
	<rect x = "5" y = "205" width = "53" height = "28" class = "element"/>
	<polygon class = "nodeStyle" points = "11,207 7,211 11,215 15,211"/>
	<text x = "16" y = "216" class = "elName">servlet</text>
	<rect x = "6" y = "220" width = "51" height = "12" class = "elTypeBkgnd"/>
	<image xlink:href = "../dgmTypeComplex.gif" width = "10" height = "10" x = "48" y = "215"/>
	<polyline class = "connector" points = "88,62 68,62 68,219 58,219 68,219 68,377 88,377"/>
	<polyline class = "connector" points = "58,217 66,217 66,24 88,24"/>
	<circle class = "occurs" cx = "94" cy = "62" r = "6"/>
	<text x = "91" y = "65" class = "occurLarge">?</text>
	<rect x = "100" y = "48" width = "43" height = "28" class = "element"/>
	<polygon class = "nodeStyle" points = "106,50 102,54 106,58 110,54"/>
	<text x = "111" y = "59" class = "elName">icon</text>
	<rect x = "101" y = "63" width = "41" height = "12" class = "elTypeBkgnd"/>
	<image xlink:href = "../dgmTypeComplex.gif" width = "10" height = "10" x = "133" y = "58"/>
	<rect x = "100" y = "83" width = "83" height = "28" class = "element"/>
	<polygon class = "nodeStyle" points = "106,85 102,89 106,93 110,89"/>
	<text x = "111" y = "94" class = "elName">servlet-name</text>
	<rect x = "101" y = "98" width = "81" height = "12" class = "elTypeBkgnd"/>
	<image xlink:href = "../dgmDtString.gif" width = "10" height = "10" x = "173" y = "93"/>
	<circle class = "occurs" cx = "94" cy = "132" r = "6"/>
	<text x = "91" y = "135" class = "occurLarge">?</text>
	<rect x = "100" y = "118" width = "86" height = "28" class = "element"/>
	<polygon class = "nodeStyle" points = "106,120 102,124 106,128 110,124"/>
	<text x = "111" y = "129" class = "elName">display-name</text>
	<rect x = "101" y = "133" width = "84" height = "12" class = "elTypeBkgnd"/>
	<image xlink:href = "../dgmDtString.gif" width = "10" height = "10" x = "176" y = "128"/>
	<circle class = "occurs" cx = "94" cy = "167" r = "6"/>
	<text x = "91" y = "170" class = "occurLarge">?</text>
	<rect x = "100" y = "153" width = "74" height = "28" class = "element"/>
	<polygon class = "nodeStyle" points = "106,155 102,159 106,163 110,159"/>
	<text x = "111" y = "164" class = "elName">description</text>
	<rect x = "101" y = "168" width = "72" height = "12" class = "elTypeBkgnd"/>
	<image xlink:href = "../dgmDtString.gif" width = "10" height = "10" x = "164" y = "163"/>
	<circle class = "occurs" cx = "94" cy = "219" r = "6"/>
	<text x = "91" y = "222" class = "occurLarge">1</text>
	<polyline class = "connector" points = "130,202 110,219 100,219 110,219 130,237"/>
	<polyline class = "connector" points = "130,202 142,202"/>
	<rect x = "142" y = "188" width = "78" height = "28" class = "element"/>
	<polygon class = "nodeStyle" points = "148,190 144,194 148,198 152,194"/>
	<text x = "153" y = "199" class = "elName">servlet-class</text>
	<rect x = "143" y = "203" width = "76" height = "12" class = "elTypeBkgnd"/>
	<image xlink:href = "../dgmDtString.gif" width = "10" height = "10" x = "210" y = "198"/>
	<polyline class = "connector" points = "130,237 142,237"/>
	<rect x = "142" y = "223" width = "54" height = "28" class = "element"/>
	<polygon class = "nodeStyle" points = "148,225 144,229 148,233 152,229"/>
	<text x = "153" y = "234" class = "elName">jsp-file</text>
	<rect x = "143" y = "238" width = "52" height = "12" class = "elTypeBkgnd"/>
	<image xlink:href = "../dgmDtString.gif" width = "10" height = "10" x = "186" y = "233"/>
	<circle class = "occurs" cx = "94" cy = "272" r = "6"/>
	<text x = "91" y = "275" class = "occurLarge">*</text>
	<rect x = "100" y = "258" width = "71" height = "28" class = "element"/>
	<polygon class = "nodeStyle" points = "106,260 102,264 106,268 110,264"/>
	<text x = "111" y = "269" class = "elName">init-param</text>
	<rect x = "101" y = "273" width = "69" height = "12" class = "elTypeBkgnd"/>
	<image xlink:href = "../dgmTypeComplex.gif" width = "10" height = "10" x = "161" y = "268"/>
	<circle class = "occurs" cx = "94" cy = "307" r = "6"/>
	<text x = "91" y = "310" class = "occurLarge">?</text>
	<rect x = "100" y = "293" width = "93" height = "28" class = "element"/>
	<polygon class = "nodeStyle" points = "106,295 102,299 106,303 110,299"/>
	<text x = "111" y = "304" class = "elName">load-on-startup</text>
	<rect x = "101" y = "308" width = "91" height = "12" class = "elTypeBkgnd"/>
	<image xlink:href = "../dgmDtString.gif" width = "10" height = "10" x = "183" y = "303"/>
	<circle class = "occurs" cx = "94" cy = "342" r = "6"/>
	<text x = "91" y = "345" class = "occurLarge">?</text>
	<rect x = "100" y = "328" width = "51" height = "28" class = "element"/>
	<polygon class = "nodeStyle" points = "106,330 102,334 106,338 110,334"/>
	<text x = "111" y = "339" class = "elName">run-as</text>
	<rect x = "101" y = "343" width = "49" height = "12" class = "elTypeBkgnd"/>
	<image xlink:href = "../dgmTypeComplex.gif" width = "10" height = "10" x = "141" y = "338"/>
	<circle class = "occurs" cx = "94" cy = "377" r = "6"/>
	<text x = "91" y = "380" class = "occurLarge">*</text>
	<rect x = "100" y = "363" width = "94" height = "28" class = "element"/>
	<polygon class = "nodeStyle" points = "106,365 102,369 106,373 110,369"/>
	<text x = "111" y = "374" class = "elName">security-role-ref</text>
	<rect x = "101" y = "378" width = "92" height = "12" class = "elTypeBkgnd"/>
	<image xlink:href = "../dgmTypeComplex.gif" width = "10" height = "10" x = "184" y = "373"/>
</svg>