<?xml version = "1.0"?>
<!DOCTYPE svg PUBLIC "-//W3C//DTD SVG 20010904//EN" "http://www.w3.org/TR/2001/REC-SVG-20010904/DTD/svg10.dtd">
<svg width = "217pt" height = "213pt" viewBox = "0 0 217 213" xmlns = "http://www.w3.org/2000/svg" xmlns:xlink = "http://www.w3.org/1999/xlink">
	<defs>
		<style type = "text/css"><![CDATA[
rect.attrGroup { fill: ivory ; stroke: black; stroke-width: 1 }
rect.element { fill: ivory ; stroke: black; stroke-width: 1 }
rect.elTypeBkgnd { fill: lightgray ; stroke: none }
text.elName { font-family: helvetica ; font-size : 10 }
text.elType { font-family: helvetica ; font-size : 7 }
text.occurLarge { font-family: helvetica ; font-size : 9; fill : blue }
text.occurSmall { font-family: helvetica ; font-size : 7; fill : blue }
rect.typeIconDark { fill : darkslategray }
circle.occurs { stroke : black ; stroke-width: 1; fill : white }
circle.ellipsis { fill : black }
path.typeIconDark { stroke : lightgray ; stroke-width: 1 }
path.connector { stroke : red ; stroke-width: 1 ; fill: none; }
path.modelGroup { stroke : black ; stroke-width: 1 ; fill: lightgray; }
polyline.connector { stroke : red ; stroke-width: 1 ; fill: none; }
.nodeStyle { fill : blue }
]]></style>
	</defs>
	<rect x = "5" y = "92" width = "68" height = "28" class = "element"/>
	<polygon class = "nodeStyle" points = "11,94 7,98 11,102 15,98"/>
	<text x = "16" y = "103" class = "elName">jboss-web</text>
	<rect x = "6" y = "107" width = "66" height = "12" class = "elTypeBkgnd"/>
	<image xlink:href = "../dgmTypeComplex.gif" width = "10" height = "10" x = "63" y = "102"/>
	<polyline class = "connector" points = "103,19 83,19 83,106 73,106 83,106 83,194 103,194"/>
	<circle class = "occurs" cx = "109" cy = "19" r = "6"/>
	<text x = "106" y = "22" class = "occurLarge">?</text>
	<rect x = "115" y = "5" width = "97" height = "28" class = "element"/>
	<polygon class = "nodeStyle" points = "121,7 117,11 121,15 125,11"/>
	<text x = "126" y = "16" class = "elName">security-domain</text>
	<rect x = "116" y = "20" width = "95" height = "12" class = "elTypeBkgnd"/>
	<image xlink:href = "../dgmDtString.gif" width = "10" height = "10" x = "202" y = "15"/>
	<circle class = "occurs" cx = "109" cy = "54" r = "6"/>
	<text x = "106" y = "57" class = "occurLarge">?</text>
	<rect x = "115" y = "40" width = "78" height = "28" class = "element"/>
	<polygon class = "nodeStyle" points = "121,42 117,46 121,50 125,46"/>
	<text x = "126" y = "51" class = "elName">context-root</text>
	<rect x = "116" y = "55" width = "76" height = "12" class = "elTypeBkgnd"/>
	<image xlink:href = "../dgmDtString.gif" width = "10" height = "10" x = "183" y = "50"/>
	<circle class = "occurs" cx = "109" cy = "89" r = "6"/>
	<text x = "106" y = "92" class = "occurLarge">?</text>
	<rect x = "115" y = "75" width = "74" height = "28" class = "element"/>
	<polygon class = "nodeStyle" points = "121,77 117,81 121,85 125,81"/>
	<text x = "126" y = "86" class = "elName">virtual-host</text>
	<rect x = "116" y = "90" width = "72" height = "12" class = "elTypeBkgnd"/>
	<image xlink:href = "../dgmDtString.gif" width = "10" height = "10" x = "179" y = "85"/>
	<circle class = "occurs" cx = "109" cy = "124" r = "6"/>
	<text x = "106" y = "127" class = "occurLarge">*</text>
	<rect x = "115" y = "110" width = "97" height = "28" class = "element"/>
	<polygon class = "nodeStyle" points = "121,112 117,116 121,120 125,116"/>
	<text x = "126" y = "121" class = "elName">resource-env-ref</text>
	<rect x = "116" y = "125" width = "95" height = "12" class = "elTypeBkgnd"/>
	<image xlink:href = "../dgmTypeComplex.gif" width = "10" height = "10" x = "202" y = "120"/>
	<circle class = "occurs" cx = "109" cy = "159" r = "6"/>
	<text x = "106" y = "162" class = "occurLarge">*</text>
	<rect x = "115" y = "145" width = "77" height = "28" class = "element"/>
	<polygon class = "nodeStyle" points = "121,147 117,151 121,155 125,151"/>
	<text x = "126" y = "156" class = "elName">resource-ref</text>
	<rect x = "116" y = "160" width = "75" height = "12" class = "elTypeBkgnd"/>
	<image xlink:href = "../dgmTypeComplex.gif" width = "10" height = "10" x = "182" y = "155"/>
	<circle class = "occurs" cx = "109" cy = "194" r = "6"/>
	<text x = "106" y = "197" class = "occurLarge">*</text>
	<rect x = "115" y = "180" width = "53" height = "28" class = "element"/>
	<polygon class = "nodeStyle" points = "121,182 117,186 121,190 125,186"/>
	<text x = "126" y = "191" class = "elName">ejb-ref</text>
	<rect x = "116" y = "195" width = "51" height = "12" class = "elTypeBkgnd"/>
	<image xlink:href = "../dgmTypeComplex.gif" width = "10" height = "10" x = "158" y = "190"/>
</svg>