<?xml version = "1.0"?>
<!DOCTYPE svg PUBLIC "-//W3C//DTD SVG 20010904//EN" "http://www.w3.org/TR/2001/REC-SVG-20010904/DTD/svg10.dtd">
<svg width = "276pt" height = "151pt" viewBox = "0 0 276 151" xmlns = "http://www.w3.org/2000/svg" xmlns:xlink = "http://www.w3.org/1999/xlink">
	<defs>
		<style type = "text/css"><![CDATA[
rect.attrGroup { fill: ivory ; stroke: black; stroke-width: 1 }
rect.element { fill: ivory ; stroke: black; stroke-width: 1 }
rect.elTypeBkgnd { fill: lightgray ; stroke: none }
text.elName { font-family: helvetica ; font-size : 10 }
text.elType { font-family: helvetica ; font-size : 7 }
text.occurLarge { font-family: helvetica ; font-size : 9; fill : blue }
text.occurSmall { font-family: helvetica ; font-size : 7; fill : blue }
rect.typeIconDark { fill : darkslategray }
circle.occurs { stroke : black ; stroke-width: 1; fill : white }
circle.ellipsis { fill : black }
path.typeIconDark { stroke : lightgray ; stroke-width: 1 }
path.connector { stroke : red ; stroke-width: 1 ; fill: none; }
path.modelGroup { stroke : black ; stroke-width: 1 ; fill: lightgray; }
polyline.connector { stroke : red ; stroke-width: 1 ; fill: none; }
.nodeStyle { fill : blue }
]]></style>
	</defs>
	<rect x = "132" y = "5" width = "54" height = "38" class = "attrGroup" rx = "5" ry = "5"/>
	<circle class = "occurs" cx = "143" cy = "24" r = "6"/>
	<text x = "140" y = "27" class = "occurLarge">?</text>
	<rect x = "149" y = "10" width = "32" height = "28" class = "element" rx = "5" ry = "5"/>
	<circle class = "nodeStyle" cx = "155" cy = "16" r = "4"/>
	<text x = "160" y = "21" class = "elName">id</text>
	<rect x = "150" y = "11" width = "30" height = "26" class = "elTypeBkgnd" rx = "5" ry = "5" clip-path = "url(#e:resource-env-ref/a:id)"/>
	<defs/>
	<clipPath id = "e:resource-env-ref/a:id">
		<rect x = "149" y = "25" width = "32" height = "12"/>
	</clipPath>
	<text x = "150" y = "33" class = "elType">ID</text>
	<image xlink:href = "../dgmDtName.gif" width = "10" height = "10" x = "171" y = "20"/>
	<rect x = "5" y = "83" width = "97" height = "28" class = "element"/>
	<polygon class = "nodeStyle" points = "11,85 7,89 11,93 15,89"/>
	<text x = "16" y = "94" class = "elName">resource-env-ref</text>
	<rect x = "6" y = "98" width = "95" height = "12" class = "elTypeBkgnd"/>
	<image xlink:href = "../dgmTypeComplex.gif" width = "10" height = "10" x = "92" y = "93"/>
	<polyline class = "connector" points = "132,62 112,62 112,97 102,97 112,97 112,132 132,132"/>
	<polyline class = "connector" points = "102,95 110,95 110,24 132,24"/>
	<circle class = "occurs" cx = "138" cy = "62" r = "6"/>
	<text x = "135" y = "65" class = "occurLarge">?</text>
	<rect x = "144" y = "48" width = "74" height = "28" class = "element"/>
	<polygon class = "nodeStyle" points = "150,50 146,54 150,58 154,54"/>
	<text x = "155" y = "59" class = "elName">description</text>
	<rect x = "145" y = "63" width = "72" height = "12" class = "elTypeBkgnd"/>
	<image xlink:href = "../dgmDtString.gif" width = "10" height = "10" x = "208" y = "58"/>
	<rect x = "144" y = "83" width = "127" height = "28" class = "element"/>
	<polygon class = "nodeStyle" points = "150,85 146,89 150,93 154,89"/>
	<text x = "155" y = "94" class = "elName">resource-env-ref-name</text>
	<rect x = "145" y = "98" width = "125" height = "12" class = "elTypeBkgnd"/>
	<image xlink:href = "../dgmDtString.gif" width = "10" height = "10" x = "261" y = "93"/>
	<polyline class = "connector" points = "132,132 144,132"/>
	<rect x = "144" y = "118" width = "120" height = "28" class = "element"/>
	<polygon class = "nodeStyle" points = "150,120 146,124 150,128 154,124"/>
	<text x = "155" y = "129" class = "elName">resource-env-ref-type</text>
	<rect x = "145" y = "133" width = "118" height = "12" class = "elTypeBkgnd"/>
	<image xlink:href = "../dgmDtString.gif" width = "10" height = "10" x = "254" y = "128"/>
</svg>