<?xml version = "1.0"?>
<!DOCTYPE svg PUBLIC "-//W3C//DTD SVG 20010904//EN" "http://www.w3.org/TR/2001/REC-SVG-20010904/DTD/svg10.dtd">
<svg width = "214pt" height = "186pt" viewBox = "0 0 214 186" xmlns = "http://www.w3.org/2000/svg" xmlns:xlink = "http://www.w3.org/1999/xlink">
	<defs>
		<style type = "text/css"><![CDATA[
rect.attrGroup { fill: ivory ; stroke: black; stroke-width: 1 }
rect.element { fill: ivory ; stroke: black; stroke-width: 1 }
rect.elTypeBkgnd { fill: lightgray ; stroke: none }
text.elName { font-family: helvetica ; font-size : 10 }
text.elType { font-family: helvetica ; font-size : 7 }
text.occurLarge { font-family: helvetica ; font-size : 9; fill : blue }
text.occurSmall { font-family: helvetica ; font-size : 7; fill : blue }
rect.typeIconDark { fill : darkslategray }
circle.occurs { stroke : black ; stroke-width: 1; fill : white }
circle.ellipsis { fill : black }
path.typeIconDark { stroke : lightgray ; stroke-width: 1 }
path.connector { stroke : red ; stroke-width: 1 ; fill: none; }
path.modelGroup { stroke : black ; stroke-width: 1 ; fill: lightgray; }
polyline.connector { stroke : red ; stroke-width: 1 ; fill: none; }
.nodeStyle { fill : blue }
]]></style>
	</defs>
	<rect x = "101" y = "5" width = "54" height = "38" class = "attrGroup" rx = "5" ry = "5"/>
	<circle class = "occurs" cx = "112" cy = "24" r = "6"/>
	<text x = "109" y = "27" class = "occurLarge">?</text>
	<rect x = "118" y = "10" width = "32" height = "28" class = "element" rx = "5" ry = "5"/>
	<circle class = "nodeStyle" cx = "124" cy = "16" r = "4"/>
	<text x = "129" y = "21" class = "elName">id</text>
	<rect x = "119" y = "11" width = "30" height = "26" class = "elTypeBkgnd" rx = "5" ry = "5" clip-path = "url(#e:env-entry/a:id)"/>
	<defs/>
	<clipPath id = "e:env-entry/a:id">
		<rect x = "118" y = "25" width = "32" height = "12"/>
	</clipPath>
	<text x = "119" y = "33" class = "elType">ID</text>
	<image xlink:href = "../dgmDtName.gif" width = "10" height = "10" x = "140" y = "20"/>
	<rect x = "5" y = "100" width = "66" height = "28" class = "element"/>
	<polygon class = "nodeStyle" points = "11,102 7,106 11,110 15,106"/>
	<text x = "16" y = "111" class = "elName">env-entry</text>
	<rect x = "6" y = "115" width = "64" height = "12" class = "elTypeBkgnd"/>
	<image xlink:href = "../dgmTypeComplex.gif" width = "10" height = "10" x = "61" y = "110"/>
	<polyline class = "connector" points = "101,62 81,62 81,114 71,114 81,114 81,167 101,167"/>
	<polyline class = "connector" points = "71,112 79,112 79,24 101,24"/>
	<circle class = "occurs" cx = "107" cy = "62" r = "6"/>
	<text x = "104" y = "65" class = "occurLarge">?</text>
	<rect x = "113" y = "48" width = "74" height = "28" class = "element"/>
	<polygon class = "nodeStyle" points = "119,50 115,54 119,58 123,54"/>
	<text x = "124" y = "59" class = "elName">description</text>
	<rect x = "114" y = "63" width = "72" height = "12" class = "elTypeBkgnd"/>
	<image xlink:href = "../dgmDtString.gif" width = "10" height = "10" x = "177" y = "58"/>
	<rect x = "113" y = "83" width = "96" height = "28" class = "element"/>
	<polygon class = "nodeStyle" points = "119,85 115,89 119,93 123,89"/>
	<text x = "124" y = "94" class = "elName">env-entry-name</text>
	<rect x = "114" y = "98" width = "94" height = "12" class = "elTypeBkgnd"/>
	<image xlink:href = "../dgmDtString.gif" width = "10" height = "10" x = "199" y = "93"/>
	<rect x = "113" y = "118" width = "89" height = "28" class = "element"/>
	<polygon class = "nodeStyle" points = "119,120 115,124 119,128 123,124"/>
	<text x = "124" y = "129" class = "elName">env-entry-type</text>
	<rect x = "114" y = "133" width = "87" height = "12" class = "elTypeBkgnd"/>
	<image xlink:href = "../dgmDtString.gif" width = "10" height = "10" x = "192" y = "128"/>
	<circle class = "occurs" cx = "107" cy = "167" r = "6"/>
	<text x = "104" y = "170" class = "occurLarge">?</text>
	<rect x = "113" y = "153" width = "95" height = "28" class = "element"/>
	<polygon class = "nodeStyle" points = "119,155 115,159 119,163 123,159"/>
	<text x = "124" y = "164" class = "elName">env-entry-value</text>
	<rect x = "114" y = "168" width = "93" height = "12" class = "elTypeBkgnd"/>
	<image xlink:href = "../dgmDtString.gif" width = "10" height = "10" x = "198" y = "163"/>
</svg>