<?xml version = "1.0"?>
<!DOCTYPE svg PUBLIC "-//W3C//DTD SVG 20010904//EN" "http://www.w3.org/TR/2001/REC-SVG-20010904/DTD/svg10.dtd">
<svg width = "257pt" height = "326pt" viewBox = "0 0 257 326" xmlns = "http://www.w3.org/2000/svg" xmlns:xlink = "http://www.w3.org/1999/xlink">
	<defs>
		<style type = "text/css"><![CDATA[
rect.attrGroup { fill: ivory ; stroke: black; stroke-width: 1 }
rect.element { fill: ivory ; stroke: black; stroke-width: 1 }
rect.elTypeBkgnd { fill: lightgray ; stroke: none }
text.elName { font-family: helvetica ; font-size : 10 }
text.elType { font-family: helvetica ; font-size : 7 }
text.occurLarge { font-family: helvetica ; font-size : 9; fill : blue }
text.occurSmall { font-family: helvetica ; font-size : 7; fill : blue }
rect.typeIconDark { fill : darkslategray }
circle.occurs { stroke : black ; stroke-width: 1; fill : white }
circle.ellipsis { fill : black }
path.typeIconDark { stroke : lightgray ; stroke-width: 1 }
path.connector { stroke : red ; stroke-width: 1 ; fill: none; }
path.modelGroup { stroke : black ; stroke-width: 1 ; fill: lightgray; }
polyline.connector { stroke : red ; stroke-width: 1 ; fill: none; }
.nodeStyle { fill : blue }
]]></style>
	</defs>
	<rect x = "140" y = "5" width = "54" height = "38" class = "attrGroup" rx = "5" ry = "5"/>
	<circle class = "occurs" cx = "151" cy = "24" r = "6"/>
	<text x = "148" y = "27" class = "occurLarge">?</text>
	<rect x = "157" y = "10" width = "32" height = "28" class = "element" rx = "5" ry = "5"/>
	<circle class = "nodeStyle" cx = "163" cy = "16" r = "4"/>
	<text x = "168" y = "21" class = "elName">id</text>
	<rect x = "158" y = "11" width = "30" height = "26" class = "elTypeBkgnd" rx = "5" ry = "5" clip-path = "url(#e:application-client/a:id)"/>
	<defs/>
	<clipPath id = "e:application-client/a:id">
		<rect x = "157" y = "25" width = "32" height = "12"/>
	</clipPath>
	<text x = "158" y = "33" class = "elType">ID</text>
	<image xlink:href = "../dgmDtName.gif" width = "10" height = "10" x = "179" y = "20"/>
	<rect x = "5" y = "170" width = "105" height = "28" class = "element"/>
	<polygon class = "nodeStyle" points = "11,172 7,176 11,180 15,176"/>
	<text x = "16" y = "181" class = "elName">application-client</text>
	<rect x = "6" y = "185" width = "103" height = "12" class = "elTypeBkgnd"/>
	<image xlink:href = "../dgmTypeComplex.gif" width = "10" height = "10" x = "100" y = "180"/>
	<polyline class = "connector" points = "140,62 120,62 120,184 110,184 120,184 120,307 140,307"/>
	<polyline class = "connector" points = "110,182 118,182 118,24 140,24"/>
	<circle class = "occurs" cx = "146" cy = "62" r = "6"/>
	<text x = "143" y = "65" class = "occurLarge">?</text>
	<rect x = "152" y = "48" width = "43" height = "28" class = "element"/>
	<polygon class = "nodeStyle" points = "158,50 154,54 158,58 162,54"/>
	<text x = "163" y = "59" class = "elName">icon</text>
	<rect x = "153" y = "63" width = "41" height = "12" class = "elTypeBkgnd"/>
	<image xlink:href = "../dgmTypeComplex.gif" width = "10" height = "10" x = "185" y = "58"/>
	<rect x = "152" y = "83" width = "86" height = "28" class = "element"/>
	<polygon class = "nodeStyle" points = "158,85 154,89 158,93 162,89"/>
	<text x = "163" y = "94" class = "elName">display-name</text>
	<rect x = "153" y = "98" width = "84" height = "12" class = "elTypeBkgnd"/>
	<image xlink:href = "../dgmDtString.gif" width = "10" height = "10" x = "228" y = "93"/>
	<circle class = "occurs" cx = "146" cy = "132" r = "6"/>
	<text x = "143" y = "135" class = "occurLarge">?</text>
	<rect x = "152" y = "118" width = "74" height = "28" class = "element"/>
	<polygon class = "nodeStyle" points = "158,120 154,124 158,128 162,124"/>
	<text x = "163" y = "129" class = "elName">description</text>
	<rect x = "153" y = "133" width = "72" height = "12" class = "elTypeBkgnd"/>
	<image xlink:href = "../dgmDtString.gif" width = "10" height = "10" x = "216" y = "128"/>
	<circle class = "occurs" cx = "146" cy = "167" r = "6"/>
	<text x = "143" y = "170" class = "occurLarge">*</text>
	<rect x = "152" y = "153" width = "66" height = "28" class = "element"/>
	<polygon class = "nodeStyle" points = "158,155 154,159 158,163 162,159"/>
	<text x = "163" y = "164" class = "elName">env-entry</text>
	<rect x = "153" y = "168" width = "64" height = "12" class = "elTypeBkgnd"/>
	<image xlink:href = "../dgmTypeComplex.gif" width = "10" height = "10" x = "208" y = "163"/>
	<circle class = "occurs" cx = "146" cy = "202" r = "6"/>
	<text x = "143" y = "205" class = "occurLarge">*</text>
	<rect x = "152" y = "188" width = "53" height = "28" class = "element"/>
	<polygon class = "nodeStyle" points = "158,190 154,194 158,198 162,194"/>
	<text x = "163" y = "199" class = "elName">ejb-ref</text>
	<rect x = "153" y = "203" width = "51" height = "12" class = "elTypeBkgnd"/>
	<image xlink:href = "../dgmTypeComplex.gif" width = "10" height = "10" x = "195" y = "198"/>
	<circle class = "occurs" cx = "146" cy = "237" r = "6"/>
	<text x = "143" y = "240" class = "occurLarge">*</text>
	<rect x = "152" y = "223" width = "77" height = "28" class = "element"/>
	<polygon class = "nodeStyle" points = "158,225 154,229 158,233 162,229"/>
	<text x = "163" y = "234" class = "elName">resource-ref</text>
	<rect x = "153" y = "238" width = "75" height = "12" class = "elTypeBkgnd"/>
	<image xlink:href = "../dgmTypeComplex.gif" width = "10" height = "10" x = "219" y = "233"/>
	<circle class = "occurs" cx = "146" cy = "272" r = "6"/>
	<text x = "143" y = "275" class = "occurLarge">*</text>
	<rect x = "152" y = "258" width = "97" height = "28" class = "element"/>
	<polygon class = "nodeStyle" points = "158,260 154,264 158,268 162,264"/>
	<text x = "163" y = "269" class = "elName">resource-env-ref</text>
	<rect x = "153" y = "273" width = "95" height = "12" class = "elTypeBkgnd"/>
	<image xlink:href = "../dgmTypeComplex.gif" width = "10" height = "10" x = "239" y = "268"/>
	<circle class = "occurs" cx = "146" cy = "307" r = "6"/>
	<text x = "143" y = "310" class = "occurLarge">?</text>
	<rect x = "152" y = "293" width = "100" height = "28" class = "element"/>
	<polygon class = "nodeStyle" points = "158,295 154,299 158,303 162,299"/>
	<text x = "163" y = "304" class = "elName">callback-handler</text>
	<rect x = "153" y = "308" width = "98" height = "12" class = "elTypeBkgnd"/>
	<image xlink:href = "../dgmDtString.gif" width = "10" height = "10" x = "242" y = "303"/>
</svg>