<?xml version = "1.0"?>
<!DOCTYPE svg PUBLIC "-//W3C//DTD SVG 20010904//EN" "http://www.w3.org/TR/2001/REC-SVG-20010904/DTD/svg10.dtd">
<svg width = "232pt" height = "388pt" viewBox = "0 0 232 388" xmlns = "http://www.w3.org/2000/svg" xmlns:xlink = "http://www.w3.org/1999/xlink">
	<defs>
		<style type = "text/css"><![CDATA[
rect.attrGroup { fill: ivory ; stroke: black; stroke-width: 1 }
rect.element { fill: ivory ; stroke: black; stroke-width: 1 }
rect.elTypeBkgnd { fill: lightgray ; stroke: none }
text.elName { font-family: helvetica ; font-size : 10 }
text.elType { font-family: helvetica ; font-size : 7 }
text.occurLarge { font-family: helvetica ; font-size : 9; fill : blue }
text.occurSmall { font-family: helvetica ; font-size : 7; fill : blue }
rect.typeIconDark { fill : darkslategray }
circle.occurs { stroke : black ; stroke-width: 1; fill : white }
circle.ellipsis { fill : black }
path.typeIconDark { stroke : lightgray ; stroke-width: 1 }
path.connector { stroke : red ; stroke-width: 1 ; fill: none; }
path.modelGroup { stroke : black ; stroke-width: 1 ; fill: lightgray; }
polyline.connector { stroke : red ; stroke-width: 1 ; fill: none; }
.nodeStyle { fill : blue }
]]></style>
	</defs>
	<rect x = "5" y = "180" width = "68" height = "28" class = "element"/>
	<polygon class = "nodeStyle" points = "11,182 7,186 11,190 15,186"/>
	<text x = "16" y = "191" class = "elName">jboss-web</text>
	<rect x = "6" y = "195" width = "66" height = "12" class = "elTypeBkgnd"/>
	<image xlink:href = "../dgmTypeComplex.gif" width = "10" height = "10" x = "63" y = "190"/>
	<polyline class = "connector" points = "103,19 83,19 83,194 73,194 83,194 83,369 103,369"/>
	<circle class = "occurs" cx = "109" cy = "19" r = "6"/>
	<text x = "106" y = "22" class = "occurLarge">?</text>
	<rect x = "115" y = "5" width = "84" height = "28" class = "element"/>
	<polygon class = "nodeStyle" points = "121,7 117,11 121,15 125,11"/>
	<text x = "126" y = "16" class = "elName">class-loading</text>
	<rect x = "116" y = "20" width = "82" height = "12" class = "elTypeBkgnd"/>
	<image xlink:href = "../dgmTypeComplex.gif" width = "10" height = "10" x = "189" y = "15"/>
	<circle class = "occurs" cx = "109" cy = "54" r = "6"/>
	<text x = "106" y = "57" class = "occurLarge">?</text>
	<rect x = "115" y = "40" width = "97" height = "28" class = "element"/>
	<polygon class = "nodeStyle" points = "121,42 117,46 121,50 125,46"/>
	<text x = "126" y = "51" class = "elName">security-domain</text>
	<rect x = "116" y = "55" width = "95" height = "12" class = "elTypeBkgnd"/>
	<image xlink:href = "../dgmDtString.gif" width = "10" height = "10" x = "202" y = "50"/>
	<circle class = "occurs" cx = "109" cy = "89" r = "6"/>
	<text x = "106" y = "92" class = "occurLarge">?</text>
	<rect x = "115" y = "75" width = "78" height = "28" class = "element"/>
	<polygon class = "nodeStyle" points = "121,77 117,81 121,85 125,81"/>
	<text x = "126" y = "86" class = "elName">context-root</text>
	<rect x = "116" y = "90" width = "76" height = "12" class = "elTypeBkgnd"/>
	<image xlink:href = "../dgmDtString.gif" width = "10" height = "10" x = "183" y = "85"/>
	<circle class = "occurs" cx = "109" cy = "124" r = "6"/>
	<text x = "106" y = "127" class = "occurLarge">?</text>
	<rect x = "115" y = "110" width = "74" height = "28" class = "element"/>
	<polygon class = "nodeStyle" points = "121,112 117,116 121,120 125,116"/>
	<text x = "126" y = "121" class = "elName">virtual-host</text>
	<rect x = "116" y = "125" width = "72" height = "12" class = "elTypeBkgnd"/>
	<image xlink:href = "../dgmDtString.gif" width = "10" height = "10" x = "179" y = "120"/>
	<circle class = "occurs" cx = "109" cy = "159" r = "6"/>
	<text x = "106" y = "162" class = "occurLarge">?</text>
	<rect x = "115" y = "145" width = "112" height = "28" class = "element"/>
	<polygon class = "nodeStyle" points = "121,147 117,151 121,155 125,151"/>
	<text x = "126" y = "156" class = "elName">use-session-cookies</text>
	<rect x = "116" y = "160" width = "110" height = "12" class = "elTypeBkgnd"/>
	<image xlink:href = "../dgmDtString.gif" width = "10" height = "10" x = "217" y = "155"/>
	<circle class = "occurs" cx = "109" cy = "194" r = "6"/>
	<text x = "106" y = "197" class = "occurLarge">?</text>
	<rect x = "115" y = "180" width = "105" height = "28" class = "element"/>
	<polygon class = "nodeStyle" points = "121,182 117,186 121,190 125,186"/>
	<text x = "126" y = "191" class = "elName">replication-config</text>
	<rect x = "116" y = "195" width = "103" height = "12" class = "elTypeBkgnd"/>
	<image xlink:href = "../dgmTypeComplex.gif" width = "10" height = "10" x = "210" y = "190"/>
	<circle class = "occurs" cx = "109" cy = "229" r = "6"/>
	<text x = "106" y = "232" class = "occurLarge">*</text>
	<rect x = "115" y = "215" width = "97" height = "28" class = "element"/>
	<polygon class = "nodeStyle" points = "121,217 117,221 121,225 125,221"/>
	<text x = "126" y = "226" class = "elName">resource-env-ref</text>
	<rect x = "116" y = "230" width = "95" height = "12" class = "elTypeBkgnd"/>
	<image xlink:href = "../dgmTypeComplex.gif" width = "10" height = "10" x = "202" y = "225"/>
	<circle class = "occurs" cx = "109" cy = "264" r = "6"/>
	<text x = "106" y = "267" class = "occurLarge">*</text>
	<rect x = "115" y = "250" width = "77" height = "28" class = "element"/>
	<polygon class = "nodeStyle" points = "121,252 117,256 121,260 125,256"/>
	<text x = "126" y = "261" class = "elName">resource-ref</text>
	<rect x = "116" y = "265" width = "75" height = "12" class = "elTypeBkgnd"/>
	<image xlink:href = "../dgmTypeComplex.gif" width = "10" height = "10" x = "182" y = "260"/>
	<circle class = "occurs" cx = "109" cy = "299" r = "6"/>
	<text x = "106" y = "302" class = "occurLarge">*</text>
	<rect x = "115" y = "285" width = "53" height = "28" class = "element"/>
	<polygon class = "nodeStyle" points = "121,287 117,291 121,295 125,291"/>
	<text x = "126" y = "296" class = "elName">ejb-ref</text>
	<rect x = "116" y = "300" width = "51" height = "12" class = "elTypeBkgnd"/>
	<image xlink:href = "../dgmTypeComplex.gif" width = "10" height = "10" x = "158" y = "295"/>
	<circle class = "occurs" cx = "109" cy = "334" r = "6"/>
	<text x = "106" y = "337" class = "occurLarge">*</text>
	<rect x = "115" y = "320" width = "79" height = "28" class = "element"/>
	<polygon class = "nodeStyle" points = "121,322 117,326 121,330 125,326"/>
	<text x = "126" y = "331" class = "elName">ejb-local-ref</text>
	<rect x = "116" y = "335" width = "77" height = "12" class = "elTypeBkgnd"/>
	<image xlink:href = "../dgmTypeComplex.gif" width = "10" height = "10" x = "184" y = "330"/>
	<circle class = "occurs" cx = "109" cy = "369" r = "6"/>
	<text x = "106" y = "372" class = "occurLarge">*</text>
	<rect x = "115" y = "355" width = "63" height = "28" class = "element"/>
	<polygon class = "nodeStyle" points = "121,357 117,361 121,365 125,361"/>
	<text x = "126" y = "366" class = "elName">depends</text>
	<rect x = "116" y = "370" width = "61" height = "12" class = "elTypeBkgnd"/>
	<image xlink:href = "../dgmDtString.gif" width = "10" height = "10" x = "168" y = "365"/>
</svg>