<?xml version = "1.0"?>
<!DOCTYPE svg PUBLIC "-//W3C//DTD SVG 20010904//EN" "http://www.w3.org/TR/2001/REC-SVG-20010904/DTD/svg10.dtd">
<svg width = "315pt" height = "81pt" viewBox = "0 0 315 81" xmlns = "http://www.w3.org/2000/svg" xmlns:xlink = "http://www.w3.org/1999/xlink">
	<defs>
		<style type = "text/css"><![CDATA[
rect.attrGroup { fill: ivory ; stroke: black; stroke-width: 1 }
rect.element { fill: ivory ; stroke: black; stroke-width: 1 }
rect.elTypeBkgnd { fill: lightgray ; stroke: none }
text.elName { font-family: helvetica ; font-size : 10 }
text.elType { font-family: helvetica ; font-size : 7 }
text.occurLarge { font-family: helvetica ; font-size : 9; fill : blue }
text.occurSmall { font-family: helvetica ; font-size : 7; fill : blue }
rect.typeIconDark { fill : darkslategray }
circle.occurs { stroke : black ; stroke-width: 1; fill : white }
circle.ellipsis { fill : black }
path.typeIconDark { stroke : lightgray ; stroke-width: 1 }
path.connector { stroke : red ; stroke-width: 1 ; fill: none; }
path.modelGroup { stroke : black ; stroke-width: 1 ; fill: lightgray; }
polyline.connector { stroke : red ; stroke-width: 1 ; fill: none; }
.nodeStyle { fill : blue }
]]></style>
	</defs>
	<rect x = "119" y = "5" width = "191" height = "38" class = "attrGroup" rx = "5" ry = "5"/>
	<circle class = "occurs" cx = "130" cy = "24" r = "6"/>
	<text x = "127" y = "27" class = "occurLarge">?</text>
	<rect x = "136" y = "10" width = "169" height = "28" class = "element" rx = "5" ry = "5"/>
	<circle class = "nodeStyle" cx = "142" cy = "16" r = "4"/>
	<text x = "147" y = "21" class = "elName">java2ClassLoadingCompliance</text>
	<rect x = "137" y = "11" width = "167" height = "26" class = "elTypeBkgnd" rx = "5" ry = "5" clip-path = "url(#e:class-loading/a:java2ClassLoadingCompliance)"/>
	<defs/>
	<clipPath id = "e:class-loading/a:java2ClassLoadingCompliance">
		<rect x = "136" y = "25" width = "169" height = "12"/>
	</clipPath>
	<text x = "137" y = "33" class = "elType">string</text>
	<image xlink:href = "../dgmDtString.gif" width = "10" height = "10" x = "295" y = "20"/>
	<rect x = "5" y = "48" width = "84" height = "28" class = "element"/>
	<polygon class = "nodeStyle" points = "11,50 7,54 11,58 15,54"/>
	<text x = "16" y = "59" class = "elName">class-loading</text>
	<rect x = "6" y = "63" width = "82" height = "12" class = "elTypeBkgnd"/>
	<image xlink:href = "../dgmTypeComplex.gif" width = "10" height = "10" x = "79" y = "58"/>
	<polyline class = "connector" points = "89,62 119,62"/>
	<polyline class = "connector" points = "89,60 97,60 97,24 119,24"/>
	<circle class = "occurs" cx = "125" cy = "62" r = "6"/>
	<text x = "122" y = "65" class = "occurLarge">?</text>
	<rect x = "131" y = "48" width = "101" height = "28" class = "element"/>
	<polygon class = "nodeStyle" points = "137,50 133,54 137,58 141,54"/>
	<text x = "142" y = "59" class = "elName">loader-repository</text>
	<rect x = "132" y = "63" width = "99" height = "12" class = "elTypeBkgnd"/>
	<image xlink:href = "../dgmTypeMixed.gif" width = "10" height = "10" x = "222" y = "58"/>
</svg>