<?xml version = "1.0"?>
<!DOCTYPE svg PUBLIC "-//W3C//DTD SVG 20010904//EN" "http://www.w3.org/TR/2001/REC-SVG-20010904/DTD/svg10.dtd">
<svg width = "263pt" height = "73pt" viewBox = "0 0 263 73" xmlns = "http://www.w3.org/2000/svg" xmlns:xlink = "http://www.w3.org/1999/xlink">
	<defs>
		<style type = "text/css"><![CDATA[
rect.attrGroup { fill: ivory ; stroke: black; stroke-width: 1 }
rect.element { fill: ivory ; stroke: black; stroke-width: 1 }
rect.elTypeBkgnd { fill: lightgray ; stroke: none }
text.elName { font-family: helvetica ; font-size : 10 }
text.elType { font-family: helvetica ; font-size : 7 }
text.occurLarge { font-family: helvetica ; font-size : 9; fill : blue }
text.occurSmall { font-family: helvetica ; font-size : 7; fill : blue }
rect.typeIconDark { fill : darkslategray }
circle.occurs { stroke : black ; stroke-width: 1; fill : white }
circle.ellipsis { fill : black }
path.typeIconDark { stroke : lightgray ; stroke-width: 1 }
path.connector { stroke : red ; stroke-width: 1 ; fill: none; }
path.modelGroup { stroke : black ; stroke-width: 1 ; fill: lightgray; }
polyline.connector { stroke : red ; stroke-width: 1 ; fill: none; }
.nodeStyle { fill : blue }
]]></style>
	</defs>
	<rect x = "5" y = "22" width = "105" height = "28" class = "element"/>
	<polygon class = "nodeStyle" points = "11,24 7,28 11,32 15,28"/>
	<text x = "16" y = "33" class = "elName">replication-config</text>
	<rect x = "6" y = "37" width = "103" height = "12" class = "elTypeBkgnd"/>
	<image xlink:href = "../dgmTypeComplex.gif" width = "10" height = "10" x = "100" y = "32"/>
	<polyline class = "connector" points = "140,19 120,19 120,36 110,36 120,36 120,54 140,54"/>
	<circle class = "occurs" cx = "146" cy = "19" r = "6"/>
	<text x = "143" y = "22" class = "occurLarge">?</text>
	<rect x = "152" y = "5" width = "106" height = "28" class = "element"/>
	<polygon class = "nodeStyle" points = "158,7 154,11 158,15 162,11"/>
	<text x = "163" y = "16" class = "elName">replication-trigger</text>
	<rect x = "153" y = "20" width = "104" height = "12" class = "elTypeBkgnd"/>
	<image xlink:href = "../dgmDtString.gif" width = "10" height = "10" x = "248" y = "15"/>
	<circle class = "occurs" cx = "146" cy = "54" r = "6"/>
	<text x = "143" y = "57" class = "occurLarge">?</text>
	<rect x = "152" y = "40" width = "96" height = "28" class = "element"/>
	<polygon class = "nodeStyle" points = "158,42 154,46 158,50 162,46"/>
	<text x = "163" y = "51" class = "elName">replication-type</text>
	<rect x = "153" y = "55" width = "94" height = "12" class = "elTypeBkgnd"/>
	<image xlink:href = "../dgmDtString.gif" width = "10" height = "10" x = "238" y = "50"/>
</svg>