<?xml version = "1.0"?>
<!DOCTYPE svg PUBLIC "-//W3C//DTD SVG 20010904//EN" "http://www.w3.org/TR/2001/REC-SVG-20010904/DTD/svg10.dtd">
<svg width = "348pt" height = "73pt" viewBox = "0 0 348 73" xmlns = "http://www.w3.org/2000/svg" xmlns:xlink = "http://www.w3.org/1999/xlink">
	<defs>
		<style type = "text/css"><![CDATA[
rect.attrGroup { fill: ivory ; stroke: black; stroke-width: 1 }
rect.element { fill: ivory ; stroke: black; stroke-width: 1 }
rect.elTypeBkgnd { fill: lightgray ; stroke: none }
text.elName { font-family: helvetica ; font-size : 10 }
text.elType { font-family: helvetica ; font-size : 7 }
text.occurLarge { font-family: helvetica ; font-size : 9; fill : blue }
text.occurSmall { font-family: helvetica ; font-size : 7; fill : blue }
rect.typeIconDark { fill : darkslategray }
circle.occurs { stroke : black ; stroke-width: 1; fill : white }
circle.ellipsis { fill : black }
path.typeIconDark { stroke : lightgray ; stroke-width: 1 }
path.connector { stroke : red ; stroke-width: 1 ; fill: none; }
path.modelGroup { stroke : black ; stroke-width: 1 ; fill: lightgray; }
polyline.connector { stroke : red ; stroke-width: 1 ; fill: none; }
.nodeStyle { fill : blue }
]]></style>
	</defs>
	<rect x = "5" y = "22" width = "142" height = "28" class = "element"/>
	<polygon class = "nodeStyle" points = "11,24 7,28 11,32 15,28"/>
	<text x = "16" y = "33" class = "elName">cache-invalidation-config</text>
	<rect x = "6" y = "37" width = "140" height = "12" class = "elTypeBkgnd"/>
	<image xlink:href = "../dgmTypeComplex.gif" width = "10" height = "10" x = "137" y = "32"/>
	<polyline class = "connector" points = "177,19 157,19 157,36 147,36 157,36 157,54 177,54"/>
	<circle class = "occurs" cx = "183" cy = "19" r = "6"/>
	<text x = "180" y = "22" class = "occurLarge">?</text>
	<rect x = "189" y = "5" width = "139" height = "28" class = "element"/>
	<polygon class = "nodeStyle" points = "195,7 191,11 195,15 199,11"/>
	<text x = "200" y = "16" class = "elName">invalidation-group-name</text>
	<rect x = "190" y = "20" width = "137" height = "12" class = "elTypeBkgnd"/>
	<image xlink:href = "../dgmDtString.gif" width = "10" height = "10" x = "318" y = "15"/>
	<circle class = "occurs" cx = "183" cy = "54" r = "6"/>
	<text x = "180" y = "57" class = "occurLarge">?</text>
	<rect x = "189" y = "40" width = "154" height = "28" class = "element"/>
	<polygon class = "nodeStyle" points = "195,42 191,46 195,50 199,46"/>
	<text x = "200" y = "51" class = "elName">invalidation-manager-name</text>
	<rect x = "190" y = "55" width = "152" height = "12" class = "elTypeBkgnd"/>
	<image xlink:href = "../dgmDtString.gif" width = "10" height = "10" x = "333" y = "50"/>
</svg>