<?xml version = "1.0"?>
<!DOCTYPE svg PUBLIC "-//W3C//DTD SVG 20010904//EN" "http://www.w3.org/TR/2001/REC-SVG-20010904/DTD/svg10.dtd">
<svg width = "200pt" height = "108pt" viewBox = "0 0 200 108" xmlns = "http://www.w3.org/2000/svg" xmlns:xlink = "http://www.w3.org/1999/xlink">
	<defs>
		<style type = "text/css"><![CDATA[
rect.attrGroup { fill: ivory ; stroke: black; stroke-width: 1 }
rect.element { fill: ivory ; stroke: black; stroke-width: 1 }
rect.elTypeBkgnd { fill: lightgray ; stroke: none }
text.elName { font-family: helvetica ; font-size : 10 }
text.elType { font-family: helvetica ; font-size : 7 }
text.occurLarge { font-family: helvetica ; font-size : 9; fill : blue }
text.occurSmall { font-family: helvetica ; font-size : 7; fill : blue }
rect.typeIconDark { fill : darkslategray }
circle.occurs { stroke : black ; stroke-width: 1; fill : white }
circle.ellipsis { fill : black }
path.typeIconDark { stroke : lightgray ; stroke-width: 1 }
path.connector { stroke : red ; stroke-width: 1 ; fill: none; }
path.modelGroup { stroke : black ; stroke-width: 1 ; fill: lightgray; }
polyline.connector { stroke : red ; stroke-width: 1 ; fill: none; }
.nodeStyle { fill : blue }
]]></style>
	</defs>
	<rect x = "5" y = "40" width = "59" height = "28" class = "element"/>
	<polygon class = "nodeStyle" points = "11,42 7,46 11,50 15,46"/>
	<text x = "16" y = "51" class = "elName">method</text>
	<rect x = "6" y = "55" width = "57" height = "12" class = "elTypeBkgnd"/>
	<image xlink:href = "../dgmTypeComplex.gif" width = "10" height = "10" x = "54" y = "50"/>
	<polyline class = "connector" points = "94,19 74,19 74,54 64,54 74,54 74,89 94,89"/>
	<polyline class = "connector" points = "94,19 106,19"/>
	<rect x = "106" y = "5" width = "89" height = "28" class = "element"/>
	<polygon class = "nodeStyle" points = "112,7 108,11 112,15 116,11"/>
	<text x = "117" y = "16" class = "elName">method-name</text>
	<rect x = "107" y = "20" width = "87" height = "12" class = "elTypeBkgnd"/>
	<image xlink:href = "../dgmDtString.gif" width = "10" height = "10" x = "185" y = "15"/>
	<circle class = "occurs" cx = "100" cy = "54" r = "6"/>
	<text x = "97" y = "57" class = "occurLarge">?</text>
	<rect x = "106" y = "40" width = "67" height = "28" class = "element"/>
	<polygon class = "nodeStyle" points = "112,42 108,46 112,50 116,46"/>
	<text x = "117" y = "51" class = "elName">read-only</text>
	<rect x = "107" y = "55" width = "65" height = "12" class = "elTypeBkgnd"/>
	<image xlink:href = "../dgmDtString.gif" width = "10" height = "10" x = "163" y = "50"/>
	<circle class = "occurs" cx = "100" cy = "89" r = "6"/>
	<text x = "97" y = "92" class = "occurLarge">?</text>
	<rect x = "106" y = "75" width = "77" height = "28" class = "element"/>
	<polygon class = "nodeStyle" points = "112,77 108,81 112,85 116,81"/>
	<text x = "117" y = "86" class = "elName">idempotent</text>
	<rect x = "107" y = "90" width = "75" height = "12" class = "elTypeBkgnd"/>
	<image xlink:href = "../dgmDtString.gif" width = "10" height = "10" x = "173" y = "85"/>
</svg>