<?xml version = "1.0"?>
<!DOCTYPE svg PUBLIC "-//W3C//DTD SVG 20010904//EN" "http://www.w3.org/TR/2001/REC-SVG-20010904/DTD/svg10.dtd">
<svg width = "333pt" height = "353pt" viewBox = "0 0 333 353" xmlns = "http://www.w3.org/2000/svg" xmlns:xlink = "http://www.w3.org/1999/xlink">
	<defs>
		<style type = "text/css"><![CDATA[
rect.attrGroup { fill: ivory ; stroke: black; stroke-width: 1 }
rect.element { fill: ivory ; stroke: black; stroke-width: 1 }
rect.elTypeBkgnd { fill: lightgray ; stroke: none }
text.elName { font-family: helvetica ; font-size : 10 }
text.elType { font-family: helvetica ; font-size : 7 }
text.occurLarge { font-family: helvetica ; font-size : 9; fill : blue }
text.occurSmall { font-family: helvetica ; font-size : 7; fill : blue }
rect.typeIconDark { fill : darkslategray }
circle.occurs { stroke : black ; stroke-width: 1; fill : white }
circle.ellipsis { fill : black }
path.typeIconDark { stroke : lightgray ; stroke-width: 1 }
path.connector { stroke : red ; stroke-width: 1 ; fill: none; }
path.modelGroup { stroke : black ; stroke-width: 1 ; fill: lightgray; }
polyline.connector { stroke : red ; stroke-width: 1 ; fill: none; }
.nodeStyle { fill : blue }
]]></style>
	</defs>
	<rect x = "5" y = "162" width = "114" height = "28" class = "element"/>
	<polygon class = "nodeStyle" points = "11,164 7,168 11,172 15,168"/>
	<text x = "16" y = "173" class = "elName">proxy-factory-config</text>
	<rect x = "6" y = "177" width = "112" height = "12" class = "elTypeBkgnd"/>
	<image xlink:href = "../dgmTypeComplex.gif" width = "10" height = "10" x = "109" y = "172"/>
	<polyline class = "connector" points = "149,19 129,19 129,176 119,176 129,176 129,334 149,334"/>
	<circle class = "occurs" cx = "155" cy = "19" r = "6"/>
	<text x = "152" y = "22" class = "occurLarge">?</text>
	<rect x = "161" y = "5" width = "106" height = "28" class = "element"/>
	<polygon class = "nodeStyle" points = "167,7 163,11 167,15 171,11"/>
	<text x = "172" y = "16" class = "elName">client-interceptors</text>
	<rect x = "162" y = "20" width = "104" height = "12" class = "elTypeBkgnd"/>
	<image xlink:href = "../dgmTypeComplex.gif" width = "10" height = "10" x = "257" y = "15"/>
	<circle class = "occurs" cx = "155" cy = "54" r = "6"/>
	<text x = "152" y = "57" class = "occurLarge">?</text>
	<rect x = "161" y = "40" width = "100" height = "28" class = "element"/>
	<polygon class = "nodeStyle" points = "167,42 163,46 167,50 171,46"/>
	<text x = "172" y = "51" class = "elName">web-class-loader</text>
	<rect x = "162" y = "55" width = "98" height = "12" class = "elTypeBkgnd"/>
	<image xlink:href = "../dgmDtString.gif" width = "10" height = "10" x = "251" y = "50"/>
	<circle class = "occurs" cx = "155" cy = "89" r = "6"/>
	<text x = "152" y = "92" class = "occurLarge">?</text>
	<rect x = "161" y = "75" width = "142" height = "28" class = "element"/>
	<polygon class = "nodeStyle" points = "167,77 163,81 167,85 171,81"/>
	<text x = "172" y = "86" class = "elName">JMSProviderAdapterJNDI</text>
	<rect x = "162" y = "90" width = "140" height = "12" class = "elTypeBkgnd"/>
	<image xlink:href = "../dgmDtString.gif" width = "10" height = "10" x = "293" y = "85"/>
	<circle class = "occurs" cx = "155" cy = "124" r = "6"/>
	<text x = "152" y = "127" class = "occurLarge">?</text>
	<rect x = "161" y = "110" width = "167" height = "28" class = "element"/>
	<polygon class = "nodeStyle" points = "167,112 163,116 167,120 171,116"/>
	<text x = "172" y = "121" class = "elName">ServerSessionPoolFactoryJNDI</text>
	<rect x = "162" y = "125" width = "165" height = "12" class = "elTypeBkgnd"/>
	<image xlink:href = "../dgmDtString.gif" width = "10" height = "10" x = "318" y = "120"/>
	<circle class = "occurs" cx = "155" cy = "159" r = "6"/>
	<text x = "152" y = "162" class = "occurLarge">?</text>
	<rect x = "161" y = "145" width = "91" height = "28" class = "element"/>
	<polygon class = "nodeStyle" points = "167,147 163,151 167,155 171,151"/>
	<text x = "172" y = "156" class = "elName">MaximumSize</text>
	<rect x = "162" y = "160" width = "89" height = "12" class = "elTypeBkgnd"/>
	<image xlink:href = "../dgmDtString.gif" width = "10" height = "10" x = "242" y = "155"/>
	<circle class = "occurs" cx = "155" cy = "194" r = "6"/>
	<text x = "152" y = "197" class = "occurLarge">?</text>
	<rect x = "161" y = "180" width = "88" height = "28" class = "element"/>
	<polygon class = "nodeStyle" points = "167,182 163,186 167,190 171,186"/>
	<text x = "172" y = "191" class = "elName">MaxMessages</text>
	<rect x = "162" y = "195" width = "86" height = "12" class = "elTypeBkgnd"/>
	<image xlink:href = "../dgmDtString.gif" width = "10" height = "10" x = "239" y = "190"/>
	<circle class = "occurs" cx = "155" cy = "229" r = "6"/>
	<text x = "152" y = "232" class = "occurLarge">?</text>
	<rect x = "161" y = "215" width = "77" height = "28" class = "element"/>
	<polygon class = "nodeStyle" points = "167,217 163,221 167,225 171,221"/>
	<text x = "172" y = "226" class = "elName">MDBConfig</text>
	<rect x = "162" y = "230" width = "75" height = "12" class = "elTypeBkgnd"/>
	<image xlink:href = "../dgmTypeComplex.gif" width = "10" height = "10" x = "228" y = "225"/>
	<circle class = "occurs" cx = "155" cy = "264" r = "6"/>
	<text x = "152" y = "267" class = "occurLarge">?</text>
	<rect x = "161" y = "250" width = "41" height = "28" class = "element"/>
	<polygon class = "nodeStyle" points = "167,252 163,256 167,260 171,256"/>
	<text x = "172" y = "261" class = "elName">poa</text>
	<rect x = "162" y = "265" width = "39" height = "12" class = "elTypeBkgnd"/>
	<image xlink:href = "../dgmDtString.gif" width = "10" height = "10" x = "192" y = "260"/>
	<circle class = "occurs" cx = "155" cy = "299" r = "6"/>
	<text x = "152" y = "302" class = "occurLarge">?</text>
	<rect x = "161" y = "285" width = "146" height = "28" class = "element"/>
	<polygon class = "nodeStyle" points = "167,287 163,291 167,295 171,291"/>
	<text x = "172" y = "296" class = "elName">register-ejbs-in-jnp-context</text>
	<rect x = "162" y = "300" width = "144" height = "12" class = "elTypeBkgnd"/>
	<image xlink:href = "../dgmDtString.gif" width = "10" height = "10" x = "297" y = "295"/>
	<circle class = "occurs" cx = "155" cy = "334" r = "6"/>
	<text x = "152" y = "337" class = "occurLarge">?</text>
	<rect x = "161" y = "320" width = "75" height = "28" class = "element"/>
	<polygon class = "nodeStyle" points = "167,322 163,326 167,330 171,326"/>
	<text x = "172" y = "331" class = "elName">jnp-context</text>
	<rect x = "162" y = "335" width = "73" height = "12" class = "elTypeBkgnd"/>
	<image xlink:href = "../dgmDtString.gif" width = "10" height = "10" x = "226" y = "330"/>
</svg>