<?xml version = "1.0"?>
<!DOCTYPE svg PUBLIC "-//W3C//DTD SVG 20010904//EN" "http://www.w3.org/TR/2001/REC-SVG-20010904/DTD/svg10.dtd">
<svg width = "287pt" height = "353pt" viewBox = "0 0 287 353" xmlns = "http://www.w3.org/2000/svg" xmlns:xlink = "http://www.w3.org/1999/xlink">
	<defs>
		<style type = "text/css"><![CDATA[
rect.attrGroup { fill: ivory ; stroke: black; stroke-width: 1 }
rect.element { fill: ivory ; stroke: black; stroke-width: 1 }
rect.elTypeBkgnd { fill: lightgray ; stroke: none }
text.elName { font-family: helvetica ; font-size : 10 }
text.elType { font-family: helvetica ; font-size : 7 }
text.occurLarge { font-family: helvetica ; font-size : 9; fill : blue }
text.occurSmall { font-family: helvetica ; font-size : 7; fill : blue }
rect.typeIconDark { fill : darkslategray }
circle.occurs { stroke : black ; stroke-width: 1; fill : white }
circle.ellipsis { fill : black }
path.typeIconDark { stroke : lightgray ; stroke-width: 1 }
path.connector { stroke : red ; stroke-width: 1 ; fill: none; }
path.modelGroup { stroke : black ; stroke-width: 1 ; fill: lightgray; }
polyline.connector { stroke : red ; stroke-width: 1 ; fill: none; }
.nodeStyle { fill : blue }
]]></style>
	</defs>
	<rect x = "5" y = "162" width = "105" height = "28" class = "element"/>
	<polygon class = "nodeStyle" points = "11,164 7,168 11,172 15,168"/>
	<text x = "16" y = "173" class = "elName">cache-policy-conf</text>
	<rect x = "6" y = "177" width = "103" height = "12" class = "elTypeBkgnd"/>
	<image xlink:href = "../dgmTypeComplex.gif" width = "10" height = "10" x = "100" y = "172"/>
	<polyline class = "connector" points = "140,19 120,19 120,176 110,176 120,176 120,334 140,334"/>
	<polyline class = "connector" points = "140,19 152,19"/>
	<rect x = "152" y = "5" width = "83" height = "28" class = "element"/>
	<polygon class = "nodeStyle" points = "158,7 154,11 158,15 162,11"/>
	<text x = "163" y = "16" class = "elName">min-capacity</text>
	<rect x = "153" y = "20" width = "81" height = "12" class = "elTypeBkgnd"/>
	<image xlink:href = "../dgmDtString.gif" width = "10" height = "10" x = "225" y = "15"/>
	<rect x = "152" y = "40" width = "85" height = "28" class = "element"/>
	<polygon class = "nodeStyle" points = "158,42 154,46 158,50 162,46"/>
	<text x = "163" y = "51" class = "elName">max-capacity</text>
	<rect x = "153" y = "55" width = "83" height = "12" class = "elTypeBkgnd"/>
	<image xlink:href = "../dgmDtString.gif" width = "10" height = "10" x = "227" y = "50"/>
	<circle class = "occurs" cx = "146" cy = "89" r = "6"/>
	<text x = "143" y = "92" class = "occurLarge">?</text>
	<rect x = "152" y = "75" width = "94" height = "28" class = "element"/>
	<polygon class = "nodeStyle" points = "158,77 154,81 158,85 162,81"/>
	<text x = "163" y = "86" class = "elName">remover-period</text>
	<rect x = "153" y = "90" width = "92" height = "12" class = "elTypeBkgnd"/>
	<image xlink:href = "../dgmDtString.gif" width = "10" height = "10" x = "236" y = "85"/>
	<circle class = "occurs" cx = "146" cy = "124" r = "6"/>
	<text x = "143" y = "127" class = "occurLarge">?</text>
	<rect x = "152" y = "110" width = "88" height = "28" class = "element"/>
	<polygon class = "nodeStyle" points = "158,112 154,116 158,120 162,116"/>
	<text x = "163" y = "121" class = "elName">max-bean-life</text>
	<rect x = "153" y = "125" width = "86" height = "12" class = "elTypeBkgnd"/>
	<image xlink:href = "../dgmDtString.gif" width = "10" height = "10" x = "230" y = "120"/>
	<circle class = "occurs" cx = "146" cy = "159" r = "6"/>
	<text x = "143" y = "162" class = "occurLarge">?</text>
	<rect x = "152" y = "145" width = "97" height = "28" class = "element"/>
	<polygon class = "nodeStyle" points = "158,147 154,151 158,155 162,151"/>
	<text x = "163" y = "156" class = "elName">overager-period</text>
	<rect x = "153" y = "160" width = "95" height = "12" class = "elTypeBkgnd"/>
	<image xlink:href = "../dgmDtString.gif" width = "10" height = "10" x = "239" y = "155"/>
	<circle class = "occurs" cx = "146" cy = "194" r = "6"/>
	<text x = "143" y = "197" class = "occurLarge">?</text>
	<rect x = "152" y = "180" width = "91" height = "28" class = "element"/>
	<polygon class = "nodeStyle" points = "158,182 154,186 158,190 162,186"/>
	<text x = "163" y = "191" class = "elName">max-bean-age</text>
	<rect x = "153" y = "195" width = "89" height = "12" class = "elTypeBkgnd"/>
	<image xlink:href = "../dgmDtString.gif" width = "10" height = "10" x = "233" y = "190"/>
	<circle class = "occurs" cx = "146" cy = "229" r = "6"/>
	<text x = "143" y = "232" class = "occurLarge">?</text>
	<rect x = "152" y = "215" width = "86" height = "28" class = "element"/>
	<polygon class = "nodeStyle" points = "158,217 154,221 158,225 162,221"/>
	<text x = "163" y = "226" class = "elName">resizer-period</text>
	<rect x = "153" y = "230" width = "84" height = "12" class = "elTypeBkgnd"/>
	<image xlink:href = "../dgmDtString.gif" width = "10" height = "10" x = "228" y = "225"/>
	<circle class = "occurs" cx = "146" cy = "264" r = "6"/>
	<text x = "143" y = "267" class = "occurLarge">?</text>
	<rect x = "152" y = "250" width = "130" height = "28" class = "element"/>
	<polygon class = "nodeStyle" points = "158,252 154,256 158,260 162,256"/>
	<text x = "163" y = "261" class = "elName">max-cache-miss-period</text>
	<rect x = "153" y = "265" width = "128" height = "12" class = "elTypeBkgnd"/>
	<image xlink:href = "../dgmDtString.gif" width = "10" height = "10" x = "272" y = "260"/>
	<circle class = "occurs" cx = "146" cy = "299" r = "6"/>
	<text x = "143" y = "302" class = "occurLarge">?</text>
	<rect x = "152" y = "285" width = "128" height = "28" class = "element"/>
	<polygon class = "nodeStyle" points = "158,287 154,291 158,295 162,291"/>
	<text x = "163" y = "296" class = "elName">min-cache-miss-period</text>
	<rect x = "153" y = "300" width = "126" height = "12" class = "elTypeBkgnd"/>
	<image xlink:href = "../dgmDtString.gif" width = "10" height = "10" x = "270" y = "295"/>
	<circle class = "occurs" cx = "146" cy = "334" r = "6"/>
	<text x = "143" y = "337" class = "occurLarge">?</text>
	<rect x = "152" y = "320" width = "104" height = "28" class = "element"/>
	<polygon class = "nodeStyle" points = "158,322 154,326 158,330 162,326"/>
	<text x = "163" y = "331" class = "elName">cache-load-factor</text>
	<rect x = "153" y = "335" width = "102" height = "12" class = "elTypeBkgnd"/>
	<image xlink:href = "../dgmDtString.gif" width = "10" height = "10" x = "246" y = "330"/>
</svg>