<?xml version = "1.0"?>
<!DOCTYPE svg PUBLIC "-//W3C//DTD SVG 20010904//EN" "http://www.w3.org/TR/2001/REC-SVG-20010904/DTD/svg10.dtd">
<svg width = "274pt" height = "493pt" viewBox = "0 0 274 493" xmlns = "http://www.w3.org/2000/svg" xmlns:xlink = "http://www.w3.org/1999/xlink">
	<defs>
		<style type = "text/css"><![CDATA[
rect.attrGroup { fill: ivory ; stroke: black; stroke-width: 1 }
rect.element { fill: ivory ; stroke: black; stroke-width: 1 }
rect.elTypeBkgnd { fill: lightgray ; stroke: none }
text.elName { font-family: helvetica ; font-size : 10 }
text.elType { font-family: helvetica ; font-size : 7 }
text.occurLarge { font-family: helvetica ; font-size : 9; fill : blue }
text.occurSmall { font-family: helvetica ; font-size : 7; fill : blue }
rect.typeIconDark { fill : darkslategray }
circle.occurs { stroke : black ; stroke-width: 1; fill : white }
circle.ellipsis { fill : black }
path.typeIconDark { stroke : lightgray ; stroke-width: 1 }
path.connector { stroke : red ; stroke-width: 1 ; fill: none; }
path.modelGroup { stroke : black ; stroke-width: 1 ; fill: lightgray; }
polyline.connector { stroke : red ; stroke-width: 1 ; fill: none; }
.nodeStyle { fill : blue }
]]></style>
	</defs>
	<rect x = "5" y = "232" width = "96" height = "28" class = "element"/>
	<polygon class = "nodeStyle" points = "11,234 7,238 11,242 15,238"/>
	<text x = "16" y = "243" class = "elName">message-driven</text>
	<rect x = "6" y = "247" width = "94" height = "12" class = "elTypeBkgnd"/>
	<image xlink:href = "../dgmTypeComplex.gif" width = "10" height = "10" x = "91" y = "242"/>
	<polyline class = "connector" points = "131,19 111,19 111,246 101,246 111,246 111,474 131,474"/>
	<polyline class = "connector" points = "131,19 143,19"/>
	<rect x = "143" y = "5" width = "68" height = "28" class = "element"/>
	<polygon class = "nodeStyle" points = "149,7 145,11 149,15 153,11"/>
	<text x = "154" y = "16" class = "elName">ejb-name</text>
	<rect x = "144" y = "20" width = "66" height = "12" class = "elTypeBkgnd"/>
	<image xlink:href = "../dgmDtString.gif" width = "10" height = "10" x = "201" y = "15"/>
	<rect x = "143" y = "40" width = "126" height = "28" class = "element"/>
	<polygon class = "nodeStyle" points = "149,42 145,46 149,50 153,46"/>
	<text x = "154" y = "51" class = "elName">destination-jndi-name</text>
	<rect x = "144" y = "55" width = "124" height = "12" class = "elTypeBkgnd"/>
	<image xlink:href = "../dgmDtString.gif" width = "10" height = "10" x = "259" y = "50"/>
	<circle class = "occurs" cx = "137" cy = "89" r = "6"/>
	<text x = "134" y = "92" class = "occurLarge">?</text>
	<rect x = "143" y = "75" width = "66" height = "28" class = "element"/>
	<polygon class = "nodeStyle" points = "149,77 145,81 149,85 153,81"/>
	<text x = "154" y = "86" class = "elName">mdb-user</text>
	<rect x = "144" y = "90" width = "64" height = "12" class = "elTypeBkgnd"/>
	<image xlink:href = "../dgmDtString.gif" width = "10" height = "10" x = "199" y = "85"/>
	<circle class = "occurs" cx = "137" cy = "124" r = "6"/>
	<text x = "134" y = "127" class = "occurLarge">?</text>
	<rect x = "143" y = "110" width = "80" height = "28" class = "element"/>
	<polygon class = "nodeStyle" points = "149,112 145,116 149,120 153,116"/>
	<text x = "154" y = "121" class = "elName">mdb-passwd</text>
	<rect x = "144" y = "125" width = "78" height = "12" class = "elTypeBkgnd"/>
	<image xlink:href = "../dgmDtString.gif" width = "10" height = "10" x = "213" y = "120"/>
	<circle class = "occurs" cx = "137" cy = "159" r = "6"/>
	<text x = "134" y = "162" class = "occurLarge">?</text>
	<rect x = "143" y = "145" width = "85" height = "28" class = "element"/>
	<polygon class = "nodeStyle" points = "149,147 145,151 149,155 153,151"/>
	<text x = "154" y = "156" class = "elName">mdb-client-id</text>
	<rect x = "144" y = "160" width = "83" height = "12" class = "elTypeBkgnd"/>
	<image xlink:href = "../dgmDtString.gif" width = "10" height = "10" x = "218" y = "155"/>
	<circle class = "occurs" cx = "137" cy = "194" r = "6"/>
	<text x = "134" y = "197" class = "occurLarge">?</text>
	<rect x = "143" y = "180" width = "114" height = "28" class = "element"/>
	<polygon class = "nodeStyle" points = "149,182 145,186 149,190 153,186"/>
	<text x = "154" y = "191" class = "elName">mdb-subscription-id</text>
	<rect x = "144" y = "195" width = "112" height = "12" class = "elTypeBkgnd"/>
	<image xlink:href = "../dgmDtString.gif" width = "10" height = "10" x = "247" y = "190"/>
	<circle class = "occurs" cx = "137" cy = "229" r = "6"/>
	<text x = "134" y = "232" class = "occurLarge">?</text>
	<rect x = "143" y = "215" width = "115" height = "28" class = "element"/>
	<polygon class = "nodeStyle" points = "149,217 145,221 149,225 153,221"/>
	<text x = "154" y = "226" class = "elName">configuration-name</text>
	<rect x = "144" y = "230" width = "113" height = "12" class = "elTypeBkgnd"/>
	<image xlink:href = "../dgmDtString.gif" width = "10" height = "10" x = "248" y = "225"/>
	<circle class = "occurs" cx = "137" cy = "264" r = "6"/>
	<text x = "134" y = "267" class = "occurLarge">?</text>
	<rect x = "143" y = "250" width = "99" height = "28" class = "element"/>
	<polygon class = "nodeStyle" points = "149,252 145,256 149,260 153,256"/>
	<text x = "154" y = "261" class = "elName">invoker-bindings</text>
	<rect x = "144" y = "265" width = "97" height = "12" class = "elTypeBkgnd"/>
	<image xlink:href = "../dgmTypeComplex.gif" width = "10" height = "10" x = "232" y = "260"/>
	<circle class = "occurs" cx = "137" cy = "299" r = "6"/>
	<text x = "134" y = "302" class = "occurLarge">?</text>
	<rect x = "143" y = "285" width = "86" height = "28" class = "element"/>
	<polygon class = "nodeStyle" points = "149,287 145,291 149,295 153,291"/>
	<text x = "154" y = "296" class = "elName">security-proxy</text>
	<rect x = "144" y = "300" width = "84" height = "12" class = "elTypeBkgnd"/>
	<image xlink:href = "../dgmDtString.gif" width = "10" height = "10" x = "219" y = "295"/>
	<circle class = "occurs" cx = "137" cy = "334" r = "6"/>
	<text x = "134" y = "337" class = "occurLarge">*</text>
	<rect x = "143" y = "320" width = "53" height = "28" class = "element"/>
	<polygon class = "nodeStyle" points = "149,322 145,326 149,330 153,326"/>
	<text x = "154" y = "331" class = "elName">ejb-ref</text>
	<rect x = "144" y = "335" width = "51" height = "12" class = "elTypeBkgnd"/>
	<image xlink:href = "../dgmTypeComplex.gif" width = "10" height = "10" x = "186" y = "330"/>
	<circle class = "occurs" cx = "137" cy = "369" r = "6"/>
	<text x = "134" y = "372" class = "occurLarge">*</text>
	<rect x = "143" y = "355" width = "79" height = "28" class = "element"/>
	<polygon class = "nodeStyle" points = "149,357 145,361 149,365 153,361"/>
	<text x = "154" y = "366" class = "elName">ejb-local-ref</text>
	<rect x = "144" y = "370" width = "77" height = "12" class = "elTypeBkgnd"/>
	<image xlink:href = "../dgmTypeComplex.gif" width = "10" height = "10" x = "212" y = "365"/>
	<circle class = "occurs" cx = "137" cy = "404" r = "6"/>
	<text x = "134" y = "407" class = "occurLarge">*</text>
	<rect x = "143" y = "390" width = "77" height = "28" class = "element"/>
	<polygon class = "nodeStyle" points = "149,392 145,396 149,400 153,396"/>
	<text x = "154" y = "401" class = "elName">resource-ref</text>
	<rect x = "144" y = "405" width = "75" height = "12" class = "elTypeBkgnd"/>
	<image xlink:href = "../dgmTypeComplex.gif" width = "10" height = "10" x = "210" y = "400"/>
	<circle class = "occurs" cx = "137" cy = "439" r = "6"/>
	<text x = "134" y = "442" class = "occurLarge">*</text>
	<rect x = "143" y = "425" width = "97" height = "28" class = "element"/>
	<polygon class = "nodeStyle" points = "149,427 145,431 149,435 153,431"/>
	<text x = "154" y = "436" class = "elName">resource-env-ref</text>
	<rect x = "144" y = "440" width = "95" height = "12" class = "elTypeBkgnd"/>
	<image xlink:href = "../dgmTypeComplex.gif" width = "10" height = "10" x = "230" y = "435"/>
	<circle class = "occurs" cx = "137" cy = "474" r = "6"/>
	<text x = "134" y = "477" class = "occurLarge">*</text>
	<rect x = "143" y = "460" width = "63" height = "28" class = "element"/>
	<polygon class = "nodeStyle" points = "149,462 145,466 149,470 153,466"/>
	<text x = "154" y = "471" class = "elName">depends</text>
	<rect x = "144" y = "475" width = "61" height = "12" class = "elTypeBkgnd"/>
	<image xlink:href = "../dgmDtString.gif" width = "10" height = "10" x = "196" y = "470"/>
</svg>