<?xml version = "1.0"?>
<!DOCTYPE svg PUBLIC "-//W3C//DTD SVG 20010904//EN" "http://www.w3.org/TR/2001/REC-SVG-20010904/DTD/svg10.dtd">
<svg width = "278pt" height = "73pt" viewBox = "0 0 278 73" xmlns = "http://www.w3.org/2000/svg" xmlns:xlink = "http://www.w3.org/1999/xlink">
	<defs>
		<style type = "text/css"><![CDATA[
rect.attrGroup { fill: ivory ; stroke: black; stroke-width: 1 }
rect.element { fill: ivory ; stroke: black; stroke-width: 1 }
rect.elTypeBkgnd { fill: lightgray ; stroke: none }
text.elName { font-family: helvetica ; font-size : 10 }
text.elType { font-family: helvetica ; font-size : 7 }
text.occurLarge { font-family: helvetica ; font-size : 9; fill : blue }
text.occurSmall { font-family: helvetica ; font-size : 7; fill : blue }
rect.typeIconDark { fill : darkslategray }
circle.occurs { stroke : black ; stroke-width: 1; fill : white }
circle.ellipsis { fill : black }
path.typeIconDark { stroke : lightgray ; stroke-width: 1 }
path.connector { stroke : red ; stroke-width: 1 ; fill: none; }
path.modelGroup { stroke : black ; stroke-width: 1 ; fill: lightgray; }
polyline.connector { stroke : red ; stroke-width: 1 ; fill: none; }
.nodeStyle { fill : blue }
]]></style>
	</defs>
	<rect x = "5" y = "22" width = "121" height = "28" class = "element"/>
	<polygon class = "nodeStyle" points = "11,24 7,28 11,32 15,28"/>
	<text x = "16" y = "33" class = "elName">container-cache-conf</text>
	<rect x = "6" y = "37" width = "119" height = "12" class = "elTypeBkgnd"/>
	<image xlink:href = "../dgmTypeComplex.gif" width = "10" height = "10" x = "116" y = "32"/>
	<polyline class = "connector" points = "156,19 136,19 136,36 126,36 136,36 136,54 156,54"/>
	<circle class = "occurs" cx = "162" cy = "19" r = "6"/>
	<text x = "159" y = "22" class = "occurLarge">?</text>
	<rect x = "168" y = "5" width = "82" height = "28" class = "element"/>
	<polygon class = "nodeStyle" points = "174,7 170,11 174,15 178,11"/>
	<text x = "179" y = "16" class = "elName">cache-policy</text>
	<rect x = "169" y = "20" width = "80" height = "12" class = "elTypeBkgnd"/>
	<image xlink:href = "../dgmDtString.gif" width = "10" height = "10" x = "240" y = "15"/>
	<circle class = "occurs" cx = "162" cy = "54" r = "6"/>
	<text x = "159" y = "57" class = "occurLarge">?</text>
	<rect x = "168" y = "40" width = "105" height = "28" class = "element"/>
	<polygon class = "nodeStyle" points = "174,42 170,46 174,50 178,46"/>
	<text x = "179" y = "51" class = "elName">cache-policy-conf</text>
	<rect x = "169" y = "55" width = "103" height = "12" class = "elTypeBkgnd"/>
	<image xlink:href = "../dgmTypeComplex.gif" width = "10" height = "10" x = "263" y = "50"/>
</svg>