<?xml version = "1.0"?>
<!DOCTYPE svg PUBLIC "-//W3C//DTD SVG 20010904//EN" "http://www.w3.org/TR/2001/REC-SVG-20010904/DTD/svg10.dtd">
<svg width = "278pt" height = "143pt" viewBox = "0 0 278 143" xmlns = "http://www.w3.org/2000/svg" xmlns:xlink = "http://www.w3.org/1999/xlink">
	<defs>
		<style type = "text/css"><![CDATA[
rect.attrGroup { fill: ivory ; stroke: black; stroke-width: 1 }
rect.element { fill: ivory ; stroke: black; stroke-width: 1 }
rect.elTypeBkgnd { fill: lightgray ; stroke: none }
text.elName { font-family: helvetica ; font-size : 10 }
text.elType { font-family: helvetica ; font-size : 7 }
text.occurLarge { font-family: helvetica ; font-size : 9; fill : blue }
text.occurSmall { font-family: helvetica ; font-size : 7; fill : blue }
rect.typeIconDark { fill : darkslategray }
circle.occurs { stroke : black ; stroke-width: 1; fill : white }
circle.ellipsis { fill : black }
path.typeIconDark { stroke : lightgray ; stroke-width: 1 }
path.connector { stroke : red ; stroke-width: 1 ; fill: none; }
path.modelGroup { stroke : black ; stroke-width: 1 ; fill: lightgray; }
polyline.connector { stroke : red ; stroke-width: 1 ; fill: none; }
.nodeStyle { fill : blue }
]]></style>
	</defs>
	<rect x = "5" y = "57" width = "114" height = "28" class = "element"/>
	<polygon class = "nodeStyle" points = "11,59 7,63 11,67 15,63"/>
	<text x = "16" y = "68" class = "elName">container-pool-conf</text>
	<rect x = "6" y = "72" width = "112" height = "12" class = "elTypeBkgnd"/>
	<image xlink:href = "../dgmTypeComplex.gif" width = "10" height = "10" x = "109" y = "67"/>
	<polyline class = "connector" points = "149,19 129,19 129,71 119,71 129,71 129,124 149,124"/>
	<circle class = "occurs" cx = "155" cy = "19" r = "6"/>
	<text x = "152" y = "22" class = "occurLarge">?</text>
	<rect x = "161" y = "5" width = "89" height = "28" class = "element"/>
	<polygon class = "nodeStyle" points = "167,7 163,11 167,15 171,11"/>
	<text x = "172" y = "16" class = "elName">MinimumSize</text>
	<rect x = "162" y = "20" width = "87" height = "12" class = "elTypeBkgnd"/>
	<image xlink:href = "../dgmDtString.gif" width = "10" height = "10" x = "240" y = "15"/>
	<circle class = "occurs" cx = "155" cy = "54" r = "6"/>
	<text x = "152" y = "57" class = "occurLarge">?</text>
	<rect x = "161" y = "40" width = "91" height = "28" class = "element"/>
	<polygon class = "nodeStyle" points = "167,42 163,46 167,50 171,46"/>
	<text x = "172" y = "51" class = "elName">MaximumSize</text>
	<rect x = "162" y = "55" width = "89" height = "12" class = "elTypeBkgnd"/>
	<image xlink:href = "../dgmDtString.gif" width = "10" height = "10" x = "242" y = "50"/>
	<circle class = "occurs" cx = "155" cy = "89" r = "6"/>
	<text x = "152" y = "92" class = "occurLarge">?</text>
	<rect x = "161" y = "75" width = "112" height = "28" class = "element"/>
	<polygon class = "nodeStyle" points = "167,77 163,81 167,85 171,81"/>
	<text x = "172" y = "86" class = "elName">strictMaximumSize</text>
	<rect x = "162" y = "90" width = "110" height = "12" class = "elTypeBkgnd"/>
	<image xlink:href = "../dgmDtString.gif" width = "10" height = "10" x = "263" y = "85"/>
	<circle class = "occurs" cx = "155" cy = "124" r = "6"/>
	<text x = "152" y = "127" class = "occurLarge">?</text>
	<rect x = "161" y = "110" width = "84" height = "28" class = "element"/>
	<polygon class = "nodeStyle" points = "167,112 163,116 167,120 171,116"/>
	<text x = "172" y = "121" class = "elName">strictTimeout</text>
	<rect x = "162" y = "125" width = "82" height = "12" class = "elTypeBkgnd"/>
	<image xlink:href = "../dgmDtString.gif" width = "10" height = "10" x = "235" y = "120"/>
</svg>