<?xml version = "1.0"?>
<!DOCTYPE svg PUBLIC "-//W3C//DTD SVG 20010904//EN" "http://www.w3.org/TR/2001/REC-SVG-20010904/DTD/svg10.dtd">
<svg width = "289pt" height = "143pt" viewBox = "0 0 289 143" xmlns = "http://www.w3.org/2000/svg" xmlns:xlink = "http://www.w3.org/1999/xlink">
	<defs>
		<style type = "text/css"><![CDATA[
rect.attrGroup { fill: ivory ; stroke: black; stroke-width: 1 }
rect.element { fill: ivory ; stroke: black; stroke-width: 1 }
rect.elTypeBkgnd { fill: lightgray ; stroke: none }
text.elName { font-family: helvetica ; font-size : 10 }
text.elType { font-family: helvetica ; font-size : 7 }
text.occurLarge { font-family: helvetica ; font-size : 9; fill : blue }
text.occurSmall { font-family: helvetica ; font-size : 7; fill : blue }
rect.typeIconDark { fill : darkslategray }
circle.occurs { stroke : black ; stroke-width: 1; fill : white }
circle.ellipsis { fill : black }
path.typeIconDark { stroke : lightgray ; stroke-width: 1 }
path.connector { stroke : red ; stroke-width: 1 ; fill: none; }
path.modelGroup { stroke : black ; stroke-width: 1 ; fill: lightgray; }
polyline.connector { stroke : red ; stroke-width: 1 ; fill: none; }
.nodeStyle { fill : blue }
]]></style>
	</defs>
	<rect x = "5" y = "57" width = "123" height = "28" class = "element"/>
	<polygon class = "nodeStyle" points = "11,59 7,63 11,67 15,63"/>
	<text x = "16" y = "68" class = "elName">invoker-proxy-binding</text>
	<rect x = "6" y = "72" width = "121" height = "12" class = "elTypeBkgnd"/>
	<image xlink:href = "../dgmTypeComplex.gif" width = "10" height = "10" x = "118" y = "67"/>
	<polyline class = "connector" points = "158,19 138,19 138,71 128,71 138,71 138,124 158,124"/>
	<polyline class = "connector" points = "158,19 170,19"/>
	<rect x = "170" y = "5" width = "50" height = "28" class = "element"/>
	<polygon class = "nodeStyle" points = "176,7 172,11 176,15 180,11"/>
	<text x = "181" y = "16" class = "elName">name</text>
	<rect x = "171" y = "20" width = "48" height = "12" class = "elTypeBkgnd"/>
	<image xlink:href = "../dgmDtString.gif" width = "10" height = "10" x = "210" y = "15"/>
	<rect x = "170" y = "40" width = "92" height = "28" class = "element"/>
	<polygon class = "nodeStyle" points = "176,42 172,46 176,50 180,46"/>
	<text x = "181" y = "51" class = "elName">invoker-mbean</text>
	<rect x = "171" y = "55" width = "90" height = "12" class = "elTypeBkgnd"/>
	<image xlink:href = "../dgmDtString.gif" width = "10" height = "10" x = "252" y = "50"/>
	<rect x = "170" y = "75" width = "82" height = "28" class = "element"/>
	<polygon class = "nodeStyle" points = "176,77 172,81 176,85 180,81"/>
	<text x = "181" y = "86" class = "elName">proxy-factory</text>
	<rect x = "171" y = "90" width = "80" height = "12" class = "elTypeBkgnd"/>
	<image xlink:href = "../dgmDtString.gif" width = "10" height = "10" x = "242" y = "85"/>
	<polyline class = "connector" points = "158,124 170,124"/>
	<rect x = "170" y = "110" width = "114" height = "28" class = "element"/>
	<polygon class = "nodeStyle" points = "176,112 172,116 176,120 180,116"/>
	<text x = "181" y = "121" class = "elName">proxy-factory-config</text>
	<rect x = "171" y = "125" width = "112" height = "12" class = "elTypeBkgnd"/>
	<image xlink:href = "../dgmTypeComplex.gif" width = "10" height = "10" x = "274" y = "120"/>
</svg>