<?xml version = "1.0"?>
<!DOCTYPE svg PUBLIC "-//W3C//DTD SVG 20010904//EN" "http://www.w3.org/TR/2001/REC-SVG-20010904/DTD/svg10.dtd">
<svg width = "390pt" height = "254pt" viewBox = "0 0 390 254" xmlns = "http://www.w3.org/2000/svg" xmlns:xlink = "http://www.w3.org/1999/xlink">
	<defs>
		<style type = "text/css"><![CDATA[
rect.attrGroup { fill: ivory ; stroke: black; stroke-width: 1 }
rect.element { fill: ivory ; stroke: black; stroke-width: 1 }
rect.elTypeBkgnd { fill: lightgray ; stroke: none }
text.elName { font-family: helvetica ; font-size : 10 }
text.elType { font-family: helvetica ; font-size : 7 }
text.occurLarge { font-family: helvetica ; font-size : 9; fill : blue }
text.occurSmall { font-family: helvetica ; font-size : 7; fill : blue }
rect.typeIconDark { fill : darkslategray }
circle.occurs { stroke : black ; stroke-width: 1; fill : white }
circle.ellipsis { fill : black }
path.typeIconDark { stroke : lightgray ; stroke-width: 1 }
path.connector { stroke : red ; stroke-width: 1 ; fill: none; }
path.modelGroup { stroke : black ; stroke-width: 1 ; fill: lightgray; }
polyline.connector { stroke : red ; stroke-width: 1 ; fill: none; }
.nodeStyle { fill : blue }
]]></style>
	</defs>
	<rect x = "106" y = "5" width = "279" height = "71" class = "attrGroup" rx = "5" ry = "5"/>
	<circle class = "occurs" cx = "117" cy = "24" r = "6"/>
	<text x = "114" y = "27" class = "occurLarge">?</text>
	<rect x = "123" y = "10" width = "32" height = "28" class = "element" rx = "5" ry = "5"/>
	<circle class = "nodeStyle" cx = "129" cy = "16" r = "4"/>
	<text x = "134" y = "21" class = "elName">id</text>
	<rect x = "124" y = "11" width = "30" height = "26" class = "elTypeBkgnd" rx = "5" ry = "5" clip-path = "url(#e:form-bean/a:id)"/>
	<defs/>
	<clipPath id = "e:form-bean/a:id">
		<rect x = "123" y = "25" width = "32" height = "12"/>
	</clipPath>
	<text x = "124" y = "33" class = "elType">ID</text>
	<image xlink:href = "../dgmDtName.gif" width = "10" height = "10" x = "145" y = "20"/>
	<rect x = "250" y = "10" width = "50" height = "28" class = "element" rx = "5" ry = "5"/>
	<circle class = "nodeStyle" cx = "256" cy = "16" r = "4"/>
	<text x = "261" y = "21" class = "elName">name</text>
	<rect x = "251" y = "11" width = "48" height = "26" class = "elTypeBkgnd" rx = "5" ry = "5" clip-path = "url(#e:form-bean/a:name)"/>
	<defs/>
	<clipPath id = "e:form-bean/a:name">
		<rect x = "250" y = "25" width = "50" height = "12"/>
	</clipPath>
	<text x = "251" y = "33" class = "elType">BeanName</text>
	<image xlink:href = "../dgmDtString.gif" width = "10" height = "10" x = "290" y = "20"/>
	<rect x = "111" y = "43" width = "51" height = "28" class = "element" rx = "5" ry = "5"/>
	<circle class = "nodeStyle" cx = "117" cy = "49" r = "4"/>
	<text x = "122" y = "54" class = "elName">type</text>
	<rect x = "112" y = "44" width = "49" height = "26" class = "elTypeBkgnd" rx = "5" ry = "5" clip-path = "url(#e:form-bean/a:type)"/>
	<defs/>
	<clipPath id = "e:form-bean/a:type">
		<rect x = "111" y = "58" width = "51" height = "12"/>
	</clipPath>
	<text x = "112" y = "66" class = "elType">ClassName</text>
	<image xlink:href = "../dgmDtString.gif" width = "10" height = "10" x = "152" y = "53"/>
	<circle class = "occurs" cx = "311" cy = "24" r = "6"/>
	<text x = "308" y = "27" class = "occurLarge">?</text>
	<rect x = "317" y = "10" width = "63" height = "28" class = "element" rx = "5" ry = "5"/>
	<circle class = "nodeStyle" cx = "323" cy = "16" r = "4"/>
	<text x = "328" y = "21" class = "elName">dynamic</text>
	<rect x = "318" y = "11" width = "61" height = "26" class = "elTypeBkgnd" rx = "5" ry = "5" clip-path = "url(#e:form-bean/a:dynamic)"/>
	<defs/>
	<clipPath id = "e:form-bean/a:dynamic">
		<rect x = "317" y = "25" width = "63" height = "12"/>
	</clipPath>
	<image xlink:href = "../dgmDtString.gif" width = "10" height = "10" x = "370" y = "20"/>
	<circle class = "occurs" cx = "166" cy = "24" r = "6"/>
	<text x = "163" y = "27" class = "occurLarge">?</text>
	<rect x = "172" y = "10" width = "73" height = "28" class = "element" rx = "5" ry = "5"/>
	<circle class = "nodeStyle" cx = "178" cy = "16" r = "4"/>
	<text x = "183" y = "21" class = "elName">className</text>
	<rect x = "173" y = "11" width = "71" height = "26" class = "elTypeBkgnd" rx = "5" ry = "5" clip-path = "url(#e:form-bean/a:className)"/>
	<defs/>
	<clipPath id = "e:form-bean/a:className">
		<rect x = "172" y = "25" width = "73" height = "12"/>
	</clipPath>
	<text x = "173" y = "33" class = "elType">ClassName</text>
	<image xlink:href = "../dgmDtString.gif" width = "10" height = "10" x = "235" y = "20"/>
	<rect x = "5" y = "151" width = "71" height = "28" class = "element"/>
	<polygon class = "nodeStyle" points = "11,153 7,157 11,161 15,157"/>
	<text x = "16" y = "162" class = "elName">form-bean</text>
	<rect x = "6" y = "166" width = "69" height = "12" class = "elTypeBkgnd"/>
	<image xlink:href = "../dgmTypeComplex.gif" width = "10" height = "10" x = "66" y = "161"/>
	<polyline class = "connector" points = "106,95 86,95 86,165 76,165 86,165 86,235 106,235"/>
	<polyline class = "connector" points = "76,163 84,163 84,40 106,40"/>
	<circle class = "occurs" cx = "112" cy = "95" r = "6"/>
	<text x = "109" y = "98" class = "occurLarge">?</text>
	<rect x = "118" y = "81" width = "43" height = "28" class = "element"/>
	<polygon class = "nodeStyle" points = "124,83 120,87 124,91 128,87"/>
	<text x = "129" y = "92" class = "elName">icon</text>
	<rect x = "119" y = "96" width = "41" height = "12" class = "elTypeBkgnd"/>
	<image xlink:href = "../dgmTypeComplex.gif" width = "10" height = "10" x = "151" y = "91"/>
	<circle class = "occurs" cx = "112" cy = "130" r = "6"/>
	<text x = "109" y = "133" class = "occurLarge">?</text>
	<rect x = "118" y = "116" width = "86" height = "28" class = "element"/>
	<polygon class = "nodeStyle" points = "124,118 120,122 124,126 128,122"/>
	<text x = "129" y = "127" class = "elName">display-name</text>
	<rect x = "119" y = "131" width = "84" height = "12" class = "elTypeBkgnd"/>
	<image xlink:href = "../dgmDtString.gif" width = "10" height = "10" x = "194" y = "126"/>
	<circle class = "occurs" cx = "112" cy = "165" r = "6"/>
	<text x = "109" y = "168" class = "occurLarge">?</text>
	<rect x = "118" y = "151" width = "74" height = "28" class = "element"/>
	<polygon class = "nodeStyle" points = "124,153 120,157 124,161 128,157"/>
	<text x = "129" y = "162" class = "elName">description</text>
	<rect x = "119" y = "166" width = "72" height = "12" class = "elTypeBkgnd"/>
	<image xlink:href = "../dgmDtString.gif" width = "10" height = "10" x = "182" y = "161"/>
	<circle class = "occurs" cx = "112" cy = "200" r = "6"/>
	<text x = "109" y = "203" class = "occurLarge">*</text>
	<rect x = "118" y = "186" width = "77" height = "28" class = "element"/>
	<polygon class = "nodeStyle" points = "124,188 120,192 124,196 128,192"/>
	<text x = "129" y = "197" class = "elName">set-property</text>
	<rect x = "119" y = "201" width = "75" height = "12" class = "elTypeBkgnd"/>
	<image xlink:href = "../dgmTypeEmpty.gif" width = "10" height = "10" x = "185" y = "196"/>
	<circle class = "occurs" cx = "112" cy = "235" r = "6"/>
	<text x = "109" y = "238" class = "occurLarge">*</text>
	<rect x = "118" y = "221" width = "85" height = "28" class = "element"/>
	<polygon class = "nodeStyle" points = "124,223 120,227 124,231 128,227"/>
	<text x = "129" y = "232" class = "elName">form-property</text>
	<rect x = "119" y = "236" width = "83" height = "12" class = "elTypeBkgnd"/>
	<image xlink:href = "../dgmTypeComplex.gif" width = "10" height = "10" x = "193" y = "231"/>
</svg>