<?xml version = "1.0"?>
<!DOCTYPE svg PUBLIC "-//W3C//DTD SVG 20010904//EN" "http://www.w3.org/TR/2001/REC-SVG-20010904/DTD/svg10.dtd">
<svg width = "240pt" height = "326pt" viewBox = "0 0 240 326" xmlns = "http://www.w3.org/2000/svg" xmlns:xlink = "http://www.w3.org/1999/xlink">
	<defs>
		<style type = "text/css"><![CDATA[
rect.attrGroup { fill: ivory ; stroke: black; stroke-width: 1 }
rect.element { fill: ivory ; stroke: black; stroke-width: 1 }
rect.elTypeBkgnd { fill: lightgray ; stroke: none }
text.elName { font-family: helvetica ; font-size : 10 }
text.elType { font-family: helvetica ; font-size : 7 }
text.occurLarge { font-family: helvetica ; font-size : 9; fill : blue }
text.occurSmall { font-family: helvetica ; font-size : 7; fill : blue }
rect.typeIconDark { fill : darkslategray }
circle.occurs { stroke : black ; stroke-width: 1; fill : white }
circle.ellipsis { fill : black }
path.typeIconDark { stroke : lightgray ; stroke-width: 1 }
path.connector { stroke : red ; stroke-width: 1 ; fill: none; }
path.modelGroup { stroke : black ; stroke-width: 1 ; fill: lightgray; }
polyline.connector { stroke : red ; stroke-width: 1 ; fill: none; }
.nodeStyle { fill : blue }
]]></style>
	</defs>
	<rect x = "113" y = "5" width = "54" height = "38" class = "attrGroup" rx = "5" ry = "5"/>
	<circle class = "occurs" cx = "124" cy = "24" r = "6"/>
	<text x = "121" y = "27" class = "occurLarge">?</text>
	<rect x = "130" y = "10" width = "32" height = "28" class = "element" rx = "5" ry = "5"/>
	<circle class = "nodeStyle" cx = "136" cy = "16" r = "4"/>
	<text x = "141" y = "21" class = "elName">id</text>
	<rect x = "131" y = "11" width = "30" height = "26" class = "elTypeBkgnd" rx = "5" ry = "5" clip-path = "url(#e:struts-config/a:id)"/>
	<defs/>
	<clipPath id = "e:struts-config/a:id">
		<rect x = "130" y = "25" width = "32" height = "12"/>
	</clipPath>
	<text x = "131" y = "33" class = "elType">ID</text>
	<image xlink:href = "../dgmDtName.gif" width = "10" height = "10" x = "152" y = "20"/>
	<rect x = "5" y = "170" width = "78" height = "28" class = "element"/>
	<polygon class = "nodeStyle" points = "11,172 7,176 11,180 15,176"/>
	<text x = "16" y = "181" class = "elName">struts-config</text>
	<rect x = "6" y = "185" width = "76" height = "12" class = "elTypeBkgnd"/>
	<image xlink:href = "../dgmTypeComplex.gif" width = "10" height = "10" x = "73" y = "180"/>
	<polyline class = "connector" points = "113,62 93,62 93,184 83,184 93,184 93,307 113,307"/>
	<polyline class = "connector" points = "83,182 91,182 91,24 113,24"/>
	<circle class = "occurs" cx = "119" cy = "62" r = "6"/>
	<text x = "116" y = "65" class = "occurLarge">?</text>
	<rect x = "125" y = "48" width = "81" height = "28" class = "element"/>
	<polygon class = "nodeStyle" points = "131,50 127,54 131,58 135,54"/>
	<text x = "136" y = "59" class = "elName">data-sources</text>
	<rect x = "126" y = "63" width = "79" height = "12" class = "elTypeBkgnd"/>
	<image xlink:href = "../dgmTypeComplex.gif" width = "10" height = "10" x = "196" y = "58"/>
	<circle class = "occurs" cx = "119" cy = "97" r = "6"/>
	<text x = "116" y = "100" class = "occurLarge">?</text>
	<rect x = "125" y = "83" width = "75" height = "28" class = "element"/>
	<polygon class = "nodeStyle" points = "131,85 127,89 131,93 135,89"/>
	<text x = "136" y = "94" class = "elName">form-beans</text>
	<rect x = "126" y = "98" width = "73" height = "12" class = "elTypeBkgnd"/>
	<image xlink:href = "../dgmTypeComplex.gif" width = "10" height = "10" x = "190" y = "93"/>
	<circle class = "occurs" cx = "119" cy = "132" r = "6"/>
	<text x = "116" y = "135" class = "occurLarge">?</text>
	<rect x = "125" y = "118" width = "106" height = "28" class = "element"/>
	<polygon class = "nodeStyle" points = "131,120 127,124 131,128 135,124"/>
	<text x = "136" y = "129" class = "elName">global-exceptions</text>
	<rect x = "126" y = "133" width = "104" height = "12" class = "elTypeBkgnd"/>
	<image xlink:href = "../dgmTypeComplex.gif" width = "10" height = "10" x = "221" y = "128"/>
	<circle class = "occurs" cx = "119" cy = "167" r = "6"/>
	<text x = "116" y = "170" class = "occurLarge">?</text>
	<rect x = "125" y = "153" width = "94" height = "28" class = "element"/>
	<polygon class = "nodeStyle" points = "131,155 127,159 131,163 135,159"/>
	<text x = "136" y = "164" class = "elName">global-forwards</text>
	<rect x = "126" y = "168" width = "92" height = "12" class = "elTypeBkgnd"/>
	<image xlink:href = "../dgmTypeComplex.gif" width = "10" height = "10" x = "209" y = "163"/>
	<circle class = "occurs" cx = "119" cy = "202" r = "6"/>
	<text x = "116" y = "205" class = "occurLarge">?</text>
	<rect x = "125" y = "188" width = "101" height = "28" class = "element"/>
	<polygon class = "nodeStyle" points = "131,190 127,194 131,198 135,194"/>
	<text x = "136" y = "199" class = "elName">action-mappings</text>
	<rect x = "126" y = "203" width = "99" height = "12" class = "elTypeBkgnd"/>
	<image xlink:href = "../dgmTypeComplex.gif" width = "10" height = "10" x = "216" y = "198"/>
	<circle class = "occurs" cx = "119" cy = "237" r = "6"/>
	<text x = "116" y = "240" class = "occurLarge">?</text>
	<rect x = "125" y = "223" width = "67" height = "28" class = "element"/>
	<polygon class = "nodeStyle" points = "131,225 127,229 131,233 135,229"/>
	<text x = "136" y = "234" class = "elName">controller</text>
	<rect x = "126" y = "238" width = "65" height = "12" class = "elTypeBkgnd"/>
	<image xlink:href = "../dgmTypeComplex.gif" width = "10" height = "10" x = "182" y = "233"/>
	<circle class = "occurs" cx = "119" cy = "272" r = "6"/>
	<text x = "116" y = "275" class = "occurLarge">*</text>
	<rect x = "125" y = "258" width = "110" height = "28" class = "element"/>
	<polygon class = "nodeStyle" points = "131,260 127,264 131,268 135,264"/>
	<text x = "136" y = "269" class = "elName">message-resources</text>
	<rect x = "126" y = "273" width = "108" height = "12" class = "elTypeBkgnd"/>
	<image xlink:href = "../dgmTypeComplex.gif" width = "10" height = "10" x = "225" y = "268"/>
	<circle class = "occurs" cx = "119" cy = "307" r = "6"/>
	<text x = "116" y = "310" class = "occurLarge">*</text>
	<rect x = "125" y = "293" width = "56" height = "28" class = "element"/>
	<polygon class = "nodeStyle" points = "131,295 127,299 131,303 135,299"/>
	<text x = "136" y = "304" class = "elName">plug-in</text>
	<rect x = "126" y = "308" width = "54" height = "12" class = "elTypeBkgnd"/>
	<image xlink:href = "../dgmTypeComplex.gif" width = "10" height = "10" x = "171" y = "303"/>
</svg>