<?xml version = "1.0"?>
<!DOCTYPE svg PUBLIC "-//W3C//DTD SVG 20010904//EN" "http://www.w3.org/TR/2001/REC-SVG-20010904/DTD/svg10.dtd">
<svg width = "227pt" height = "81pt" viewBox = "0 0 227 81" xmlns = "http://www.w3.org/2000/svg" xmlns:xlink = "http://www.w3.org/1999/xlink">
	<defs>
		<style type = "text/css"><![CDATA[
rect.attrGroup { fill: ivory ; stroke: black; stroke-width: 1 }
rect.element { fill: ivory ; stroke: black; stroke-width: 1 }
rect.elTypeBkgnd { fill: lightgray ; stroke: none }
text.elName { font-family: helvetica ; font-size : 10 }
text.elType { font-family: helvetica ; font-size : 7 }
text.occurLarge { font-family: helvetica ; font-size : 9; fill : blue }
text.occurSmall { font-family: helvetica ; font-size : 7; fill : blue }
rect.typeIconDark { fill : darkslategray }
circle.occurs { stroke : black ; stroke-width: 1; fill : white }
circle.ellipsis { fill : black }
path.typeIconDark { stroke : lightgray ; stroke-width: 1 }
path.connector { stroke : red ; stroke-width: 1 ; fill: none; }
path.modelGroup { stroke : black ; stroke-width: 1 ; fill: lightgray; }
polyline.connector { stroke : red ; stroke-width: 1 ; fill: none; }
.nodeStyle { fill : blue }
]]></style>
	</defs>
	<rect x = "141" y = "5" width = "54" height = "38" class = "attrGroup" rx = "5" ry = "5"/>
	<circle class = "occurs" cx = "152" cy = "24" r = "6"/>
	<text x = "149" y = "27" class = "occurLarge">?</text>
	<rect x = "158" y = "10" width = "32" height = "28" class = "element" rx = "5" ry = "5"/>
	<circle class = "nodeStyle" cx = "164" cy = "16" r = "4"/>
	<text x = "169" y = "21" class = "elName">id</text>
	<rect x = "159" y = "11" width = "30" height = "26" class = "elTypeBkgnd" rx = "5" ry = "5" clip-path = "url(#e:global-exceptions/a:id)"/>
	<defs/>
	<clipPath id = "e:global-exceptions/a:id">
		<rect x = "158" y = "25" width = "32" height = "12"/>
	</clipPath>
	<text x = "159" y = "33" class = "elType">ID</text>
	<image xlink:href = "../dgmDtName.gif" width = "10" height = "10" x = "180" y = "20"/>
	<rect x = "5" y = "48" width = "106" height = "28" class = "element"/>
	<polygon class = "nodeStyle" points = "11,50 7,54 11,58 15,54"/>
	<text x = "16" y = "59" class = "elName">global-exceptions</text>
	<rect x = "6" y = "63" width = "104" height = "12" class = "elTypeBkgnd"/>
	<image xlink:href = "../dgmTypeComplex.gif" width = "10" height = "10" x = "101" y = "58"/>
	<polyline class = "connector" points = "111,62 141,62"/>
	<polyline class = "connector" points = "111,60 119,60 119,24 141,24"/>
	<circle class = "occurs" cx = "147" cy = "62" r = "6"/>
	<text x = "144" y = "65" class = "occurLarge">*</text>
	<rect x = "153" y = "48" width = "69" height = "28" class = "element"/>
	<polygon class = "nodeStyle" points = "159,50 155,54 159,58 163,54"/>
	<text x = "164" y = "59" class = "elName">exception</text>
	<rect x = "154" y = "63" width = "67" height = "12" class = "elTypeBkgnd"/>
	<image xlink:href = "../dgmTypeComplex.gif" width = "10" height = "10" x = "212" y = "58"/>
</svg>