<?xml version = "1.0"?>
<!DOCTYPE svg PUBLIC "-//W3C//DTD SVG 20010904//EN" "http://www.w3.org/TR/2001/REC-SVG-20010904/DTD/svg10.dtd">
<svg width = "398pt" height = "114pt" viewBox = "0 0 398 114" xmlns = "http://www.w3.org/2000/svg" xmlns:xlink = "http://www.w3.org/1999/xlink">
	<defs>
		<style type = "text/css"><![CDATA[
rect.attrGroup { fill: ivory ; stroke: black; stroke-width: 1 }
rect.element { fill: ivory ; stroke: black; stroke-width: 1 }
rect.elTypeBkgnd { fill: lightgray ; stroke: none }
text.elName { font-family: helvetica ; font-size : 10 }
text.elType { font-family: helvetica ; font-size : 7 }
text.occurLarge { font-family: helvetica ; font-size : 9; fill : blue }
text.occurSmall { font-family: helvetica ; font-size : 7; fill : blue }
rect.typeIconDark { fill : darkslategray }
circle.occurs { stroke : black ; stroke-width: 1; fill : white }
circle.ellipsis { fill : black }
path.typeIconDark { stroke : lightgray ; stroke-width: 1 }
path.connector { stroke : red ; stroke-width: 1 ; fill: none; }
path.modelGroup { stroke : black ; stroke-width: 1 ; fill: lightgray; }
polyline.connector { stroke : red ; stroke-width: 1 ; fill: none; }
.nodeStyle { fill : blue }
]]></style>
	</defs>
	<rect x = "120" y = "5" width = "273" height = "71" class = "attrGroup" rx = "5" ry = "5"/>
	<rect x = "125" y = "10" width = "50" height = "28" class = "element" rx = "5" ry = "5"/>
	<circle class = "nodeStyle" cx = "131" cy = "16" r = "4"/>
	<text x = "136" y = "21" class = "elName">name</text>
	<rect x = "126" y = "11" width = "48" height = "26" class = "elTypeBkgnd" rx = "5" ry = "5" clip-path = "url(#e:form-property/a:name)"/>
	<defs/>
	<clipPath id = "e:form-property/a:name">
		<rect x = "125" y = "25" width = "50" height = "12"/>
	</clipPath>
	<text x = "126" y = "33" class = "elType">PropName</text>
	<image xlink:href = "../dgmDtString.gif" width = "10" height = "10" x = "165" y = "20"/>
	<rect x = "270" y = "10" width = "51" height = "28" class = "element" rx = "5" ry = "5"/>
	<circle class = "nodeStyle" cx = "276" cy = "16" r = "4"/>
	<text x = "281" y = "21" class = "elName">type</text>
	<rect x = "271" y = "11" width = "49" height = "26" class = "elTypeBkgnd" rx = "5" ry = "5" clip-path = "url(#e:form-property/a:type)"/>
	<defs/>
	<clipPath id = "e:form-property/a:type">
		<rect x = "270" y = "25" width = "51" height = "12"/>
	</clipPath>
	<text x = "271" y = "33" class = "elType">ClassName</text>
	<image xlink:href = "../dgmDtString.gif" width = "10" height = "10" x = "311" y = "20"/>
	<circle class = "occurs" cx = "131" cy = "57" r = "6"/>
	<text x = "128" y = "60" class = "occurLarge">?</text>
	<rect x = "137" y = "43" width = "41" height = "28" class = "element" rx = "5" ry = "5"/>
	<circle class = "nodeStyle" cx = "143" cy = "49" r = "4"/>
	<text x = "148" y = "54" class = "elName">size</text>
	<rect x = "138" y = "44" width = "39" height = "26" class = "elTypeBkgnd" rx = "5" ry = "5" clip-path = "url(#e:form-property/a:size)"/>
	<defs/>
	<clipPath id = "e:form-property/a:size">
		<rect x = "137" y = "58" width = "41" height = "12"/>
	</clipPath>
	<text x = "138" y = "66" class = "elType">Integer</text>
	<image xlink:href = "../dgmDtString.gif" width = "10" height = "10" x = "168" y = "53"/>
	<circle class = "occurs" cx = "332" cy = "24" r = "6"/>
	<text x = "329" y = "27" class = "occurLarge">?</text>
	<rect x = "338" y = "10" width = "50" height = "28" class = "element" rx = "5" ry = "5"/>
	<circle class = "nodeStyle" cx = "344" cy = "16" r = "4"/>
	<text x = "349" y = "21" class = "elName">initial</text>
	<rect x = "339" y = "11" width = "48" height = "26" class = "elTypeBkgnd" rx = "5" ry = "5" clip-path = "url(#e:form-property/a:initial)"/>
	<defs/>
	<clipPath id = "e:form-property/a:initial">
		<rect x = "338" y = "25" width = "50" height = "12"/>
	</clipPath>
	<text x = "339" y = "33" class = "elType">string</text>
	<image xlink:href = "../dgmDtString.gif" width = "10" height = "10" x = "378" y = "20"/>
	<circle class = "occurs" cx = "186" cy = "24" r = "6"/>
	<text x = "183" y = "27" class = "occurLarge">?</text>
	<rect x = "192" y = "10" width = "73" height = "28" class = "element" rx = "5" ry = "5"/>
	<circle class = "nodeStyle" cx = "198" cy = "16" r = "4"/>
	<text x = "203" y = "21" class = "elName">className</text>
	<rect x = "193" y = "11" width = "71" height = "26" class = "elTypeBkgnd" rx = "5" ry = "5" clip-path = "url(#e:form-property/a:className)"/>
	<defs/>
	<clipPath id = "e:form-property/a:className">
		<rect x = "192" y = "25" width = "73" height = "12"/>
	</clipPath>
	<text x = "193" y = "33" class = "elType">ClassName</text>
	<image xlink:href = "../dgmDtString.gif" width = "10" height = "10" x = "255" y = "20"/>
	<rect x = "5" y = "81" width = "85" height = "28" class = "element"/>
	<polygon class = "nodeStyle" points = "11,83 7,87 11,91 15,87"/>
	<text x = "16" y = "92" class = "elName">form-property</text>
	<rect x = "6" y = "96" width = "83" height = "12" class = "elTypeBkgnd"/>
	<image xlink:href = "../dgmTypeComplex.gif" width = "10" height = "10" x = "80" y = "91"/>
	<polyline class = "connector" points = "90,95 120,95"/>
	<polyline class = "connector" points = "90,93 98,93 98,40 120,40"/>
	<circle class = "occurs" cx = "126" cy = "95" r = "6"/>
	<text x = "123" y = "98" class = "occurLarge">*</text>
	<rect x = "132" y = "81" width = "77" height = "28" class = "element"/>
	<polygon class = "nodeStyle" points = "138,83 134,87 138,91 142,87"/>
	<text x = "143" y = "92" class = "elName">set-property</text>
	<rect x = "133" y = "96" width = "75" height = "12" class = "elTypeBkgnd"/>
	<image xlink:href = "../dgmTypeEmpty.gif" width = "10" height = "10" x = "199" y = "91"/>
</svg>