<?xml version = "1.0"?>
<!DOCTYPE svg PUBLIC "-//W3C//DTD SVG 20010904//EN" "http://www.w3.org/TR/2001/REC-SVG-20010904/DTD/svg10.dtd">
<svg width = "263pt" height = "81pt" viewBox = "0 0 263 81" xmlns = "http://www.w3.org/2000/svg" xmlns:xlink = "http://www.w3.org/1999/xlink">
	<defs>
		<style type = "text/css"><![CDATA[
rect.attrGroup { fill: ivory ; stroke: black; stroke-width: 1 }
rect.element { fill: ivory ; stroke: black; stroke-width: 1 }
rect.elTypeBkgnd { fill: lightgray ; stroke: none }
text.elName { font-family: helvetica ; font-size : 10 }
text.elType { font-family: helvetica ; font-size : 7 }
text.occurLarge { font-family: helvetica ; font-size : 9; fill : blue }
text.occurSmall { font-family: helvetica ; font-size : 7; fill : blue }
rect.typeIconDark { fill : darkslategray }
circle.occurs { stroke : black ; stroke-width: 1; fill : white }
circle.ellipsis { fill : black }
path.typeIconDark { stroke : lightgray ; stroke-width: 1 }
path.connector { stroke : red ; stroke-width: 1 ; fill: none; }
path.modelGroup { stroke : black ; stroke-width: 1 ; fill: lightgray; }
polyline.connector { stroke : red ; stroke-width: 1 ; fill: none; }
.nodeStyle { fill : blue }
]]></style>
	</defs>
	<rect x = "136" y = "5" width = "122" height = "38" class = "attrGroup" rx = "5" ry = "5"/>
	<circle class = "occurs" cx = "147" cy = "24" r = "6"/>
	<text x = "144" y = "27" class = "occurLarge">?</text>
	<rect x = "153" y = "10" width = "32" height = "28" class = "element" rx = "5" ry = "5"/>
	<circle class = "nodeStyle" cx = "159" cy = "16" r = "4"/>
	<text x = "164" y = "21" class = "elName">id</text>
	<rect x = "154" y = "11" width = "30" height = "26" class = "elTypeBkgnd" rx = "5" ry = "5" clip-path = "url(#e:action-mappings/a:id)"/>
	<defs/>
	<clipPath id = "e:action-mappings/a:id">
		<rect x = "153" y = "25" width = "32" height = "12"/>
	</clipPath>
	<text x = "154" y = "33" class = "elType">ID</text>
	<image xlink:href = "../dgmDtName.gif" width = "10" height = "10" x = "175" y = "20"/>
	<circle class = "occurs" cx = "196" cy = "24" r = "6"/>
	<text x = "193" y = "27" class = "occurLarge">?</text>
	<rect x = "202" y = "10" width = "51" height = "28" class = "element" rx = "5" ry = "5"/>
	<circle class = "nodeStyle" cx = "208" cy = "16" r = "4"/>
	<text x = "213" y = "21" class = "elName">type</text>
	<rect x = "203" y = "11" width = "49" height = "26" class = "elTypeBkgnd" rx = "5" ry = "5" clip-path = "url(#e:action-mappings/a:type)"/>
	<defs/>
	<clipPath id = "e:action-mappings/a:type">
		<rect x = "202" y = "25" width = "51" height = "12"/>
	</clipPath>
	<text x = "203" y = "33" class = "elType">ClassName</text>
	<image xlink:href = "../dgmDtString.gif" width = "10" height = "10" x = "243" y = "20"/>
	<rect x = "5" y = "48" width = "101" height = "28" class = "element"/>
	<polygon class = "nodeStyle" points = "11,50 7,54 11,58 15,54"/>
	<text x = "16" y = "59" class = "elName">action-mappings</text>
	<rect x = "6" y = "63" width = "99" height = "12" class = "elTypeBkgnd"/>
	<image xlink:href = "../dgmTypeComplex.gif" width = "10" height = "10" x = "96" y = "58"/>
	<polyline class = "connector" points = "106,62 136,62"/>
	<polyline class = "connector" points = "106,60 114,60 114,24 136,24"/>
	<circle class = "occurs" cx = "142" cy = "62" r = "6"/>
	<text x = "139" y = "65" class = "occurLarge">*</text>
	<rect x = "148" y = "48" width = "52" height = "28" class = "element"/>
	<polygon class = "nodeStyle" points = "154,50 150,54 154,58 158,54"/>
	<text x = "159" y = "59" class = "elName">action</text>
	<rect x = "149" y = "63" width = "50" height = "12" class = "elTypeBkgnd"/>
	<image xlink:href = "../dgmTypeComplex.gif" width = "10" height = "10" x = "190" y = "58"/>
</svg>