<?xml version = "1.0"?>
<!DOCTYPE svg PUBLIC "-//W3C//DTD SVG 20010904//EN" "http://www.w3.org/TR/2001/REC-SVG-20010904/DTD/svg10.dtd">
<svg width = "409pt" height = "219pt" viewBox = "0 0 409 219" xmlns = "http://www.w3.org/2000/svg" xmlns:xlink = "http://www.w3.org/1999/xlink">
	<defs>
		<style type = "text/css"><![CDATA[
rect.attrGroup { fill: ivory ; stroke: black; stroke-width: 1 }
rect.element { fill: ivory ; stroke: black; stroke-width: 1 }
rect.elTypeBkgnd { fill: lightgray ; stroke: none }
text.elName { font-family: helvetica ; font-size : 10 }
text.elType { font-family: helvetica ; font-size : 7 }
text.occurLarge { font-family: helvetica ; font-size : 9; fill : blue }
text.occurSmall { font-family: helvetica ; font-size : 7; fill : blue }
rect.typeIconDark { fill : darkslategray }
circle.occurs { stroke : black ; stroke-width: 1; fill : white }
circle.ellipsis { fill : black }
path.typeIconDark { stroke : lightgray ; stroke-width: 1 }
path.connector { stroke : red ; stroke-width: 1 ; fill: none; }
path.modelGroup { stroke : black ; stroke-width: 1 ; fill: lightgray; }
polyline.connector { stroke : red ; stroke-width: 1 ; fill: none; }
.nodeStyle { fill : blue }
]]></style>
	</defs>
	<rect x = "92" y = "5" width = "312" height = "71" class = "attrGroup" rx = "5" ry = "5"/>
	<circle class = "occurs" cx = "103" cy = "24" r = "6"/>
	<text x = "100" y = "27" class = "occurLarge">?</text>
	<rect x = "109" y = "10" width = "32" height = "28" class = "element" rx = "5" ry = "5"/>
	<circle class = "nodeStyle" cx = "115" cy = "16" r = "4"/>
	<text x = "120" y = "21" class = "elName">id</text>
	<rect x = "110" y = "11" width = "30" height = "26" class = "elTypeBkgnd" rx = "5" ry = "5" clip-path = "url(#e:forward/a:id)"/>
	<defs/>
	<clipPath id = "e:forward/a:id">
		<rect x = "109" y = "25" width = "32" height = "12"/>
	</clipPath>
	<text x = "110" y = "33" class = "elType">ID</text>
	<image xlink:href = "../dgmDtName.gif" width = "10" height = "10" x = "131" y = "20"/>
	<rect x = "259" y = "10" width = "50" height = "28" class = "element" rx = "5" ry = "5"/>
	<circle class = "nodeStyle" cx = "265" cy = "16" r = "4"/>
	<text x = "270" y = "21" class = "elName">name</text>
	<rect x = "260" y = "11" width = "48" height = "26" class = "elTypeBkgnd" rx = "5" ry = "5" clip-path = "url(#e:forward/a:name)"/>
	<defs/>
	<clipPath id = "e:forward/a:name">
		<rect x = "259" y = "25" width = "50" height = "12"/>
	</clipPath>
	<text x = "260" y = "33" class = "elType">string</text>
	<image xlink:href = "../dgmDtString.gif" width = "10" height = "10" x = "299" y = "20"/>
	<rect x = "97" y = "43" width = "55" height = "28" class = "element" rx = "5" ry = "5"/>
	<circle class = "nodeStyle" cx = "103" cy = "49" r = "4"/>
	<text x = "108" y = "54" class = "elName">path</text>
	<rect x = "98" y = "44" width = "53" height = "26" class = "elTypeBkgnd" rx = "5" ry = "5" clip-path = "url(#e:forward/a:path)"/>
	<defs/>
	<clipPath id = "e:forward/a:path">
		<rect x = "97" y = "58" width = "55" height = "12"/>
	</clipPath>
	<text x = "98" y = "66" class = "elType">RequestPath</text>
	<image xlink:href = "../dgmDtString.gif" width = "10" height = "10" x = "142" y = "53"/>
	<circle class = "occurs" cx = "163" cy = "57" r = "6"/>
	<text x = "160" y = "60" class = "occurLarge">?</text>
	<rect x = "169" y = "43" width = "58" height = "28" class = "element" rx = "5" ry = "5"/>
	<circle class = "nodeStyle" cx = "175" cy = "49" r = "4"/>
	<text x = "180" y = "54" class = "elName">redirect</text>
	<rect x = "170" y = "44" width = "56" height = "26" class = "elTypeBkgnd" rx = "5" ry = "5" clip-path = "url(#e:forward/a:redirect)"/>
	<defs/>
	<clipPath id = "e:forward/a:redirect">
		<rect x = "169" y = "58" width = "58" height = "12"/>
	</clipPath>
	<image xlink:href = "../dgmDtString.gif" width = "10" height = "10" x = "217" y = "53"/>
	<circle class = "occurs" cx = "320" cy = "24" r = "6"/>
	<text x = "317" y = "27" class = "occurLarge">?</text>
	<rect x = "326" y = "10" width = "73" height = "28" class = "element" rx = "5" ry = "5"/>
	<circle class = "nodeStyle" cx = "332" cy = "16" r = "4"/>
	<text x = "337" y = "21" class = "elName">className</text>
	<rect x = "327" y = "11" width = "71" height = "26" class = "elTypeBkgnd" rx = "5" ry = "5" clip-path = "url(#e:forward/a:className)"/>
	<defs/>
	<clipPath id = "e:forward/a:className">
		<rect x = "326" y = "25" width = "73" height = "12"/>
	</clipPath>
	<text x = "327" y = "33" class = "elType">ClassName</text>
	<image xlink:href = "../dgmDtString.gif" width = "10" height = "10" x = "389" y = "20"/>
	<circle class = "occurs" cx = "152" cy = "24" r = "6"/>
	<text x = "149" y = "27" class = "occurLarge">?</text>
	<rect x = "158" y = "10" width = "96" height = "28" class = "element" rx = "5" ry = "5"/>
	<circle class = "nodeStyle" cx = "164" cy = "16" r = "4"/>
	<text x = "169" y = "21" class = "elName">contextRelative</text>
	<rect x = "159" y = "11" width = "94" height = "26" class = "elTypeBkgnd" rx = "5" ry = "5" clip-path = "url(#e:forward/a:contextRelative)"/>
	<defs/>
	<clipPath id = "e:forward/a:contextRelative">
		<rect x = "158" y = "25" width = "96" height = "12"/>
	</clipPath>
	<image xlink:href = "../dgmDtString.gif" width = "10" height = "10" x = "244" y = "20"/>
	<rect x = "5" y = "133" width = "57" height = "28" class = "element"/>
	<polygon class = "nodeStyle" points = "11,135 7,139 11,143 15,139"/>
	<text x = "16" y = "144" class = "elName">forward</text>
	<rect x = "6" y = "148" width = "55" height = "12" class = "elTypeBkgnd"/>
	<image xlink:href = "../dgmTypeComplex.gif" width = "10" height = "10" x = "52" y = "143"/>
	<polyline class = "connector" points = "92,95 72,95 72,147 62,147 72,147 72,200 92,200"/>
	<polyline class = "connector" points = "62,145 70,145 70,40 92,40"/>
	<circle class = "occurs" cx = "98" cy = "95" r = "6"/>
	<text x = "95" y = "98" class = "occurLarge">?</text>
	<rect x = "104" y = "81" width = "43" height = "28" class = "element"/>
	<polygon class = "nodeStyle" points = "110,83 106,87 110,91 114,87"/>
	<text x = "115" y = "92" class = "elName">icon</text>
	<rect x = "105" y = "96" width = "41" height = "12" class = "elTypeBkgnd"/>
	<image xlink:href = "../dgmTypeComplex.gif" width = "10" height = "10" x = "137" y = "91"/>
	<circle class = "occurs" cx = "98" cy = "130" r = "6"/>
	<text x = "95" y = "133" class = "occurLarge">?</text>
	<rect x = "104" y = "116" width = "86" height = "28" class = "element"/>
	<polygon class = "nodeStyle" points = "110,118 106,122 110,126 114,122"/>
	<text x = "115" y = "127" class = "elName">display-name</text>
	<rect x = "105" y = "131" width = "84" height = "12" class = "elTypeBkgnd"/>
	<image xlink:href = "../dgmDtString.gif" width = "10" height = "10" x = "180" y = "126"/>
	<circle class = "occurs" cx = "98" cy = "165" r = "6"/>
	<text x = "95" y = "168" class = "occurLarge">?</text>
	<rect x = "104" y = "151" width = "74" height = "28" class = "element"/>
	<polygon class = "nodeStyle" points = "110,153 106,157 110,161 114,157"/>
	<text x = "115" y = "162" class = "elName">description</text>
	<rect x = "105" y = "166" width = "72" height = "12" class = "elTypeBkgnd"/>
	<image xlink:href = "../dgmDtString.gif" width = "10" height = "10" x = "168" y = "161"/>
	<circle class = "occurs" cx = "98" cy = "200" r = "6"/>
	<text x = "95" y = "203" class = "occurLarge">*</text>
	<rect x = "104" y = "186" width = "77" height = "28" class = "element"/>
	<polygon class = "nodeStyle" points = "110,188 106,192 110,196 114,192"/>
	<text x = "115" y = "197" class = "elName">set-property</text>
	<rect x = "105" y = "201" width = "75" height = "12" class = "elTypeBkgnd"/>
	<image xlink:href = "../dgmTypeEmpty.gif" width = "10" height = "10" x = "171" y = "196"/>
</svg>