<?xml version = "1.0"?>
<!DOCTYPE svg PUBLIC "-//W3C//DTD SVG 20010904//EN" "http://www.w3.org/TR/2001/REC-SVG-20010904/DTD/svg10.dtd">
<svg width = "214pt" height = "221pt" viewBox = "0 0 214 221" xmlns = "http://www.w3.org/2000/svg" xmlns:xlink = "http://www.w3.org/1999/xlink">
	<defs>
		<style type = "text/css"><![CDATA[
rect.attrGroup { fill: ivory ; stroke: black; stroke-width: 1 }
rect.element { fill: ivory ; stroke: black; stroke-width: 1 }
rect.elTypeBkgnd { fill: lightgray ; stroke: none }
text.elName { font-family: helvetica ; font-size : 10 }
text.elType { font-family: helvetica ; font-size : 7 }
text.occurLarge { font-family: helvetica ; font-size : 9; fill : blue }
text.occurSmall { font-family: helvetica ; font-size : 7; fill : blue }
rect.typeIconDark { fill : darkslategray }
circle.occurs { stroke : black ; stroke-width: 1; fill : white }
circle.ellipsis { fill : black }
path.typeIconDark { stroke : lightgray ; stroke-width: 1 }
path.connector { stroke : red ; stroke-width: 1 ; fill: none; }
path.modelGroup { stroke : black ; stroke-width: 1 ; fill: lightgray; }
polyline.connector { stroke : red ; stroke-width: 1 ; fill: none; }
.nodeStyle { fill : blue }
]]></style>
	</defs>
	<rect x = "111" y = "5" width = "54" height = "38" class = "attrGroup" rx = "5" ry = "5"/>
	<circle class = "occurs" cx = "122" cy = "24" r = "6"/>
	<text x = "119" y = "27" class = "occurLarge">?</text>
	<rect x = "128" y = "10" width = "32" height = "28" class = "element" rx = "5" ry = "5"/>
	<circle class = "nodeStyle" cx = "134" cy = "16" r = "4"/>
	<text x = "139" y = "21" class = "elName">id</text>
	<rect x = "129" y = "11" width = "30" height = "26" class = "elTypeBkgnd" rx = "5" ry = "5" clip-path = "url(#e:application/a:id)"/>
	<defs/>
	<clipPath id = "e:application/a:id">
		<rect x = "128" y = "25" width = "32" height = "12"/>
	</clipPath>
	<text x = "129" y = "33" class = "elType">ID</text>
	<image xlink:href = "../dgmDtName.gif" width = "10" height = "10" x = "150" y = "20"/>
	<rect x = "5" y = "118" width = "76" height = "28" class = "element"/>
	<polygon class = "nodeStyle" points = "11,120 7,124 11,128 15,124"/>
	<text x = "16" y = "129" class = "elName">application</text>
	<rect x = "6" y = "133" width = "74" height = "12" class = "elTypeBkgnd"/>
	<image xlink:href = "../dgmTypeComplex.gif" width = "10" height = "10" x = "71" y = "128"/>
	<polyline class = "connector" points = "111,62 91,62 91,132 81,132 91,132 91,202 111,202"/>
	<polyline class = "connector" points = "81,130 89,130 89,24 111,24"/>
	<circle class = "occurs" cx = "117" cy = "62" r = "6"/>
	<text x = "114" y = "65" class = "occurLarge">?</text>
	<rect x = "123" y = "48" width = "43" height = "28" class = "element"/>
	<polygon class = "nodeStyle" points = "129,50 125,54 129,58 133,54"/>
	<text x = "134" y = "59" class = "elName">icon</text>
	<rect x = "124" y = "63" width = "41" height = "12" class = "elTypeBkgnd"/>
	<image xlink:href = "../dgmTypeComplex.gif" width = "10" height = "10" x = "156" y = "58"/>
	<rect x = "123" y = "83" width = "86" height = "28" class = "element"/>
	<polygon class = "nodeStyle" points = "129,85 125,89 129,93 133,89"/>
	<text x = "134" y = "94" class = "elName">display-name</text>
	<rect x = "124" y = "98" width = "84" height = "12" class = "elTypeBkgnd"/>
	<image xlink:href = "../dgmDtString.gif" width = "10" height = "10" x = "199" y = "93"/>
	<circle class = "occurs" cx = "117" cy = "132" r = "6"/>
	<text x = "114" y = "135" class = "occurLarge">?</text>
	<rect x = "123" y = "118" width = "74" height = "28" class = "element"/>
	<polygon class = "nodeStyle" points = "129,120 125,124 129,128 133,124"/>
	<text x = "134" y = "129" class = "elName">description</text>
	<rect x = "124" y = "133" width = "72" height = "12" class = "elTypeBkgnd"/>
	<image xlink:href = "../dgmDtString.gif" width = "10" height = "10" x = "187" y = "128"/>
	<circle class = "occurs" cx = "117" cy = "167" r = "6"/>
	<text x = "114" y = "170" class = "occurLarge">+</text>
	<rect x = "123" y = "153" width = "59" height = "28" class = "element"/>
	<polygon class = "nodeStyle" points = "129,155 125,159 129,163 133,159"/>
	<text x = "134" y = "164" class = "elName">module</text>
	<rect x = "124" y = "168" width = "57" height = "12" class = "elTypeBkgnd"/>
	<image xlink:href = "../dgmTypeComplex.gif" width = "10" height = "10" x = "172" y = "163"/>
	<circle class = "occurs" cx = "117" cy = "202" r = "6"/>
	<text x = "114" y = "205" class = "occurLarge">*</text>
	<rect x = "123" y = "188" width = "79" height = "28" class = "element"/>
	<polygon class = "nodeStyle" points = "129,190 125,194 129,198 133,194"/>
	<text x = "134" y = "199" class = "elName">security-role</text>
	<rect x = "124" y = "203" width = "77" height = "12" class = "elTypeBkgnd"/>
	<image xlink:href = "../dgmTypeComplex.gif" width = "10" height = "10" x = "192" y = "198"/>
</svg>