<?xml version = "1.0"?>
<!DOCTYPE svg PUBLIC "-//W3C//DTD SVG 20010904//EN" "http://www.w3.org/TR/2001/REC-SVG-20010904/DTD/svg10.dtd">
<svg width = "253pt" height = "143pt" viewBox = "0 0 253 143" xmlns = "http://www.w3.org/2000/svg" xmlns:xlink = "http://www.w3.org/1999/xlink">
	<defs>
		<style type = "text/css"><![CDATA[
rect.attrGroup { fill: ivory ; stroke: black; stroke-width: 1 }
rect.element { fill: ivory ; stroke: black; stroke-width: 1 }
rect.elTypeBkgnd { fill: lightgray ; stroke: none }
text.elName { font-family: helvetica ; font-size : 10 }
text.elType { font-family: helvetica ; font-size : 7 }
text.occurLarge { font-family: helvetica ; font-size : 9; fill : blue }
text.occurSmall { font-family: helvetica ; font-size : 7; fill : blue }
rect.typeIconDark { fill : darkslategray }
circle.occurs { stroke : black ; stroke-width: 1; fill : white }
circle.ellipsis { fill : black }
path.typeIconDark { stroke : lightgray ; stroke-width: 1 }
path.connector { stroke : red ; stroke-width: 1 ; fill: none; }
path.modelGroup { stroke : black ; stroke-width: 1 ; fill: lightgray; }
polyline.connector { stroke : red ; stroke-width: 1 ; fill: none; }
.nodeStyle { fill : blue }
]]></style>
	</defs>
	<rect x = "5" y = "57" width = "78" height = "28" class = "element"/>
	<polygon class = "nodeStyle" points = "11,59 7,63 11,67 15,63"/>
	<text x = "16" y = "68" class = "elName">datasources</text>
	<rect x = "6" y = "72" width = "76" height = "12" class = "elTypeBkgnd"/>
	<image xlink:href = "../dgmTypeComplex.gif" width = "10" height = "10" x = "73" y = "67"/>
	<circle class = "occurs" cx = "89" cy = "71" r = "6"/>
	<text x = "86" y = "74" class = "occurLarge">*</text>
	<polyline class = "connector" points = "125,19 105,71 95,71 105,71 125,124"/>
	<polyline class = "connector" points = "125,19 137,19"/>
	<rect x = "137" y = "5" width = "56" height = "28" class = "element"/>
	<polygon class = "nodeStyle" points = "143,7 139,11 143,15 147,11"/>
	<text x = "148" y = "16" class = "elName">mbean</text>
	<rect x = "138" y = "20" width = "54" height = "12" class = "elTypeBkgnd"/>
	<image xlink:href = "../dgmTypeAny.gif" width = "10" height = "10" x = "183" y = "15"/>
	<rect x = "137" y = "40" width = "111" height = "28" class = "element"/>
	<polygon class = "nodeStyle" points = "143,42 139,46 143,50 147,46"/>
	<text x = "148" y = "51" class = "elName">local-tx-datasource</text>
	<rect x = "138" y = "55" width = "109" height = "12" class = "elTypeBkgnd"/>
	<image xlink:href = "../dgmTypeComplex.gif" width = "10" height = "10" x = "238" y = "50"/>
	<rect x = "137" y = "75" width = "88" height = "28" class = "element"/>
	<polygon class = "nodeStyle" points = "143,77 139,81 143,85 147,81"/>
	<text x = "148" y = "86" class = "elName">xa-datasource</text>
	<rect x = "138" y = "90" width = "86" height = "12" class = "elTypeBkgnd"/>
	<image xlink:href = "../dgmTypeComplex.gif" width = "10" height = "10" x = "215" y = "85"/>
	<polyline class = "connector" points = "125,124 137,124"/>
	<rect x = "137" y = "110" width = "100" height = "28" class = "element"/>
	<polygon class = "nodeStyle" points = "143,112 139,116 143,120 147,116"/>
	<text x = "148" y = "121" class = "elName">no-tx-datasource</text>
	<rect x = "138" y = "125" width = "98" height = "12" class = "elTypeBkgnd"/>
	<image xlink:href = "../dgmTypeComplex.gif" width = "10" height = "10" x = "227" y = "120"/>
</svg>