<?xml version = "1.0"?>
<!DOCTYPE svg PUBLIC "-//W3C//DTD SVG 20010904//EN" "http://www.w3.org/TR/2001/REC-SVG-20010904/DTD/svg10.dtd">
<svg width = "316pt" height = "108pt" viewBox = "0 0 316 108" xmlns = "http://www.w3.org/2000/svg" xmlns:xlink = "http://www.w3.org/1999/xlink">
	<defs>
		<style type = "text/css"><![CDATA[
rect.attrGroup { fill: ivory ; stroke: black; stroke-width: 1 }
rect.element { fill: ivory ; stroke: black; stroke-width: 1 }
rect.elTypeBkgnd { fill: lightgray ; stroke: none }
text.elName { font-family: helvetica ; font-size : 10 }
text.elType { font-family: helvetica ; font-size : 7 }
text.occurLarge { font-family: helvetica ; font-size : 9; fill : blue }
text.occurSmall { font-family: helvetica ; font-size : 7; fill : blue }
rect.typeIconDark { fill : darkslategray }
circle.occurs { stroke : black ; stroke-width: 1; fill : white }
circle.ellipsis { fill : black }
path.typeIconDark { stroke : lightgray ; stroke-width: 1 }
path.connector { stroke : red ; stroke-width: 1 ; fill: none; }
path.modelGroup { stroke : black ; stroke-width: 1 ; fill: lightgray; }
polyline.connector { stroke : red ; stroke-width: 1 ; fill: none; }
.nodeStyle { fill : blue }
]]></style>
	</defs>
	<rect x = "5" y = "40" width = "117" height = "28" class = "element"/>
	<polygon class = "nodeStyle" points = "11,42 7,46 11,50 15,46"/>
	<text x = "16" y = "51" class = "elName">connection-factories</text>
	<rect x = "6" y = "55" width = "115" height = "12" class = "elTypeBkgnd"/>
	<image xlink:href = "../dgmTypeComplex.gif" width = "10" height = "10" x = "112" y = "50"/>
	<circle class = "occurs" cx = "128" cy = "54" r = "6"/>
	<text x = "125" y = "57" class = "occurLarge">*</text>
	<polyline class = "connector" points = "164,19 144,54 134,54 144,54 164,89"/>
	<polyline class = "connector" points = "164,19 176,19"/>
	<rect x = "176" y = "5" width = "56" height = "28" class = "element"/>
	<polygon class = "nodeStyle" points = "182,7 178,11 182,15 186,11"/>
	<text x = "187" y = "16" class = "elName">mbean</text>
	<rect x = "177" y = "20" width = "54" height = "12" class = "elTypeBkgnd"/>
	<image xlink:href = "../dgmTypeAny.gif" width = "10" height = "10" x = "222" y = "15"/>
	<rect x = "176" y = "40" width = "120" height = "28" class = "element"/>
	<polygon class = "nodeStyle" points = "182,42 178,46 182,50 186,46"/>
	<text x = "187" y = "51" class = "elName">tx-connection-factory</text>
	<rect x = "177" y = "55" width = "118" height = "12" class = "elTypeBkgnd"/>
	<image xlink:href = "../dgmTypeComplex.gif" width = "10" height = "10" x = "286" y = "50"/>
	<polyline class = "connector" points = "164,89 176,89"/>
	<rect x = "176" y = "75" width = "135" height = "28" class = "element"/>
	<polygon class = "nodeStyle" points = "182,77 178,81 182,85 186,81"/>
	<text x = "187" y = "86" class = "elName">no-tx-connection-factory</text>
	<rect x = "177" y = "90" width = "133" height = "12" class = "elTypeBkgnd"/>
	<image xlink:href = "../dgmTypeComplex.gif" width = "10" height = "10" x = "301" y = "85"/>
</svg>