<?xml version = "1.0"?>
<!DOCTYPE svg PUBLIC "-//W3C//DTD SVG 20010904//EN" "http://www.w3.org/TR/2001/REC-SVG-20010904/DTD/svg10.dtd">
<svg width = "388pt" height = "528pt" viewBox = "0 0 388 528" xmlns = "http://www.w3.org/2000/svg" xmlns:xlink = "http://www.w3.org/1999/xlink">
	<defs>
		<style type = "text/css"><![CDATA[
rect.attrGroup { fill: ivory ; stroke: black; stroke-width: 1 }
rect.element { fill: ivory ; stroke: black; stroke-width: 1 }
rect.elTypeBkgnd { fill: lightgray ; stroke: none }
text.elName { font-family: helvetica ; font-size : 10 }
text.elType { font-family: helvetica ; font-size : 7 }
text.occurLarge { font-family: helvetica ; font-size : 9; fill : blue }
text.occurSmall { font-family: helvetica ; font-size : 7; fill : blue }
rect.typeIconDark { fill : darkslategray }
circle.occurs { stroke : black ; stroke-width: 1; fill : white }
circle.ellipsis { fill : black }
path.typeIconDark { stroke : lightgray ; stroke-width: 1 }
path.connector { stroke : red ; stroke-width: 1 ; fill: none; }
path.modelGroup { stroke : black ; stroke-width: 1 ; fill: lightgray; }
polyline.connector { stroke : red ; stroke-width: 1 ; fill: none; }
.nodeStyle { fill : blue }
]]></style>
	</defs>
	<rect x = "5" y = "250" width = "120" height = "28" class = "element"/>
	<polygon class = "nodeStyle" points = "11,252 7,256 11,260 15,256"/>
	<text x = "16" y = "261" class = "elName">tx-connection-factory</text>
	<rect x = "6" y = "265" width = "118" height = "12" class = "elTypeBkgnd"/>
	<image xlink:href = "../dgmTypeComplex.gif" width = "10" height = "10" x = "115" y = "260"/>
	<polyline class = "connector" points = "155,19 135,19 135,264 125,264 135,264 135,509 155,509"/>
	<polyline class = "connector" points = "155,19 167,19"/>
	<rect x = "167" y = "5" width = "71" height = "28" class = "element"/>
	<polygon class = "nodeStyle" points = "173,7 169,11 173,15 177,11"/>
	<text x = "178" y = "16" class = "elName">jndi-name</text>
	<rect x = "168" y = "20" width = "69" height = "12" class = "elTypeBkgnd"/>
	<image xlink:href = "../dgmDtString.gif" width = "10" height = "10" x = "228" y = "15"/>
	<circle class = "occurs" cx = "161" cy = "71" r = "6"/>
	<text x = "158" y = "74" class = "occurLarge">1</text>
	<polyline class = "connector" points = "197,54 177,71 167,71 177,71 197,89"/>
	<polyline class = "connector" points = "197,54 209,54"/>
	<rect x = "209" y = "40" width = "100" height = "28" class = "element"/>
	<polygon class = "nodeStyle" points = "215,42 211,46 215,50 219,46"/>
	<text x = "220" y = "51" class = "elName">local-transaction</text>
	<rect x = "210" y = "55" width = "98" height = "12" class = "elTypeBkgnd"/>
	<image xlink:href = "../dgmTypeEmpty.gif" width = "10" height = "10" x = "299" y = "50"/>
	<polyline class = "connector" points = "197,89 209,89"/>
	<rect x = "209" y = "75" width = "88" height = "28" class = "element"/>
	<polygon class = "nodeStyle" points = "215,77 211,81 215,85 219,81"/>
	<text x = "220" y = "86" class = "elName">xa-transaction</text>
	<rect x = "210" y = "90" width = "86" height = "12" class = "elTypeBkgnd"/>
	<image xlink:href = "../dgmTypeEmpty.gif" width = "10" height = "10" x = "287" y = "85"/>
	<circle class = "occurs" cx = "161" cy = "124" r = "6"/>
	<text x = "158" y = "127" class = "occurLarge">?</text>
	<rect x = "167" y = "110" width = "124" height = "28" class = "element"/>
	<polygon class = "nodeStyle" points = "173,112 169,116 173,120 177,116"/>
	<text x = "178" y = "121" class = "elName">track-connection-by-tx</text>
	<rect x = "168" y = "125" width = "122" height = "12" class = "elTypeBkgnd"/>
	<image xlink:href = "../dgmDtString.gif" width = "10" height = "10" x = "281" y = "120"/>
	<circle class = "occurs" cx = "161" cy = "159" r = "6"/>
	<text x = "158" y = "162" class = "occurLarge">?</text>
	<rect x = "167" y = "145" width = "125" height = "28" class = "element"/>
	<polygon class = "nodeStyle" points = "173,147 169,151 173,155 177,151"/>
	<text x = "178" y = "156" class = "elName">adapter-display-name</text>
	<rect x = "168" y = "160" width = "123" height = "12" class = "elTypeBkgnd"/>
	<image xlink:href = "../dgmDtString.gif" width = "10" height = "10" x = "282" y = "155"/>
	<circle class = "occurs" cx = "161" cy = "194" r = "6"/>
	<text x = "158" y = "197" class = "occurLarge">*</text>
	<rect x = "167" y = "180" width = "93" height = "28" class = "element"/>
	<polygon class = "nodeStyle" points = "173,182 169,186 173,190 177,186"/>
	<text x = "178" y = "191" class = "elName">config-property</text>
	<rect x = "168" y = "195" width = "91" height = "12" class = "elTypeBkgnd"/>
	<image xlink:href = "../dgmDtString.gif" width = "10" height = "10" x = "250" y = "190"/>
	<circle class = "occurs" cx = "161" cy = "264" r = "6"/>
	<text x = "158" y = "267" class = "occurLarge">?</text>
	<polyline class = "connector" points = "197,229 177,264 167,264 177,264 197,299"/>
	<polyline class = "connector" points = "197,229 209,229"/>
	<rect x = "209" y = "215" width = "162" height = "28" class = "element"/>
	<polygon class = "nodeStyle" points = "215,217 211,221 215,225 219,221"/>
	<text x = "220" y = "226" class = "elName">application-managed-security</text>
	<rect x = "210" y = "230" width = "160" height = "12" class = "elTypeBkgnd"/>
	<image xlink:href = "../dgmTypeEmpty.gif" width = "10" height = "10" x = "361" y = "225"/>
	<rect x = "209" y = "250" width = "97" height = "28" class = "element"/>
	<polygon class = "nodeStyle" points = "215,252 211,256 215,260 219,256"/>
	<text x = "220" y = "261" class = "elName">security-domain</text>
	<rect x = "210" y = "265" width = "95" height = "12" class = "elTypeBkgnd"/>
	<image xlink:href = "../dgmDtString.gif" width = "10" height = "10" x = "296" y = "260"/>
	<polyline class = "connector" points = "197,299 209,299"/>
	<rect x = "209" y = "285" width = "174" height = "28" class = "element"/>
	<polygon class = "nodeStyle" points = "215,287 211,291 215,295 219,291"/>
	<text x = "220" y = "296" class = "elName">security-domain-and-application</text>
	<rect x = "210" y = "300" width = "172" height = "12" class = "elTypeBkgnd"/>
	<image xlink:href = "../dgmDtString.gif" width = "10" height = "10" x = "373" y = "295"/>
	<circle class = "occurs" cx = "161" cy = "334" r = "6"/>
	<text x = "158" y = "337" class = "occurLarge">?</text>
	<rect x = "167" y = "320" width = "86" height = "28" class = "element"/>
	<polygon class = "nodeStyle" points = "173,322 169,326 173,330 177,326"/>
	<text x = "178" y = "331" class = "elName">min-pool-size</text>
	<rect x = "168" y = "335" width = "84" height = "12" class = "elTypeBkgnd"/>
	<image xlink:href = "../dgmDtString.gif" width = "10" height = "10" x = "243" y = "330"/>
	<circle class = "occurs" cx = "161" cy = "369" r = "6"/>
	<text x = "158" y = "372" class = "occurLarge">?</text>
	<rect x = "167" y = "355" width = "88" height = "28" class = "element"/>
	<polygon class = "nodeStyle" points = "173,357 169,361 173,365 177,361"/>
	<text x = "178" y = "366" class = "elName">max-pool-size</text>
	<rect x = "168" y = "370" width = "86" height = "12" class = "elTypeBkgnd"/>
	<image xlink:href = "../dgmDtString.gif" width = "10" height = "10" x = "245" y = "365"/>
	<circle class = "occurs" cx = "161" cy = "404" r = "6"/>
	<text x = "158" y = "407" class = "occurLarge">?</text>
	<rect x = "167" y = "390" width = "129" height = "28" class = "element"/>
	<polygon class = "nodeStyle" points = "173,392 169,396 173,400 177,396"/>
	<text x = "178" y = "401" class = "elName">blocking-timeout-millis</text>
	<rect x = "168" y = "405" width = "127" height = "12" class = "elTypeBkgnd"/>
	<image xlink:href = "../dgmDtString.gif" width = "10" height = "10" x = "286" y = "400"/>
	<circle class = "occurs" cx = "161" cy = "439" r = "6"/>
	<text x = "158" y = "442" class = "occurLarge">?</text>
	<rect x = "167" y = "425" width = "120" height = "28" class = "element"/>
	<polygon class = "nodeStyle" points = "173,427 169,431 173,435 177,431"/>
	<text x = "178" y = "436" class = "elName">idle-timeout-minutes</text>
	<rect x = "168" y = "440" width = "118" height = "12" class = "elTypeBkgnd"/>
	<image xlink:href = "../dgmDtString.gif" width = "10" height = "10" x = "277" y = "435"/>
	<circle class = "occurs" cx = "161" cy = "474" r = "6"/>
	<text x = "158" y = "477" class = "occurLarge">?</text>
	<rect x = "167" y = "460" width = "117" height = "28" class = "element"/>
	<polygon class = "nodeStyle" points = "173,462 169,466 173,470 177,466"/>
	<text x = "178" y = "471" class = "elName">no-tx-separate-pools</text>
	<rect x = "168" y = "475" width = "115" height = "12" class = "elTypeBkgnd"/>
	<image xlink:href = "../dgmDtString.gif" width = "10" height = "10" x = "274" y = "470"/>
	<circle class = "occurs" cx = "161" cy = "509" r = "6"/>
	<text x = "158" y = "512" class = "occurLarge">*</text>
	<rect x = "167" y = "495" width = "63" height = "28" class = "element"/>
	<polygon class = "nodeStyle" points = "173,497 169,501 173,505 177,501"/>
	<text x = "178" y = "506" class = "elName">depends</text>
	<rect x = "168" y = "510" width = "61" height = "12" class = "elTypeBkgnd"/>
	<image xlink:href = "../dgmDtString.gif" width = "10" height = "10" x = "220" y = "505"/>
</svg>