<?xml version = "1.0"?>
<!DOCTYPE svg PUBLIC "-//W3C//DTD SVG 20010904//EN" "http://www.w3.org/TR/2001/REC-SVG-20010904/DTD/svg10.dtd">
<svg width = "379pt" height = "773pt" viewBox = "0 0 379 773" xmlns = "http://www.w3.org/2000/svg" xmlns:xlink = "http://www.w3.org/1999/xlink">
	<defs>
		<style type = "text/css"><![CDATA[
rect.attrGroup { fill: ivory ; stroke: black; stroke-width: 1 }
rect.element { fill: ivory ; stroke: black; stroke-width: 1 }
rect.elTypeBkgnd { fill: lightgray ; stroke: none }
text.elName { font-family: helvetica ; font-size : 10 }
text.elType { font-family: helvetica ; font-size : 7 }
text.occurLarge { font-family: helvetica ; font-size : 9; fill : blue }
text.occurSmall { font-family: helvetica ; font-size : 7; fill : blue }
rect.typeIconDark { fill : darkslategray }
circle.occurs { stroke : black ; stroke-width: 1; fill : white }
circle.ellipsis { fill : black }
path.typeIconDark { stroke : lightgray ; stroke-width: 1 }
path.connector { stroke : red ; stroke-width: 1 ; fill: none; }
path.modelGroup { stroke : black ; stroke-width: 1 ; fill: lightgray; }
polyline.connector { stroke : red ; stroke-width: 1 ; fill: none; }
.nodeStyle { fill : blue }
]]></style>
	</defs>
	<rect x = "5" y = "372" width = "111" height = "28" class = "element"/>
	<polygon class = "nodeStyle" points = "11,374 7,378 11,382 15,378"/>
	<text x = "16" y = "383" class = "elName">local-tx-datasource</text>
	<rect x = "6" y = "387" width = "109" height = "12" class = "elTypeBkgnd"/>
	<image xlink:href = "../dgmTypeComplex.gif" width = "10" height = "10" x = "106" y = "382"/>
	<polyline class = "connector" points = "146,19 126,19 126,386 116,386 126,386 126,754 146,754"/>
	<polyline class = "connector" points = "146,19 158,19"/>
	<rect x = "158" y = "5" width = "71" height = "28" class = "element"/>
	<polygon class = "nodeStyle" points = "164,7 160,11 164,15 168,11"/>
	<text x = "169" y = "16" class = "elName">jndi-name</text>
	<rect x = "159" y = "20" width = "69" height = "12" class = "elTypeBkgnd"/>
	<image xlink:href = "../dgmDtString.gif" width = "10" height = "10" x = "219" y = "15"/>
	<rect x = "158" y = "40" width = "90" height = "28" class = "element"/>
	<polygon class = "nodeStyle" points = "164,42 160,46 164,50 168,46"/>
	<text x = "169" y = "51" class = "elName">connection-url</text>
	<rect x = "159" y = "55" width = "88" height = "12" class = "elTypeBkgnd"/>
	<image xlink:href = "../dgmDtString.gif" width = "10" height = "10" x = "238" y = "50"/>
	<rect x = "158" y = "75" width = "74" height = "28" class = "element"/>
	<polygon class = "nodeStyle" points = "164,77 160,81 164,85 168,81"/>
	<text x = "169" y = "86" class = "elName">driver-class</text>
	<rect x = "159" y = "90" width = "72" height = "12" class = "elTypeBkgnd"/>
	<image xlink:href = "../dgmDtString.gif" width = "10" height = "10" x = "222" y = "85"/>
	<circle class = "occurs" cx = "152" cy = "124" r = "6"/>
	<text x = "149" y = "127" class = "occurLarge">?</text>
	<rect x = "158" y = "110" width = "117" height = "28" class = "element"/>
	<polygon class = "nodeStyle" points = "164,112 160,116 164,120 168,116"/>
	<text x = "169" y = "121" class = "elName">transaction-isolation</text>
	<rect x = "159" y = "125" width = "115" height = "12" class = "elTypeBkgnd"/>
	<image xlink:href = "../dgmDtString.gif" width = "10" height = "10" x = "265" y = "120"/>
	<circle class = "occurs" cx = "152" cy = "159" r = "6"/>
	<text x = "149" y = "162" class = "occurLarge">*</text>
	<rect x = "158" y = "145" width = "116" height = "28" class = "element"/>
	<polygon class = "nodeStyle" points = "164,147 160,151 164,155 168,151"/>
	<text x = "169" y = "156" class = "elName">connection-property</text>
	<rect x = "159" y = "160" width = "114" height = "12" class = "elTypeBkgnd"/>
	<image xlink:href = "../dgmDtString.gif" width = "10" height = "10" x = "264" y = "155"/>
	<circle class = "occurs" cx = "152" cy = "194" r = "6"/>
	<text x = "149" y = "197" class = "occurLarge">?</text>
	<rect x = "158" y = "180" width = "72" height = "28" class = "element"/>
	<polygon class = "nodeStyle" points = "164,182 160,186 164,190 168,186"/>
	<text x = "169" y = "191" class = "elName">user-name</text>
	<rect x = "159" y = "195" width = "70" height = "12" class = "elTypeBkgnd"/>
	<image xlink:href = "../dgmDtString.gif" width = "10" height = "10" x = "220" y = "190"/>
	<circle class = "occurs" cx = "152" cy = "229" r = "6"/>
	<text x = "149" y = "232" class = "occurLarge">?</text>
	<rect x = "158" y = "215" width = "65" height = "28" class = "element"/>
	<polygon class = "nodeStyle" points = "164,217 160,221 164,225 168,221"/>
	<text x = "169" y = "226" class = "elName">password</text>
	<rect x = "159" y = "230" width = "63" height = "12" class = "elTypeBkgnd"/>
	<image xlink:href = "../dgmDtString.gif" width = "10" height = "10" x = "213" y = "225"/>
	<circle class = "occurs" cx = "152" cy = "299" r = "6"/>
	<text x = "149" y = "302" class = "occurLarge">?</text>
	<polyline class = "connector" points = "188,264 168,299 158,299 168,299 188,334"/>
	<polyline class = "connector" points = "188,264 200,264"/>
	<rect x = "200" y = "250" width = "162" height = "28" class = "element"/>
	<polygon class = "nodeStyle" points = "206,252 202,256 206,260 210,256"/>
	<text x = "211" y = "261" class = "elName">application-managed-security</text>
	<rect x = "201" y = "265" width = "160" height = "12" class = "elTypeBkgnd"/>
	<image xlink:href = "../dgmTypeEmpty.gif" width = "10" height = "10" x = "352" y = "260"/>
	<rect x = "200" y = "285" width = "97" height = "28" class = "element"/>
	<polygon class = "nodeStyle" points = "206,287 202,291 206,295 210,291"/>
	<text x = "211" y = "296" class = "elName">security-domain</text>
	<rect x = "201" y = "300" width = "95" height = "12" class = "elTypeBkgnd"/>
	<image xlink:href = "../dgmDtString.gif" width = "10" height = "10" x = "287" y = "295"/>
	<polyline class = "connector" points = "188,334 200,334"/>
	<rect x = "200" y = "320" width = "174" height = "28" class = "element"/>
	<polygon class = "nodeStyle" points = "206,322 202,326 206,330 210,326"/>
	<text x = "211" y = "331" class = "elName">security-domain-and-application</text>
	<rect x = "201" y = "335" width = "172" height = "12" class = "elTypeBkgnd"/>
	<image xlink:href = "../dgmDtString.gif" width = "10" height = "10" x = "364" y = "330"/>
	<circle class = "occurs" cx = "152" cy = "369" r = "6"/>
	<text x = "149" y = "372" class = "occurLarge">?</text>
	<rect x = "158" y = "355" width = "86" height = "28" class = "element"/>
	<polygon class = "nodeStyle" points = "164,357 160,361 164,365 168,361"/>
	<text x = "169" y = "366" class = "elName">min-pool-size</text>
	<rect x = "159" y = "370" width = "84" height = "12" class = "elTypeBkgnd"/>
	<image xlink:href = "../dgmDtString.gif" width = "10" height = "10" x = "234" y = "365"/>
	<circle class = "occurs" cx = "152" cy = "404" r = "6"/>
	<text x = "149" y = "407" class = "occurLarge">?</text>
	<rect x = "158" y = "390" width = "88" height = "28" class = "element"/>
	<polygon class = "nodeStyle" points = "164,392 160,396 164,400 168,396"/>
	<text x = "169" y = "401" class = "elName">max-pool-size</text>
	<rect x = "159" y = "405" width = "86" height = "12" class = "elTypeBkgnd"/>
	<image xlink:href = "../dgmDtString.gif" width = "10" height = "10" x = "236" y = "400"/>
	<circle class = "occurs" cx = "152" cy = "439" r = "6"/>
	<text x = "149" y = "442" class = "occurLarge">?</text>
	<rect x = "158" y = "425" width = "129" height = "28" class = "element"/>
	<polygon class = "nodeStyle" points = "164,427 160,431 164,435 168,431"/>
	<text x = "169" y = "436" class = "elName">blocking-timeout-millis</text>
	<rect x = "159" y = "440" width = "127" height = "12" class = "elTypeBkgnd"/>
	<image xlink:href = "../dgmDtString.gif" width = "10" height = "10" x = "277" y = "435"/>
	<circle class = "occurs" cx = "152" cy = "474" r = "6"/>
	<text x = "149" y = "477" class = "occurLarge">?</text>
	<rect x = "158" y = "460" width = "120" height = "28" class = "element"/>
	<polygon class = "nodeStyle" points = "164,462 160,466 164,470 168,466"/>
	<text x = "169" y = "471" class = "elName">idle-timeout-minutes</text>
	<rect x = "159" y = "475" width = "118" height = "12" class = "elTypeBkgnd"/>
	<image xlink:href = "../dgmDtString.gif" width = "10" height = "10" x = "268" y = "470"/>
	<circle class = "occurs" cx = "152" cy = "509" r = "6"/>
	<text x = "149" y = "512" class = "occurLarge">?</text>
	<rect x = "158" y = "495" width = "117" height = "28" class = "element"/>
	<polygon class = "nodeStyle" points = "164,497 160,501 164,505 168,501"/>
	<text x = "169" y = "506" class = "elName">no-tx-separate-pools</text>
	<rect x = "159" y = "510" width = "115" height = "12" class = "elTypeBkgnd"/>
	<image xlink:href = "../dgmDtString.gif" width = "10" height = "10" x = "265" y = "505"/>
	<circle class = "occurs" cx = "152" cy = "544" r = "6"/>
	<text x = "149" y = "547" class = "occurLarge">?</text>
	<rect x = "158" y = "530" width = "113" height = "28" class = "element"/>
	<polygon class = "nodeStyle" points = "164,532 160,536 164,540 168,536"/>
	<text x = "169" y = "541" class = "elName">new-connection-sql</text>
	<rect x = "159" y = "545" width = "111" height = "12" class = "elTypeBkgnd"/>
	<image xlink:href = "../dgmDtString.gif" width = "10" height = "10" x = "261" y = "540"/>
	<circle class = "occurs" cx = "152" cy = "579" r = "6"/>
	<text x = "149" y = "582" class = "occurLarge">?</text>
	<rect x = "158" y = "565" width = "146" height = "28" class = "element"/>
	<polygon class = "nodeStyle" points = "164,567 160,571 164,575 168,571"/>
	<text x = "169" y = "576" class = "elName">check-valid-connection-sql</text>
	<rect x = "159" y = "580" width = "144" height = "12" class = "elTypeBkgnd"/>
	<image xlink:href = "../dgmDtString.gif" width = "10" height = "10" x = "294" y = "575"/>
	<circle class = "occurs" cx = "152" cy = "614" r = "6"/>
	<text x = "149" y = "617" class = "occurLarge">?</text>
	<rect x = "158" y = "600" width = "194" height = "28" class = "element"/>
	<polygon class = "nodeStyle" points = "164,602 160,606 164,610 168,606"/>
	<text x = "169" y = "611" class = "elName">valid-connection-checker-class-name</text>
	<rect x = "159" y = "615" width = "192" height = "12" class = "elTypeBkgnd"/>
	<image xlink:href = "../dgmDtString.gif" width = "10" height = "10" x = "342" y = "610"/>
	<circle class = "occurs" cx = "152" cy = "649" r = "6"/>
	<text x = "149" y = "652" class = "occurLarge">?</text>
	<rect x = "158" y = "635" width = "152" height = "28" class = "element"/>
	<polygon class = "nodeStyle" points = "164,637 160,641 164,645 168,641"/>
	<text x = "169" y = "646" class = "elName">exception-sorter-class-name</text>
	<rect x = "159" y = "650" width = "150" height = "12" class = "elTypeBkgnd"/>
	<image xlink:href = "../dgmDtString.gif" width = "10" height = "10" x = "300" y = "645"/>
	<circle class = "occurs" cx = "152" cy = "684" r = "6"/>
	<text x = "149" y = "687" class = "occurLarge">?</text>
	<rect x = "158" y = "670" width = "97" height = "28" class = "element"/>
	<polygon class = "nodeStyle" points = "164,672 160,676 164,680 168,676"/>
	<text x = "169" y = "681" class = "elName">track-statements</text>
	<rect x = "159" y = "685" width = "95" height = "12" class = "elTypeBkgnd"/>
	<image xlink:href = "../dgmDtString.gif" width = "10" height = "10" x = "245" y = "680"/>
	<circle class = "occurs" cx = "152" cy = "719" r = "6"/>
	<text x = "149" y = "722" class = "occurLarge">?</text>
	<rect x = "158" y = "705" width = "166" height = "28" class = "element"/>
	<polygon class = "nodeStyle" points = "164,707 160,711 164,715 168,711"/>
	<text x = "169" y = "716" class = "elName">prepared-statement-cache-size</text>
	<rect x = "159" y = "720" width = "164" height = "12" class = "elTypeBkgnd"/>
	<image xlink:href = "../dgmDtString.gif" width = "10" height = "10" x = "314" y = "715"/>
	<circle class = "occurs" cx = "152" cy = "754" r = "6"/>
	<text x = "149" y = "757" class = "occurLarge">*</text>
	<rect x = "158" y = "740" width = "63" height = "28" class = "element"/>
	<polygon class = "nodeStyle" points = "164,742 160,746 164,750 168,746"/>
	<text x = "169" y = "751" class = "elName">depends</text>
	<rect x = "159" y = "755" width = "61" height = "12" class = "elTypeBkgnd"/>
	<image xlink:href = "../dgmDtString.gif" width = "10" height = "10" x = "211" y = "750"/>
</svg>