<?xml version = "1.0"?>
<!DOCTYPE svg PUBLIC "-//W3C//DTD SVG 20010904//EN" "http://www.w3.org/TR/2001/REC-SVG-20010904/DTD/svg10.dtd">
<svg width = "222pt" height = "221pt" viewBox = "0 0 222 221" xmlns = "http://www.w3.org/2000/svg" xmlns:xlink = "http://www.w3.org/1999/xlink">
	<defs>
		<style type = "text/css"><![CDATA[
rect.attrGroup { fill: ivory ; stroke: black; stroke-width: 1 }
rect.element { fill: ivory ; stroke: black; stroke-width: 1 }
rect.elTypeBkgnd { fill: lightgray ; stroke: none }
text.elName { font-family: helvetica ; font-size : 10 }
text.elType { font-family: helvetica ; font-size : 7 }
text.occurLarge { font-family: helvetica ; font-size : 9; fill : blue }
text.occurSmall { font-family: helvetica ; font-size : 7; fill : blue }
rect.typeIconDark { fill : darkslategray }
circle.occurs { stroke : black ; stroke-width: 1; fill : white }
circle.ellipsis { fill : black }
path.typeIconDark { stroke : lightgray ; stroke-width: 1 }
path.connector { stroke : red ; stroke-width: 1 ; fill: none; }
path.modelGroup { stroke : black ; stroke-width: 1 ; fill: lightgray; }
polyline.connector { stroke : red ; stroke-width: 1 ; fill: none; }
.nodeStyle { fill : blue }
]]></style>
	</defs>
	<rect x = "94" y = "5" width = "54" height = "38" class = "attrGroup" rx = "5" ry = "5"/>
	<circle class = "occurs" cx = "105" cy = "24" r = "6"/>
	<text x = "102" y = "27" class = "occurLarge">?</text>
	<rect x = "111" y = "10" width = "32" height = "28" class = "element" rx = "5" ry = "5"/>
	<circle class = "nodeStyle" cx = "117" cy = "16" r = "4"/>
	<text x = "122" y = "21" class = "elName">id</text>
	<rect x = "112" y = "11" width = "30" height = "26" class = "elTypeBkgnd" rx = "5" ry = "5" clip-path = "url(#e:module/a:id)"/>
	<defs/>
	<clipPath id = "e:module/a:id">
		<rect x = "111" y = "25" width = "32" height = "12"/>
	</clipPath>
	<text x = "112" y = "33" class = "elType">ID</text>
	<image xlink:href = "../dgmDtName.gif" width = "10" height = "10" x = "133" y = "20"/>
	<rect x = "5" y = "118" width = "59" height = "28" class = "element"/>
	<polygon class = "nodeStyle" points = "11,120 7,124 11,128 15,124"/>
	<text x = "16" y = "129" class = "elName">module</text>
	<rect x = "6" y = "133" width = "57" height = "12" class = "elTypeBkgnd"/>
	<image xlink:href = "../dgmTypeComplex.gif" width = "10" height = "10" x = "54" y = "128"/>
	<polyline class = "connector" points = "94,114 74,114 74,132 64,132 74,132 74,202 94,202"/>
	<polyline class = "connector" points = "64,130 72,130 72,24 94,24"/>
	<circle class = "occurs" cx = "100" cy = "114" r = "6"/>
	<text x = "97" y = "117" class = "occurLarge">1</text>
	<polyline class = "connector" points = "136,62 116,114 106,114 116,114 136,167"/>
	<polyline class = "connector" points = "136,62 148,62"/>
	<rect x = "148" y = "48" width = "69" height = "28" class = "element"/>
	<polygon class = "nodeStyle" points = "154,50 150,54 154,58 158,54"/>
	<text x = "159" y = "59" class = "elName">connector</text>
	<rect x = "149" y = "63" width = "67" height = "12" class = "elTypeBkgnd"/>
	<image xlink:href = "../dgmDtString.gif" width = "10" height = "10" x = "207" y = "58"/>
	<rect x = "148" y = "83" width = "38" height = "28" class = "element"/>
	<polygon class = "nodeStyle" points = "154,85 150,89 154,93 158,89"/>
	<text x = "159" y = "94" class = "elName">ejb</text>
	<rect x = "149" y = "98" width = "36" height = "12" class = "elTypeBkgnd"/>
	<image xlink:href = "../dgmDtString.gif" width = "10" height = "10" x = "176" y = "93"/>
	<rect x = "148" y = "118" width = "43" height = "28" class = "element"/>
	<polygon class = "nodeStyle" points = "154,120 150,124 154,128 158,124"/>
	<text x = "159" y = "129" class = "elName">java</text>
	<rect x = "149" y = "133" width = "41" height = "12" class = "elTypeBkgnd"/>
	<image xlink:href = "../dgmDtString.gif" width = "10" height = "10" x = "181" y = "128"/>
	<polyline class = "connector" points = "136,167 148,167"/>
	<rect x = "148" y = "153" width = "42" height = "28" class = "element"/>
	<polygon class = "nodeStyle" points = "154,155 150,159 154,163 158,159"/>
	<text x = "159" y = "164" class = "elName">web</text>
	<rect x = "149" y = "168" width = "40" height = "12" class = "elTypeBkgnd"/>
	<image xlink:href = "../dgmTypeComplex.gif" width = "10" height = "10" x = "180" y = "163"/>
	<circle class = "occurs" cx = "100" cy = "202" r = "6"/>
	<text x = "97" y = "205" class = "occurLarge">?</text>
	<rect x = "106" y = "188" width = "50" height = "28" class = "element"/>
	<polygon class = "nodeStyle" points = "112,190 108,194 112,198 116,194"/>
	<text x = "117" y = "199" class = "elName">alt-dd</text>
	<rect x = "107" y = "203" width = "48" height = "12" class = "elTypeBkgnd"/>
	<image xlink:href = "../dgmDtString.gif" width = "10" height = "10" x = "146" y = "198"/>
</svg>