<?xml version = "1.0"?>
<!DOCTYPE svg PUBLIC "-//W3C//DTD SVG 20010904//EN" "http://www.w3.org/TR/2001/REC-SVG-20010904/DTD/svg10.dtd">
<svg width = "172pt" height = "116pt" viewBox = "0 0 172 116" xmlns = "http://www.w3.org/2000/svg" xmlns:xlink = "http://www.w3.org/1999/xlink">
	<defs>
		<style type = "text/css"><![CDATA[
rect.attrGroup { fill: ivory ; stroke: black; stroke-width: 1 }
rect.element { fill: ivory ; stroke: black; stroke-width: 1 }
rect.elTypeBkgnd { fill: lightgray ; stroke: none }
text.elName { font-family: helvetica ; font-size : 10 }
text.elType { font-family: helvetica ; font-size : 7 }
text.occurLarge { font-family: helvetica ; font-size : 9; fill : blue }
text.occurSmall { font-family: helvetica ; font-size : 7; fill : blue }
rect.typeIconDark { fill : darkslategray }
circle.occurs { stroke : black ; stroke-width: 1; fill : white }
circle.ellipsis { fill : black }
path.typeIconDark { stroke : lightgray ; stroke-width: 1 }
path.connector { stroke : red ; stroke-width: 1 ; fill: none; }
path.modelGroup { stroke : black ; stroke-width: 1 ; fill: lightgray; }
polyline.connector { stroke : red ; stroke-width: 1 ; fill: none; }
.nodeStyle { fill : blue }
]]></style>
	</defs>
	<rect x = "77" y = "5" width = "54" height = "38" class = "attrGroup" rx = "5" ry = "5"/>
	<circle class = "occurs" cx = "88" cy = "24" r = "6"/>
	<text x = "85" y = "27" class = "occurLarge">?</text>
	<rect x = "94" y = "10" width = "32" height = "28" class = "element" rx = "5" ry = "5"/>
	<circle class = "nodeStyle" cx = "100" cy = "16" r = "4"/>
	<text x = "105" y = "21" class = "elName">id</text>
	<rect x = "95" y = "11" width = "30" height = "26" class = "elTypeBkgnd" rx = "5" ry = "5" clip-path = "url(#e:web/a:id)"/>
	<defs/>
	<clipPath id = "e:web/a:id">
		<rect x = "94" y = "25" width = "32" height = "12"/>
	</clipPath>
	<text x = "95" y = "33" class = "elType">ID</text>
	<image xlink:href = "../dgmDtName.gif" width = "10" height = "10" x = "116" y = "20"/>
	<rect x = "5" y = "65" width = "42" height = "28" class = "element"/>
	<polygon class = "nodeStyle" points = "11,67 7,71 11,75 15,71"/>
	<text x = "16" y = "76" class = "elName">web</text>
	<rect x = "6" y = "80" width = "40" height = "12" class = "elTypeBkgnd"/>
	<image xlink:href = "../dgmTypeComplex.gif" width = "10" height = "10" x = "37" y = "75"/>
	<polyline class = "connector" points = "77,62 57,62 57,79 47,79 57,79 57,97 77,97"/>
	<polyline class = "connector" points = "47,77 55,77 55,24 77,24"/>
	<polyline class = "connector" points = "77,62 89,62"/>
	<rect x = "89" y = "48" width = "57" height = "28" class = "element"/>
	<polygon class = "nodeStyle" points = "95,50 91,54 95,58 99,54"/>
	<text x = "100" y = "59" class = "elName">web-uri</text>
	<rect x = "90" y = "63" width = "55" height = "12" class = "elTypeBkgnd"/>
	<image xlink:href = "../dgmDtString.gif" width = "10" height = "10" x = "136" y = "58"/>
	<polyline class = "connector" points = "77,97 89,97"/>
	<rect x = "89" y = "83" width = "78" height = "28" class = "element"/>
	<polygon class = "nodeStyle" points = "95,85 91,89 95,93 99,89"/>
	<text x = "100" y = "94" class = "elName">context-root</text>
	<rect x = "90" y = "98" width = "76" height = "12" class = "elTypeBkgnd"/>
	<image xlink:href = "../dgmDtString.gif" width = "10" height = "10" x = "157" y = "93"/>
</svg>