<?xml version = "1.0"?>
<!DOCTYPE svg PUBLIC "-//W3C//DTD SVG 20010904//EN" "http://www.w3.org/TR/2001/REC-SVG-20010904/DTD/svg10.dtd">
<svg width = "234pt" height = "81pt" viewBox = "0 0 234 81" xmlns = "http://www.w3.org/2000/svg" xmlns:xlink = "http://www.w3.org/1999/xlink">
	<defs>
		<style type = "text/css"><![CDATA[
rect.attrGroup { fill: ivory ; stroke: black; stroke-width: 1 }
rect.element { fill: ivory ; stroke: black; stroke-width: 1 }
rect.elTypeBkgnd { fill: lightgray ; stroke: none }
text.elName { font-family: helvetica ; font-size : 10 }
text.elType { font-family: helvetica ; font-size : 7 }
text.occurLarge { font-family: helvetica ; font-size : 9; fill : blue }
text.occurSmall { font-family: helvetica ; font-size : 7; fill : blue }
rect.typeIconDark { fill : darkslategray }
circle.occurs { stroke : black ; stroke-width: 1; fill : white }
circle.ellipsis { fill : black }
path.typeIconDark { stroke : lightgray ; stroke-width: 1 }
path.connector { stroke : red ; stroke-width: 1 ; fill: none; }
path.modelGroup { stroke : black ; stroke-width: 1 ; fill: lightgray; }
polyline.connector { stroke : red ; stroke-width: 1 ; fill: none; }
.nodeStyle { fill : blue }
]]></style>
	</defs>
	<rect x = "134" y = "5" width = "54" height = "38" class = "attrGroup" rx = "5" ry = "5"/>
	<circle class = "occurs" cx = "145" cy = "24" r = "6"/>
	<text x = "142" y = "27" class = "occurLarge">?</text>
	<rect x = "151" y = "10" width = "32" height = "28" class = "element" rx = "5" ry = "5"/>
	<circle class = "nodeStyle" cx = "157" cy = "16" r = "4"/>
	<text x = "162" y = "21" class = "elName">id</text>
	<rect x = "152" y = "11" width = "30" height = "26" class = "elTypeBkgnd" rx = "5" ry = "5" clip-path = "url(#e:welcome-file-list/a:id)"/>
	<defs/>
	<clipPath id = "e:welcome-file-list/a:id">
		<rect x = "151" y = "25" width = "32" height = "12"/>
	</clipPath>
	<text x = "152" y = "33" class = "elType">ID</text>
	<image xlink:href = "../dgmDtName.gif" width = "10" height = "10" x = "173" y = "20"/>
	<rect x = "5" y = "48" width = "99" height = "28" class = "element"/>
	<polygon class = "nodeStyle" points = "11,50 7,54 11,58 15,54"/>
	<text x = "16" y = "59" class = "elName">welcome-file-list</text>
	<rect x = "6" y = "63" width = "97" height = "12" class = "elTypeBkgnd"/>
	<image xlink:href = "../dgmTypeComplex.gif" width = "10" height = "10" x = "94" y = "58"/>
	<polyline class = "connector" points = "104,62 134,62"/>
	<polyline class = "connector" points = "104,60 112,60 112,24 134,24"/>
	<circle class = "occurs" cx = "140" cy = "62" r = "6"/>
	<text x = "137" y = "65" class = "occurLarge">+</text>
	<rect x = "146" y = "48" width = "83" height = "28" class = "element"/>
	<polygon class = "nodeStyle" points = "152,50 148,54 152,58 156,54"/>
	<text x = "157" y = "59" class = "elName">welcome-file</text>
	<rect x = "147" y = "63" width = "81" height = "12" class = "elTypeBkgnd"/>
	<image xlink:href = "../dgmDtString.gif" width = "10" height = "10" x = "219" y = "58"/>
</svg>