<?xml version = "1.0"?>
<!DOCTYPE svg PUBLIC "-//W3C//DTD SVG 20010904//EN" "http://www.w3.org/TR/2001/REC-SVG-20010904/DTD/svg10.dtd">
<svg width = "299pt" height = "186pt" viewBox = "0 0 299 186" xmlns = "http://www.w3.org/2000/svg" xmlns:xlink = "http://www.w3.org/1999/xlink">
	<defs>
		<style type = "text/css"><![CDATA[
rect.attrGroup { fill: ivory ; stroke: black; stroke-width: 1 }
rect.element { fill: ivory ; stroke: black; stroke-width: 1 }
rect.elTypeBkgnd { fill: lightgray ; stroke: none }
text.elName { font-family: helvetica ; font-size : 10 }
text.elType { font-family: helvetica ; font-size : 7 }
text.occurLarge { font-family: helvetica ; font-size : 9; fill : blue }
text.occurSmall { font-family: helvetica ; font-size : 7; fill : blue }
rect.typeIconDark { fill : darkslategray }
circle.occurs { stroke : black ; stroke-width: 1; fill : white }
circle.ellipsis { fill : black }
path.typeIconDark { stroke : lightgray ; stroke-width: 1 }
path.connector { stroke : red ; stroke-width: 1 ; fill: none; }
path.modelGroup { stroke : black ; stroke-width: 1 ; fill: lightgray; }
polyline.connector { stroke : red ; stroke-width: 1 ; fill: none; }
.nodeStyle { fill : blue }
]]></style>
	</defs>
	<rect x = "168" y = "5" width = "54" height = "38" class = "attrGroup" rx = "5" ry = "5"/>
	<circle class = "occurs" cx = "179" cy = "24" r = "6"/>
	<text x = "176" y = "27" class = "occurLarge">?</text>
	<rect x = "185" y = "10" width = "32" height = "28" class = "element" rx = "5" ry = "5"/>
	<circle class = "nodeStyle" cx = "191" cy = "16" r = "4"/>
	<text x = "196" y = "21" class = "elName">id</text>
	<rect x = "186" y = "11" width = "30" height = "26" class = "elTypeBkgnd" rx = "5" ry = "5" clip-path = "url(#e:web-resource-collection/a:id)"/>
	<defs/>
	<clipPath id = "e:web-resource-collection/a:id">
		<rect x = "185" y = "25" width = "32" height = "12"/>
	</clipPath>
	<text x = "186" y = "33" class = "elType">ID</text>
	<image xlink:href = "../dgmDtName.gif" width = "10" height = "10" x = "207" y = "20"/>
	<rect x = "5" y = "100" width = "133" height = "28" class = "element"/>
	<polygon class = "nodeStyle" points = "11,102 7,106 11,110 15,106"/>
	<text x = "16" y = "111" class = "elName">web-resource-collection</text>
	<rect x = "6" y = "115" width = "131" height = "12" class = "elTypeBkgnd"/>
	<image xlink:href = "../dgmTypeComplex.gif" width = "10" height = "10" x = "128" y = "110"/>
	<polyline class = "connector" points = "168,62 148,62 148,114 138,114 148,114 148,167 168,167"/>
	<polyline class = "connector" points = "138,112 146,112 146,24 168,24"/>
	<polyline class = "connector" points = "168,62 180,62"/>
	<rect x = "180" y = "48" width = "114" height = "28" class = "element"/>
	<polygon class = "nodeStyle" points = "186,50 182,54 186,58 190,54"/>
	<text x = "191" y = "59" class = "elName">web-resource-name</text>
	<rect x = "181" y = "63" width = "112" height = "12" class = "elTypeBkgnd"/>
	<image xlink:href = "../dgmDtString.gif" width = "10" height = "10" x = "284" y = "58"/>
	<circle class = "occurs" cx = "174" cy = "97" r = "6"/>
	<text x = "171" y = "100" class = "occurLarge">?</text>
	<rect x = "180" y = "83" width = "74" height = "28" class = "element"/>
	<polygon class = "nodeStyle" points = "186,85 182,89 186,93 190,89"/>
	<text x = "191" y = "94" class = "elName">description</text>
	<rect x = "181" y = "98" width = "72" height = "12" class = "elTypeBkgnd"/>
	<image xlink:href = "../dgmDtString.gif" width = "10" height = "10" x = "244" y = "93"/>
	<circle class = "occurs" cx = "174" cy = "132" r = "6"/>
	<text x = "171" y = "135" class = "occurLarge">*</text>
	<rect x = "180" y = "118" width = "71" height = "28" class = "element"/>
	<polygon class = "nodeStyle" points = "186,120 182,124 186,128 190,124"/>
	<text x = "191" y = "129" class = "elName">url-pattern</text>
	<rect x = "181" y = "133" width = "69" height = "12" class = "elTypeBkgnd"/>
	<image xlink:href = "../dgmDtString.gif" width = "10" height = "10" x = "241" y = "128"/>
	<circle class = "occurs" cx = "174" cy = "167" r = "6"/>
	<text x = "171" y = "170" class = "occurLarge">*</text>
	<rect x = "180" y = "153" width = "80" height = "28" class = "element"/>
	<polygon class = "nodeStyle" points = "186,155 182,159 186,163 190,159"/>
	<text x = "191" y = "164" class = "elName">http-method</text>
	<rect x = "181" y = "168" width = "78" height = "12" class = "elTypeBkgnd"/>
	<image xlink:href = "../dgmDtString.gif" width = "10" height = "10" x = "250" y = "163"/>
</svg>