<?xml version = "1.0"?>
<!DOCTYPE svg PUBLIC "-//W3C//DTD SVG 20010904//EN" "http://www.w3.org/TR/2001/REC-SVG-20010904/DTD/svg10.dtd">
<svg width = "266pt" height = "151pt" viewBox = "0 0 266 151" xmlns = "http://www.w3.org/2000/svg" xmlns:xlink = "http://www.w3.org/1999/xlink">
	<defs>
		<style type = "text/css"><![CDATA[
rect.attrGroup { fill: ivory ; stroke: black; stroke-width: 1 }
rect.element { fill: ivory ; stroke: black; stroke-width: 1 }
rect.elTypeBkgnd { fill: lightgray ; stroke: none }
text.elName { font-family: helvetica ; font-size : 10 }
text.elType { font-family: helvetica ; font-size : 7 }
text.occurLarge { font-family: helvetica ; font-size : 9; fill : blue }
text.occurSmall { font-family: helvetica ; font-size : 7; fill : blue }
rect.typeIconDark { fill : darkslategray }
circle.occurs { stroke : black ; stroke-width: 1; fill : white }
circle.ellipsis { fill : black }
path.typeIconDark { stroke : lightgray ; stroke-width: 1 }
path.connector { stroke : red ; stroke-width: 1 ; fill: none; }
path.modelGroup { stroke : black ; stroke-width: 1 ; fill: lightgray; }
polyline.connector { stroke : red ; stroke-width: 1 ; fill: none; }
.nodeStyle { fill : blue }
]]></style>
	</defs>
	<rect x = "124" y = "5" width = "54" height = "38" class = "attrGroup" rx = "5" ry = "5"/>
	<circle class = "occurs" cx = "135" cy = "24" r = "6"/>
	<text x = "132" y = "27" class = "occurLarge">?</text>
	<rect x = "141" y = "10" width = "32" height = "28" class = "element" rx = "5" ry = "5"/>
	<circle class = "nodeStyle" cx = "147" cy = "16" r = "4"/>
	<text x = "152" y = "21" class = "elName">id</text>
	<rect x = "142" y = "11" width = "30" height = "26" class = "elTypeBkgnd" rx = "5" ry = "5" clip-path = "url(#e:filter-mapping/a:id)"/>
	<defs/>
	<clipPath id = "e:filter-mapping/a:id">
		<rect x = "141" y = "25" width = "32" height = "12"/>
	</clipPath>
	<text x = "142" y = "33" class = "elType">ID</text>
	<image xlink:href = "../dgmDtName.gif" width = "10" height = "10" x = "163" y = "20"/>
	<rect x = "5" y = "83" width = "89" height = "28" class = "element"/>
	<polygon class = "nodeStyle" points = "11,85 7,89 11,93 15,89"/>
	<text x = "16" y = "94" class = "elName">filter-mapping</text>
	<rect x = "6" y = "98" width = "87" height = "12" class = "elTypeBkgnd"/>
	<image xlink:href = "../dgmTypeComplex.gif" width = "10" height = "10" x = "84" y = "93"/>
	<polyline class = "connector" points = "124,62 104,62 104,97 94,97 104,97 104,114 124,114"/>
	<polyline class = "connector" points = "94,95 102,95 102,24 124,24"/>
	<polyline class = "connector" points = "124,62 136,62"/>
	<rect x = "136" y = "48" width = "74" height = "28" class = "element"/>
	<polygon class = "nodeStyle" points = "142,50 138,54 142,58 146,54"/>
	<text x = "147" y = "59" class = "elName">filter-name</text>
	<rect x = "137" y = "63" width = "72" height = "12" class = "elTypeBkgnd"/>
	<image xlink:href = "../dgmDtString.gif" width = "10" height = "10" x = "200" y = "58"/>
	<circle class = "occurs" cx = "130" cy = "114" r = "6"/>
	<text x = "127" y = "117" class = "occurLarge">1</text>
	<polyline class = "connector" points = "166,97 146,114 136,114 146,114 166,132"/>
	<polyline class = "connector" points = "166,97 178,97"/>
	<rect x = "178" y = "83" width = "71" height = "28" class = "element"/>
	<polygon class = "nodeStyle" points = "184,85 180,89 184,93 188,89"/>
	<text x = "189" y = "94" class = "elName">url-pattern</text>
	<rect x = "179" y = "98" width = "69" height = "12" class = "elTypeBkgnd"/>
	<image xlink:href = "../dgmDtString.gif" width = "10" height = "10" x = "239" y = "93"/>
	<polyline class = "connector" points = "166,132 178,132"/>
	<rect x = "178" y = "118" width = "83" height = "28" class = "element"/>
	<polygon class = "nodeStyle" points = "184,120 180,124 184,128 188,124"/>
	<text x = "189" y = "129" class = "elName">servlet-name</text>
	<rect x = "179" y = "133" width = "81" height = "12" class = "elTypeBkgnd"/>
	<image xlink:href = "../dgmDtString.gif" width = "10" height = "10" x = "251" y = "128"/>
</svg>