<?xml version = "1.0"?>
<!DOCTYPE svg PUBLIC "-//W3C//DTD SVG 20010904//EN" "http://www.w3.org/TR/2001/REC-SVG-20010904/DTD/svg10.dtd">
<svg width = "191pt" height = "81pt" viewBox = "0 0 191 81" xmlns = "http://www.w3.org/2000/svg" xmlns:xlink = "http://www.w3.org/1999/xlink">
	<defs>
		<style type = "text/css"><![CDATA[
rect.attrGroup { fill: ivory ; stroke: black; stroke-width: 1 }
rect.element { fill: ivory ; stroke: black; stroke-width: 1 }
rect.elTypeBkgnd { fill: lightgray ; stroke: none }
text.elName { font-family: helvetica ; font-size : 10 }
text.elType { font-family: helvetica ; font-size : 7 }
text.occurLarge { font-family: helvetica ; font-size : 9; fill : blue }
text.occurSmall { font-family: helvetica ; font-size : 7; fill : blue }
rect.typeIconDark { fill : darkslategray }
circle.occurs { stroke : black ; stroke-width: 1; fill : white }
circle.ellipsis { fill : black }
path.typeIconDark { stroke : lightgray ; stroke-width: 1 }
path.connector { stroke : red ; stroke-width: 1 ; fill: none; }
path.modelGroup { stroke : black ; stroke-width: 1 ; fill: lightgray; }
polyline.connector { stroke : red ; stroke-width: 1 ; fill: none; }
.nodeStyle { fill : blue }
]]></style>
	</defs>
	<rect x = "92" y = "5" width = "54" height = "38" class = "attrGroup" rx = "5" ry = "5"/>
	<circle class = "occurs" cx = "103" cy = "24" r = "6"/>
	<text x = "100" y = "27" class = "occurLarge">?</text>
	<rect x = "109" y = "10" width = "32" height = "28" class = "element" rx = "5" ry = "5"/>
	<circle class = "nodeStyle" cx = "115" cy = "16" r = "4"/>
	<text x = "120" y = "21" class = "elName">id</text>
	<rect x = "110" y = "11" width = "30" height = "26" class = "elTypeBkgnd" rx = "5" ry = "5" clip-path = "url(#e:listener/a:id)"/>
	<defs/>
	<clipPath id = "e:listener/a:id">
		<rect x = "109" y = "25" width = "32" height = "12"/>
	</clipPath>
	<text x = "110" y = "33" class = "elType">ID</text>
	<image xlink:href = "../dgmDtName.gif" width = "10" height = "10" x = "131" y = "20"/>
	<rect x = "5" y = "48" width = "57" height = "28" class = "element"/>
	<polygon class = "nodeStyle" points = "11,50 7,54 11,58 15,54"/>
	<text x = "16" y = "59" class = "elName">listener</text>
	<rect x = "6" y = "63" width = "55" height = "12" class = "elTypeBkgnd"/>
	<image xlink:href = "../dgmTypeComplex.gif" width = "10" height = "10" x = "52" y = "58"/>
	<polyline class = "connector" points = "62,62 92,62"/>
	<polyline class = "connector" points = "62,60 70,60 70,24 92,24"/>
	<polyline class = "connector" points = "92,62 104,62"/>
	<rect x = "104" y = "48" width = "82" height = "28" class = "element"/>
	<polygon class = "nodeStyle" points = "110,50 106,54 110,58 114,54"/>
	<text x = "115" y = "59" class = "elName">listener-class</text>
	<rect x = "105" y = "63" width = "80" height = "12" class = "elTypeBkgnd"/>
	<image xlink:href = "../dgmDtString.gif" width = "10" height = "10" x = "176" y = "58"/>
</svg>