<?xml version = "1.0"?>
<!DOCTYPE svg PUBLIC "-//W3C//DTD SVG 20010904//EN" "http://www.w3.org/TR/2001/REC-SVG-20010904/DTD/svg10.dtd">
<svg width = "225pt" height = "151pt" viewBox = "0 0 225 151" xmlns = "http://www.w3.org/2000/svg" xmlns:xlink = "http://www.w3.org/1999/xlink">
	<defs>
		<style type = "text/css"><![CDATA[
rect.attrGroup { fill: ivory ; stroke: black; stroke-width: 1 }
rect.element { fill: ivory ; stroke: black; stroke-width: 1 }
rect.elTypeBkgnd { fill: lightgray ; stroke: none }
text.elName { font-family: helvetica ; font-size : 10 }
text.elType { font-family: helvetica ; font-size : 7 }
text.occurLarge { font-family: helvetica ; font-size : 9; fill : blue }
text.occurSmall { font-family: helvetica ; font-size : 7; fill : blue }
rect.typeIconDark { fill : darkslategray }
circle.occurs { stroke : black ; stroke-width: 1; fill : white }
circle.ellipsis { fill : black }
path.typeIconDark { stroke : lightgray ; stroke-width: 1 }
path.connector { stroke : red ; stroke-width: 1 ; fill: none; }
path.modelGroup { stroke : black ; stroke-width: 1 ; fill: lightgray; }
polyline.connector { stroke : red ; stroke-width: 1 ; fill: none; }
.nodeStyle { fill : blue }
]]></style>
	</defs>
	<rect x = "125" y = "5" width = "54" height = "38" class = "attrGroup" rx = "5" ry = "5"/>
	<circle class = "occurs" cx = "136" cy = "24" r = "6"/>
	<text x = "133" y = "27" class = "occurLarge">?</text>
	<rect x = "142" y = "10" width = "32" height = "28" class = "element" rx = "5" ry = "5"/>
	<circle class = "nodeStyle" cx = "148" cy = "16" r = "4"/>
	<text x = "153" y = "21" class = "elName">id</text>
	<rect x = "143" y = "11" width = "30" height = "26" class = "elTypeBkgnd" rx = "5" ry = "5" clip-path = "url(#e:context-param/a:id)"/>
	<defs/>
	<clipPath id = "e:context-param/a:id">
		<rect x = "142" y = "25" width = "32" height = "12"/>
	</clipPath>
	<text x = "143" y = "33" class = "elType">ID</text>
	<image xlink:href = "../dgmDtName.gif" width = "10" height = "10" x = "164" y = "20"/>
	<rect x = "5" y = "83" width = "90" height = "28" class = "element"/>
	<polygon class = "nodeStyle" points = "11,85 7,89 11,93 15,89"/>
	<text x = "16" y = "94" class = "elName">context-param</text>
	<rect x = "6" y = "98" width = "88" height = "12" class = "elTypeBkgnd"/>
	<image xlink:href = "../dgmTypeComplex.gif" width = "10" height = "10" x = "85" y = "93"/>
	<polyline class = "connector" points = "125,62 105,62 105,97 95,97 105,97 105,132 125,132"/>
	<polyline class = "connector" points = "95,95 103,95 103,24 125,24"/>
	<polyline class = "connector" points = "125,62 137,62"/>
	<rect x = "137" y = "48" width = "83" height = "28" class = "element"/>
	<polygon class = "nodeStyle" points = "143,50 139,54 143,58 147,54"/>
	<text x = "148" y = "59" class = "elName">param-name</text>
	<rect x = "138" y = "63" width = "81" height = "12" class = "elTypeBkgnd"/>
	<image xlink:href = "../dgmDtString.gif" width = "10" height = "10" x = "210" y = "58"/>
	<rect x = "137" y = "83" width = "82" height = "28" class = "element"/>
	<polygon class = "nodeStyle" points = "143,85 139,89 143,93 147,89"/>
	<text x = "148" y = "94" class = "elName">param-value</text>
	<rect x = "138" y = "98" width = "80" height = "12" class = "elTypeBkgnd"/>
	<image xlink:href = "../dgmDtString.gif" width = "10" height = "10" x = "209" y = "93"/>
	<circle class = "occurs" cx = "131" cy = "132" r = "6"/>
	<text x = "128" y = "135" class = "occurLarge">?</text>
	<rect x = "137" y = "118" width = "74" height = "28" class = "element"/>
	<polygon class = "nodeStyle" points = "143,120 139,124 143,128 147,124"/>
	<text x = "148" y = "129" class = "elName">description</text>
	<rect x = "138" y = "133" width = "72" height = "12" class = "elTypeBkgnd"/>
	<image xlink:href = "../dgmDtString.gif" width = "10" height = "10" x = "201" y = "128"/>
</svg>