<?xml version = "1.0"?>
<!DOCTYPE svg PUBLIC "-//W3C//DTD SVG 20010904//EN" "http://www.w3.org/TR/2001/REC-SVG-20010904/DTD/svg10.dtd">
<svg width = "293pt" height = "116pt" viewBox = "0 0 293 116" xmlns = "http://www.w3.org/2000/svg" xmlns:xlink = "http://www.w3.org/1999/xlink">
	<defs>
		<style type = "text/css"><![CDATA[
rect.attrGroup { fill: ivory ; stroke: black; stroke-width: 1 }
rect.element { fill: ivory ; stroke: black; stroke-width: 1 }
rect.elTypeBkgnd { fill: lightgray ; stroke: none }
text.elName { font-family: helvetica ; font-size : 10 }
text.elType { font-family: helvetica ; font-size : 7 }
text.occurLarge { font-family: helvetica ; font-size : 9; fill : blue }
text.occurSmall { font-family: helvetica ; font-size : 7; fill : blue }
rect.typeIconDark { fill : darkslategray }
circle.occurs { stroke : black ; stroke-width: 1; fill : white }
circle.ellipsis { fill : black }
path.typeIconDark { stroke : lightgray ; stroke-width: 1 }
path.connector { stroke : red ; stroke-width: 1 ; fill: none; }
path.modelGroup { stroke : black ; stroke-width: 1 ; fill: lightgray; }
polyline.connector { stroke : red ; stroke-width: 1 ; fill: none; }
.nodeStyle { fill : blue }
]]></style>
	</defs>
	<rect x = "122" y = "5" width = "166" height = "38" class = "attrGroup" rx = "5" ry = "5"/>
	<rect x = "127" y = "10" width = "50" height = "28" class = "element" rx = "5" ry = "5"/>
	<circle class = "nodeStyle" cx = "133" cy = "16" r = "4"/>
	<text x = "138" y = "21" class = "elName">name</text>
	<rect x = "128" y = "11" width = "48" height = "26" class = "elTypeBkgnd" rx = "5" ry = "5" clip-path = "url(#e:service-config/a:name)"/>
	<defs/>
	<clipPath id = "e:service-config/a:name">
		<rect x = "127" y = "25" width = "50" height = "12"/>
	</clipPath>
	<text x = "128" y = "33" class = "elType">string</text>
	<image xlink:href = "../dgmDtString.gif" width = "10" height = "10" x = "167" y = "20"/>
	<circle class = "occurs" cx = "188" cy = "24" r = "6"/>
	<text x = "185" y = "27" class = "occurLarge">D</text>
	<rect x = "194" y = "10" width = "89" height = "28" class = "element" rx = "5" ry = "5"/>
	<circle class = "nodeStyle" cx = "200" cy = "16" r = "4"/>
	<text x = "205" y = "21" class = "elName">delegateClass</text>
	<rect x = "195" y = "11" width = "87" height = "26" class = "elTypeBkgnd" rx = "5" ry = "5" clip-path = "url(#e:service-config/a:delegateClass)"/>
	<defs/>
	<clipPath id = "e:service-config/a:delegateClass">
		<rect x = "194" y = "25" width = "89" height = "12"/>
	</clipPath>
	<text x = "195" y = "33" class = "elType">string</text>
	<image xlink:href = "../dgmDtString.gif" width = "10" height = "10" x = "273" y = "20"/>
	<rect x = "5" y = "65" width = "87" height = "28" class = "element"/>
	<polygon class = "nodeStyle" points = "11,67 7,71 11,75 15,71"/>
	<text x = "16" y = "76" class = "elName">service-config</text>
	<rect x = "6" y = "80" width = "85" height = "12" class = "elTypeBkgnd"/>
	<image xlink:href = "../dgmTypeComplex.gif" width = "10" height = "10" x = "82" y = "75"/>
	<polyline class = "connector" points = "122,62 102,62 102,79 92,79 102,79 102,97 122,97"/>
	<polyline class = "connector" points = "92,77 100,77 100,24 122,24"/>
	<circle class = "occurs" cx = "128" cy = "62" r = "6"/>
	<text x = "125" y = "65" class = "occurLarge">?</text>
	<rect x = "134" y = "48" width = "97" height = "28" class = "element"/>
	<polygon class = "nodeStyle" points = "140,50 136,54 140,58 144,54"/>
	<text x = "145" y = "59" class = "elName">delegate-config</text>
	<rect x = "135" y = "63" width = "95" height = "12" class = "elTypeBkgnd"/>
	<image xlink:href = "../dgmTypeAny.gif" width = "10" height = "10" x = "221" y = "58"/>
	<circle class = "occurs" cx = "128" cy = "97" r = "6"/>
	<text x = "125" y = "100" class = "occurLarge">+</text>
	<rect x = "134" y = "83" width = "59" height = "28" class = "element"/>
	<polygon class = "nodeStyle" points = "140,85 136,89 140,93 144,89"/>
	<text x = "145" y = "94" class = "elName">binding</text>
	<rect x = "135" y = "98" width = "57" height = "12" class = "elTypeBkgnd"/>
	<image xlink:href = "../dgmTypeEmpty.gif" width = "10" height = "10" x = "183" y = "93"/>
</svg>