<?xml version = "1.0"?>
<!DOCTYPE svg PUBLIC "-//W3C//DTD SVG 20010904//EN" "http://www.w3.org/TR/2001/REC-SVG-20010904/DTD/svg10.dtd">
<svg width = "260pt" height = "151pt" viewBox = "0 0 260 151" xmlns = "http://www.w3.org/2000/svg" xmlns:xlink = "http://www.w3.org/1999/xlink">
	<defs>
		<style type = "text/css"><![CDATA[
rect.attrGroup { fill: ivory ; stroke: black; stroke-width: 1 }
rect.element { fill: ivory ; stroke: black; stroke-width: 1 }
rect.elTypeBkgnd { fill: lightgray ; stroke: none }
text.elName { font-family: helvetica ; font-size : 10 }
text.elType { font-family: helvetica ; font-size : 7 }
text.occurLarge { font-family: helvetica ; font-size : 9; fill : blue }
text.occurSmall { font-family: helvetica ; font-size : 7; fill : blue }
rect.typeIconDark { fill : darkslategray }
circle.occurs { stroke : black ; stroke-width: 1; fill : white }
circle.ellipsis { fill : black }
path.typeIconDark { stroke : lightgray ; stroke-width: 1 }
path.connector { stroke : red ; stroke-width: 1 ; fill: none; }
path.modelGroup { stroke : black ; stroke-width: 1 ; fill: lightgray; }
polyline.connector { stroke : red ; stroke-width: 1 ; fill: none; }
.nodeStyle { fill : blue }
]]></style>
	</defs>
	<rect x = "135" y = "5" width = "54" height = "38" class = "attrGroup" rx = "5" ry = "5"/>
	<circle class = "occurs" cx = "146" cy = "24" r = "6"/>
	<text x = "143" y = "27" class = "occurLarge">?</text>
	<rect x = "152" y = "10" width = "32" height = "28" class = "element" rx = "5" ry = "5"/>
	<circle class = "nodeStyle" cx = "158" cy = "16" r = "4"/>
	<text x = "163" y = "21" class = "elName">id</text>
	<rect x = "153" y = "11" width = "30" height = "26" class = "elTypeBkgnd" rx = "5" ry = "5" clip-path = "url(#e:enterprise-beans/a:id)"/>
	<defs/>
	<clipPath id = "e:enterprise-beans/a:id">
		<rect x = "152" y = "25" width = "32" height = "12"/>
	</clipPath>
	<text x = "153" y = "33" class = "elType">ID</text>
	<image xlink:href = "../dgmDtName.gif" width = "10" height = "10" x = "174" y = "20"/>
	<rect x = "5" y = "83" width = "100" height = "28" class = "element"/>
	<polygon class = "nodeStyle" points = "11,85 7,89 11,93 15,89"/>
	<text x = "16" y = "94" class = "elName">enterprise-beans</text>
	<rect x = "6" y = "98" width = "98" height = "12" class = "elTypeBkgnd"/>
	<image xlink:href = "../dgmTypeComplex.gif" width = "10" height = "10" x = "95" y = "93"/>
	<circle class = "occurs" cx = "111" cy = "97" r = "6"/>
	<text x = "108" y = "100" class = "occurLarge">+</text>
	<polyline class = "connector" points = "147,62 127,97 117,97 127,97 147,132"/>
	<polyline class = "connector" points = "117,95 125,95 125,24 135,24"/>
	<polyline class = "connector" points = "147,62 159,62"/>
	<rect x = "159" y = "48" width = "56" height = "28" class = "element"/>
	<polygon class = "nodeStyle" points = "165,50 161,54 165,58 169,54"/>
	<text x = "170" y = "59" class = "elName">session</text>
	<rect x = "160" y = "63" width = "54" height = "12" class = "elTypeBkgnd"/>
	<image xlink:href = "../dgmTypeComplex.gif" width = "10" height = "10" x = "205" y = "58"/>
	<rect x = "159" y = "83" width = "49" height = "28" class = "element"/>
	<polygon class = "nodeStyle" points = "165,85 161,89 165,93 169,89"/>
	<text x = "170" y = "94" class = "elName">entity</text>
	<rect x = "160" y = "98" width = "47" height = "12" class = "elTypeBkgnd"/>
	<image xlink:href = "../dgmTypeComplex.gif" width = "10" height = "10" x = "198" y = "93"/>
	<polyline class = "connector" points = "147,132 159,132"/>
	<rect x = "159" y = "118" width = "96" height = "28" class = "element"/>
	<polygon class = "nodeStyle" points = "165,120 161,124 165,128 169,124"/>
	<text x = "170" y = "129" class = "elName">message-driven</text>
	<rect x = "160" y = "133" width = "94" height = "12" class = "elTypeBkgnd"/>
	<image xlink:href = "../dgmTypeComplex.gif" width = "10" height = "10" x = "245" y = "128"/>
</svg>