<?xml version = "1.0"?>
<!DOCTYPE svg PUBLIC "-//W3C//DTD SVG 20010904//EN" "http://www.w3.org/TR/2001/REC-SVG-20010904/DTD/svg10.dtd">
<svg width = "211pt" height = "116pt" viewBox = "0 0 211 116" xmlns = "http://www.w3.org/2000/svg" xmlns:xlink = "http://www.w3.org/1999/xlink">
	<defs>
		<style type = "text/css"><![CDATA[
rect.attrGroup { fill: ivory ; stroke: black; stroke-width: 1 }
rect.element { fill: ivory ; stroke: black; stroke-width: 1 }
rect.elTypeBkgnd { fill: lightgray ; stroke: none }
text.elName { font-family: helvetica ; font-size : 10 }
text.elType { font-family: helvetica ; font-size : 7 }
text.occurLarge { font-family: helvetica ; font-size : 9; fill : blue }
text.occurSmall { font-family: helvetica ; font-size : 7; fill : blue }
rect.typeIconDark { fill : darkslategray }
circle.occurs { stroke : black ; stroke-width: 1; fill : white }
circle.ellipsis { fill : black }
path.typeIconDark { stroke : lightgray ; stroke-width: 1 }
path.connector { stroke : red ; stroke-width: 1 ; fill: none; }
path.modelGroup { stroke : black ; stroke-width: 1 ; fill: lightgray; }
polyline.connector { stroke : red ; stroke-width: 1 ; fill: none; }
.nodeStyle { fill : blue }
]]></style>
	</defs>
	<rect x = "117" y = "5" width = "54" height = "38" class = "attrGroup" rx = "5" ry = "5"/>
	<circle class = "occurs" cx = "128" cy = "24" r = "6"/>
	<text x = "125" y = "27" class = "occurLarge">?</text>
	<rect x = "134" y = "10" width = "32" height = "28" class = "element" rx = "5" ry = "5"/>
	<circle class = "nodeStyle" cx = "140" cy = "16" r = "4"/>
	<text x = "145" y = "21" class = "elName">id</text>
	<rect x = "135" y = "11" width = "30" height = "26" class = "elTypeBkgnd" rx = "5" ry = "5" clip-path = "url(#e:relationships/a:id)"/>
	<defs/>
	<clipPath id = "e:relationships/a:id">
		<rect x = "134" y = "25" width = "32" height = "12"/>
	</clipPath>
	<text x = "135" y = "33" class = "elType">ID</text>
	<image xlink:href = "../dgmDtName.gif" width = "10" height = "10" x = "156" y = "20"/>
	<rect x = "5" y = "65" width = "82" height = "28" class = "element"/>
	<polygon class = "nodeStyle" points = "11,67 7,71 11,75 15,71"/>
	<text x = "16" y = "76" class = "elName">relationships</text>
	<rect x = "6" y = "80" width = "80" height = "12" class = "elTypeBkgnd"/>
	<image xlink:href = "../dgmTypeComplex.gif" width = "10" height = "10" x = "77" y = "75"/>
	<polyline class = "connector" points = "117,62 97,62 97,79 87,79 97,79 97,97 117,97"/>
	<polyline class = "connector" points = "87,77 95,77 95,24 117,24"/>
	<circle class = "occurs" cx = "123" cy = "62" r = "6"/>
	<text x = "120" y = "65" class = "occurLarge">?</text>
	<rect x = "129" y = "48" width = "74" height = "28" class = "element"/>
	<polygon class = "nodeStyle" points = "135,50 131,54 135,58 139,54"/>
	<text x = "140" y = "59" class = "elName">description</text>
	<rect x = "130" y = "63" width = "72" height = "12" class = "elTypeBkgnd"/>
	<image xlink:href = "../dgmDtString.gif" width = "10" height = "10" x = "193" y = "58"/>
	<circle class = "occurs" cx = "123" cy = "97" r = "6"/>
	<text x = "120" y = "100" class = "occurLarge">+</text>
	<rect x = "129" y = "83" width = "77" height = "28" class = "element"/>
	<polygon class = "nodeStyle" points = "135,85 131,89 135,93 139,89"/>
	<text x = "140" y = "94" class = "elName">ejb-relation</text>
	<rect x = "130" y = "98" width = "75" height = "12" class = "elTypeBkgnd"/>
	<image xlink:href = "../dgmTypeComplex.gif" width = "10" height = "10" x = "196" y = "93"/>
</svg>