<?xml version = "1.0"?>
<!DOCTYPE svg PUBLIC "-//W3C//DTD SVG 20010904//EN" "http://www.w3.org/TR/2001/REC-SVG-20010904/DTD/svg10.dtd">
<svg width = "287pt" height = "186pt" viewBox = "0 0 287 186" xmlns = "http://www.w3.org/2000/svg" xmlns:xlink = "http://www.w3.org/1999/xlink">
	<defs>
		<style type = "text/css"><![CDATA[
rect.attrGroup { fill: ivory ; stroke: black; stroke-width: 1 }
rect.element { fill: ivory ; stroke: black; stroke-width: 1 }
rect.elTypeBkgnd { fill: lightgray ; stroke: none }
text.elName { font-family: helvetica ; font-size : 10 }
text.elType { font-family: helvetica ; font-size : 7 }
text.occurLarge { font-family: helvetica ; font-size : 9; fill : blue }
text.occurSmall { font-family: helvetica ; font-size : 7; fill : blue }
rect.typeIconDark { fill : darkslategray }
circle.occurs { stroke : black ; stroke-width: 1; fill : white }
circle.ellipsis { fill : black }
path.typeIconDark { stroke : lightgray ; stroke-width: 1 }
path.connector { stroke : red ; stroke-width: 1 ; fill: none; }
path.modelGroup { stroke : black ; stroke-width: 1 ; fill: lightgray; }
polyline.connector { stroke : red ; stroke-width: 1 ; fill: none; }
.nodeStyle { fill : blue }
]]></style>
	</defs>
	<rect x = "149" y = "5" width = "54" height = "38" class = "attrGroup" rx = "5" ry = "5"/>
	<circle class = "occurs" cx = "160" cy = "24" r = "6"/>
	<text x = "157" y = "27" class = "occurLarge">?</text>
	<rect x = "166" y = "10" width = "32" height = "28" class = "element" rx = "5" ry = "5"/>
	<circle class = "nodeStyle" cx = "172" cy = "16" r = "4"/>
	<text x = "177" y = "21" class = "elName">id</text>
	<rect x = "167" y = "11" width = "30" height = "26" class = "elTypeBkgnd" rx = "5" ry = "5" clip-path = "url(#e:assembly-descriptor/a:id)"/>
	<defs/>
	<clipPath id = "e:assembly-descriptor/a:id">
		<rect x = "166" y = "25" width = "32" height = "12"/>
	</clipPath>
	<text x = "167" y = "33" class = "elType">ID</text>
	<image xlink:href = "../dgmDtName.gif" width = "10" height = "10" x = "188" y = "20"/>
	<rect x = "5" y = "100" width = "114" height = "28" class = "element"/>
	<polygon class = "nodeStyle" points = "11,102 7,106 11,110 15,106"/>
	<text x = "16" y = "111" class = "elName">assembly-descriptor</text>
	<rect x = "6" y = "115" width = "112" height = "12" class = "elTypeBkgnd"/>
	<image xlink:href = "../dgmTypeComplex.gif" width = "10" height = "10" x = "109" y = "110"/>
	<polyline class = "connector" points = "149,62 129,62 129,114 119,114 129,114 129,167 149,167"/>
	<polyline class = "connector" points = "119,112 127,112 127,24 149,24"/>
	<circle class = "occurs" cx = "155" cy = "62" r = "6"/>
	<text x = "152" y = "65" class = "occurLarge">*</text>
	<rect x = "161" y = "48" width = "79" height = "28" class = "element"/>
	<polygon class = "nodeStyle" points = "167,50 163,54 167,58 171,54"/>
	<text x = "172" y = "59" class = "elName">security-role</text>
	<rect x = "162" y = "63" width = "77" height = "12" class = "elTypeBkgnd"/>
	<image xlink:href = "../dgmTypeComplex.gif" width = "10" height = "10" x = "230" y = "58"/>
	<circle class = "occurs" cx = "155" cy = "97" r = "6"/>
	<text x = "152" y = "100" class = "occurLarge">*</text>
	<rect x = "161" y = "83" width = "112" height = "28" class = "element"/>
	<polygon class = "nodeStyle" points = "167,85 163,89 167,93 171,89"/>
	<text x = "172" y = "94" class = "elName">method-permission</text>
	<rect x = "162" y = "98" width = "110" height = "12" class = "elTypeBkgnd"/>
	<image xlink:href = "../dgmTypeComplex.gif" width = "10" height = "10" x = "263" y = "93"/>
	<circle class = "occurs" cx = "155" cy = "132" r = "6"/>
	<text x = "152" y = "135" class = "occurLarge">*</text>
	<rect x = "161" y = "118" width = "121" height = "28" class = "element"/>
	<polygon class = "nodeStyle" points = "167,120 163,124 167,128 171,124"/>
	<text x = "172" y = "129" class = "elName">container-transaction</text>
	<rect x = "162" y = "133" width = "119" height = "12" class = "elTypeBkgnd"/>
	<image xlink:href = "../dgmTypeComplex.gif" width = "10" height = "10" x = "272" y = "128"/>
	<circle class = "occurs" cx = "155" cy = "167" r = "6"/>
	<text x = "152" y = "170" class = "occurLarge">?</text>
	<rect x = "161" y = "153" width = "76" height = "28" class = "element"/>
	<polygon class = "nodeStyle" points = "167,155 163,159 167,163 171,159"/>
	<text x = "172" y = "164" class = "elName">exclude-list</text>
	<rect x = "162" y = "168" width = "74" height = "12" class = "elTypeBkgnd"/>
	<image xlink:href = "../dgmTypeComplex.gif" width = "10" height = "10" x = "227" y = "163"/>
</svg>