<?xml version = "1.0"?>
<!DOCTYPE svg PUBLIC "-//W3C//DTD SVG 20010904//EN" "http://www.w3.org/TR/2001/REC-SVG-20010904/DTD/svg10.dtd">
<svg width = "258pt" height = "116pt" viewBox = "0 0 258 116" xmlns = "http://www.w3.org/2000/svg" xmlns:xlink = "http://www.w3.org/1999/xlink">
	<defs>
		<style type = "text/css"><![CDATA[
rect.attrGroup { fill: ivory ; stroke: black; stroke-width: 1 }
rect.element { fill: ivory ; stroke: black; stroke-width: 1 }
rect.elTypeBkgnd { fill: lightgray ; stroke: none }
text.elName { font-family: helvetica ; font-size : 10 }
text.elType { font-family: helvetica ; font-size : 7 }
text.occurLarge { font-family: helvetica ; font-size : 9; fill : blue }
text.occurSmall { font-family: helvetica ; font-size : 7; fill : blue }
rect.typeIconDark { fill : darkslategray }
circle.occurs { stroke : black ; stroke-width: 1; fill : white }
circle.ellipsis { fill : black }
path.typeIconDark { stroke : lightgray ; stroke-width: 1 }
path.connector { stroke : red ; stroke-width: 1 ; fill: none; }
path.modelGroup { stroke : black ; stroke-width: 1 ; fill: lightgray; }
polyline.connector { stroke : red ; stroke-width: 1 ; fill: none; }
.nodeStyle { fill : blue }
]]></style>
	</defs>
	<rect x = "167" y = "5" width = "54" height = "38" class = "attrGroup" rx = "5" ry = "5"/>
	<circle class = "occurs" cx = "178" cy = "24" r = "6"/>
	<text x = "175" y = "27" class = "occurLarge">?</text>
	<rect x = "184" y = "10" width = "32" height = "28" class = "element" rx = "5" ry = "5"/>
	<circle class = "nodeStyle" cx = "190" cy = "16" r = "4"/>
	<text x = "195" y = "21" class = "elName">id</text>
	<rect x = "185" y = "11" width = "30" height = "26" class = "elTypeBkgnd" rx = "5" ry = "5" clip-path = "url(#e:relationship-role-source/a:id)"/>
	<defs/>
	<clipPath id = "e:relationship-role-source/a:id">
		<rect x = "184" y = "25" width = "32" height = "12"/>
	</clipPath>
	<text x = "185" y = "33" class = "elType">ID</text>
	<image xlink:href = "../dgmDtName.gif" width = "10" height = "10" x = "206" y = "20"/>
	<rect x = "5" y = "65" width = "132" height = "28" class = "element"/>
	<polygon class = "nodeStyle" points = "11,67 7,71 11,75 15,71"/>
	<text x = "16" y = "76" class = "elName">relationship-role-source</text>
	<rect x = "6" y = "80" width = "130" height = "12" class = "elTypeBkgnd"/>
	<image xlink:href = "../dgmTypeComplex.gif" width = "10" height = "10" x = "127" y = "75"/>
	<polyline class = "connector" points = "167,62 147,62 147,79 137,79 147,79 147,97 167,97"/>
	<polyline class = "connector" points = "137,77 145,77 145,24 167,24"/>
	<circle class = "occurs" cx = "173" cy = "62" r = "6"/>
	<text x = "170" y = "65" class = "occurLarge">?</text>
	<rect x = "179" y = "48" width = "74" height = "28" class = "element"/>
	<polygon class = "nodeStyle" points = "185,50 181,54 185,58 189,54"/>
	<text x = "190" y = "59" class = "elName">description</text>
	<rect x = "180" y = "63" width = "72" height = "12" class = "elTypeBkgnd"/>
	<image xlink:href = "../dgmDtString.gif" width = "10" height = "10" x = "243" y = "58"/>
	<polyline class = "connector" points = "167,97 179,97"/>
	<rect x = "179" y = "83" width = "68" height = "28" class = "element"/>
	<polygon class = "nodeStyle" points = "185,85 181,89 185,93 189,89"/>
	<text x = "190" y = "94" class = "elName">ejb-name</text>
	<rect x = "180" y = "98" width = "66" height = "12" class = "elTypeBkgnd"/>
	<image xlink:href = "../dgmDtString.gif" width = "10" height = "10" x = "237" y = "93"/>
</svg>