<?xml version = "1.0"?>
<!DOCTYPE svg PUBLIC "-//W3C//DTD SVG 20010904//EN" "http://www.w3.org/TR/2001/REC-SVG-20010904/DTD/svg10.dtd">
<svg width = "279pt" height = "186pt" viewBox = "0 0 279 186" xmlns = "http://www.w3.org/2000/svg" xmlns:xlink = "http://www.w3.org/1999/xlink">
	<defs>
		<style type = "text/css"><![CDATA[
rect.attrGroup { fill: ivory ; stroke: black; stroke-width: 1 }
rect.element { fill: ivory ; stroke: black; stroke-width: 1 }
rect.elTypeBkgnd { fill: lightgray ; stroke: none }
text.elName { font-family: helvetica ; font-size : 10 }
text.elType { font-family: helvetica ; font-size : 7 }
text.occurLarge { font-family: helvetica ; font-size : 9; fill : blue }
text.occurSmall { font-family: helvetica ; font-size : 7; fill : blue }
rect.typeIconDark { fill : darkslategray }
circle.occurs { stroke : black ; stroke-width: 1; fill : white }
circle.ellipsis { fill : black }
path.typeIconDark { stroke : lightgray ; stroke-width: 1 }
path.connector { stroke : red ; stroke-width: 1 ; fill: none; }
path.modelGroup { stroke : black ; stroke-width: 1 ; fill: lightgray; }
polyline.connector { stroke : red ; stroke-width: 1 ; fill: none; }
.nodeStyle { fill : blue }
]]></style>
	</defs>
	<rect x = "147" y = "5" width = "54" height = "38" class = "attrGroup" rx = "5" ry = "5"/>
	<circle class = "occurs" cx = "158" cy = "24" r = "6"/>
	<text x = "155" y = "27" class = "occurLarge">?</text>
	<rect x = "164" y = "10" width = "32" height = "28" class = "element" rx = "5" ry = "5"/>
	<circle class = "nodeStyle" cx = "170" cy = "16" r = "4"/>
	<text x = "175" y = "21" class = "elName">id</text>
	<rect x = "165" y = "11" width = "30" height = "26" class = "elTypeBkgnd" rx = "5" ry = "5" clip-path = "url(#e:method-permission/a:id)"/>
	<defs/>
	<clipPath id = "e:method-permission/a:id">
		<rect x = "164" y = "25" width = "32" height = "12"/>
	</clipPath>
	<text x = "165" y = "33" class = "elType">ID</text>
	<image xlink:href = "../dgmDtName.gif" width = "10" height = "10" x = "186" y = "20"/>
	<rect x = "5" y = "100" width = "112" height = "28" class = "element"/>
	<polygon class = "nodeStyle" points = "11,102 7,106 11,110 15,106"/>
	<text x = "16" y = "111" class = "elName">method-permission</text>
	<rect x = "6" y = "115" width = "110" height = "12" class = "elTypeBkgnd"/>
	<image xlink:href = "../dgmTypeComplex.gif" width = "10" height = "10" x = "107" y = "110"/>
	<polyline class = "connector" points = "147,62 127,62 127,114 117,114 127,114 127,167 147,167"/>
	<polyline class = "connector" points = "117,112 125,112 125,24 147,24"/>
	<circle class = "occurs" cx = "153" cy = "62" r = "6"/>
	<text x = "150" y = "65" class = "occurLarge">?</text>
	<rect x = "159" y = "48" width = "74" height = "28" class = "element"/>
	<polygon class = "nodeStyle" points = "165,50 161,54 165,58 169,54"/>
	<text x = "170" y = "59" class = "elName">description</text>
	<rect x = "160" y = "63" width = "72" height = "12" class = "elTypeBkgnd"/>
	<image xlink:href = "../dgmDtString.gif" width = "10" height = "10" x = "223" y = "58"/>
	<circle class = "occurs" cx = "153" cy = "114" r = "6"/>
	<text x = "150" y = "117" class = "occurLarge">1</text>
	<polyline class = "connector" points = "189,97 169,114 159,114 169,114 189,132"/>
	<circle class = "occurs" cx = "195" cy = "97" r = "6"/>
	<text x = "192" y = "100" class = "occurLarge">+</text>
	<rect x = "201" y = "83" width = "71" height = "28" class = "element"/>
	<polygon class = "nodeStyle" points = "207,85 203,89 207,93 211,89"/>
	<text x = "212" y = "94" class = "elName">role-name</text>
	<rect x = "202" y = "98" width = "69" height = "12" class = "elTypeBkgnd"/>
	<image xlink:href = "../dgmDtString.gif" width = "10" height = "10" x = "262" y = "93"/>
	<polyline class = "connector" points = "189,132 201,132"/>
	<rect x = "201" y = "118" width = "73" height = "28" class = "element"/>
	<polygon class = "nodeStyle" points = "207,120 203,124 207,128 211,124"/>
	<text x = "212" y = "129" class = "elName">unchecked</text>
	<rect x = "202" y = "133" width = "71" height = "12" class = "elTypeBkgnd"/>
	<image xlink:href = "../dgmTypeEmpty.gif" width = "10" height = "10" x = "264" y = "128"/>
	<circle class = "occurs" cx = "153" cy = "167" r = "6"/>
	<text x = "150" y = "170" class = "occurLarge">+</text>
	<rect x = "159" y = "153" width = "59" height = "28" class = "element"/>
	<polygon class = "nodeStyle" points = "165,155 161,159 165,163 169,159"/>
	<text x = "170" y = "164" class = "elName">method</text>
	<rect x = "160" y = "168" width = "57" height = "12" class = "elTypeBkgnd"/>
	<image xlink:href = "../dgmTypeComplex.gif" width = "10" height = "10" x = "208" y = "163"/>
</svg>