<?xml version = "1.0"?>
<!DOCTYPE svg PUBLIC "-//W3C//DTD SVG 20010904//EN" "http://www.w3.org/TR/2001/REC-SVG-20010904/DTD/svg10.dtd">
<svg width = "202pt" height = "116pt" viewBox = "0 0 202 116" xmlns = "http://www.w3.org/2000/svg" xmlns:xlink = "http://www.w3.org/1999/xlink">
	<defs>
		<style type = "text/css"><![CDATA[
rect.attrGroup { fill: ivory ; stroke: black; stroke-width: 1 }
rect.element { fill: ivory ; stroke: black; stroke-width: 1 }
rect.elTypeBkgnd { fill: lightgray ; stroke: none }
text.elName { font-family: helvetica ; font-size : 10 }
text.elType { font-family: helvetica ; font-size : 7 }
text.occurLarge { font-family: helvetica ; font-size : 9; fill : blue }
text.occurSmall { font-family: helvetica ; font-size : 7; fill : blue }
rect.typeIconDark { fill : darkslategray }
circle.occurs { stroke : black ; stroke-width: 1; fill : white }
circle.ellipsis { fill : black }
path.typeIconDark { stroke : lightgray ; stroke-width: 1 }
path.connector { stroke : red ; stroke-width: 1 ; fill: none; }
path.modelGroup { stroke : black ; stroke-width: 1 ; fill: lightgray; }
polyline.connector { stroke : red ; stroke-width: 1 ; fill: none; }
.nodeStyle { fill : blue }
]]></style>
	</defs>
	<rect x = "111" y = "5" width = "54" height = "38" class = "attrGroup" rx = "5" ry = "5"/>
	<circle class = "occurs" cx = "122" cy = "24" r = "6"/>
	<text x = "119" y = "27" class = "occurLarge">?</text>
	<rect x = "128" y = "10" width = "32" height = "28" class = "element" rx = "5" ry = "5"/>
	<circle class = "nodeStyle" cx = "134" cy = "16" r = "4"/>
	<text x = "139" y = "21" class = "elName">id</text>
	<rect x = "129" y = "11" width = "30" height = "26" class = "elTypeBkgnd" rx = "5" ry = "5" clip-path = "url(#e:exclude-list/a:id)"/>
	<defs/>
	<clipPath id = "e:exclude-list/a:id">
		<rect x = "128" y = "25" width = "32" height = "12"/>
	</clipPath>
	<text x = "129" y = "33" class = "elType">ID</text>
	<image xlink:href = "../dgmDtName.gif" width = "10" height = "10" x = "150" y = "20"/>
	<rect x = "5" y = "65" width = "76" height = "28" class = "element"/>
	<polygon class = "nodeStyle" points = "11,67 7,71 11,75 15,71"/>
	<text x = "16" y = "76" class = "elName">exclude-list</text>
	<rect x = "6" y = "80" width = "74" height = "12" class = "elTypeBkgnd"/>
	<image xlink:href = "../dgmTypeComplex.gif" width = "10" height = "10" x = "71" y = "75"/>
	<polyline class = "connector" points = "111,62 91,62 91,79 81,79 91,79 91,97 111,97"/>
	<polyline class = "connector" points = "81,77 89,77 89,24 111,24"/>
	<circle class = "occurs" cx = "117" cy = "62" r = "6"/>
	<text x = "114" y = "65" class = "occurLarge">?</text>
	<rect x = "123" y = "48" width = "74" height = "28" class = "element"/>
	<polygon class = "nodeStyle" points = "129,50 125,54 129,58 133,54"/>
	<text x = "134" y = "59" class = "elName">description</text>
	<rect x = "124" y = "63" width = "72" height = "12" class = "elTypeBkgnd"/>
	<image xlink:href = "../dgmDtString.gif" width = "10" height = "10" x = "187" y = "58"/>
	<circle class = "occurs" cx = "117" cy = "97" r = "6"/>
	<text x = "114" y = "100" class = "occurLarge">+</text>
	<rect x = "123" y = "83" width = "59" height = "28" class = "element"/>
	<polygon class = "nodeStyle" points = "129,85 125,89 129,93 133,89"/>
	<text x = "134" y = "94" class = "elName">method</text>
	<rect x = "124" y = "98" width = "57" height = "12" class = "elTypeBkgnd"/>
	<image xlink:href = "../dgmTypeComplex.gif" width = "10" height = "10" x = "172" y = "93"/>
</svg>