<?xml version = "1.0"?>
<!DOCTYPE svg PUBLIC "-//W3C//DTD SVG 20010904//EN" "http://www.w3.org/TR/2001/REC-SVG-20010904/DTD/svg10.dtd">
<svg width = "236pt" height = "151pt" viewBox = "0 0 236 151" xmlns = "http://www.w3.org/2000/svg" xmlns:xlink = "http://www.w3.org/1999/xlink">
	<defs>
		<style type = "text/css"><![CDATA[
rect.attrGroup { fill: ivory ; stroke: black; stroke-width: 1 }
rect.element { fill: ivory ; stroke: black; stroke-width: 1 }
rect.elTypeBkgnd { fill: lightgray ; stroke: none }
text.elName { font-family: helvetica ; font-size : 10 }
text.elType { font-family: helvetica ; font-size : 7 }
text.occurLarge { font-family: helvetica ; font-size : 9; fill : blue }
text.occurSmall { font-family: helvetica ; font-size : 7; fill : blue }
rect.typeIconDark { fill : darkslategray }
circle.occurs { stroke : black ; stroke-width: 1; fill : white }
circle.ellipsis { fill : black }
path.typeIconDark { stroke : lightgray ; stroke-width: 1 }
path.connector { stroke : red ; stroke-width: 1 ; fill: none; }
path.modelGroup { stroke : black ; stroke-width: 1 ; fill: lightgray; }
polyline.connector { stroke : red ; stroke-width: 1 ; fill: none; }
.nodeStyle { fill : blue }
]]></style>
	</defs>
	<rect x = "123" y = "5" width = "54" height = "38" class = "attrGroup" rx = "5" ry = "5"/>
	<circle class = "occurs" cx = "134" cy = "24" r = "6"/>
	<text x = "131" y = "27" class = "occurLarge">?</text>
	<rect x = "140" y = "10" width = "32" height = "28" class = "element" rx = "5" ry = "5"/>
	<circle class = "nodeStyle" cx = "146" cy = "16" r = "4"/>
	<text x = "151" y = "21" class = "elName">id</text>
	<rect x = "141" y = "11" width = "30" height = "26" class = "elTypeBkgnd" rx = "5" ry = "5" clip-path = "url(#e:query-method/a:id)"/>
	<defs/>
	<clipPath id = "e:query-method/a:id">
		<rect x = "140" y = "25" width = "32" height = "12"/>
	</clipPath>
	<text x = "141" y = "33" class = "elType">ID</text>
	<image xlink:href = "../dgmDtName.gif" width = "10" height = "10" x = "162" y = "20"/>
	<rect x = "5" y = "83" width = "88" height = "28" class = "element"/>
	<polygon class = "nodeStyle" points = "11,85 7,89 11,93 15,89"/>
	<text x = "16" y = "94" class = "elName">query-method</text>
	<rect x = "6" y = "98" width = "86" height = "12" class = "elTypeBkgnd"/>
	<image xlink:href = "../dgmTypeComplex.gif" width = "10" height = "10" x = "83" y = "93"/>
	<polyline class = "connector" points = "123,62 103,62 103,97 93,97 103,97 103,132 123,132"/>
	<polyline class = "connector" points = "93,95 101,95 101,24 123,24"/>
	<polyline class = "connector" points = "123,62 135,62"/>
	<rect x = "135" y = "48" width = "89" height = "28" class = "element"/>
	<polygon class = "nodeStyle" points = "141,50 137,54 141,58 145,54"/>
	<text x = "146" y = "59" class = "elName">method-name</text>
	<rect x = "136" y = "63" width = "87" height = "12" class = "elTypeBkgnd"/>
	<image xlink:href = "../dgmDtString.gif" width = "10" height = "10" x = "214" y = "58"/>
	<circle class = "occurs" cx = "129" cy = "97" r = "6"/>
	<text x = "126" y = "100" class = "occurLarge">?</text>
	<rect x = "135" y = "83" width = "77" height = "28" class = "element"/>
	<polygon class = "nodeStyle" points = "141,85 137,89 141,93 145,89"/>
	<text x = "146" y = "94" class = "elName">method-intf</text>
	<rect x = "136" y = "98" width = "75" height = "12" class = "elTypeBkgnd"/>
	<image xlink:href = "../dgmDtString.gif" width = "10" height = "10" x = "202" y = "93"/>
	<polyline class = "connector" points = "123,132 135,132"/>
	<rect x = "135" y = "118" width = "96" height = "28" class = "element"/>
	<polygon class = "nodeStyle" points = "141,120 137,124 141,128 145,124"/>
	<text x = "146" y = "129" class = "elName">method-params</text>
	<rect x = "136" y = "133" width = "94" height = "12" class = "elTypeBkgnd"/>
	<image xlink:href = "../dgmTypeComplex.gif" width = "10" height = "10" x = "221" y = "128"/>
</svg>