<?xml version = "1.0"?>
<!DOCTYPE svg PUBLIC "-//W3C//DTD SVG 20010904//EN" "http://www.w3.org/TR/2001/REC-SVG-20010904/DTD/svg10.dtd">
<svg width = "525pt" height = "48pt" viewBox = "0 0 525 48" xmlns = "http://www.w3.org/2000/svg" xmlns:xlink = "http://www.w3.org/1999/xlink">
	<defs>
		<style type = "text/css"><![CDATA[
rect.attrGroup { fill: ivory ; stroke: black; stroke-width: 1 }
rect.element { fill: ivory ; stroke: black; stroke-width: 1 }
rect.elTypeBkgnd { fill: lightgray ; stroke: none }
text.elName { font-family: helvetica ; font-size : 10 }
text.elType { font-family: helvetica ; font-size : 7 }
text.occurLarge { font-family: helvetica ; font-size : 9; fill : blue }
text.occurSmall { font-family: helvetica ; font-size : 7; fill : blue }
rect.typeIconDark { fill : darkslategray }
circle.occurs { stroke : black ; stroke-width: 1; fill : white }
circle.ellipsis { fill : black }
path.typeIconDark { stroke : lightgray ; stroke-width: 1 }
path.connector { stroke : red ; stroke-width: 1 ; fill: none; }
path.modelGroup { stroke : black ; stroke-width: 1 ; fill: lightgray; }
polyline.connector { stroke : red ; stroke-width: 1 ; fill: none; }
.nodeStyle { fill : blue }
]]></style>
	</defs>
	<rect x = "5" y = "10" width = "75" height = "28" class = "element"/>
	<polygon class = "nodeStyle" points = "11,12 7,16 11,20 15,16"/>
	<text x = "16" y = "21" class = "elName">persistence</text>
	<rect x = "6" y = "25" width = "73" height = "12" class = "elTypeBkgnd"/>
	<image xlink:href = "../dgmTypeEmpty.gif" width = "10" height = "10" x = "70" y = "20"/>
	<polyline class = "connector" points = "80,24 110,24"/>
	<rect x = "110" y = "5" width = "410" height = "38" class = "attrGroup" rx = "5" ry = "5"/>
	<circle class = "occurs" cx = "121" cy = "24" r = "6"/>
	<text x = "118" y = "27" class = "occurLarge">?</text>
	<rect x = "127" y = "10" width = "80" height = "28" class = "element" rx = "5" ry = "5"/>
	<circle class = "nodeStyle" cx = "133" cy = "16" r = "4"/>
	<text x = "138" y = "21" class = "elName">persistName</text>
	<rect x = "128" y = "11" width = "78" height = "26" class = "elTypeBkgnd" rx = "5" ry = "5" clip-path = "url(#e:persistence/a:persistName)"/>
	<defs/>
	<clipPath id = "e:persistence/a:persistName">
		<rect x = "127" y = "25" width = "80" height = "12"/>
	</clipPath>
	<text x = "128" y = "33" class = "elType">string</text>
	<image xlink:href = "../dgmDtString.gif" width = "10" height = "10" x = "197" y = "20"/>
	<circle class = "occurs" cx = "328" cy = "24" r = "6"/>
	<text x = "325" y = "27" class = "occurLarge">?</text>
	<rect x = "334" y = "10" width = "81" height = "28" class = "element" rx = "5" ry = "5"/>
	<circle class = "nodeStyle" cx = "340" cy = "16" r = "4"/>
	<text x = "345" y = "21" class = "elName">persistPolicy</text>
	<rect x = "335" y = "11" width = "79" height = "26" class = "elTypeBkgnd" rx = "5" ry = "5" clip-path = "url(#e:persistence/a:persistPolicy)"/>
	<defs/>
	<clipPath id = "e:persistence/a:persistPolicy">
		<rect x = "334" y = "25" width = "81" height = "12"/>
	</clipPath>
	<image xlink:href = "../dgmDtString.gif" width = "10" height = "10" x = "405" y = "20"/>
	<circle class = "occurs" cx = "426" cy = "24" r = "6"/>
	<text x = "423" y = "27" class = "occurLarge">?</text>
	<rect x = "432" y = "10" width = "83" height = "28" class = "element" rx = "5" ry = "5"/>
	<circle class = "nodeStyle" cx = "438" cy = "16" r = "4"/>
	<text x = "443" y = "21" class = "elName">persistPeriod</text>
	<rect x = "433" y = "11" width = "81" height = "26" class = "elTypeBkgnd" rx = "5" ry = "5" clip-path = "url(#e:persistence/a:persistPeriod)"/>
	<defs/>
	<clipPath id = "e:persistence/a:persistPeriod">
		<rect x = "432" y = "25" width = "83" height = "12"/>
	</clipPath>
	<text x = "433" y = "33" class = "elType">string</text>
	<image xlink:href = "../dgmDtString.gif" width = "10" height = "10" x = "505" y = "20"/>
	<circle class = "occurs" cx = "218" cy = "24" r = "6"/>
	<text x = "215" y = "27" class = "occurLarge">?</text>
	<rect x = "224" y = "10" width = "93" height = "28" class = "element" rx = "5" ry = "5"/>
	<circle class = "nodeStyle" cx = "230" cy = "16" r = "4"/>
	<text x = "235" y = "21" class = "elName">persistLocation</text>
	<rect x = "225" y = "11" width = "91" height = "26" class = "elTypeBkgnd" rx = "5" ry = "5" clip-path = "url(#e:persistence/a:persistLocation)"/>
	<defs/>
	<clipPath id = "e:persistence/a:persistLocation">
		<rect x = "224" y = "25" width = "93" height = "12"/>
	</clipPath>
	<text x = "225" y = "33" class = "elType">string</text>
	<image xlink:href = "../dgmDtString.gif" width = "10" height = "10" x = "307" y = "20"/>
</svg>