<?xml version = "1.0"?>
<!DOCTYPE svg PUBLIC "-//W3C//DTD SVG 20010904//EN" "http://www.w3.org/TR/2001/REC-SVG-20010904/DTD/svg10.dtd">
<svg width = "357pt" height = "186pt" viewBox = "0 0 357 186" xmlns = "http://www.w3.org/2000/svg" xmlns:xlink = "http://www.w3.org/1999/xlink">
	<defs>
		<style type = "text/css"><![CDATA[
rect.attrGroup { fill: ivory ; stroke: black; stroke-width: 1 }
rect.element { fill: ivory ; stroke: black; stroke-width: 1 }
rect.elTypeBkgnd { fill: lightgray ; stroke: none }
text.elName { font-family: helvetica ; font-size : 10 }
text.elType { font-family: helvetica ; font-size : 7 }
text.occurLarge { font-family: helvetica ; font-size : 9; fill : blue }
text.occurSmall { font-family: helvetica ; font-size : 7; fill : blue }
rect.typeIconDark { fill : darkslategray }
circle.occurs { stroke : black ; stroke-width: 1; fill : white }
circle.ellipsis { fill : black }
path.typeIconDark { stroke : lightgray ; stroke-width: 1 }
path.connector { stroke : red ; stroke-width: 1 ; fill: none; }
path.modelGroup { stroke : black ; stroke-width: 1 ; fill: lightgray; }
polyline.connector { stroke : red ; stroke-width: 1 ; fill: none; }
.nodeStyle { fill : blue }
]]></style>
	</defs>
	<rect x = "97" y = "5" width = "255" height = "38" class = "attrGroup" rx = "5" ry = "5"/>
	<circle class = "occurs" cx = "108" cy = "24" r = "6"/>
	<text x = "105" y = "27" class = "occurLarge">D</text>
	<rect x = "114" y = "10" width = "53" height = "28" class = "element" rx = "5" ry = "5"/>
	<circle class = "nodeStyle" cx = "120" cy = "16" r = "4"/>
	<text x = "125" y = "21" class = "elName">access</text>
	<rect x = "115" y = "11" width = "51" height = "26" class = "elTypeBkgnd" rx = "5" ry = "5" clip-path = "url(#e:attribute/a:access)"/>
	<defs/>
	<clipPath id = "e:attribute/a:access">
		<rect x = "114" y = "25" width = "53" height = "12"/>
	</clipPath>
	<image xlink:href = "../dgmDtString.gif" width = "10" height = "10" x = "157" y = "20"/>
	<circle class = "occurs" cx = "269" cy = "24" r = "6"/>
	<text x = "266" y = "27" class = "occurLarge">?</text>
	<rect x = "275" y = "10" width = "72" height = "28" class = "element" rx = "5" ry = "5"/>
	<circle class = "nodeStyle" cx = "281" cy = "16" r = "4"/>
	<text x = "286" y = "21" class = "elName">setMethod</text>
	<rect x = "276" y = "11" width = "70" height = "26" class = "elTypeBkgnd" rx = "5" ry = "5" clip-path = "url(#e:attribute/a:setMethod)"/>
	<defs/>
	<clipPath id = "e:attribute/a:setMethod">
		<rect x = "275" y = "25" width = "72" height = "12"/>
	</clipPath>
	<text x = "276" y = "33" class = "elType">string</text>
	<image xlink:href = "../dgmDtString.gif" width = "10" height = "10" x = "337" y = "20"/>
	<circle class = "occurs" cx = "178" cy = "24" r = "6"/>
	<text x = "175" y = "27" class = "occurLarge">?</text>
	<rect x = "184" y = "10" width = "74" height = "28" class = "element" rx = "5" ry = "5"/>
	<circle class = "nodeStyle" cx = "190" cy = "16" r = "4"/>
	<text x = "195" y = "21" class = "elName">getMethod</text>
	<rect x = "185" y = "11" width = "72" height = "26" class = "elTypeBkgnd" rx = "5" ry = "5" clip-path = "url(#e:attribute/a:getMethod)"/>
	<defs/>
	<clipPath id = "e:attribute/a:getMethod">
		<rect x = "184" y = "25" width = "74" height = "12"/>
	</clipPath>
	<text x = "185" y = "33" class = "elType">string</text>
	<image xlink:href = "../dgmDtString.gif" width = "10" height = "10" x = "248" y = "20"/>
	<rect x = "5" y = "100" width = "62" height = "28" class = "element"/>
	<polygon class = "nodeStyle" points = "11,102 7,106 11,110 15,106"/>
	<text x = "16" y = "111" class = "elName">attribute</text>
	<rect x = "6" y = "115" width = "60" height = "12" class = "elTypeBkgnd"/>
	<image xlink:href = "../dgmTypeComplex.gif" width = "10" height = "10" x = "57" y = "110"/>
	<polyline class = "connector" points = "97,62 77,62 77,114 67,114 77,114 77,167 97,167"/>
	<polyline class = "connector" points = "67,112 75,112 75,24 97,24"/>
	<circle class = "occurs" cx = "103" cy = "62" r = "6"/>
	<text x = "100" y = "65" class = "occurLarge">?</text>
	<rect x = "109" y = "48" width = "74" height = "28" class = "element"/>
	<polygon class = "nodeStyle" points = "115,50 111,54 115,58 119,54"/>
	<text x = "120" y = "59" class = "elName">description</text>
	<rect x = "110" y = "63" width = "72" height = "12" class = "elTypeBkgnd"/>
	<image xlink:href = "../dgmDtString.gif" width = "10" height = "10" x = "173" y = "58"/>
	<rect x = "109" y = "83" width = "50" height = "28" class = "element"/>
	<polygon class = "nodeStyle" points = "115,85 111,89 115,93 119,89"/>
	<text x = "120" y = "94" class = "elName">name</text>
	<rect x = "110" y = "98" width = "48" height = "12" class = "elTypeBkgnd"/>
	<image xlink:href = "../dgmDtString.gif" width = "10" height = "10" x = "149" y = "93"/>
	<rect x = "109" y = "118" width = "43" height = "28" class = "element"/>
	<polygon class = "nodeStyle" points = "115,120 111,124 115,128 119,124"/>
	<text x = "120" y = "129" class = "elName">type</text>
	<rect x = "110" y = "133" width = "41" height = "12" class = "elTypeBkgnd"/>
	<image xlink:href = "../dgmDtString.gif" width = "10" height = "10" x = "142" y = "128"/>
	<circle class = "occurs" cx = "103" cy = "167" r = "6"/>
	<text x = "100" y = "170" class = "occurLarge">?</text>
	<rect x = "109" y = "153" width = "72" height = "28" class = "element"/>
	<polygon class = "nodeStyle" points = "115,155 111,159 115,163 119,159"/>
	<text x = "120" y = "164" class = "elName">descriptors</text>
	<rect x = "110" y = "168" width = "70" height = "12" class = "elTypeBkgnd"/>
	<image xlink:href = "../dgmTypeComplex.gif" width = "10" height = "10" x = "171" y = "163"/>
</svg>