<?xml version = "1.0"?>
<!DOCTYPE svg PUBLIC "-//W3C//DTD SVG 20010904//EN" "http://www.w3.org/TR/2001/REC-SVG-20010904/DTD/svg10.dtd">
<svg width = "227pt" height = "143pt" viewBox = "0 0 227 143" xmlns = "http://www.w3.org/2000/svg" xmlns:xlink = "http://www.w3.org/1999/xlink">
	<defs>
		<style type = "text/css"><![CDATA[
rect.attrGroup { fill: ivory ; stroke: black; stroke-width: 1 }
rect.element { fill: ivory ; stroke: black; stroke-width: 1 }
rect.elTypeBkgnd { fill: lightgray ; stroke: none }
text.elName { font-family: helvetica ; font-size : 10 }
text.elType { font-family: helvetica ; font-size : 7 }
text.occurLarge { font-family: helvetica ; font-size : 9; fill : blue }
text.occurSmall { font-family: helvetica ; font-size : 7; fill : blue }
rect.typeIconDark { fill : darkslategray }
circle.occurs { stroke : black ; stroke-width: 1; fill : white }
circle.ellipsis { fill : black }
path.typeIconDark { stroke : lightgray ; stroke-width: 1 }
path.connector { stroke : red ; stroke-width: 1 ; fill: none; }
path.modelGroup { stroke : black ; stroke-width: 1 ; fill: lightgray; }
polyline.connector { stroke : red ; stroke-width: 1 ; fill: none; }
.nodeStyle { fill : blue }
]]></style>
	</defs>
	<rect x = "5" y = "57" width = "76" height = "28" class = "element"/>
	<polygon class = "nodeStyle" points = "11,59 7,63 11,67 15,63"/>
	<text x = "16" y = "68" class = "elName">notification</text>
	<rect x = "6" y = "72" width = "74" height = "12" class = "elTypeBkgnd"/>
	<image xlink:href = "../dgmTypeComplex.gif" width = "10" height = "10" x = "71" y = "67"/>
	<polyline class = "connector" points = "111,19 91,19 91,71 81,71 91,71 91,124 111,124"/>
	<circle class = "occurs" cx = "117" cy = "19" r = "6"/>
	<text x = "114" y = "22" class = "occurLarge">?</text>
	<rect x = "123" y = "5" width = "74" height = "28" class = "element"/>
	<polygon class = "nodeStyle" points = "129,7 125,11 129,15 133,11"/>
	<text x = "134" y = "16" class = "elName">description</text>
	<rect x = "124" y = "20" width = "72" height = "12" class = "elTypeBkgnd"/>
	<image xlink:href = "../dgmDtString.gif" width = "10" height = "10" x = "187" y = "15"/>
	<rect x = "123" y = "40" width = "50" height = "28" class = "element"/>
	<polygon class = "nodeStyle" points = "129,42 125,46 129,50 133,46"/>
	<text x = "134" y = "51" class = "elName">name</text>
	<rect x = "124" y = "55" width = "48" height = "12" class = "elTypeBkgnd"/>
	<image xlink:href = "../dgmDtString.gif" width = "10" height = "10" x = "163" y = "50"/>
	<circle class = "occurs" cx = "117" cy = "89" r = "6"/>
	<text x = "114" y = "92" class = "occurLarge">+</text>
	<rect x = "123" y = "75" width = "99" height = "28" class = "element"/>
	<polygon class = "nodeStyle" points = "129,77 125,81 129,85 133,81"/>
	<text x = "134" y = "86" class = "elName">notification-type</text>
	<rect x = "124" y = "90" width = "97" height = "12" class = "elTypeBkgnd"/>
	<image xlink:href = "../dgmDtString.gif" width = "10" height = "10" x = "212" y = "85"/>
	<circle class = "occurs" cx = "117" cy = "124" r = "6"/>
	<text x = "114" y = "127" class = "occurLarge">?</text>
	<rect x = "123" y = "110" width = "72" height = "28" class = "element"/>
	<polygon class = "nodeStyle" points = "129,112 125,116 129,120 133,116"/>
	<text x = "134" y = "121" class = "elName">descriptors</text>
	<rect x = "124" y = "125" width = "70" height = "12" class = "elTypeBkgnd"/>
	<image xlink:href = "../dgmTypeComplex.gif" width = "10" height = "10" x = "185" y = "120"/>
</svg>