<?xml version = "1.0"?>
<!DOCTYPE svg PUBLIC "-//W3C//DTD SVG 20010904//EN" "http://www.w3.org/TR/2001/REC-SVG-20010904/DTD/svg10.dtd">
<svg width = "347pt" height = "81pt" viewBox = "0 0 347 81" xmlns = "http://www.w3.org/2000/svg" xmlns:xlink = "http://www.w3.org/1999/xlink">
	<defs>
		<style type = "text/css"><![CDATA[
rect.attrGroup { fill: ivory ; stroke: black; stroke-width: 1 }
rect.element { fill: ivory ; stroke: black; stroke-width: 1 }
rect.elTypeBkgnd { fill: lightgray ; stroke: none }
text.elName { font-family: helvetica ; font-size : 10 }
text.elType { font-family: helvetica ; font-size : 7 }
text.occurLarge { font-family: helvetica ; font-size : 9; fill : blue }
text.occurSmall { font-family: helvetica ; font-size : 7; fill : blue }
rect.typeIconDark { fill : darkslategray }
circle.occurs { stroke : black ; stroke-width: 1; fill : white }
circle.ellipsis { fill : black }
path.typeIconDark { stroke : lightgray ; stroke-width: 1 }
path.connector { stroke : red ; stroke-width: 1 ; fill: none; }
path.modelGroup { stroke : black ; stroke-width: 1 ; fill: lightgray; }
polyline.connector { stroke : red ; stroke-width: 1 ; fill: none; }
.nodeStyle { fill : blue }
]]></style>
	</defs>
	<rect x = "98" y = "5" width = "244" height = "38" class = "attrGroup" rx = "5" ry = "5"/>
	<circle class = "occurs" cx = "109" cy = "24" r = "6"/>
	<text x = "106" y = "27" class = "occurLarge">?</text>
	<rect x = "115" y = "10" width = "71" height = "28" class = "element" rx = "5" ry = "5"/>
	<circle class = "nodeStyle" cx = "121" cy = "16" r = "4"/>
	<text x = "126" y = "21" class = "elName">proxy-type</text>
	<rect x = "116" y = "11" width = "69" height = "26" class = "elTypeBkgnd" rx = "5" ry = "5" clip-path = "url(#e:depends/a:proxy-type)"/>
	<defs/>
	<clipPath id = "e:depends/a:proxy-type">
		<rect x = "115" y = "25" width = "71" height = "12"/>
	</clipPath>
	<text x = "116" y = "33" class = "elType">string</text>
	<image xlink:href = "../dgmDtString.gif" width = "10" height = "10" x = "176" y = "20"/>
	<circle class = "occurs" cx = "197" cy = "24" r = "6"/>
	<text x = "194" y = "27" class = "occurLarge">?</text>
	<rect x = "203" y = "10" width = "134" height = "28" class = "element" rx = "5" ry = "5"/>
	<circle class = "nodeStyle" cx = "209" cy = "16" r = "4"/>
	<text x = "214" y = "21" class = "elName">optional-attribute-name</text>
	<rect x = "204" y = "11" width = "132" height = "26" class = "elTypeBkgnd" rx = "5" ry = "5" clip-path = "url(#e:depends/a:optional-attribute-name)"/>
	<defs/>
	<clipPath id = "e:depends/a:optional-attribute-name">
		<rect x = "203" y = "25" width = "134" height = "12"/>
	</clipPath>
	<text x = "204" y = "33" class = "elType">string</text>
	<image xlink:href = "../dgmDtString.gif" width = "10" height = "10" x = "327" y = "20"/>
	<rect x = "5" y = "48" width = "63" height = "28" class = "element"/>
	<polygon class = "nodeStyle" points = "11,50 7,54 11,58 15,54"/>
	<text x = "16" y = "59" class = "elName">depends</text>
	<rect x = "6" y = "63" width = "61" height = "12" class = "elTypeBkgnd"/>
	<image xlink:href = "../dgmTypeMixed.gif" width = "10" height = "10" x = "58" y = "58"/>
	<circle class = "occurs" cx = "74" cy = "62" r = "6"/>
	<text x = "71" y = "65" class = "occurLarge">*</text>
	<polyline class = "connector" points = "80,62 110,62"/>
	<polyline class = "connector" points = "80,60 88,60 88,24 98,24"/>
	<polyline class = "connector" points = "110,62 122,62"/>
	<rect x = "122" y = "48" width = "56" height = "28" class = "element"/>
	<polygon class = "nodeStyle" points = "128,50 124,54 128,58 132,54"/>
	<text x = "133" y = "59" class = "elName">mbean</text>
	<rect x = "123" y = "63" width = "54" height = "12" class = "elTypeBkgnd"/>
	<image xlink:href = "../dgmTypeComplex.gif" width = "10" height = "10" x = "168" y = "58"/>
</svg>