<?xml version = "1.0"?>
<!DOCTYPE svg PUBLIC "-//W3C//DTD SVG 20010904//EN" "http://www.w3.org/TR/2001/REC-SVG-20010904/DTD/svg10.dtd">
<svg width = "404pt" height = "221pt" viewBox = "0 0 404 221" xmlns = "http://www.w3.org/2000/svg" xmlns:xlink = "http://www.w3.org/1999/xlink">
	<defs>
		<style type = "text/css"><![CDATA[
rect.attrGroup { fill: ivory ; stroke: black; stroke-width: 1 }
rect.element { fill: ivory ; stroke: black; stroke-width: 1 }
rect.elTypeBkgnd { fill: lightgray ; stroke: none }
text.elName { font-family: helvetica ; font-size : 10 }
text.elType { font-family: helvetica ; font-size : 7 }
text.occurLarge { font-family: helvetica ; font-size : 9; fill : blue }
text.occurSmall { font-family: helvetica ; font-size : 7; fill : blue }
rect.typeIconDark { fill : darkslategray }
circle.occurs { stroke : black ; stroke-width: 1; fill : white }
circle.ellipsis { fill : black }
path.typeIconDark { stroke : lightgray ; stroke-width: 1 }
path.connector { stroke : red ; stroke-width: 1 ; fill: none; }
path.modelGroup { stroke : black ; stroke-width: 1 ; fill: lightgray; }
polyline.connector { stroke : red ; stroke-width: 1 ; fill: none; }
.nodeStyle { fill : blue }
]]></style>
	</defs>
	<rect x = "91" y = "5" width = "308" height = "38" class = "attrGroup" rx = "5" ry = "5"/>
	<rect x = "96" y = "10" width = "46" height = "28" class = "element" rx = "5" ry = "5"/>
	<circle class = "nodeStyle" cx = "102" cy = "16" r = "4"/>
	<text x = "107" y = "21" class = "elName">code</text>
	<rect x = "97" y = "11" width = "44" height = "26" class = "elTypeBkgnd" rx = "5" ry = "5" clip-path = "url(#e:mbean/a:code)"/>
	<defs/>
	<clipPath id = "e:mbean/a:code">
		<rect x = "96" y = "25" width = "46" height = "12"/>
	</clipPath>
	<text x = "97" y = "33" class = "elType">string</text>
	<image xlink:href = "../dgmDtString.gif" width = "10" height = "10" x = "132" y = "20"/>
	<rect x = "251" y = "10" width = "50" height = "28" class = "element" rx = "5" ry = "5"/>
	<circle class = "nodeStyle" cx = "257" cy = "16" r = "4"/>
	<text x = "262" y = "21" class = "elName">name</text>
	<rect x = "252" y = "11" width = "48" height = "26" class = "elTypeBkgnd" rx = "5" ry = "5" clip-path = "url(#e:mbean/a:name)"/>
	<defs/>
	<clipPath id = "e:mbean/a:name">
		<rect x = "251" y = "25" width = "50" height = "12"/>
	</clipPath>
	<text x = "252" y = "33" class = "elType">string</text>
	<image xlink:href = "../dgmDtString.gif" width = "10" height = "10" x = "291" y = "20"/>
	<circle class = "occurs" cx = "312" cy = "24" r = "6"/>
	<text x = "309" y = "27" class = "occurLarge">?</text>
	<rect x = "318" y = "10" width = "76" height = "28" class = "element" rx = "5" ry = "5"/>
	<circle class = "nodeStyle" cx = "324" cy = "16" r = "4"/>
	<text x = "329" y = "21" class = "elName">xmbean-dd</text>
	<rect x = "319" y = "11" width = "74" height = "26" class = "elTypeBkgnd" rx = "5" ry = "5" clip-path = "url(#e:mbean/a:xmbean-dd)"/>
	<defs/>
	<clipPath id = "e:mbean/a:xmbean-dd">
		<rect x = "318" y = "25" width = "76" height = "12"/>
	</clipPath>
	<text x = "319" y = "33" class = "elType">string</text>
	<image xlink:href = "../dgmDtString.gif" width = "10" height = "10" x = "384" y = "20"/>
	<circle class = "occurs" cx = "153" cy = "24" r = "6"/>
	<text x = "150" y = "27" class = "occurLarge">?</text>
	<rect x = "159" y = "10" width = "87" height = "28" class = "element" rx = "5" ry = "5"/>
	<circle class = "nodeStyle" cx = "165" cy = "16" r = "4"/>
	<text x = "170" y = "21" class = "elName">xmbean-code</text>
	<rect x = "160" y = "11" width = "85" height = "26" class = "elTypeBkgnd" rx = "5" ry = "5" clip-path = "url(#e:mbean/a:xmbean-code)"/>
	<defs/>
	<clipPath id = "e:mbean/a:xmbean-code">
		<rect x = "159" y = "25" width = "87" height = "12"/>
	</clipPath>
	<text x = "160" y = "33" class = "elType">string</text>
	<image xlink:href = "../dgmDtString.gif" width = "10" height = "10" x = "236" y = "20"/>
	<rect x = "5" y = "118" width = "56" height = "28" class = "element"/>
	<polygon class = "nodeStyle" points = "11,120 7,124 11,128 15,124"/>
	<text x = "16" y = "129" class = "elName">mbean</text>
	<rect x = "6" y = "133" width = "54" height = "12" class = "elTypeBkgnd"/>
	<image xlink:href = "../dgmTypeComplex.gif" width = "10" height = "10" x = "51" y = "128"/>
	<polyline class = "connector" points = "91,62 71,62 71,132 61,132 71,132 71,202 91,202"/>
	<polyline class = "connector" points = "61,130 69,130 69,24 91,24"/>
	<circle class = "occurs" cx = "97" cy = "62" r = "6"/>
	<text x = "94" y = "65" class = "occurLarge">?</text>
	<rect x = "103" y = "48" width = "73" height = "28" class = "element"/>
	<polygon class = "nodeStyle" points = "109,50 105,54 109,58 113,54"/>
	<text x = "114" y = "59" class = "elName">constructor</text>
	<rect x = "104" y = "63" width = "71" height = "12" class = "elTypeBkgnd"/>
	<image xlink:href = "../dgmTypeComplex.gif" width = "10" height = "10" x = "166" y = "58"/>
	<circle class = "occurs" cx = "97" cy = "97" r = "6"/>
	<text x = "94" y = "100" class = "occurLarge">?</text>
	<rect x = "103" y = "83" width = "61" height = "28" class = "element"/>
	<polygon class = "nodeStyle" points = "109,85 105,89 109,93 113,89"/>
	<text x = "114" y = "94" class = "elName">xmbean</text>
	<rect x = "104" y = "98" width = "59" height = "12" class = "elTypeBkgnd"/>
	<image xlink:href = "../dgmTypeAny.gif" width = "10" height = "10" x = "154" y = "93"/>
	<circle class = "occurs" cx = "97" cy = "132" r = "6"/>
	<text x = "94" y = "135" class = "occurLarge">*</text>
	<rect x = "103" y = "118" width = "62" height = "28" class = "element"/>
	<polygon class = "nodeStyle" points = "109,120 105,124 109,128 113,124"/>
	<text x = "114" y = "129" class = "elName">attribute</text>
	<rect x = "104" y = "133" width = "60" height = "12" class = "elTypeBkgnd"/>
	<image xlink:href = "../dgmTypeAny.gif" width = "10" height = "10" x = "155" y = "128"/>
	<circle class = "occurs" cx = "97" cy = "167" r = "6"/>
	<text x = "94" y = "170" class = "occurLarge">*</text>
	<rect x = "103" y = "153" width = "63" height = "28" class = "element"/>
	<polygon class = "nodeStyle" points = "109,155 105,159 109,163 113,159"/>
	<text x = "114" y = "164" class = "elName">depends</text>
	<rect x = "104" y = "168" width = "61" height = "12" class = "elTypeBkgnd"/>
	<image xlink:href = "../dgmTypeMixed.gif" width = "10" height = "10" x = "156" y = "163"/>
	<circle class = "occurs" cx = "97" cy = "202" r = "6"/>
	<text x = "94" y = "205" class = "occurLarge">*</text>
	<rect x = "103" y = "188" width = "79" height = "28" class = "element"/>
	<polygon class = "nodeStyle" points = "109,190 105,194 109,198 113,194"/>
	<text x = "114" y = "199" class = "elName">depends-list</text>
	<rect x = "104" y = "203" width = "77" height = "12" class = "elTypeBkgnd"/>
	<image xlink:href = "../dgmTypeComplex.gif" width = "10" height = "10" x = "172" y = "198"/>
</svg>