<?xml version = "1.0"?>
<!DOCTYPE svg PUBLIC "-//W3C//DTD SVG 20010904//EN" "http://www.w3.org/TR/2001/REC-SVG-20010904/DTD/svg10.dtd">
<svg width = "203pt" height = "143pt" viewBox = "0 0 203 143" xmlns = "http://www.w3.org/2000/svg" xmlns:xlink = "http://www.w3.org/1999/xlink">
	<defs>
		<style type = "text/css"><![CDATA[
rect.attrGroup { fill: ivory ; stroke: black; stroke-width: 1 }
rect.element { fill: ivory ; stroke: black; stroke-width: 1 }
rect.elTypeBkgnd { fill: lightgray ; stroke: none }
text.elName { font-family: helvetica ; font-size : 10 }
text.elType { font-family: helvetica ; font-size : 7 }
text.occurLarge { font-family: helvetica ; font-size : 9; fill : blue }
text.occurSmall { font-family: helvetica ; font-size : 7; fill : blue }
rect.typeIconDark { fill : darkslategray }
circle.occurs { stroke : black ; stroke-width: 1; fill : white }
circle.ellipsis { fill : black }
path.typeIconDark { stroke : lightgray ; stroke-width: 1 }
path.connector { stroke : red ; stroke-width: 1 ; fill: none; }
path.modelGroup { stroke : black ; stroke-width: 1 ; fill: lightgray; }
polyline.connector { stroke : red ; stroke-width: 1 ; fill: none; }
.nodeStyle { fill : blue }
]]></style>
	</defs>
	<rect x = "5" y = "57" width = "50" height = "28" class = "element"/>
	<polygon class = "nodeStyle" points = "11,59 7,63 11,67 15,63"/>
	<text x = "16" y = "68" class = "elName">server</text>
	<rect x = "6" y = "72" width = "48" height = "12" class = "elTypeBkgnd"/>
	<image xlink:href = "../dgmTypeComplex.gif" width = "10" height = "10" x = "45" y = "67"/>
	<polyline class = "connector" points = "85,19 65,19 65,71 55,71 65,71 65,124 85,124"/>
	<circle class = "occurs" cx = "91" cy = "19" r = "6"/>
	<text x = "88" y = "22" class = "occurLarge">?</text>
	<rect x = "97" y = "5" width = "101" height = "28" class = "element"/>
	<polygon class = "nodeStyle" points = "103,7 99,11 103,15 107,11"/>
	<text x = "108" y = "16" class = "elName">loader-repository</text>
	<rect x = "98" y = "20" width = "99" height = "12" class = "elTypeBkgnd"/>
	<image xlink:href = "../dgmTypeMixed.gif" width = "10" height = "10" x = "188" y = "15"/>
	<circle class = "occurs" cx = "91" cy = "54" r = "6"/>
	<text x = "88" y = "57" class = "occurLarge">*</text>
	<rect x = "97" y = "40" width = "89" height = "28" class = "element"/>
	<polygon class = "nodeStyle" points = "103,42 99,46 103,50 107,46"/>
	<text x = "108" y = "51" class = "elName">local-directory</text>
	<rect x = "98" y = "55" width = "87" height = "12" class = "elTypeBkgnd"/>
	<image xlink:href = "../dgmTypeEmpty.gif" width = "10" height = "10" x = "176" y = "50"/>
	<circle class = "occurs" cx = "91" cy = "89" r = "6"/>
	<text x = "88" y = "92" class = "occurLarge">*</text>
	<rect x = "97" y = "75" width = "66" height = "28" class = "element"/>
	<polygon class = "nodeStyle" points = "103,77 99,81 103,85 107,81"/>
	<text x = "108" y = "86" class = "elName">classpath</text>
	<rect x = "98" y = "90" width = "64" height = "12" class = "elTypeBkgnd"/>
	<image xlink:href = "../dgmTypeEmpty.gif" width = "10" height = "10" x = "153" y = "85"/>
	<circle class = "occurs" cx = "91" cy = "124" r = "6"/>
	<text x = "88" y = "127" class = "occurLarge">*</text>
	<rect x = "97" y = "110" width = "56" height = "28" class = "element"/>
	<polygon class = "nodeStyle" points = "103,112 99,116 103,120 107,116"/>
	<text x = "108" y = "121" class = "elName">mbean</text>
	<rect x = "98" y = "125" width = "54" height = "12" class = "elTypeBkgnd"/>
	<image xlink:href = "../dgmTypeComplex.gif" width = "10" height = "10" x = "143" y = "120"/>
</svg>