<?xml version = "1.0"?>
<!DOCTYPE svg PUBLIC "-//W3C//DTD SVG 20010904//EN" "http://www.w3.org/TR/2001/REC-SVG-20010904/DTD/svg10.dtd">
<svg width = "275pt" height = "81pt" viewBox = "0 0 275 81" xmlns = "http://www.w3.org/2000/svg" xmlns:xlink = "http://www.w3.org/1999/xlink">
	<defs>
		<style type = "text/css"><![CDATA[
rect.attrGroup { fill: ivory ; stroke: black; stroke-width: 1 }
rect.element { fill: ivory ; stroke: black; stroke-width: 1 }
rect.elTypeBkgnd { fill: lightgray ; stroke: none }
text.elName { font-family: helvetica ; font-size : 10 }
text.elType { font-family: helvetica ; font-size : 7 }
text.occurLarge { font-family: helvetica ; font-size : 9; fill : blue }
text.occurSmall { font-family: helvetica ; font-size : 7; fill : blue }
rect.typeIconDark { fill : darkslategray }
circle.occurs { stroke : black ; stroke-width: 1; fill : white }
circle.ellipsis { fill : black }
path.typeIconDark { stroke : lightgray ; stroke-width: 1 }
path.connector { stroke : red ; stroke-width: 1 ; fill: none; }
path.modelGroup { stroke : black ; stroke-width: 1 ; fill: lightgray; }
polyline.connector { stroke : red ; stroke-width: 1 ; fill: none; }
.nodeStyle { fill : blue }
]]></style>
	</defs>
	<rect x = "114" y = "5" width = "156" height = "38" class = "attrGroup" rx = "5" ry = "5"/>
	<circle class = "occurs" cx = "125" cy = "24" r = "6"/>
	<text x = "122" y = "27" class = "occurLarge">?</text>
	<rect x = "131" y = "10" width = "134" height = "28" class = "element" rx = "5" ry = "5"/>
	<circle class = "nodeStyle" cx = "137" cy = "16" r = "4"/>
	<text x = "142" y = "21" class = "elName">optional-attribute-name</text>
	<rect x = "132" y = "11" width = "132" height = "26" class = "elTypeBkgnd" rx = "5" ry = "5" clip-path = "url(#e:depends-list/a:optional-attribute-name)"/>
	<defs/>
	<clipPath id = "e:depends-list/a:optional-attribute-name">
		<rect x = "131" y = "25" width = "134" height = "12"/>
	</clipPath>
	<text x = "132" y = "33" class = "elType">string</text>
	<image xlink:href = "../dgmDtString.gif" width = "10" height = "10" x = "255" y = "20"/>
	<rect x = "5" y = "48" width = "79" height = "28" class = "element"/>
	<polygon class = "nodeStyle" points = "11,50 7,54 11,58 15,54"/>
	<text x = "16" y = "59" class = "elName">depends-list</text>
	<rect x = "6" y = "63" width = "77" height = "12" class = "elTypeBkgnd"/>
	<image xlink:href = "../dgmTypeComplex.gif" width = "10" height = "10" x = "74" y = "58"/>
	<circle class = "occurs" cx = "90" cy = "62" r = "6"/>
	<text x = "87" y = "65" class = "occurLarge">+</text>
	<polyline class = "connector" points = "96,62 126,62"/>
	<polyline class = "connector" points = "96,60 104,60 104,24 114,24"/>
	<polyline class = "connector" points = "126,62 138,62"/>
	<rect x = "138" y = "48" width = "121" height = "28" class = "element"/>
	<polygon class = "nodeStyle" points = "144,50 140,54 144,58 148,54"/>
	<text x = "149" y = "59" class = "elName">depends-list-element</text>
	<rect x = "139" y = "63" width = "119" height = "12" class = "elTypeBkgnd"/>
	<image xlink:href = "../dgmTypeMixed.gif" width = "10" height = "10" x = "249" y = "58"/>
</svg>