<?xml version = "1.0"?>
<!DOCTYPE svg PUBLIC "-//W3C//DTD SVG 20010904//EN" "http://www.w3.org/TR/2001/REC-SVG-20010904/DTD/svg10.dtd">
<svg width = "295pt" height = "48pt" viewBox = "0 0 295 48" xmlns = "http://www.w3.org/2000/svg" xmlns:xlink = "http://www.w3.org/1999/xlink">
	<defs>
		<style type = "text/css"><![CDATA[
rect.attrGroup { fill: ivory ; stroke: black; stroke-width: 1 }
rect.element { fill: ivory ; stroke: black; stroke-width: 1 }
rect.elTypeBkgnd { fill: lightgray ; stroke: none }
text.elName { font-family: helvetica ; font-size : 10 }
text.elType { font-family: helvetica ; font-size : 7 }
text.occurLarge { font-family: helvetica ; font-size : 9; fill : blue }
text.occurSmall { font-family: helvetica ; font-size : 7; fill : blue }
rect.typeIconDark { fill : darkslategray }
circle.occurs { stroke : black ; stroke-width: 1; fill : white }
circle.ellipsis { fill : black }
path.typeIconDark { stroke : lightgray ; stroke-width: 1 }
path.connector { stroke : red ; stroke-width: 1 ; fill: none; }
path.modelGroup { stroke : black ; stroke-width: 1 ; fill: lightgray; }
polyline.connector { stroke : red ; stroke-width: 1 ; fill: none; }
.nodeStyle { fill : blue }
]]></style>
	</defs>
	<rect x = "5" y = "10" width = "62" height = "28" class = "element"/>
	<polygon class = "nodeStyle" points = "11,12 7,16 11,20 15,16"/>
	<text x = "16" y = "21" class = "elName">attribute</text>
	<rect x = "6" y = "25" width = "60" height = "12" class = "elTypeBkgnd"/>
	<image xlink:href = "../dgmTypeAny.gif" width = "10" height = "10" x = "57" y = "20"/>
	<polyline class = "connector" points = "67,24 97,24"/>
	<rect x = "97" y = "5" width = "193" height = "38" class = "attrGroup" rx = "5" ry = "5"/>
	<rect x = "102" y = "10" width = "50" height = "28" class = "element" rx = "5" ry = "5"/>
	<circle class = "nodeStyle" cx = "108" cy = "16" r = "4"/>
	<text x = "113" y = "21" class = "elName">name</text>
	<rect x = "103" y = "11" width = "48" height = "26" class = "elTypeBkgnd" rx = "5" ry = "5" clip-path = "url(#e:attribute/a:name)"/>
	<defs/>
	<clipPath id = "e:attribute/a:name">
		<rect x = "102" y = "25" width = "50" height = "12"/>
	</clipPath>
	<text x = "103" y = "33" class = "elType">string</text>
	<image xlink:href = "../dgmDtString.gif" width = "10" height = "10" x = "142" y = "20"/>
	<circle class = "occurs" cx = "238" cy = "24" r = "6"/>
	<text x = "235" y = "27" class = "occurLarge">D</text>
	<rect x = "244" y = "10" width = "41" height = "28" class = "element" rx = "5" ry = "5"/>
	<circle class = "nodeStyle" cx = "250" cy = "16" r = "4"/>
	<text x = "255" y = "21" class = "elName">trim</text>
	<rect x = "245" y = "11" width = "39" height = "26" class = "elTypeBkgnd" rx = "5" ry = "5" clip-path = "url(#e:attribute/a:trim)"/>
	<defs/>
	<clipPath id = "e:attribute/a:trim">
		<rect x = "244" y = "25" width = "41" height = "12"/>
	</clipPath>
	<image xlink:href = "../dgmDtString.gif" width = "10" height = "10" x = "275" y = "20"/>
	<circle class = "occurs" cx = "163" cy = "24" r = "6"/>
	<text x = "160" y = "27" class = "occurLarge">D</text>
	<rect x = "169" y = "10" width = "58" height = "28" class = "element" rx = "5" ry = "5"/>
	<circle class = "nodeStyle" cx = "175" cy = "16" r = "4"/>
	<text x = "180" y = "21" class = "elName">replace</text>
	<rect x = "170" y = "11" width = "56" height = "26" class = "elTypeBkgnd" rx = "5" ry = "5" clip-path = "url(#e:attribute/a:replace)"/>
	<defs/>
	<clipPath id = "e:attribute/a:replace">
		<rect x = "169" y = "25" width = "58" height = "12"/>
	</clipPath>
	<image xlink:href = "../dgmDtString.gif" width = "10" height = "10" x = "217" y = "20"/>
</svg>