<?xml version = "1.0"?>
<!DOCTYPE svg PUBLIC "-//W3C//DTD SVG 20010904//EN" "http://www.w3.org/TR/2001/REC-SVG-20010904/DTD/svg10.dtd">
<svg width = "297pt" height = "48pt" viewBox = "0 0 297 48" xmlns = "http://www.w3.org/2000/svg" xmlns:xlink = "http://www.w3.org/1999/xlink">
	<defs>
		<style type = "text/css"><![CDATA[
rect.attrGroup { fill: ivory ; stroke: black; stroke-width: 1 }
rect.element { fill: ivory ; stroke: black; stroke-width: 1 }
rect.elTypeBkgnd { fill: lightgray ; stroke: none }
text.elName { font-family: helvetica ; font-size : 10 }
text.elType { font-family: helvetica ; font-size : 7 }
text.occurLarge { font-family: helvetica ; font-size : 9; fill : blue }
text.occurSmall { font-family: helvetica ; font-size : 7; fill : blue }
rect.typeIconDark { fill : darkslategray }
circle.occurs { stroke : black ; stroke-width: 1; fill : white }
circle.ellipsis { fill : black }
path.typeIconDark { stroke : lightgray ; stroke-width: 1 }
path.connector { stroke : red ; stroke-width: 1 ; fill: none; }
path.modelGroup { stroke : black ; stroke-width: 1 ; fill: lightgray; }
polyline.connector { stroke : red ; stroke-width: 1 ; fill: none; }
.nodeStyle { fill : blue }
]]></style>
	</defs>
	<rect x = "5" y = "10" width = "41" height = "28" class = "element"/>
	<polygon class = "nodeStyle" points = "11,12 7,16 11,20 15,16"/>
	<text x = "16" y = "21" class = "elName">role</text>
	<rect x = "6" y = "25" width = "39" height = "12" class = "elTypeBkgnd"/>
	<image xlink:href = "../dgmTypeEmpty.gif" width = "10" height = "10" x = "36" y = "20"/>
	<polyline class = "connector" points = "46,24 76,24"/>
	<rect x = "76" y = "5" width = "216" height = "38" class = "attrGroup" rx = "5" ry = "5"/>
	<rect x = "81" y = "10" width = "44" height = "28" class = "element" rx = "5" ry = "5"/>
	<circle class = "nodeStyle" cx = "87" cy = "16" r = "4"/>
	<text x = "92" y = "21" class = "elName">read</text>
	<rect x = "82" y = "11" width = "42" height = "26" class = "elTypeBkgnd" rx = "5" ry = "5" clip-path = "url(#e:role/a:read)"/>
	<defs/>
	<clipPath id = "e:role/a:read">
		<rect x = "81" y = "25" width = "44" height = "12"/>
	</clipPath>
	<image xlink:href = "../dgmDtString.gif" width = "10" height = "10" x = "115" y = "20"/>
	<rect x = "187" y = "10" width = "45" height = "28" class = "element" rx = "5" ry = "5"/>
	<circle class = "nodeStyle" cx = "193" cy = "16" r = "4"/>
	<text x = "198" y = "21" class = "elName">write</text>
	<rect x = "188" y = "11" width = "43" height = "26" class = "elTypeBkgnd" rx = "5" ry = "5" clip-path = "url(#e:role/a:write)"/>
	<defs/>
	<clipPath id = "e:role/a:write">
		<rect x = "187" y = "25" width = "45" height = "12"/>
	</clipPath>
	<image xlink:href = "../dgmDtString.gif" width = "10" height = "10" x = "222" y = "20"/>
	<rect x = "237" y = "10" width = "50" height = "28" class = "element" rx = "5" ry = "5"/>
	<circle class = "nodeStyle" cx = "243" cy = "16" r = "4"/>
	<text x = "248" y = "21" class = "elName">name</text>
	<rect x = "238" y = "11" width = "48" height = "26" class = "elTypeBkgnd" rx = "5" ry = "5" clip-path = "url(#e:role/a:name)"/>
	<defs/>
	<clipPath id = "e:role/a:name">
		<rect x = "237" y = "25" width = "50" height = "12"/>
	</clipPath>
	<text x = "238" y = "33" class = "elType">string</text>
	<image xlink:href = "../dgmDtString.gif" width = "10" height = "10" x = "277" y = "20"/>
	<rect x = "130" y = "10" width = "52" height = "28" class = "element" rx = "5" ry = "5"/>
	<circle class = "nodeStyle" cx = "136" cy = "16" r = "4"/>
	<text x = "141" y = "21" class = "elName">create</text>
	<rect x = "131" y = "11" width = "50" height = "26" class = "elTypeBkgnd" rx = "5" ry = "5" clip-path = "url(#e:role/a:create)"/>
	<defs/>
	<clipPath id = "e:role/a:create">
		<rect x = "130" y = "25" width = "52" height = "12"/>
	</clipPath>
	<image xlink:href = "../dgmDtString.gif" width = "10" height = "10" x = "172" y = "20"/>
</svg>