<?xml version = "1.0"?>
<!DOCTYPE svg PUBLIC "-//W3C//DTD SVG 20010904//EN" "http://www.w3.org/TR/2001/REC-SVG-20010904/DTD/svg10.dtd">
<svg width = "197pt" height = "108pt" viewBox = "0 0 197 108" xmlns = "http://www.w3.org/2000/svg" xmlns:xlink = "http://www.w3.org/1999/xlink">
	<defs>
		<style type = "text/css"><![CDATA[
rect.attrGroup { fill: ivory ; stroke: black; stroke-width: 1 }
rect.element { fill: ivory ; stroke: black; stroke-width: 1 }
rect.elTypeBkgnd { fill: lightgray ; stroke: none }
text.elName { font-family: helvetica ; font-size : 10 }
text.elType { font-family: helvetica ; font-size : 7 }
text.occurLarge { font-family: helvetica ; font-size : 9; fill : blue }
text.occurSmall { font-family: helvetica ; font-size : 7; fill : blue }
rect.typeIconDark { fill : darkslategray }
circle.occurs { stroke : black ; stroke-width: 1; fill : white }
circle.ellipsis { fill : black }
path.typeIconDark { stroke : lightgray ; stroke-width: 1 }
path.connector { stroke : red ; stroke-width: 1 ; fill: none; }
path.modelGroup { stroke : black ; stroke-width: 1 ; fill: lightgray; }
polyline.connector { stroke : red ; stroke-width: 1 ; fill: none; }
.nodeStyle { fill : blue }
]]></style>
	</defs>
	<rect x = "5" y = "40" width = "71" height = "28" class = "element"/>
	<polygon class = "nodeStyle" points = "11,42 7,46 11,50 15,46"/>
	<text x = "16" y = "51" class = "elName">parameter</text>
	<rect x = "6" y = "55" width = "69" height = "12" class = "elTypeBkgnd"/>
	<image xlink:href = "../dgmTypeComplex.gif" width = "10" height = "10" x = "66" y = "50"/>
	<polyline class = "connector" points = "106,19 86,19 86,54 76,54 86,54 86,89 106,89"/>
	<circle class = "occurs" cx = "112" cy = "19" r = "6"/>
	<text x = "109" y = "22" class = "occurLarge">?</text>
	<rect x = "118" y = "5" width = "74" height = "28" class = "element"/>
	<polygon class = "nodeStyle" points = "124,7 120,11 124,15 128,11"/>
	<text x = "129" y = "16" class = "elName">description</text>
	<rect x = "119" y = "20" width = "72" height = "12" class = "elTypeBkgnd"/>
	<image xlink:href = "../dgmDtString.gif" width = "10" height = "10" x = "182" y = "15"/>
	<rect x = "118" y = "40" width = "50" height = "28" class = "element"/>
	<polygon class = "nodeStyle" points = "124,42 120,46 124,50 128,46"/>
	<text x = "129" y = "51" class = "elName">name</text>
	<rect x = "119" y = "55" width = "48" height = "12" class = "elTypeBkgnd"/>
	<image xlink:href = "../dgmDtString.gif" width = "10" height = "10" x = "158" y = "50"/>
	<polyline class = "connector" points = "106,89 118,89"/>
	<rect x = "118" y = "75" width = "43" height = "28" class = "element"/>
	<polygon class = "nodeStyle" points = "124,77 120,81 124,85 128,81"/>
	<text x = "129" y = "86" class = "elName">type</text>
	<rect x = "119" y = "90" width = "41" height = "12" class = "elTypeBkgnd"/>
	<image xlink:href = "../dgmDtString.gif" width = "10" height = "10" x = "151" y = "85"/>
</svg>