<?xml version = "1.0"?>
<!DOCTYPE svg PUBLIC "-//W3C//DTD SVG 20010904//EN" "http://www.w3.org/TR/2001/REC-SVG-20010904/DTD/svg10.dtd">
<svg width = "188pt" height = "73pt" viewBox = "0 0 188 73" xmlns = "http://www.w3.org/2000/svg" xmlns:xlink = "http://www.w3.org/1999/xlink">
	<defs>
		<style type = "text/css"><![CDATA[
rect.attrGroup { fill: ivory ; stroke: black; stroke-width: 1 }
rect.element { fill: ivory ; stroke: black; stroke-width: 1 }
rect.elTypeBkgnd { fill: lightgray ; stroke: none }
text.elName { font-family: helvetica ; font-size : 10 }
text.elType { font-family: helvetica ; font-size : 7 }
text.occurLarge { font-family: helvetica ; font-size : 9; fill : blue }
text.occurSmall { font-family: helvetica ; font-size : 7; fill : blue }
rect.typeIconDark { fill : darkslategray }
circle.occurs { stroke : black ; stroke-width: 1; fill : white }
circle.ellipsis { fill : black }
path.typeIconDark { stroke : lightgray ; stroke-width: 1 }
path.connector { stroke : red ; stroke-width: 1 ; fill: none; }
path.modelGroup { stroke : black ; stroke-width: 1 ; fill: lightgray; }
polyline.connector { stroke : red ; stroke-width: 1 ; fill: none; }
.nodeStyle { fill : blue }
]]></style>
	</defs>
	<rect x = "5" y = "22" width = "53" height = "28" class = "element"/>
	<polygon class = "nodeStyle" points = "11,24 7,28 11,32 15,28"/>
	<text x = "16" y = "33" class = "elName">ejb-ref</text>
	<rect x = "6" y = "37" width = "51" height = "12" class = "elTypeBkgnd"/>
	<image xlink:href = "../dgmTypeComplex.gif" width = "10" height = "10" x = "48" y = "32"/>
	<polyline class = "connector" points = "88,19 68,19 68,36 58,36 68,36 68,54 88,54"/>
	<polyline class = "connector" points = "88,19 100,19"/>
	<rect x = "100" y = "5" width = "83" height = "28" class = "element"/>
	<polygon class = "nodeStyle" points = "106,7 102,11 106,15 110,11"/>
	<text x = "111" y = "16" class = "elName">ejb-ref-name</text>
	<rect x = "101" y = "20" width = "81" height = "12" class = "elTypeBkgnd"/>
	<image xlink:href = "../dgmDtString.gif" width = "10" height = "10" x = "173" y = "15"/>
	<polyline class = "connector" points = "88,54 100,54"/>
	<rect x = "100" y = "40" width = "71" height = "28" class = "element"/>
	<polygon class = "nodeStyle" points = "106,42 102,46 106,50 110,46"/>
	<text x = "111" y = "51" class = "elName">jndi-name</text>
	<rect x = "101" y = "55" width = "69" height = "12" class = "elTypeBkgnd"/>
	<image xlink:href = "../dgmDtString.gif" width = "10" height = "10" x = "161" y = "50"/>
</svg>