<?xml version = "1.0"?>
<!DOCTYPE svg PUBLIC "-//W3C//DTD SVG 20010904//EN" "http://www.w3.org/TR/2001/REC-SVG-20010904/DTD/svg10.dtd">
<svg width = "229pt" height = "73pt" viewBox = "0 0 229 73" xmlns = "http://www.w3.org/2000/svg" xmlns:xlink = "http://www.w3.org/1999/xlink">
	<defs>
		<style type = "text/css"><![CDATA[
rect.attrGroup { fill: ivory ; stroke: black; stroke-width: 1 }
rect.element { fill: ivory ; stroke: black; stroke-width: 1 }
rect.elTypeBkgnd { fill: lightgray ; stroke: none }
text.elName { font-family: helvetica ; font-size : 10 }
text.elType { font-family: helvetica ; font-size : 7 }
text.occurLarge { font-family: helvetica ; font-size : 9; fill : blue }
text.occurSmall { font-family: helvetica ; font-size : 7; fill : blue }
rect.typeIconDark { fill : darkslategray }
circle.occurs { stroke : black ; stroke-width: 1; fill : white }
circle.ellipsis { fill : black }
path.typeIconDark { stroke : lightgray ; stroke-width: 1 }
path.connector { stroke : red ; stroke-width: 1 ; fill: none; }
path.modelGroup { stroke : black ; stroke-width: 1 ; fill: lightgray; }
polyline.connector { stroke : red ; stroke-width: 1 ; fill: none; }
.nodeStyle { fill : blue }
]]></style>
	</defs>
	<rect x = "5" y = "22" width = "107" height = "28" class = "element"/>
	<polygon class = "nodeStyle" points = "11,24 7,28 11,32 15,28"/>
	<text x = "16" y = "33" class = "elName">feeder-policy-conf</text>
	<rect x = "6" y = "37" width = "105" height = "12" class = "elTypeBkgnd"/>
	<image xlink:href = "../dgmTypeComplex.gif" width = "10" height = "10" x = "102" y = "32"/>
	<polyline class = "connector" points = "142,19 122,19 122,36 112,36 122,36 122,54 142,54"/>
	<polyline class = "connector" points = "142,19 154,19"/>
	<rect x = "154" y = "5" width = "70" height = "28" class = "element"/>
	<polygon class = "nodeStyle" points = "160,7 156,11 160,15 164,11"/>
	<text x = "165" y = "16" class = "elName">increment</text>
	<rect x = "155" y = "20" width = "68" height = "12" class = "elTypeBkgnd"/>
	<image xlink:href = "../dgmDtString.gif" width = "10" height = "10" x = "214" y = "15"/>
	<polyline class = "connector" points = "142,54 154,54"/>
	<rect x = "154" y = "40" width = "53" height = "28" class = "element"/>
	<polygon class = "nodeStyle" points = "160,42 156,46 160,50 164,46"/>
	<text x = "165" y = "51" class = "elName">period</text>
	<rect x = "155" y = "55" width = "51" height = "12" class = "elTypeBkgnd"/>
	<image xlink:href = "../dgmDtString.gif" width = "10" height = "10" x = "197" y = "50"/>
</svg>