<?xml version = "1.0"?>
<!DOCTYPE svg PUBLIC "-//W3C//DTD SVG 20010904//EN" "http://www.w3.org/TR/2001/REC-SVG-20010904/DTD/svg10.dtd">
<svg width = "256pt" height = "108pt" viewBox = "0 0 256 108" xmlns = "http://www.w3.org/2000/svg" xmlns:xlink = "http://www.w3.org/1999/xlink">
	<defs>
		<style type = "text/css"><![CDATA[
rect.attrGroup { fill: ivory ; stroke: black; stroke-width: 1 }
rect.element { fill: ivory ; stroke: black; stroke-width: 1 }
rect.elTypeBkgnd { fill: lightgray ; stroke: none }
text.elName { font-family: helvetica ; font-size : 10 }
text.elType { font-family: helvetica ; font-size : 7 }
text.occurLarge { font-family: helvetica ; font-size : 9; fill : blue }
text.occurSmall { font-family: helvetica ; font-size : 7; fill : blue }
rect.typeIconDark { fill : darkslategray }
circle.occurs { stroke : black ; stroke-width: 1; fill : white }
circle.ellipsis { fill : black }
path.typeIconDark { stroke : lightgray ; stroke-width: 1 }
path.connector { stroke : red ; stroke-width: 1 ; fill: none; }
path.modelGroup { stroke : black ; stroke-width: 1 ; fill: lightgray; }
polyline.connector { stroke : red ; stroke-width: 1 ; fill: none; }
.nodeStyle { fill : blue }
]]></style>
	</defs>
	<rect x = "5" y = "40" width = "75" height = "28" class = "element"/>
	<polygon class = "nodeStyle" points = "11,42 7,46 11,50 15,46"/>
	<text x = "16" y = "51" class = "elName">DLQConfig</text>
	<rect x = "6" y = "55" width = "73" height = "12" class = "elTypeBkgnd"/>
	<image xlink:href = "../dgmTypeComplex.gif" width = "10" height = "10" x = "70" y = "50"/>
	<polyline class = "connector" points = "110,19 90,19 90,54 80,54 90,54 90,89 110,89"/>
	<polyline class = "connector" points = "110,19 122,19"/>
	<rect x = "122" y = "5" width = "108" height = "28" class = "element"/>
	<polygon class = "nodeStyle" points = "128,7 124,11 128,15 132,11"/>
	<text x = "133" y = "16" class = "elName">DestinationQueue</text>
	<rect x = "123" y = "20" width = "106" height = "12" class = "elTypeBkgnd"/>
	<image xlink:href = "../dgmDtString.gif" width = "10" height = "10" x = "220" y = "15"/>
	<rect x = "122" y = "40" width = "129" height = "28" class = "element"/>
	<polygon class = "nodeStyle" points = "128,42 124,46 128,50 132,46"/>
	<text x = "133" y = "51" class = "elName">MaxTimesRedelivered</text>
	<rect x = "123" y = "55" width = "127" height = "12" class = "elTypeBkgnd"/>
	<image xlink:href = "../dgmDtString.gif" width = "10" height = "10" x = "241" y = "50"/>
	<polyline class = "connector" points = "110,89 122,89"/>
	<rect x = "122" y = "75" width = "81" height = "28" class = "element"/>
	<polygon class = "nodeStyle" points = "128,77 124,81 128,85 132,81"/>
	<text x = "133" y = "86" class = "elName">TimeToLive</text>
	<rect x = "123" y = "90" width = "79" height = "12" class = "elTypeBkgnd"/>
	<image xlink:href = "../dgmDtString.gif" width = "10" height = "10" x = "193" y = "85"/>
</svg>