<?xml version = "1.0"?>
<!DOCTYPE svg PUBLIC "-//W3C//DTD SVG 20010904//EN" "http://www.w3.org/TR/2001/REC-SVG-20010904/DTD/svg10.dtd">
<svg width = "223pt" height = "493pt" viewBox = "0 0 223 493" xmlns = "http://www.w3.org/2000/svg" xmlns:xlink = "http://www.w3.org/1999/xlink">
	<defs>
		<style type = "text/css"><![CDATA[
rect.attrGroup { fill: ivory ; stroke: black; stroke-width: 1 }
rect.element { fill: ivory ; stroke: black; stroke-width: 1 }
rect.elTypeBkgnd { fill: lightgray ; stroke: none }
text.elName { font-family: helvetica ; font-size : 10 }
text.elType { font-family: helvetica ; font-size : 7 }
text.occurLarge { font-family: helvetica ; font-size : 9; fill : blue }
text.occurSmall { font-family: helvetica ; font-size : 7; fill : blue }
rect.typeIconDark { fill : darkslategray }
circle.occurs { stroke : black ; stroke-width: 1; fill : white }
circle.ellipsis { fill : black }
path.typeIconDark { stroke : lightgray ; stroke-width: 1 }
path.connector { stroke : red ; stroke-width: 1 ; fill: none; }
path.modelGroup { stroke : black ; stroke-width: 1 ; fill: lightgray; }
polyline.connector { stroke : red ; stroke-width: 1 ; fill: none; }
.nodeStyle { fill : blue }
]]></style>
	</defs>
	<rect x = "5" y = "232" width = "56" height = "28" class = "element"/>
	<polygon class = "nodeStyle" points = "11,234 7,238 11,242 15,238"/>
	<text x = "16" y = "243" class = "elName">session</text>
	<rect x = "6" y = "247" width = "54" height = "12" class = "elTypeBkgnd"/>
	<image xlink:href = "../dgmTypeComplex.gif" width = "10" height = "10" x = "51" y = "242"/>
	<polyline class = "connector" points = "91,19 71,19 71,246 61,246 71,246 71,474 91,474"/>
	<polyline class = "connector" points = "91,19 103,19"/>
	<rect x = "103" y = "5" width = "68" height = "28" class = "element"/>
	<polygon class = "nodeStyle" points = "109,7 105,11 109,15 113,11"/>
	<text x = "114" y = "16" class = "elName">ejb-name</text>
	<rect x = "104" y = "20" width = "66" height = "12" class = "elTypeBkgnd"/>
	<image xlink:href = "../dgmDtString.gif" width = "10" height = "10" x = "161" y = "15"/>
	<circle class = "occurs" cx = "97" cy = "54" r = "6"/>
	<text x = "94" y = "57" class = "occurLarge">?</text>
	<rect x = "103" y = "40" width = "71" height = "28" class = "element"/>
	<polygon class = "nodeStyle" points = "109,42 105,46 109,50 113,46"/>
	<text x = "114" y = "51" class = "elName">jndi-name</text>
	<rect x = "104" y = "55" width = "69" height = "12" class = "elTypeBkgnd"/>
	<image xlink:href = "../dgmDtString.gif" width = "10" height = "10" x = "164" y = "50"/>
	<circle class = "occurs" cx = "97" cy = "89" r = "6"/>
	<text x = "94" y = "92" class = "occurLarge">?</text>
	<rect x = "103" y = "75" width = "97" height = "28" class = "element"/>
	<polygon class = "nodeStyle" points = "109,77 105,81 109,85 113,81"/>
	<text x = "114" y = "86" class = "elName">local-jndi-name</text>
	<rect x = "104" y = "90" width = "95" height = "12" class = "elTypeBkgnd"/>
	<image xlink:href = "../dgmDtString.gif" width = "10" height = "10" x = "190" y = "85"/>
	<circle class = "occurs" cx = "97" cy = "124" r = "6"/>
	<text x = "94" y = "127" class = "occurLarge">?</text>
	<rect x = "103" y = "110" width = "86" height = "28" class = "element"/>
	<polygon class = "nodeStyle" points = "109,112 105,116 109,120 113,116"/>
	<text x = "114" y = "121" class = "elName">home-invoker</text>
	<rect x = "104" y = "125" width = "84" height = "12" class = "elTypeBkgnd"/>
	<image xlink:href = "../dgmDtString.gif" width = "10" height = "10" x = "179" y = "120"/>
	<circle class = "occurs" cx = "97" cy = "159" r = "6"/>
	<text x = "94" y = "162" class = "occurLarge">?</text>
	<rect x = "103" y = "145" width = "83" height = "28" class = "element"/>
	<polygon class = "nodeStyle" points = "109,147 105,151 109,155 113,151"/>
	<text x = "114" y = "156" class = "elName">bean-invoker</text>
	<rect x = "104" y = "160" width = "81" height = "12" class = "elTypeBkgnd"/>
	<image xlink:href = "../dgmDtString.gif" width = "10" height = "10" x = "176" y = "155"/>
	<circle class = "occurs" cx = "97" cy = "194" r = "6"/>
	<text x = "94" y = "197" class = "occurLarge">?</text>
	<rect x = "103" y = "180" width = "115" height = "28" class = "element"/>
	<polygon class = "nodeStyle" points = "109,182 105,186 109,190 113,186"/>
	<text x = "114" y = "191" class = "elName">configuration-name</text>
	<rect x = "104" y = "195" width = "113" height = "12" class = "elTypeBkgnd"/>
	<image xlink:href = "../dgmDtString.gif" width = "10" height = "10" x = "208" y = "190"/>
	<circle class = "occurs" cx = "97" cy = "229" r = "6"/>
	<text x = "94" y = "232" class = "occurLarge">?</text>
	<rect x = "103" y = "215" width = "86" height = "28" class = "element"/>
	<polygon class = "nodeStyle" points = "109,217 105,221 109,225 113,221"/>
	<text x = "114" y = "226" class = "elName">security-proxy</text>
	<rect x = "104" y = "230" width = "84" height = "12" class = "elTypeBkgnd"/>
	<image xlink:href = "../dgmDtString.gif" width = "10" height = "10" x = "179" y = "225"/>
	<circle class = "occurs" cx = "97" cy = "264" r = "6"/>
	<text x = "94" y = "267" class = "occurLarge">*</text>
	<rect x = "103" y = "250" width = "53" height = "28" class = "element"/>
	<polygon class = "nodeStyle" points = "109,252 105,256 109,260 113,256"/>
	<text x = "114" y = "261" class = "elName">ejb-ref</text>
	<rect x = "104" y = "265" width = "51" height = "12" class = "elTypeBkgnd"/>
	<image xlink:href = "../dgmTypeComplex.gif" width = "10" height = "10" x = "146" y = "260"/>
	<circle class = "occurs" cx = "97" cy = "299" r = "6"/>
	<text x = "94" y = "302" class = "occurLarge">*</text>
	<rect x = "103" y = "285" width = "77" height = "28" class = "element"/>
	<polygon class = "nodeStyle" points = "109,287 105,291 109,295 113,291"/>
	<text x = "114" y = "296" class = "elName">resource-ref</text>
	<rect x = "104" y = "300" width = "75" height = "12" class = "elTypeBkgnd"/>
	<image xlink:href = "../dgmTypeComplex.gif" width = "10" height = "10" x = "170" y = "295"/>
	<circle class = "occurs" cx = "97" cy = "334" r = "6"/>
	<text x = "94" y = "337" class = "occurLarge">*</text>
	<rect x = "103" y = "320" width = "97" height = "28" class = "element"/>
	<polygon class = "nodeStyle" points = "109,322 105,326 109,330 113,326"/>
	<text x = "114" y = "331" class = "elName">resource-env-ref</text>
	<rect x = "104" y = "335" width = "95" height = "12" class = "elTypeBkgnd"/>
	<image xlink:href = "../dgmTypeComplex.gif" width = "10" height = "10" x = "190" y = "330"/>
	<circle class = "occurs" cx = "97" cy = "369" r = "6"/>
	<text x = "94" y = "372" class = "occurLarge">?</text>
	<rect x = "103" y = "355" width = "65" height = "28" class = "element"/>
	<polygon class = "nodeStyle" points = "109,357 105,361 109,365 113,361"/>
	<text x = "114" y = "366" class = "elName">clustered</text>
	<rect x = "104" y = "370" width = "63" height = "12" class = "elTypeBkgnd"/>
	<image xlink:href = "../dgmDtString.gif" width = "10" height = "10" x = "158" y = "365"/>
	<circle class = "occurs" cx = "97" cy = "404" r = "6"/>
	<text x = "94" y = "407" class = "occurLarge">?</text>
	<rect x = "103" y = "390" width = "85" height = "28" class = "element"/>
	<polygon class = "nodeStyle" points = "109,392 105,396 109,400 113,396"/>
	<text x = "114" y = "401" class = "elName">cluster-config</text>
	<rect x = "104" y = "405" width = "83" height = "12" class = "elTypeBkgnd"/>
	<image xlink:href = "../dgmTypeComplex.gif" width = "10" height = "10" x = "178" y = "400"/>
	<circle class = "occurs" cx = "97" cy = "439" r = "6"/>
	<text x = "94" y = "442" class = "occurLarge">?</text>
	<rect x = "103" y = "425" width = "105" height = "28" class = "element"/>
	<polygon class = "nodeStyle" points = "109,427 105,431 109,435 113,431"/>
	<text x = "114" y = "436" class = "elName">method-attributes</text>
	<rect x = "104" y = "440" width = "103" height = "12" class = "elTypeBkgnd"/>
	<image xlink:href = "../dgmTypeComplex.gif" width = "10" height = "10" x = "198" y = "435"/>
	<circle class = "occurs" cx = "97" cy = "474" r = "6"/>
	<text x = "94" y = "477" class = "occurLarge">*</text>
	<rect x = "103" y = "460" width = "63" height = "28" class = "element"/>
	<polygon class = "nodeStyle" points = "109,462 105,466 109,470 113,466"/>
	<text x = "114" y = "471" class = "elName">depends</text>
	<rect x = "104" y = "475" width = "61" height = "12" class = "elTypeBkgnd"/>
	<image xlink:href = "../dgmDtString.gif" width = "10" height = "10" x = "156" y = "470"/>
</svg>