<?xml version = "1.0"?>
<!DOCTYPE svg PUBLIC "-//W3C//DTD SVG 20010904//EN" "http://www.w3.org/TR/2001/REC-SVG-20010904/DTD/svg10.dtd">
<svg width = "208pt" height = "73pt" viewBox = "0 0 208 73" xmlns = "http://www.w3.org/2000/svg" xmlns:xlink = "http://www.w3.org/1999/xlink">
	<defs>
		<style type = "text/css"><![CDATA[
rect.attrGroup { fill: ivory ; stroke: black; stroke-width: 1 }
rect.element { fill: ivory ; stroke: black; stroke-width: 1 }
rect.elTypeBkgnd { fill: lightgray ; stroke: none }
text.elName { font-family: helvetica ; font-size : 10 }
text.elType { font-family: helvetica ; font-size : 7 }
text.occurLarge { font-family: helvetica ; font-size : 9; fill : blue }
text.occurSmall { font-family: helvetica ; font-size : 7; fill : blue }
rect.typeIconDark { fill : darkslategray }
circle.occurs { stroke : black ; stroke-width: 1; fill : white }
circle.ellipsis { fill : black }
path.typeIconDark { stroke : lightgray ; stroke-width: 1 }
path.connector { stroke : red ; stroke-width: 1 ; fill: none; }
path.modelGroup { stroke : black ; stroke-width: 1 ; fill: lightgray; }
polyline.connector { stroke : red ; stroke-width: 1 ; fill: none; }
.nodeStyle { fill : blue }
]]></style>
	</defs>
	<rect x = "5" y = "22" width = "106" height = "28" class = "element"/>
	<polygon class = "nodeStyle" points = "11,24 7,28 11,32 15,28"/>
	<text x = "16" y = "33" class = "elName">client-interceptors</text>
	<rect x = "6" y = "37" width = "104" height = "12" class = "elTypeBkgnd"/>
	<image xlink:href = "../dgmTypeComplex.gif" width = "10" height = "10" x = "101" y = "32"/>
	<polyline class = "connector" points = "141,19 121,19 121,36 111,36 121,36 121,54 141,54"/>
	<polyline class = "connector" points = "141,19 153,19"/>
	<rect x = "153" y = "5" width = "50" height = "28" class = "element"/>
	<polygon class = "nodeStyle" points = "159,7 155,11 159,15 163,11"/>
	<text x = "164" y = "16" class = "elName">home</text>
	<rect x = "154" y = "20" width = "48" height = "12" class = "elTypeBkgnd"/>
	<image xlink:href = "../dgmTypeComplex.gif" width = "10" height = "10" x = "193" y = "15"/>
	<polyline class = "connector" points = "141,54 153,54"/>
	<rect x = "153" y = "40" width = "47" height = "28" class = "element"/>
	<polygon class = "nodeStyle" points = "159,42 155,46 159,50 163,46"/>
	<text x = "164" y = "51" class = "elName">bean</text>
	<rect x = "154" y = "55" width = "45" height = "12" class = "elTypeBkgnd"/>
	<image xlink:href = "../dgmTypeComplex.gif" width = "10" height = "10" x = "190" y = "50"/>
</svg>