<?xml version = "1.0"?>
<!DOCTYPE svg PUBLIC "-//W3C//DTD SVG 20010904//EN" "http://www.w3.org/TR/2001/REC-SVG-20010904/DTD/svg10.dtd">
<svg width = "216pt" height = "528pt" viewBox = "0 0 216 528" xmlns = "http://www.w3.org/2000/svg" xmlns:xlink = "http://www.w3.org/1999/xlink">
	<defs>
		<style type = "text/css"><![CDATA[
rect.attrGroup { fill: ivory ; stroke: black; stroke-width: 1 }
rect.element { fill: ivory ; stroke: black; stroke-width: 1 }
rect.elTypeBkgnd { fill: lightgray ; stroke: none }
text.elName { font-family: helvetica ; font-size : 10 }
text.elType { font-family: helvetica ; font-size : 7 }
text.occurLarge { font-family: helvetica ; font-size : 9; fill : blue }
text.occurSmall { font-family: helvetica ; font-size : 7; fill : blue }
rect.typeIconDark { fill : darkslategray }
circle.occurs { stroke : black ; stroke-width: 1; fill : white }
circle.ellipsis { fill : black }
path.typeIconDark { stroke : lightgray ; stroke-width: 1 }
path.connector { stroke : red ; stroke-width: 1 ; fill: none; }
path.modelGroup { stroke : black ; stroke-width: 1 ; fill: lightgray; }
polyline.connector { stroke : red ; stroke-width: 1 ; fill: none; }
.nodeStyle { fill : blue }
]]></style>
	</defs>
	<rect x = "5" y = "250" width = "49" height = "28" class = "element"/>
	<polygon class = "nodeStyle" points = "11,252 7,256 11,260 15,256"/>
	<text x = "16" y = "261" class = "elName">entity</text>
	<rect x = "6" y = "265" width = "47" height = "12" class = "elTypeBkgnd"/>
	<image xlink:href = "../dgmTypeComplex.gif" width = "10" height = "10" x = "44" y = "260"/>
	<polyline class = "connector" points = "84,19 64,19 64,264 54,264 64,264 64,509 84,509"/>
	<polyline class = "connector" points = "84,19 96,19"/>
	<rect x = "96" y = "5" width = "68" height = "28" class = "element"/>
	<polygon class = "nodeStyle" points = "102,7 98,11 102,15 106,11"/>
	<text x = "107" y = "16" class = "elName">ejb-name</text>
	<rect x = "97" y = "20" width = "66" height = "12" class = "elTypeBkgnd"/>
	<image xlink:href = "../dgmDtString.gif" width = "10" height = "10" x = "154" y = "15"/>
	<circle class = "occurs" cx = "90" cy = "54" r = "6"/>
	<text x = "87" y = "57" class = "occurLarge">?</text>
	<rect x = "96" y = "40" width = "71" height = "28" class = "element"/>
	<polygon class = "nodeStyle" points = "102,42 98,46 102,50 106,46"/>
	<text x = "107" y = "51" class = "elName">jndi-name</text>
	<rect x = "97" y = "55" width = "69" height = "12" class = "elTypeBkgnd"/>
	<image xlink:href = "../dgmDtString.gif" width = "10" height = "10" x = "157" y = "50"/>
	<circle class = "occurs" cx = "90" cy = "89" r = "6"/>
	<text x = "87" y = "92" class = "occurLarge">?</text>
	<rect x = "96" y = "75" width = "97" height = "28" class = "element"/>
	<polygon class = "nodeStyle" points = "102,77 98,81 102,85 106,81"/>
	<text x = "107" y = "86" class = "elName">local-jndi-name</text>
	<rect x = "97" y = "90" width = "95" height = "12" class = "elTypeBkgnd"/>
	<image xlink:href = "../dgmDtString.gif" width = "10" height = "10" x = "183" y = "85"/>
	<circle class = "occurs" cx = "90" cy = "124" r = "6"/>
	<text x = "87" y = "127" class = "occurLarge">?</text>
	<rect x = "96" y = "110" width = "67" height = "28" class = "element"/>
	<polygon class = "nodeStyle" points = "102,112 98,116 102,120 106,116"/>
	<text x = "107" y = "121" class = "elName">read-only</text>
	<rect x = "97" y = "125" width = "65" height = "12" class = "elTypeBkgnd"/>
	<image xlink:href = "../dgmDtString.gif" width = "10" height = "10" x = "153" y = "120"/>
	<circle class = "occurs" cx = "90" cy = "159" r = "6"/>
	<text x = "87" y = "162" class = "occurLarge">?</text>
	<rect x = "96" y = "145" width = "86" height = "28" class = "element"/>
	<polygon class = "nodeStyle" points = "102,147 98,151 102,155 106,151"/>
	<text x = "107" y = "156" class = "elName">home-invoker</text>
	<rect x = "97" y = "160" width = "84" height = "12" class = "elTypeBkgnd"/>
	<image xlink:href = "../dgmDtString.gif" width = "10" height = "10" x = "172" y = "155"/>
	<circle class = "occurs" cx = "90" cy = "194" r = "6"/>
	<text x = "87" y = "197" class = "occurLarge">?</text>
	<rect x = "96" y = "180" width = "83" height = "28" class = "element"/>
	<polygon class = "nodeStyle" points = "102,182 98,186 102,190 106,186"/>
	<text x = "107" y = "191" class = "elName">bean-invoker</text>
	<rect x = "97" y = "195" width = "81" height = "12" class = "elTypeBkgnd"/>
	<image xlink:href = "../dgmDtString.gif" width = "10" height = "10" x = "169" y = "190"/>
	<circle class = "occurs" cx = "90" cy = "229" r = "6"/>
	<text x = "87" y = "232" class = "occurLarge">?</text>
	<rect x = "96" y = "215" width = "115" height = "28" class = "element"/>
	<polygon class = "nodeStyle" points = "102,217 98,221 102,225 106,221"/>
	<text x = "107" y = "226" class = "elName">configuration-name</text>
	<rect x = "97" y = "230" width = "113" height = "12" class = "elTypeBkgnd"/>
	<image xlink:href = "../dgmDtString.gif" width = "10" height = "10" x = "201" y = "225"/>
	<circle class = "occurs" cx = "90" cy = "264" r = "6"/>
	<text x = "87" y = "267" class = "occurLarge">?</text>
	<rect x = "96" y = "250" width = "86" height = "28" class = "element"/>
	<polygon class = "nodeStyle" points = "102,252 98,256 102,260 106,256"/>
	<text x = "107" y = "261" class = "elName">security-proxy</text>
	<rect x = "97" y = "265" width = "84" height = "12" class = "elTypeBkgnd"/>
	<image xlink:href = "../dgmDtString.gif" width = "10" height = "10" x = "172" y = "260"/>
	<circle class = "occurs" cx = "90" cy = "299" r = "6"/>
	<text x = "87" y = "302" class = "occurLarge">*</text>
	<rect x = "96" y = "285" width = "53" height = "28" class = "element"/>
	<polygon class = "nodeStyle" points = "102,287 98,291 102,295 106,291"/>
	<text x = "107" y = "296" class = "elName">ejb-ref</text>
	<rect x = "97" y = "300" width = "51" height = "12" class = "elTypeBkgnd"/>
	<image xlink:href = "../dgmTypeComplex.gif" width = "10" height = "10" x = "139" y = "295"/>
	<circle class = "occurs" cx = "90" cy = "334" r = "6"/>
	<text x = "87" y = "337" class = "occurLarge">*</text>
	<rect x = "96" y = "320" width = "77" height = "28" class = "element"/>
	<polygon class = "nodeStyle" points = "102,322 98,326 102,330 106,326"/>
	<text x = "107" y = "331" class = "elName">resource-ref</text>
	<rect x = "97" y = "335" width = "75" height = "12" class = "elTypeBkgnd"/>
	<image xlink:href = "../dgmTypeComplex.gif" width = "10" height = "10" x = "163" y = "330"/>
	<circle class = "occurs" cx = "90" cy = "369" r = "6"/>
	<text x = "87" y = "372" class = "occurLarge">*</text>
	<rect x = "96" y = "355" width = "97" height = "28" class = "element"/>
	<polygon class = "nodeStyle" points = "102,357 98,361 102,365 106,361"/>
	<text x = "107" y = "366" class = "elName">resource-env-ref</text>
	<rect x = "97" y = "370" width = "95" height = "12" class = "elTypeBkgnd"/>
	<image xlink:href = "../dgmTypeComplex.gif" width = "10" height = "10" x = "183" y = "365"/>
	<circle class = "occurs" cx = "90" cy = "404" r = "6"/>
	<text x = "87" y = "407" class = "occurLarge">?</text>
	<rect x = "96" y = "390" width = "65" height = "28" class = "element"/>
	<polygon class = "nodeStyle" points = "102,392 98,396 102,400 106,396"/>
	<text x = "107" y = "401" class = "elName">clustered</text>
	<rect x = "97" y = "405" width = "63" height = "12" class = "elTypeBkgnd"/>
	<image xlink:href = "../dgmDtString.gif" width = "10" height = "10" x = "151" y = "400"/>
	<circle class = "occurs" cx = "90" cy = "439" r = "6"/>
	<text x = "87" y = "442" class = "occurLarge">?</text>
	<rect x = "96" y = "425" width = "85" height = "28" class = "element"/>
	<polygon class = "nodeStyle" points = "102,427 98,431 102,435 106,431"/>
	<text x = "107" y = "436" class = "elName">cluster-config</text>
	<rect x = "97" y = "440" width = "83" height = "12" class = "elTypeBkgnd"/>
	<image xlink:href = "../dgmTypeComplex.gif" width = "10" height = "10" x = "171" y = "435"/>
	<circle class = "occurs" cx = "90" cy = "474" r = "6"/>
	<text x = "87" y = "477" class = "occurLarge">?</text>
	<rect x = "96" y = "460" width = "105" height = "28" class = "element"/>
	<polygon class = "nodeStyle" points = "102,462 98,466 102,470 106,466"/>
	<text x = "107" y = "471" class = "elName">method-attributes</text>
	<rect x = "97" y = "475" width = "103" height = "12" class = "elTypeBkgnd"/>
	<image xlink:href = "../dgmTypeComplex.gif" width = "10" height = "10" x = "191" y = "470"/>
	<circle class = "occurs" cx = "90" cy = "509" r = "6"/>
	<text x = "87" y = "512" class = "occurLarge">*</text>
	<rect x = "96" y = "495" width = "63" height = "28" class = "element"/>
	<polygon class = "nodeStyle" points = "102,497 98,501 102,505 106,501"/>
	<text x = "107" y = "506" class = "elName">depends</text>
	<rect x = "97" y = "510" width = "61" height = "12" class = "elTypeBkgnd"/>
	<image xlink:href = "../dgmDtString.gif" width = "10" height = "10" x = "149" y = "505"/>
</svg>