<?xml version = "1.0"?>
<!DOCTYPE svg PUBLIC "-//W3C//DTD SVG 20010904//EN" "http://www.w3.org/TR/2001/REC-SVG-20010904/DTD/svg10.dtd">
<svg width = "255pt" height = "73pt" viewBox = "0 0 255 73" xmlns = "http://www.w3.org/2000/svg" xmlns:xlink = "http://www.w3.org/1999/xlink">
	<defs>
		<style type = "text/css"><![CDATA[
rect.attrGroup { fill: ivory ; stroke: black; stroke-width: 1 }
rect.element { fill: ivory ; stroke: black; stroke-width: 1 }
rect.elTypeBkgnd { fill: lightgray ; stroke: none }
text.elName { font-family: helvetica ; font-size : 10 }
text.elType { font-family: helvetica ; font-size : 7 }
text.occurLarge { font-family: helvetica ; font-size : 9; fill : blue }
text.occurSmall { font-family: helvetica ; font-size : 7; fill : blue }
rect.typeIconDark { fill : darkslategray }
circle.occurs { stroke : black ; stroke-width: 1; fill : white }
circle.ellipsis { fill : black }
path.typeIconDark { stroke : lightgray ; stroke-width: 1 }
path.connector { stroke : red ; stroke-width: 1 ; fill: none; }
path.modelGroup { stroke : black ; stroke-width: 1 ; fill: lightgray; }
polyline.connector { stroke : red ; stroke-width: 1 ; fill: none; }
.nodeStyle { fill : blue }
]]></style>
	</defs>
	<rect x = "5" y = "22" width = "77" height = "28" class = "element"/>
	<polygon class = "nodeStyle" points = "11,24 7,28 11,32 15,28"/>
	<text x = "16" y = "33" class = "elName">MDBConfig</text>
	<rect x = "6" y = "37" width = "75" height = "12" class = "elTypeBkgnd"/>
	<image xlink:href = "../dgmTypeComplex.gif" width = "10" height = "10" x = "72" y = "32"/>
	<polyline class = "connector" points = "112,19 92,19 92,36 82,36 92,36 92,54 112,54"/>
	<polyline class = "connector" points = "112,19 124,19"/>
	<rect x = "124" y = "5" width = "126" height = "28" class = "element"/>
	<polygon class = "nodeStyle" points = "130,7 126,11 130,15 134,11"/>
	<text x = "135" y = "16" class = "elName">ReconnectIntervalSec</text>
	<rect x = "125" y = "20" width = "124" height = "12" class = "elTypeBkgnd"/>
	<image xlink:href = "../dgmDtString.gif" width = "10" height = "10" x = "240" y = "15"/>
	<circle class = "occurs" cx = "118" cy = "54" r = "6"/>
	<text x = "115" y = "57" class = "occurLarge">?</text>
	<rect x = "124" y = "40" width = "75" height = "28" class = "element"/>
	<polygon class = "nodeStyle" points = "130,42 126,46 130,50 134,46"/>
	<text x = "135" y = "51" class = "elName">DLQConfig</text>
	<rect x = "125" y = "55" width = "73" height = "12" class = "elTypeBkgnd"/>
	<image xlink:href = "../dgmTypeComplex.gif" width = "10" height = "10" x = "189" y = "50"/>
</svg>