<?xml version = "1.0"?>
<!DOCTYPE svg PUBLIC "-//W3C//DTD SVG 20010904//EN" "http://www.w3.org/TR/2001/REC-SVG-20010904/DTD/svg10.dtd">
<svg width = "345pt" height = "178pt" viewBox = "0 0 345 178" xmlns = "http://www.w3.org/2000/svg" xmlns:xlink = "http://www.w3.org/1999/xlink">
	<defs>
		<style type = "text/css"><![CDATA[
rect.attrGroup { fill: ivory ; stroke: black; stroke-width: 1 }
rect.element { fill: ivory ; stroke: black; stroke-width: 1 }
rect.elTypeBkgnd { fill: lightgray ; stroke: none }
text.elName { font-family: helvetica ; font-size : 10 }
text.elType { font-family: helvetica ; font-size : 7 }
text.occurLarge { font-family: helvetica ; font-size : 9; fill : blue }
text.occurSmall { font-family: helvetica ; font-size : 7; fill : blue }
rect.typeIconDark { fill : darkslategray }
circle.occurs { stroke : black ; stroke-width: 1; fill : white }
circle.ellipsis { fill : black }
path.typeIconDark { stroke : lightgray ; stroke-width: 1 }
path.connector { stroke : red ; stroke-width: 1 ; fill: none; }
path.modelGroup { stroke : black ; stroke-width: 1 ; fill: lightgray; }
polyline.connector { stroke : red ; stroke-width: 1 ; fill: none; }
.nodeStyle { fill : blue }
]]></style>
	</defs>
	<rect x = "5" y = "75" width = "126" height = "28" class = "element"/>
	<polygon class = "nodeStyle" points = "11,77 7,81 11,85 15,81"/>
	<text x = "16" y = "86" class = "elName">container-invoker-conf</text>
	<rect x = "6" y = "90" width = "124" height = "12" class = "elTypeBkgnd"/>
	<image xlink:href = "../dgmTypeComplex.gif" width = "10" height = "10" x = "121" y = "85"/>
	<polyline class = "connector" points = "161,19 141,19 141,89 131,89 141,89 141,159 161,159"/>
	<circle class = "occurs" cx = "167" cy = "19" r = "6"/>
	<text x = "164" y = "22" class = "occurLarge">?</text>
	<rect x = "173" y = "5" width = "142" height = "28" class = "element"/>
	<polygon class = "nodeStyle" points = "179,7 175,11 179,15 183,11"/>
	<text x = "184" y = "16" class = "elName">JMSProviderAdapterJNDI</text>
	<rect x = "174" y = "20" width = "140" height = "12" class = "elTypeBkgnd"/>
	<image xlink:href = "../dgmDtString.gif" width = "10" height = "10" x = "305" y = "15"/>
	<circle class = "occurs" cx = "167" cy = "54" r = "6"/>
	<text x = "164" y = "57" class = "occurLarge">?</text>
	<rect x = "173" y = "40" width = "167" height = "28" class = "element"/>
	<polygon class = "nodeStyle" points = "179,42 175,46 179,50 183,46"/>
	<text x = "184" y = "51" class = "elName">ServerSessionPoolFactoryJNDI</text>
	<rect x = "174" y = "55" width = "165" height = "12" class = "elTypeBkgnd"/>
	<image xlink:href = "../dgmDtString.gif" width = "10" height = "10" x = "330" y = "50"/>
	<circle class = "occurs" cx = "167" cy = "89" r = "6"/>
	<text x = "164" y = "92" class = "occurLarge">?</text>
	<rect x = "173" y = "75" width = "91" height = "28" class = "element"/>
	<polygon class = "nodeStyle" points = "179,77 175,81 179,85 183,81"/>
	<text x = "184" y = "86" class = "elName">MaximumSize</text>
	<rect x = "174" y = "90" width = "89" height = "12" class = "elTypeBkgnd"/>
	<image xlink:href = "../dgmDtString.gif" width = "10" height = "10" x = "254" y = "85"/>
	<circle class = "occurs" cx = "167" cy = "124" r = "6"/>
	<text x = "164" y = "127" class = "occurLarge">?</text>
	<rect x = "173" y = "110" width = "88" height = "28" class = "element"/>
	<polygon class = "nodeStyle" points = "179,112 175,116 179,120 183,116"/>
	<text x = "184" y = "121" class = "elName">MaxMessages</text>
	<rect x = "174" y = "125" width = "86" height = "12" class = "elTypeBkgnd"/>
	<image xlink:href = "../dgmDtString.gif" width = "10" height = "10" x = "251" y = "120"/>
	<circle class = "occurs" cx = "167" cy = "159" r = "6"/>
	<text x = "164" y = "162" class = "occurLarge">?</text>
	<rect x = "173" y = "145" width = "77" height = "28" class = "element"/>
	<polygon class = "nodeStyle" points = "179,147 175,151 179,155 183,151"/>
	<text x = "184" y = "156" class = "elName">MDBConfig</text>
	<rect x = "174" y = "160" width = "75" height = "12" class = "elTypeBkgnd"/>
	<image xlink:href = "../dgmTypeComplex.gif" width = "10" height = "10" x = "240" y = "155"/>
</svg>