<?xml version = "1.0"?>
<!DOCTYPE svg PUBLIC "-//W3C//DTD SVG 20010904//EN" "http://www.w3.org/TR/2001/REC-SVG-20010904/DTD/svg10.dtd">
<svg width = "260pt" height = "108pt" viewBox = "0 0 260 108" xmlns = "http://www.w3.org/2000/svg" xmlns:xlink = "http://www.w3.org/1999/xlink">
	<defs>
		<style type = "text/css"><![CDATA[
rect.attrGroup { fill: ivory ; stroke: black; stroke-width: 1 }
rect.element { fill: ivory ; stroke: black; stroke-width: 1 }
rect.elTypeBkgnd { fill: lightgray ; stroke: none }
text.elName { font-family: helvetica ; font-size : 10 }
text.elType { font-family: helvetica ; font-size : 7 }
text.occurLarge { font-family: helvetica ; font-size : 9; fill : blue }
text.occurSmall { font-family: helvetica ; font-size : 7; fill : blue }
rect.typeIconDark { fill : darkslategray }
circle.occurs { stroke : black ; stroke-width: 1; fill : white }
circle.ellipsis { fill : black }
path.typeIconDark { stroke : lightgray ; stroke-width: 1 }
path.connector { stroke : red ; stroke-width: 1 ; fill: none; }
path.modelGroup { stroke : black ; stroke-width: 1 ; fill: lightgray; }
polyline.connector { stroke : red ; stroke-width: 1 ; fill: none; }
.nodeStyle { fill : blue }
]]></style>
	</defs>
	<rect x = "5" y = "40" width = "100" height = "28" class = "element"/>
	<polygon class = "nodeStyle" points = "11,42 7,46 11,50 15,46"/>
	<text x = "16" y = "51" class = "elName">enterprise-beans</text>
	<rect x = "6" y = "55" width = "98" height = "12" class = "elTypeBkgnd"/>
	<image xlink:href = "../dgmTypeComplex.gif" width = "10" height = "10" x = "95" y = "50"/>
	<circle class = "occurs" cx = "111" cy = "54" r = "6"/>
	<text x = "108" y = "57" class = "occurLarge">+</text>
	<polyline class = "connector" points = "147,19 127,54 117,54 127,54 147,89"/>
	<polyline class = "connector" points = "147,19 159,19"/>
	<rect x = "159" y = "5" width = "56" height = "28" class = "element"/>
	<polygon class = "nodeStyle" points = "165,7 161,11 165,15 169,11"/>
	<text x = "170" y = "16" class = "elName">session</text>
	<rect x = "160" y = "20" width = "54" height = "12" class = "elTypeBkgnd"/>
	<image xlink:href = "../dgmTypeComplex.gif" width = "10" height = "10" x = "205" y = "15"/>
	<rect x = "159" y = "40" width = "49" height = "28" class = "element"/>
	<polygon class = "nodeStyle" points = "165,42 161,46 165,50 169,46"/>
	<text x = "170" y = "51" class = "elName">entity</text>
	<rect x = "160" y = "55" width = "47" height = "12" class = "elTypeBkgnd"/>
	<image xlink:href = "../dgmTypeComplex.gif" width = "10" height = "10" x = "198" y = "50"/>
	<polyline class = "connector" points = "147,89 159,89"/>
	<rect x = "159" y = "75" width = "96" height = "28" class = "element"/>
	<polygon class = "nodeStyle" points = "165,77 161,81 165,85 169,81"/>
	<text x = "170" y = "86" class = "elName">message-driven</text>
	<rect x = "160" y = "90" width = "94" height = "12" class = "elTypeBkgnd"/>
	<image xlink:href = "../dgmTypeComplex.gif" width = "10" height = "10" x = "245" y = "85"/>
</svg>