<?xml version = "1.0"?>
<!DOCTYPE svg PUBLIC "-//W3C//DTD SVG 20010904//EN" "http://www.w3.org/TR/2001/REC-SVG-20010904/DTD/svg10.dtd">
<svg width = "300pt" height = "48pt" viewBox = "0 0 300 48" xmlns = "http://www.w3.org/2000/svg" xmlns:xlink = "http://www.w3.org/1999/xlink">
	<defs>
		<style type = "text/css"><![CDATA[
rect.attrGroup { fill: ivory ; stroke: black; stroke-width: 1 }
rect.element { fill: ivory ; stroke: black; stroke-width: 1 }
rect.elTypeBkgnd { fill: lightgray ; stroke: none }
text.elName { font-family: helvetica ; font-size : 10 }
text.elType { font-family: helvetica ; font-size : 7 }
text.occurLarge { font-family: helvetica ; font-size : 9; fill : blue }
text.occurSmall { font-family: helvetica ; font-size : 7; fill : blue }
rect.typeIconDark { fill : darkslategray }
circle.occurs { stroke : black ; stroke-width: 1; fill : white }
circle.ellipsis { fill : black }
path.typeIconDark { stroke : lightgray ; stroke-width: 1 }
path.connector { stroke : red ; stroke-width: 1 ; fill: none; }
path.modelGroup { stroke : black ; stroke-width: 1 ; fill: lightgray; }
polyline.connector { stroke : red ; stroke-width: 1 ; fill: none; }
.nodeStyle { fill : blue }
]]></style>
	</defs>
	<rect x = "5" y = "10" width = "133" height = "28" class = "element"/>
	<polygon class = "nodeStyle" points = "11,12 7,16 11,20 15,16"/>
	<text x = "16" y = "21" class = "elName">loader-repository-config</text>
	<rect x = "6" y = "25" width = "131" height = "12" class = "elTypeBkgnd"/>
	<image xlink:href = "../dgmDtString.gif" width = "10" height = "10" x = "128" y = "20"/>
	<polyline class = "connector" points = "138,24 168,24"/>
	<rect x = "168" y = "5" width = "127" height = "38" class = "attrGroup" rx = "5" ry = "5"/>
	<circle class = "occurs" cx = "179" cy = "24" r = "6"/>
	<text x = "176" y = "27" class = "occurLarge">?</text>
	<rect x = "185" y = "10" width = "105" height = "28" class = "element" rx = "5" ry = "5"/>
	<circle class = "nodeStyle" cx = "191" cy = "16" r = "4"/>
	<text x = "196" y = "21" class = "elName">configParserClass</text>
	<rect x = "186" y = "11" width = "103" height = "26" class = "elTypeBkgnd" rx = "5" ry = "5" clip-path = "url(#e:loader-repository-config/a:configParserClass)"/>
	<defs/>
	<clipPath id = "e:loader-repository-config/a:configParserClass">
		<rect x = "185" y = "25" width = "105" height = "12"/>
	</clipPath>
	<text x = "186" y = "33" class = "elType">string</text>
	<image xlink:href = "../dgmDtString.gif" width = "10" height = "10" x = "280" y = "20"/>
</svg>