<?xml version = "1.0"?>
<!DOCTYPE svg PUBLIC "-//W3C//DTD SVG 20010904//EN" "http://www.w3.org/TR/2001/REC-SVG-20010904/DTD/svg10.dtd">
<svg width = "270pt" height = "108pt" viewBox = "0 0 270 108" xmlns = "http://www.w3.org/2000/svg" xmlns:xlink = "http://www.w3.org/1999/xlink">
	<defs>
		<style type = "text/css"><![CDATA[
rect.attrGroup { fill: ivory ; stroke: black; stroke-width: 1 }
rect.element { fill: ivory ; stroke: black; stroke-width: 1 }
rect.elTypeBkgnd { fill: lightgray ; stroke: none }
text.elName { font-family: helvetica ; font-size : 10 }
text.elType { font-family: helvetica ; font-size : 7 }
text.occurLarge { font-family: helvetica ; font-size : 9; fill : blue }
text.occurSmall { font-family: helvetica ; font-size : 7; fill : blue }
rect.typeIconDark { fill : darkslategray }
circle.occurs { stroke : black ; stroke-width: 1; fill : white }
circle.ellipsis { fill : black }
path.typeIconDark { stroke : lightgray ; stroke-width: 1 }
path.connector { stroke : red ; stroke-width: 1 ; fill: none; }
path.modelGroup { stroke : black ; stroke-width: 1 ; fill: lightgray; }
polyline.connector { stroke : red ; stroke-width: 1 ; fill: none; }
.nodeStyle { fill : blue }
]]></style>
	</defs>
	<rect x = "5" y = "40" width = "79" height = "28" class = "element"/>
	<polygon class = "nodeStyle" points = "11,42 7,46 11,50 15,46"/>
	<text x = "16" y = "51" class = "elName">ejb-local-ref</text>
	<rect x = "6" y = "55" width = "77" height = "12" class = "elTypeBkgnd"/>
	<image xlink:href = "../dgmTypeComplex.gif" width = "10" height = "10" x = "74" y = "50"/>
	<polyline class = "connector" points = "114,19 94,19 94,54 84,54 94,54 94,71 114,71"/>
	<polyline class = "connector" points = "114,19 126,19"/>
	<rect x = "126" y = "5" width = "83" height = "28" class = "element"/>
	<polygon class = "nodeStyle" points = "132,7 128,11 132,15 136,11"/>
	<text x = "137" y = "16" class = "elName">ejb-ref-name</text>
	<rect x = "127" y = "20" width = "81" height = "12" class = "elTypeBkgnd"/>
	<image xlink:href = "../dgmDtString.gif" width = "10" height = "10" x = "199" y = "15"/>
	<circle class = "occurs" cx = "120" cy = "71" r = "6"/>
	<text x = "117" y = "74" class = "occurLarge">1</text>
	<polyline class = "connector" points = "156,54 136,71 126,71 136,71 156,89"/>
	<polyline class = "connector" points = "156,54 168,54"/>
	<rect x = "168" y = "40" width = "97" height = "28" class = "element"/>
	<polygon class = "nodeStyle" points = "174,42 170,46 174,50 178,46"/>
	<text x = "179" y = "51" class = "elName">local-jndi-name</text>
	<rect x = "169" y = "55" width = "95" height = "12" class = "elTypeBkgnd"/>
	<image xlink:href = "../dgmDtString.gif" width = "10" height = "10" x = "255" y = "50"/>
	<polyline class = "connector" points = "156,89 168,89"/>
	<rect x = "168" y = "75" width = "71" height = "28" class = "element"/>
	<polygon class = "nodeStyle" points = "174,77 170,81 174,85 178,81"/>
	<text x = "179" y = "86" class = "elName">jndi-name</text>
	<rect x = "169" y = "90" width = "69" height = "12" class = "elTypeBkgnd"/>
	<image xlink:href = "../dgmDtString.gif" width = "10" height = "10" x = "229" y = "85"/>
</svg>