<?xml version = "1.0"?>
<!DOCTYPE svg PUBLIC "-//W3C//DTD SVG 20010904//EN" "http://www.w3.org/TR/2001/REC-SVG-20010904/DTD/svg10.dtd">
<svg width = "276pt" height = "73pt" viewBox = "0 0 276 73" xmlns = "http://www.w3.org/2000/svg" xmlns:xlink = "http://www.w3.org/1999/xlink">
	<defs>
		<style type = "text/css"><![CDATA[
rect.attrGroup { fill: ivory ; stroke: black; stroke-width: 1 }
rect.element { fill: ivory ; stroke: black; stroke-width: 1 }
rect.elTypeBkgnd { fill: lightgray ; stroke: none }
text.elName { font-family: helvetica ; font-size : 10 }
text.elType { font-family: helvetica ; font-size : 7 }
text.occurLarge { font-family: helvetica ; font-size : 9; fill : blue }
text.occurSmall { font-family: helvetica ; font-size : 7; fill : blue }
rect.typeIconDark { fill : darkslategray }
circle.occurs { stroke : black ; stroke-width: 1; fill : white }
circle.ellipsis { fill : black }
path.typeIconDark { stroke : lightgray ; stroke-width: 1 }
path.connector { stroke : red ; stroke-width: 1 ; fill: none; }
path.modelGroup { stroke : black ; stroke-width: 1 ; fill: lightgray; }
polyline.connector { stroke : red ; stroke-width: 1 ; fill: none; }
.nodeStyle { fill : blue }
]]></style>
	</defs>
	<rect x = "5" y = "22" width = "97" height = "28" class = "element"/>
	<polygon class = "nodeStyle" points = "11,24 7,28 11,32 15,28"/>
	<text x = "16" y = "33" class = "elName">resource-env-ref</text>
	<rect x = "6" y = "37" width = "95" height = "12" class = "elTypeBkgnd"/>
	<image xlink:href = "../dgmTypeComplex.gif" width = "10" height = "10" x = "92" y = "32"/>
	<polyline class = "connector" points = "132,19 112,19 112,36 102,36 112,36 112,54 132,54"/>
	<polyline class = "connector" points = "132,19 144,19"/>
	<rect x = "144" y = "5" width = "127" height = "28" class = "element"/>
	<polygon class = "nodeStyle" points = "150,7 146,11 150,15 154,11"/>
	<text x = "155" y = "16" class = "elName">resource-env-ref-name</text>
	<rect x = "145" y = "20" width = "125" height = "12" class = "elTypeBkgnd"/>
	<image xlink:href = "../dgmDtString.gif" width = "10" height = "10" x = "261" y = "15"/>
	<polyline class = "connector" points = "132,54 144,54"/>
	<rect x = "144" y = "40" width = "71" height = "28" class = "element"/>
	<polygon class = "nodeStyle" points = "150,42 146,46 150,50 154,46"/>
	<text x = "155" y = "51" class = "elName">jndi-name</text>
	<rect x = "145" y = "55" width = "69" height = "12" class = "elTypeBkgnd"/>
	<image xlink:href = "../dgmDtString.gif" width = "10" height = "10" x = "205" y = "50"/>
</svg>