<?xml version = "1.0"?>
<!DOCTYPE svg PUBLIC "-//W3C//DTD SVG 20010904//EN" "http://www.w3.org/TR/2001/REC-SVG-20010904/DTD/svg10.dtd">
<svg width = "403pt" height = "388pt" viewBox = "0 0 403 388" xmlns = "http://www.w3.org/2000/svg" xmlns:xlink = "http://www.w3.org/1999/xlink">
	<defs>
		<style type = "text/css"><![CDATA[
rect.attrGroup { fill: ivory ; stroke: black; stroke-width: 1 }
rect.element { fill: ivory ; stroke: black; stroke-width: 1 }
rect.elTypeBkgnd { fill: lightgray ; stroke: none }
text.elName { font-family: helvetica ; font-size : 10 }
text.elType { font-family: helvetica ; font-size : 7 }
text.occurLarge { font-family: helvetica ; font-size : 9; fill : blue }
text.occurSmall { font-family: helvetica ; font-size : 7; fill : blue }
rect.typeIconDark { fill : darkslategray }
circle.occurs { stroke : black ; stroke-width: 1; fill : white }
circle.ellipsis { fill : black }
path.typeIconDark { stroke : lightgray ; stroke-width: 1 }
path.connector { stroke : red ; stroke-width: 1 ; fill: none; }
path.modelGroup { stroke : black ; stroke-width: 1 ; fill: lightgray; }
polyline.connector { stroke : red ; stroke-width: 1 ; fill: none; }
.nodeStyle { fill : blue }
]]></style>
	</defs>
	<rect x = "5" y = "180" width = "135" height = "28" class = "element"/>
	<polygon class = "nodeStyle" points = "11,182 7,186 11,190 15,186"/>
	<text x = "16" y = "191" class = "elName">no-tx-connection-factory</text>
	<rect x = "6" y = "195" width = "133" height = "12" class = "elTypeBkgnd"/>
	<image xlink:href = "../dgmTypeComplex.gif" width = "10" height = "10" x = "130" y = "190"/>
	<polyline class = "connector" points = "170,19 150,19 150,194 140,194 150,194 150,369 170,369"/>
	<polyline class = "connector" points = "170,19 182,19"/>
	<rect x = "182" y = "5" width = "71" height = "28" class = "element"/>
	<polygon class = "nodeStyle" points = "188,7 184,11 188,15 192,11"/>
	<text x = "193" y = "16" class = "elName">jndi-name</text>
	<rect x = "183" y = "20" width = "69" height = "12" class = "elTypeBkgnd"/>
	<image xlink:href = "../dgmDtString.gif" width = "10" height = "10" x = "243" y = "15"/>
	<circle class = "occurs" cx = "176" cy = "54" r = "6"/>
	<text x = "173" y = "57" class = "occurLarge">?</text>
	<rect x = "182" y = "40" width = "125" height = "28" class = "element"/>
	<polygon class = "nodeStyle" points = "188,42 184,46 188,50 192,46"/>
	<text x = "193" y = "51" class = "elName">adapter-display-name</text>
	<rect x = "183" y = "55" width = "123" height = "12" class = "elTypeBkgnd"/>
	<image xlink:href = "../dgmDtString.gif" width = "10" height = "10" x = "297" y = "50"/>
	<circle class = "occurs" cx = "176" cy = "89" r = "6"/>
	<text x = "173" y = "92" class = "occurLarge">*</text>
	<rect x = "182" y = "75" width = "93" height = "28" class = "element"/>
	<polygon class = "nodeStyle" points = "188,77 184,81 188,85 192,81"/>
	<text x = "193" y = "86" class = "elName">config-property</text>
	<rect x = "183" y = "90" width = "91" height = "12" class = "elTypeBkgnd"/>
	<image xlink:href = "../dgmDtString.gif" width = "10" height = "10" x = "265" y = "85"/>
	<circle class = "occurs" cx = "176" cy = "159" r = "6"/>
	<text x = "173" y = "162" class = "occurLarge">?</text>
	<polyline class = "connector" points = "212,124 192,159 182,159 192,159 212,194"/>
	<polyline class = "connector" points = "212,124 224,124"/>
	<rect x = "224" y = "110" width = "162" height = "28" class = "element"/>
	<polygon class = "nodeStyle" points = "230,112 226,116 230,120 234,116"/>
	<text x = "235" y = "121" class = "elName">application-managed-security</text>
	<rect x = "225" y = "125" width = "160" height = "12" class = "elTypeBkgnd"/>
	<image xlink:href = "../dgmTypeEmpty.gif" width = "10" height = "10" x = "376" y = "120"/>
	<rect x = "224" y = "145" width = "97" height = "28" class = "element"/>
	<polygon class = "nodeStyle" points = "230,147 226,151 230,155 234,151"/>
	<text x = "235" y = "156" class = "elName">security-domain</text>
	<rect x = "225" y = "160" width = "95" height = "12" class = "elTypeBkgnd"/>
	<image xlink:href = "../dgmDtString.gif" width = "10" height = "10" x = "311" y = "155"/>
	<polyline class = "connector" points = "212,194 224,194"/>
	<rect x = "224" y = "180" width = "174" height = "28" class = "element"/>
	<polygon class = "nodeStyle" points = "230,182 226,186 230,190 234,186"/>
	<text x = "235" y = "191" class = "elName">security-domain-and-application</text>
	<rect x = "225" y = "195" width = "172" height = "12" class = "elTypeBkgnd"/>
	<image xlink:href = "../dgmDtString.gif" width = "10" height = "10" x = "388" y = "190"/>
	<circle class = "occurs" cx = "176" cy = "229" r = "6"/>
	<text x = "173" y = "232" class = "occurLarge">?</text>
	<rect x = "182" y = "215" width = "86" height = "28" class = "element"/>
	<polygon class = "nodeStyle" points = "188,217 184,221 188,225 192,221"/>
	<text x = "193" y = "226" class = "elName">min-pool-size</text>
	<rect x = "183" y = "230" width = "84" height = "12" class = "elTypeBkgnd"/>
	<image xlink:href = "../dgmDtString.gif" width = "10" height = "10" x = "258" y = "225"/>
	<circle class = "occurs" cx = "176" cy = "264" r = "6"/>
	<text x = "173" y = "267" class = "occurLarge">?</text>
	<rect x = "182" y = "250" width = "88" height = "28" class = "element"/>
	<polygon class = "nodeStyle" points = "188,252 184,256 188,260 192,256"/>
	<text x = "193" y = "261" class = "elName">max-pool-size</text>
	<rect x = "183" y = "265" width = "86" height = "12" class = "elTypeBkgnd"/>
	<image xlink:href = "../dgmDtString.gif" width = "10" height = "10" x = "260" y = "260"/>
	<circle class = "occurs" cx = "176" cy = "299" r = "6"/>
	<text x = "173" y = "302" class = "occurLarge">?</text>
	<rect x = "182" y = "285" width = "129" height = "28" class = "element"/>
	<polygon class = "nodeStyle" points = "188,287 184,291 188,295 192,291"/>
	<text x = "193" y = "296" class = "elName">blocking-timeout-millis</text>
	<rect x = "183" y = "300" width = "127" height = "12" class = "elTypeBkgnd"/>
	<image xlink:href = "../dgmDtString.gif" width = "10" height = "10" x = "301" y = "295"/>
	<circle class = "occurs" cx = "176" cy = "334" r = "6"/>
	<text x = "173" y = "337" class = "occurLarge">?</text>
	<rect x = "182" y = "320" width = "120" height = "28" class = "element"/>
	<polygon class = "nodeStyle" points = "188,322 184,326 188,330 192,326"/>
	<text x = "193" y = "331" class = "elName">idle-timeout-minutes</text>
	<rect x = "183" y = "335" width = "118" height = "12" class = "elTypeBkgnd"/>
	<image xlink:href = "../dgmDtString.gif" width = "10" height = "10" x = "292" y = "330"/>
	<circle class = "occurs" cx = "176" cy = "369" r = "6"/>
	<text x = "173" y = "372" class = "occurLarge">*</text>
	<rect x = "182" y = "355" width = "63" height = "28" class = "element"/>
	<polygon class = "nodeStyle" points = "188,357 184,361 188,365 192,361"/>
	<text x = "193" y = "366" class = "elName">depends</text>
	<rect x = "183" y = "370" width = "61" height = "12" class = "elTypeBkgnd"/>
	<image xlink:href = "../dgmDtString.gif" width = "10" height = "10" x = "235" y = "365"/>
</svg>