<?xml version = "1.0"?>
<!DOCTYPE svg PUBLIC "-//W3C//DTD SVG 20010904//EN" "http://www.w3.org/TR/2001/REC-SVG-20010904/DTD/svg10.dtd">
<svg width = "368pt" height = "493pt" viewBox = "0 0 368 493" xmlns = "http://www.w3.org/2000/svg" xmlns:xlink = "http://www.w3.org/1999/xlink">
	<defs>
		<style type = "text/css"><![CDATA[
rect.attrGroup { fill: ivory ; stroke: black; stroke-width: 1 }
rect.element { fill: ivory ; stroke: black; stroke-width: 1 }
rect.elTypeBkgnd { fill: lightgray ; stroke: none }
text.elName { font-family: helvetica ; font-size : 10 }
text.elType { font-family: helvetica ; font-size : 7 }
text.occurLarge { font-family: helvetica ; font-size : 9; fill : blue }
text.occurSmall { font-family: helvetica ; font-size : 7; fill : blue }
rect.typeIconDark { fill : darkslategray }
circle.occurs { stroke : black ; stroke-width: 1; fill : white }
circle.ellipsis { fill : black }
path.typeIconDark { stroke : lightgray ; stroke-width: 1 }
path.connector { stroke : red ; stroke-width: 1 ; fill: none; }
path.modelGroup { stroke : black ; stroke-width: 1 ; fill: lightgray; }
polyline.connector { stroke : red ; stroke-width: 1 ; fill: none; }
.nodeStyle { fill : blue }
]]></style>
	</defs>
	<rect x = "5" y = "232" width = "100" height = "28" class = "element"/>
	<polygon class = "nodeStyle" points = "11,234 7,238 11,242 15,238"/>
	<text x = "16" y = "243" class = "elName">no-tx-datasource</text>
	<rect x = "6" y = "247" width = "98" height = "12" class = "elTypeBkgnd"/>
	<image xlink:href = "../dgmTypeComplex.gif" width = "10" height = "10" x = "95" y = "242"/>
	<polyline class = "connector" points = "135,19 115,19 115,246 105,246 115,246 115,474 135,474"/>
	<polyline class = "connector" points = "135,19 147,19"/>
	<rect x = "147" y = "5" width = "71" height = "28" class = "element"/>
	<polygon class = "nodeStyle" points = "153,7 149,11 153,15 157,11"/>
	<text x = "158" y = "16" class = "elName">jndi-name</text>
	<rect x = "148" y = "20" width = "69" height = "12" class = "elTypeBkgnd"/>
	<image xlink:href = "../dgmDtString.gif" width = "10" height = "10" x = "208" y = "15"/>
	<rect x = "147" y = "40" width = "90" height = "28" class = "element"/>
	<polygon class = "nodeStyle" points = "153,42 149,46 153,50 157,46"/>
	<text x = "158" y = "51" class = "elName">connection-url</text>
	<rect x = "148" y = "55" width = "88" height = "12" class = "elTypeBkgnd"/>
	<image xlink:href = "../dgmDtString.gif" width = "10" height = "10" x = "227" y = "50"/>
	<rect x = "147" y = "75" width = "74" height = "28" class = "element"/>
	<polygon class = "nodeStyle" points = "153,77 149,81 153,85 157,81"/>
	<text x = "158" y = "86" class = "elName">driver-class</text>
	<rect x = "148" y = "90" width = "72" height = "12" class = "elTypeBkgnd"/>
	<image xlink:href = "../dgmDtString.gif" width = "10" height = "10" x = "211" y = "85"/>
	<circle class = "occurs" cx = "141" cy = "124" r = "6"/>
	<text x = "138" y = "127" class = "occurLarge">*</text>
	<rect x = "147" y = "110" width = "116" height = "28" class = "element"/>
	<polygon class = "nodeStyle" points = "153,112 149,116 153,120 157,116"/>
	<text x = "158" y = "121" class = "elName">connection-property</text>
	<rect x = "148" y = "125" width = "114" height = "12" class = "elTypeBkgnd"/>
	<image xlink:href = "../dgmDtString.gif" width = "10" height = "10" x = "253" y = "120"/>
	<circle class = "occurs" cx = "141" cy = "159" r = "6"/>
	<text x = "138" y = "162" class = "occurLarge">?</text>
	<rect x = "147" y = "145" width = "72" height = "28" class = "element"/>
	<polygon class = "nodeStyle" points = "153,147 149,151 153,155 157,151"/>
	<text x = "158" y = "156" class = "elName">user-name</text>
	<rect x = "148" y = "160" width = "70" height = "12" class = "elTypeBkgnd"/>
	<image xlink:href = "../dgmDtString.gif" width = "10" height = "10" x = "209" y = "155"/>
	<circle class = "occurs" cx = "141" cy = "194" r = "6"/>
	<text x = "138" y = "197" class = "occurLarge">?</text>
	<rect x = "147" y = "180" width = "65" height = "28" class = "element"/>
	<polygon class = "nodeStyle" points = "153,182 149,186 153,190 157,186"/>
	<text x = "158" y = "191" class = "elName">password</text>
	<rect x = "148" y = "195" width = "63" height = "12" class = "elTypeBkgnd"/>
	<image xlink:href = "../dgmDtString.gif" width = "10" height = "10" x = "202" y = "190"/>
	<circle class = "occurs" cx = "141" cy = "264" r = "6"/>
	<text x = "138" y = "267" class = "occurLarge">?</text>
	<polyline class = "connector" points = "177,229 157,264 147,264 157,264 177,299"/>
	<polyline class = "connector" points = "177,229 189,229"/>
	<rect x = "189" y = "215" width = "162" height = "28" class = "element"/>
	<polygon class = "nodeStyle" points = "195,217 191,221 195,225 199,221"/>
	<text x = "200" y = "226" class = "elName">application-managed-security</text>
	<rect x = "190" y = "230" width = "160" height = "12" class = "elTypeBkgnd"/>
	<image xlink:href = "../dgmTypeEmpty.gif" width = "10" height = "10" x = "341" y = "225"/>
	<rect x = "189" y = "250" width = "97" height = "28" class = "element"/>
	<polygon class = "nodeStyle" points = "195,252 191,256 195,260 199,256"/>
	<text x = "200" y = "261" class = "elName">security-domain</text>
	<rect x = "190" y = "265" width = "95" height = "12" class = "elTypeBkgnd"/>
	<image xlink:href = "../dgmDtString.gif" width = "10" height = "10" x = "276" y = "260"/>
	<polyline class = "connector" points = "177,299 189,299"/>
	<rect x = "189" y = "285" width = "174" height = "28" class = "element"/>
	<polygon class = "nodeStyle" points = "195,287 191,291 195,295 199,291"/>
	<text x = "200" y = "296" class = "elName">security-domain-and-application</text>
	<rect x = "190" y = "300" width = "172" height = "12" class = "elTypeBkgnd"/>
	<image xlink:href = "../dgmDtString.gif" width = "10" height = "10" x = "353" y = "295"/>
	<circle class = "occurs" cx = "141" cy = "334" r = "6"/>
	<text x = "138" y = "337" class = "occurLarge">?</text>
	<rect x = "147" y = "320" width = "86" height = "28" class = "element"/>
	<polygon class = "nodeStyle" points = "153,322 149,326 153,330 157,326"/>
	<text x = "158" y = "331" class = "elName">min-pool-size</text>
	<rect x = "148" y = "335" width = "84" height = "12" class = "elTypeBkgnd"/>
	<image xlink:href = "../dgmDtString.gif" width = "10" height = "10" x = "223" y = "330"/>
	<circle class = "occurs" cx = "141" cy = "369" r = "6"/>
	<text x = "138" y = "372" class = "occurLarge">?</text>
	<rect x = "147" y = "355" width = "88" height = "28" class = "element"/>
	<polygon class = "nodeStyle" points = "153,357 149,361 153,365 157,361"/>
	<text x = "158" y = "366" class = "elName">max-pool-size</text>
	<rect x = "148" y = "370" width = "86" height = "12" class = "elTypeBkgnd"/>
	<image xlink:href = "../dgmDtString.gif" width = "10" height = "10" x = "225" y = "365"/>
	<circle class = "occurs" cx = "141" cy = "404" r = "6"/>
	<text x = "138" y = "407" class = "occurLarge">?</text>
	<rect x = "147" y = "390" width = "129" height = "28" class = "element"/>
	<polygon class = "nodeStyle" points = "153,392 149,396 153,400 157,396"/>
	<text x = "158" y = "401" class = "elName">blocking-timeout-millis</text>
	<rect x = "148" y = "405" width = "127" height = "12" class = "elTypeBkgnd"/>
	<image xlink:href = "../dgmDtString.gif" width = "10" height = "10" x = "266" y = "400"/>
	<circle class = "occurs" cx = "141" cy = "439" r = "6"/>
	<text x = "138" y = "442" class = "occurLarge">?</text>
	<rect x = "147" y = "425" width = "120" height = "28" class = "element"/>
	<polygon class = "nodeStyle" points = "153,427 149,431 153,435 157,431"/>
	<text x = "158" y = "436" class = "elName">idle-timeout-minutes</text>
	<rect x = "148" y = "440" width = "118" height = "12" class = "elTypeBkgnd"/>
	<image xlink:href = "../dgmDtString.gif" width = "10" height = "10" x = "257" y = "435"/>
	<circle class = "occurs" cx = "141" cy = "474" r = "6"/>
	<text x = "138" y = "477" class = "occurLarge">*</text>
	<rect x = "147" y = "460" width = "63" height = "28" class = "element"/>
	<polygon class = "nodeStyle" points = "153,462 149,466 153,470 157,466"/>
	<text x = "158" y = "471" class = "elName">depends</text>
	<rect x = "148" y = "475" width = "61" height = "12" class = "elTypeBkgnd"/>
	<image xlink:href = "../dgmDtString.gif" width = "10" height = "10" x = "200" y = "470"/>
</svg>