<?xml version = "1.0"?>
<!DOCTYPE svg PUBLIC "-//W3C//DTD SVG 20010904//EN" "http://www.w3.org/TR/2001/REC-SVG-20010904/DTD/svg10.dtd">
<svg width = "250pt" height = "81pt" viewBox = "0 0 250 81" xmlns = "http://www.w3.org/2000/svg" xmlns:xlink = "http://www.w3.org/1999/xlink">
	<defs>
		<style type = "text/css"><![CDATA[
rect.attrGroup { fill: ivory ; stroke: black; stroke-width: 1 }
rect.element { fill: ivory ; stroke: black; stroke-width: 1 }
rect.elTypeBkgnd { fill: lightgray ; stroke: none }
text.elName { font-family: helvetica ; font-size : 10 }
text.elType { font-family: helvetica ; font-size : 7 }
text.occurLarge { font-family: helvetica ; font-size : 9; fill : blue }
text.occurSmall { font-family: helvetica ; font-size : 7; fill : blue }
rect.typeIconDark { fill : darkslategray }
circle.occurs { stroke : black ; stroke-width: 1; fill : white }
circle.ellipsis { fill : black }
path.typeIconDark { stroke : lightgray ; stroke-width: 1 }
path.connector { stroke : red ; stroke-width: 1 ; fill: none; }
path.modelGroup { stroke : black ; stroke-width: 1 ; fill: lightgray; }
polyline.connector { stroke : red ; stroke-width: 1 ; fill: none; }
.nodeStyle { fill : blue }
]]></style>
	</defs>
	<rect x = "142" y = "5" width = "60" height = "38" class = "attrGroup" rx = "5" ry = "5"/>
	<rect x = "147" y = "10" width = "50" height = "28" class = "element" rx = "5" ry = "5"/>
	<circle class = "nodeStyle" cx = "153" cy = "16" r = "4"/>
	<text x = "158" y = "21" class = "elName">name</text>
	<rect x = "148" y = "11" width = "48" height = "26" class = "elTypeBkgnd" rx = "5" ry = "5" clip-path = "url(#e:application-policy/a:name)"/>
	<defs/>
	<clipPath id = "e:application-policy/a:name">
		<rect x = "147" y = "25" width = "50" height = "12"/>
	</clipPath>
	<text x = "148" y = "33" class = "elType">string</text>
	<image xlink:href = "../dgmDtString.gif" width = "10" height = "10" x = "187" y = "20"/>
	<rect x = "5" y = "48" width = "107" height = "28" class = "element"/>
	<polygon class = "nodeStyle" points = "11,50 7,54 11,58 15,54"/>
	<text x = "16" y = "59" class = "elName">application-policy</text>
	<rect x = "6" y = "63" width = "105" height = "12" class = "elTypeBkgnd"/>
	<image xlink:href = "../dgmTypeComplex.gif" width = "10" height = "10" x = "102" y = "58"/>
	<polyline class = "connector" points = "112,62 142,62"/>
	<polyline class = "connector" points = "112,60 120,60 120,24 142,24"/>
	<polyline class = "connector" points = "142,62 154,62"/>
	<rect x = "154" y = "48" width = "91" height = "28" class = "element"/>
	<polygon class = "nodeStyle" points = "160,50 156,54 160,58 164,54"/>
	<text x = "165" y = "59" class = "elName">authentication</text>
	<rect x = "155" y = "63" width = "89" height = "12" class = "elTypeBkgnd"/>
	<image xlink:href = "../dgmTypeComplex.gif" width = "10" height = "10" x = "235" y = "58"/>
</svg>