<?xml version = "1.0"?>
<!DOCTYPE svg PUBLIC "-//W3C//DTD SVG 20010904//EN" "http://www.w3.org/TR/2001/REC-SVG-20010904/DTD/svg10.dtd">
<svg width = "261pt" height = "108pt" viewBox = "0 0 261 108" xmlns = "http://www.w3.org/2000/svg" xmlns:xlink = "http://www.w3.org/1999/xlink">
	<defs>
		<style type = "text/css"><![CDATA[
rect.attrGroup { fill: ivory ; stroke: black; stroke-width: 1 }
rect.element { fill: ivory ; stroke: black; stroke-width: 1 }
rect.elTypeBkgnd { fill: lightgray ; stroke: none }
text.elName { font-family: helvetica ; font-size : 10 }
text.elType { font-family: helvetica ; font-size : 7 }
text.occurLarge { font-family: helvetica ; font-size : 9; fill : blue }
text.occurSmall { font-family: helvetica ; font-size : 7; fill : blue }
rect.typeIconDark { fill : darkslategray }
circle.occurs { stroke : black ; stroke-width: 1; fill : white }
circle.ellipsis { fill : black }
path.typeIconDark { stroke : lightgray ; stroke-width: 1 }
path.connector { stroke : red ; stroke-width: 1 ; fill: none; }
path.modelGroup { stroke : black ; stroke-width: 1 ; fill: lightgray; }
polyline.connector { stroke : red ; stroke-width: 1 ; fill: none; }
.nodeStyle { fill : blue }
]]></style>
	</defs>
	<rect x = "5" y = "40" width = "56" height = "28" class = "element"/>
	<polygon class = "nodeStyle" points = "11,42 7,46 11,50 15,46"/>
	<text x = "16" y = "51" class = "elName">invoker</text>
	<rect x = "6" y = "55" width = "54" height = "12" class = "elTypeBkgnd"/>
	<image xlink:href = "../dgmTypeComplex.gif" width = "10" height = "10" x = "51" y = "50"/>
	<polyline class = "connector" points = "91,19 71,19 71,54 61,54 71,54 71,89 91,89"/>
	<polyline class = "connector" points = "91,19 103,19"/>
	<rect x = "103" y = "5" width = "153" height = "28" class = "element"/>
	<polygon class = "nodeStyle" points = "109,7 105,11 109,15 113,11"/>
	<text x = "114" y = "16" class = "elName">invoker-proxy-binding-name</text>
	<rect x = "104" y = "20" width = "151" height = "12" class = "elTypeBkgnd"/>
	<image xlink:href = "../dgmDtString.gif" width = "10" height = "10" x = "246" y = "15"/>
	<circle class = "occurs" cx = "97" cy = "54" r = "6"/>
	<text x = "94" y = "57" class = "occurLarge">?</text>
	<rect x = "103" y = "40" width = "71" height = "28" class = "element"/>
	<polygon class = "nodeStyle" points = "109,42 105,46 109,50 113,46"/>
	<text x = "114" y = "51" class = "elName">jndi-name</text>
	<rect x = "104" y = "55" width = "69" height = "12" class = "elTypeBkgnd"/>
	<image xlink:href = "../dgmDtString.gif" width = "10" height = "10" x = "164" y = "50"/>
	<circle class = "occurs" cx = "97" cy = "89" r = "6"/>
	<text x = "94" y = "92" class = "occurLarge">*</text>
	<rect x = "103" y = "75" width = "53" height = "28" class = "element"/>
	<polygon class = "nodeStyle" points = "109,77 105,81 109,85 113,81"/>
	<text x = "114" y = "86" class = "elName">ejb-ref</text>
	<rect x = "104" y = "90" width = "51" height = "12" class = "elTypeBkgnd"/>
	<image xlink:href = "../dgmTypeComplex.gif" width = "10" height = "10" x = "146" y = "85"/>
</svg>