<?xml version = "1.0"?>
<!DOCTYPE svg PUBLIC "-//W3C//DTD SVG 20010904//EN" "http://www.w3.org/TR/2001/REC-SVG-20010904/DTD/svg10.dtd">
<svg width = "314pt" height = "143pt" viewBox = "0 0 314 143" xmlns = "http://www.w3.org/2000/svg" xmlns:xlink = "http://www.w3.org/1999/xlink">
	<defs>
		<style type = "text/css"><![CDATA[
rect.attrGroup { fill: ivory ; stroke: black; stroke-width: 1 }
rect.element { fill: ivory ; stroke: black; stroke-width: 1 }
rect.elTypeBkgnd { fill: lightgray ; stroke: none }
text.elName { font-family: helvetica ; font-size : 10 }
text.elType { font-family: helvetica ; font-size : 7 }
text.occurLarge { font-family: helvetica ; font-size : 9; fill : blue }
text.occurSmall { font-family: helvetica ; font-size : 7; fill : blue }
rect.typeIconDark { fill : darkslategray }
circle.occurs { stroke : black ; stroke-width: 1; fill : white }
circle.ellipsis { fill : black }
path.typeIconDark { stroke : lightgray ; stroke-width: 1 }
path.connector { stroke : red ; stroke-width: 1 ; fill: none; }
path.modelGroup { stroke : black ; stroke-width: 1 ; fill: lightgray; }
polyline.connector { stroke : red ; stroke-width: 1 ; fill: none; }
.nodeStyle { fill : blue }
]]></style>
	</defs>
	<rect x = "5" y = "57" width = "85" height = "28" class = "element"/>
	<polygon class = "nodeStyle" points = "11,59 7,63 11,67 15,63"/>
	<text x = "16" y = "68" class = "elName">cluster-config</text>
	<rect x = "6" y = "72" width = "83" height = "12" class = "elTypeBkgnd"/>
	<image xlink:href = "../dgmTypeComplex.gif" width = "10" height = "10" x = "80" y = "67"/>
	<polyline class = "connector" points = "120,19 100,19 100,71 90,71 100,71 100,124 120,124"/>
	<circle class = "occurs" cx = "126" cy = "19" r = "6"/>
	<text x = "123" y = "22" class = "occurLarge">?</text>
	<rect x = "132" y = "5" width = "92" height = "28" class = "element"/>
	<polygon class = "nodeStyle" points = "138,7 134,11 138,15 142,11"/>
	<text x = "143" y = "16" class = "elName">partition-name</text>
	<rect x = "133" y = "20" width = "90" height = "12" class = "elTypeBkgnd"/>
	<image xlink:href = "../dgmDtString.gif" width = "10" height = "10" x = "214" y = "15"/>
	<circle class = "occurs" cx = "126" cy = "54" r = "6"/>
	<text x = "123" y = "57" class = "occurLarge">?</text>
	<rect x = "132" y = "40" width = "146" height = "28" class = "element"/>
	<polygon class = "nodeStyle" points = "138,42 134,46 138,50 142,46"/>
	<text x = "143" y = "51" class = "elName">home-load-balance-policy</text>
	<rect x = "133" y = "55" width = "144" height = "12" class = "elTypeBkgnd"/>
	<image xlink:href = "../dgmDtString.gif" width = "10" height = "10" x = "268" y = "50"/>
	<circle class = "occurs" cx = "126" cy = "89" r = "6"/>
	<text x = "123" y = "92" class = "occurLarge">?</text>
	<rect x = "132" y = "75" width = "143" height = "28" class = "element"/>
	<polygon class = "nodeStyle" points = "138,77 134,81 138,85 142,81"/>
	<text x = "143" y = "86" class = "elName">bean-load-balance-policy</text>
	<rect x = "133" y = "90" width = "141" height = "12" class = "elTypeBkgnd"/>
	<image xlink:href = "../dgmDtString.gif" width = "10" height = "10" x = "265" y = "85"/>
	<circle class = "occurs" cx = "126" cy = "124" r = "6"/>
	<text x = "123" y = "127" class = "occurLarge">?</text>
	<rect x = "132" y = "110" width = "177" height = "28" class = "element"/>
	<polygon class = "nodeStyle" points = "138,112 134,116 138,120 142,116"/>
	<text x = "143" y = "121" class = "elName">session-state-manager-jndi-name</text>
	<rect x = "133" y = "125" width = "175" height = "12" class = "elTypeBkgnd"/>
	<image xlink:href = "../dgmDtString.gif" width = "10" height = "10" x = "299" y = "120"/>
</svg>