<?xml version = "1.0"?>
<!DOCTYPE svg PUBLIC "-//W3C//DTD SVG 20010904//EN" "http://www.w3.org/TR/2001/REC-SVG-20010904/DTD/svg10.dtd">
<svg width = "185pt" height = "143pt" viewBox = "0 0 185 143" xmlns = "http://www.w3.org/2000/svg" xmlns:xlink = "http://www.w3.org/1999/xlink">
	<defs>
		<style type = "text/css"><![CDATA[
rect.attrGroup { fill: ivory ; stroke: black; stroke-width: 1 }
rect.element { fill: ivory ; stroke: black; stroke-width: 1 }
rect.elTypeBkgnd { fill: lightgray ; stroke: none }
text.elName { font-family: helvetica ; font-size : 10 }
text.elType { font-family: helvetica ; font-size : 7 }
text.occurLarge { font-family: helvetica ; font-size : 9; fill : blue }
text.occurSmall { font-family: helvetica ; font-size : 7; fill : blue }
rect.typeIconDark { fill : darkslategray }
circle.occurs { stroke : black ; stroke-width: 1; fill : white }
circle.ellipsis { fill : black }
path.typeIconDark { stroke : lightgray ; stroke-width: 1 }
path.connector { stroke : red ; stroke-width: 1 ; fill: none; }
path.modelGroup { stroke : black ; stroke-width: 1 ; fill: lightgray; }
polyline.connector { stroke : red ; stroke-width: 1 ; fill: none; }
.nodeStyle { fill : blue }
]]></style>
	</defs>
	<rect x = "5" y = "57" width = "47" height = "28" class = "element"/>
	<polygon class = "nodeStyle" points = "11,59 7,63 11,67 15,63"/>
	<text x = "16" y = "68" class = "elName">audit</text>
	<rect x = "6" y = "72" width = "45" height = "12" class = "elTypeBkgnd"/>
	<image xlink:href = "../dgmTypeComplex.gif" width = "10" height = "10" x = "42" y = "67"/>
	<polyline class = "connector" points = "82,19 62,19 62,71 52,71 62,71 62,124 82,124"/>
	<circle class = "occurs" cx = "88" cy = "19" r = "6"/>
	<text x = "85" y = "22" class = "occurLarge">?</text>
	<rect x = "94" y = "5" width = "72" height = "28" class = "element"/>
	<polygon class = "nodeStyle" points = "100,7 96,11 100,15 104,11"/>
	<text x = "105" y = "16" class = "elName">created-by</text>
	<rect x = "95" y = "20" width = "70" height = "12" class = "elTypeBkgnd"/>
	<image xlink:href = "../dgmTypeComplex.gif" width = "10" height = "10" x = "156" y = "15"/>
	<circle class = "occurs" cx = "88" cy = "54" r = "6"/>
	<text x = "85" y = "57" class = "occurLarge">?</text>
	<rect x = "94" y = "40" width = "82" height = "28" class = "element"/>
	<polygon class = "nodeStyle" points = "100,42 96,46 100,50 104,46"/>
	<text x = "105" y = "51" class = "elName">created-time</text>
	<rect x = "95" y = "55" width = "80" height = "12" class = "elTypeBkgnd"/>
	<image xlink:href = "../dgmTypeComplex.gif" width = "10" height = "10" x = "166" y = "50"/>
	<circle class = "occurs" cx = "88" cy = "89" r = "6"/>
	<text x = "85" y = "92" class = "occurLarge">?</text>
	<rect x = "94" y = "75" width = "76" height = "28" class = "element"/>
	<polygon class = "nodeStyle" points = "100,77 96,81 100,85 104,81"/>
	<text x = "105" y = "86" class = "elName">updated-by</text>
	<rect x = "95" y = "90" width = "74" height = "12" class = "elTypeBkgnd"/>
	<image xlink:href = "../dgmTypeComplex.gif" width = "10" height = "10" x = "160" y = "85"/>
	<circle class = "occurs" cx = "88" cy = "124" r = "6"/>
	<text x = "85" y = "127" class = "occurLarge">?</text>
	<rect x = "94" y = "110" width = "86" height = "28" class = "element"/>
	<polygon class = "nodeStyle" points = "100,112 96,116 100,120 104,116"/>
	<text x = "105" y = "121" class = "elName">updated-time</text>
	<rect x = "95" y = "125" width = "84" height = "12" class = "elTypeBkgnd"/>
	<image xlink:href = "../dgmTypeComplex.gif" width = "10" height = "10" x = "170" y = "120"/>
</svg>