<?xml version = "1.0"?>
<!DOCTYPE svg PUBLIC "-//W3C//DTD SVG 20010904//EN" "http://www.w3.org/TR/2001/REC-SVG-20010904/DTD/svg10.dtd">
<svg width = "279pt" height = "458pt" viewBox = "0 0 279 458" xmlns = "http://www.w3.org/2000/svg" xmlns:xlink = "http://www.w3.org/1999/xlink">
	<defs>
		<style type = "text/css"><![CDATA[
rect.attrGroup { fill: ivory ; stroke: black; stroke-width: 1 }
rect.element { fill: ivory ; stroke: black; stroke-width: 1 }
rect.elTypeBkgnd { fill: lightgray ; stroke: none }
text.elName { font-family: helvetica ; font-size : 10 }
text.elType { font-family: helvetica ; font-size : 7 }
text.occurLarge { font-family: helvetica ; font-size : 9; fill : blue }
text.occurSmall { font-family: helvetica ; font-size : 7; fill : blue }
rect.typeIconDark { fill : darkslategray }
circle.occurs { stroke : black ; stroke-width: 1; fill : white }
circle.ellipsis { fill : black }
path.typeIconDark { stroke : lightgray ; stroke-width: 1 }
path.connector { stroke : red ; stroke-width: 1 ; fill: none; }
path.modelGroup { stroke : black ; stroke-width: 1 ; fill: lightgray; }
polyline.connector { stroke : red ; stroke-width: 1 ; fill: none; }
.nodeStyle { fill : blue }
]]></style>
	</defs>
	<rect x = "5" y = "215" width = "88" height = "28" class = "element"/>
	<polygon class = "nodeStyle" points = "11,217 7,221 11,225 15,221"/>
	<text x = "16" y = "226" class = "elName">type-mapping</text>
	<rect x = "6" y = "230" width = "86" height = "12" class = "elTypeBkgnd"/>
	<image xlink:href = "../dgmTypeComplex.gif" width = "10" height = "10" x = "83" y = "225"/>
	<polyline class = "connector" points = "123,19 103,19 103,229 93,229 103,229 103,439 123,439"/>
	<polyline class = "connector" points = "123,19 135,19"/>
	<rect x = "135" y = "5" width = "50" height = "28" class = "element"/>
	<polygon class = "nodeStyle" points = "141,7 137,11 141,15 145,11"/>
	<text x = "146" y = "16" class = "elName">name</text>
	<rect x = "136" y = "20" width = "48" height = "12" class = "elTypeBkgnd"/>
	<image xlink:href = "../dgmDtString.gif" width = "10" height = "10" x = "175" y = "15"/>
	<rect x = "135" y = "40" width = "120" height = "28" class = "element"/>
	<polygon class = "nodeStyle" points = "141,42 137,46 141,50 145,46"/>
	<text x = "146" y = "51" class = "elName">row-locking-template</text>
	<rect x = "136" y = "55" width = "118" height = "12" class = "elTypeBkgnd"/>
	<image xlink:href = "../dgmDtString.gif" width = "10" height = "10" x = "245" y = "50"/>
	<rect x = "135" y = "75" width = "126" height = "28" class = "element"/>
	<polygon class = "nodeStyle" points = "141,77 137,81 141,85 145,81"/>
	<text x = "146" y = "86" class = "elName">pk-constraint-template</text>
	<rect x = "136" y = "90" width = "124" height = "12" class = "elTypeBkgnd"/>
	<image xlink:href = "../dgmDtString.gif" width = "10" height = "10" x = "251" y = "85"/>
	<rect x = "135" y = "110" width = "123" height = "28" class = "element"/>
	<polygon class = "nodeStyle" points = "141,112 137,116 141,120 145,116"/>
	<text x = "146" y = "121" class = "elName">fk-constraint-template</text>
	<rect x = "136" y = "125" width = "121" height = "12" class = "elTypeBkgnd"/>
	<image xlink:href = "../dgmDtString.gif" width = "10" height = "10" x = "248" y = "120"/>
	<circle class = "occurs" cx = "129" cy = "159" r = "6"/>
	<text x = "126" y = "162" class = "occurLarge">?</text>
	<rect x = "135" y = "145" width = "139" height = "28" class = "element"/>
	<polygon class = "nodeStyle" points = "141,147 137,151 141,155 145,151"/>
	<text x = "146" y = "156" class = "elName">auto-increment-template</text>
	<rect x = "136" y = "160" width = "137" height = "12" class = "elTypeBkgnd"/>
	<image xlink:href = "../dgmDtString.gif" width = "10" height = "10" x = "264" y = "155"/>
	<rect x = "135" y = "180" width = "110" height = "28" class = "element"/>
	<polygon class = "nodeStyle" points = "141,182 137,186 141,190 145,186"/>
	<text x = "146" y = "191" class = "elName">alias-header-prefix</text>
	<rect x = "136" y = "195" width = "108" height = "12" class = "elTypeBkgnd"/>
	<image xlink:href = "../dgmDtString.gif" width = "10" height = "10" x = "235" y = "190"/>
	<rect x = "135" y = "215" width = "108" height = "28" class = "element"/>
	<polygon class = "nodeStyle" points = "141,217 137,221 141,225 145,221"/>
	<text x = "146" y = "226" class = "elName">alias-header-suffix</text>
	<rect x = "136" y = "230" width = "106" height = "12" class = "elTypeBkgnd"/>
	<image xlink:href = "../dgmDtString.gif" width = "10" height = "10" x = "233" y = "225"/>
	<rect x = "135" y = "250" width = "101" height = "28" class = "element"/>
	<polygon class = "nodeStyle" points = "141,252 137,256 141,260 145,256"/>
	<text x = "146" y = "261" class = "elName">alias-max-length</text>
	<rect x = "136" y = "265" width = "99" height = "12" class = "elTypeBkgnd"/>
	<image xlink:href = "../dgmDtString.gif" width = "10" height = "10" x = "226" y = "260"/>
	<rect x = "135" y = "285" width = "114" height = "28" class = "element"/>
	<polygon class = "nodeStyle" points = "141,287 137,291 141,295 145,291"/>
	<text x = "146" y = "296" class = "elName">subquery-supported</text>
	<rect x = "136" y = "300" width = "112" height = "12" class = "elTypeBkgnd"/>
	<image xlink:href = "../dgmDtString.gif" width = "10" height = "10" x = "239" y = "295"/>
	<rect x = "135" y = "320" width = "86" height = "28" class = "element"/>
	<polygon class = "nodeStyle" points = "141,322 137,326 141,330 145,326"/>
	<text x = "146" y = "331" class = "elName">true-mapping</text>
	<rect x = "136" y = "335" width = "84" height = "12" class = "elTypeBkgnd"/>
	<image xlink:href = "../dgmDtString.gif" width = "10" height = "10" x = "211" y = "330"/>
	<rect x = "135" y = "355" width = "90" height = "28" class = "element"/>
	<polygon class = "nodeStyle" points = "141,357 137,361 141,365 145,361"/>
	<text x = "146" y = "366" class = "elName">false-mapping</text>
	<rect x = "136" y = "370" width = "88" height = "12" class = "elTypeBkgnd"/>
	<image xlink:href = "../dgmDtString.gif" width = "10" height = "10" x = "215" y = "365"/>
	<circle class = "occurs" cx = "129" cy = "404" r = "6"/>
	<text x = "126" y = "407" class = "occurLarge">*</text>
	<rect x = "135" y = "390" width = "106" height = "28" class = "element"/>
	<polygon class = "nodeStyle" points = "141,392 137,396 141,400 145,396"/>
	<text x = "146" y = "401" class = "elName">function-mapping</text>
	<rect x = "136" y = "405" width = "104" height = "12" class = "elTypeBkgnd"/>
	<image xlink:href = "../dgmTypeComplex.gif" width = "10" height = "10" x = "231" y = "400"/>
	<circle class = "occurs" cx = "129" cy = "439" r = "6"/>
	<text x = "126" y = "442" class = "occurLarge">+</text>
	<rect x = "135" y = "425" width = "65" height = "28" class = "element"/>
	<polygon class = "nodeStyle" points = "141,427 137,431 141,435 145,431"/>
	<text x = "146" y = "436" class = "elName">mapping</text>
	<rect x = "136" y = "440" width = "63" height = "12" class = "elTypeBkgnd"/>
	<image xlink:href = "../dgmTypeComplex.gif" width = "10" height = "10" x = "190" y = "435"/>
</svg>