<?xml version = "1.0"?>
<!DOCTYPE svg PUBLIC "-//W3C//DTD SVG 20010904//EN" "http://www.w3.org/TR/2001/REC-SVG-20010904/DTD/svg10.dtd">
<svg width = "236pt" height = "143pt" viewBox = "0 0 236 143" xmlns = "http://www.w3.org/2000/svg" xmlns:xlink = "http://www.w3.org/1999/xlink">
	<defs>
		<style type = "text/css"><![CDATA[
rect.attrGroup { fill: ivory ; stroke: black; stroke-width: 1 }
rect.element { fill: ivory ; stroke: black; stroke-width: 1 }
rect.elTypeBkgnd { fill: lightgray ; stroke: none }
text.elName { font-family: helvetica ; font-size : 10 }
text.elType { font-family: helvetica ; font-size : 7 }
text.occurLarge { font-family: helvetica ; font-size : 9; fill : blue }
text.occurSmall { font-family: helvetica ; font-size : 7; fill : blue }
rect.typeIconDark { fill : darkslategray }
circle.occurs { stroke : black ; stroke-width: 1; fill : white }
circle.ellipsis { fill : black }
path.typeIconDark { stroke : lightgray ; stroke-width: 1 }
path.connector { stroke : red ; stroke-width: 1 ; fill: none; }
path.modelGroup { stroke : black ; stroke-width: 1 ; fill: lightgray; }
polyline.connector { stroke : red ; stroke-width: 1 ; fill: none; }
.nodeStyle { fill : blue }
]]></style>
	</defs>
	<rect x = "5" y = "57" width = "76" height = "28" class = "element"/>
	<polygon class = "nodeStyle" points = "11,59 7,63 11,67 15,63"/>
	<text x = "16" y = "68" class = "elName">updated-by</text>
	<rect x = "6" y = "72" width = "74" height = "12" class = "elTypeBkgnd"/>
	<image xlink:href = "../dgmTypeComplex.gif" width = "10" height = "10" x = "71" y = "67"/>
	<polyline class = "connector" points = "111,19 91,19 91,71 81,71 91,71 91,106 111,106"/>
	<circle class = "occurs" cx = "117" cy = "19" r = "6"/>
	<text x = "114" y = "22" class = "occurLarge">?</text>
	<rect x = "123" y = "5" width = "74" height = "28" class = "element"/>
	<polygon class = "nodeStyle" points = "129,7 125,11 129,15 133,11"/>
	<text x = "134" y = "16" class = "elName">field-name</text>
	<rect x = "124" y = "20" width = "72" height = "12" class = "elTypeBkgnd"/>
	<image xlink:href = "../dgmDtString.gif" width = "10" height = "10" x = "187" y = "15"/>
	<circle class = "occurs" cx = "117" cy = "54" r = "6"/>
	<text x = "114" y = "57" class = "occurLarge">?</text>
	<rect x = "123" y = "40" width = "88" height = "28" class = "element"/>
	<polygon class = "nodeStyle" points = "129,42 125,46 129,50 133,46"/>
	<text x = "134" y = "51" class = "elName">column-name</text>
	<rect x = "124" y = "55" width = "86" height = "12" class = "elTypeBkgnd"/>
	<image xlink:href = "../dgmDtString.gif" width = "10" height = "10" x = "201" y = "50"/>
	<circle class = "occurs" cx = "117" cy = "106" r = "6"/>
	<text x = "114" y = "109" class = "occurLarge">?</text>
	<polyline class = "connector" points = "153,89 133,89 133,106 123,106 133,106 133,124 153,124"/>
	<polyline class = "connector" points = "153,89 165,89"/>
	<rect x = "165" y = "75" width = "66" height = "28" class = "element"/>
	<polygon class = "nodeStyle" points = "171,77 167,81 171,85 175,81"/>
	<text x = "176" y = "86" class = "elName">jdbc-type</text>
	<rect x = "166" y = "90" width = "64" height = "12" class = "elTypeBkgnd"/>
	<image xlink:href = "../dgmDtString.gif" width = "10" height = "10" x = "221" y = "85"/>
	<polyline class = "connector" points = "153,124 165,124"/>
	<rect x = "165" y = "110" width = "59" height = "28" class = "element"/>
	<polygon class = "nodeStyle" points = "171,112 167,116 171,120 175,116"/>
	<text x = "176" y = "121" class = "elName">sql-type</text>
	<rect x = "166" y = "125" width = "57" height = "12" class = "elTypeBkgnd"/>
	<image xlink:href = "../dgmDtString.gif" width = "10" height = "10" x = "214" y = "120"/>
</svg>