<?xml version = "1.0"?>
<!DOCTYPE svg PUBLIC "-//W3C//DTD SVG 20010904//EN" "http://www.w3.org/TR/2001/REC-SVG-20010904/DTD/svg10.dtd">
<svg width = "183pt" height = "108pt" viewBox = "0 0 183 108" xmlns = "http://www.w3.org/2000/svg" xmlns:xlink = "http://www.w3.org/1999/xlink">
	<defs>
		<style type = "text/css"><![CDATA[
rect.attrGroup { fill: ivory ; stroke: black; stroke-width: 1 }
rect.element { fill: ivory ; stroke: black; stroke-width: 1 }
rect.elTypeBkgnd { fill: lightgray ; stroke: none }
text.elName { font-family: helvetica ; font-size : 10 }
text.elType { font-family: helvetica ; font-size : 7 }
text.occurLarge { font-family: helvetica ; font-size : 9; fill : blue }
text.occurSmall { font-family: helvetica ; font-size : 7; fill : blue }
rect.typeIconDark { fill : darkslategray }
circle.occurs { stroke : black ; stroke-width: 1; fill : white }
circle.ellipsis { fill : black }
path.typeIconDark { stroke : lightgray ; stroke-width: 1 }
path.connector { stroke : red ; stroke-width: 1 ; fill: none; }
path.modelGroup { stroke : black ; stroke-width: 1 ; fill: lightgray; }
polyline.connector { stroke : red ; stroke-width: 1 ; fill: none; }
.nodeStyle { fill : blue }
]]></style>
	</defs>
	<rect x = "5" y = "40" width = "65" height = "28" class = "element"/>
	<polygon class = "nodeStyle" points = "11,42 7,46 11,50 15,46"/>
	<text x = "16" y = "51" class = "elName">mapping</text>
	<rect x = "6" y = "55" width = "63" height = "12" class = "elTypeBkgnd"/>
	<image xlink:href = "../dgmTypeComplex.gif" width = "10" height = "10" x = "60" y = "50"/>
	<polyline class = "connector" points = "100,19 80,19 80,54 70,54 80,54 80,89 100,89"/>
	<polyline class = "connector" points = "100,19 112,19"/>
	<rect x = "112" y = "5" width = "66" height = "28" class = "element"/>
	<polygon class = "nodeStyle" points = "118,7 114,11 118,15 122,11"/>
	<text x = "123" y = "16" class = "elName">java-type</text>
	<rect x = "113" y = "20" width = "64" height = "12" class = "elTypeBkgnd"/>
	<image xlink:href = "../dgmDtString.gif" width = "10" height = "10" x = "168" y = "15"/>
	<rect x = "112" y = "40" width = "66" height = "28" class = "element"/>
	<polygon class = "nodeStyle" points = "118,42 114,46 118,50 122,46"/>
	<text x = "123" y = "51" class = "elName">jdbc-type</text>
	<rect x = "113" y = "55" width = "64" height = "12" class = "elTypeBkgnd"/>
	<image xlink:href = "../dgmDtString.gif" width = "10" height = "10" x = "168" y = "50"/>
	<polyline class = "connector" points = "100,89 112,89"/>
	<rect x = "112" y = "75" width = "59" height = "28" class = "element"/>
	<polygon class = "nodeStyle" points = "118,77 114,81 118,85 122,81"/>
	<text x = "123" y = "86" class = "elName">sql-type</text>
	<rect x = "113" y = "90" width = "57" height = "12" class = "elTypeBkgnd"/>
	<image xlink:href = "../dgmDtString.gif" width = "10" height = "10" x = "161" y = "85"/>
</svg>