<?xml version = "1.0"?>
<!DOCTYPE svg PUBLIC "-//W3C//DTD SVG 20010904//EN" "http://www.w3.org/TR/2001/REC-SVG-20010904/DTD/svg10.dtd">
<svg width = "232pt" height = "143pt" viewBox = "0 0 232 143" xmlns = "http://www.w3.org/2000/svg" xmlns:xlink = "http://www.w3.org/1999/xlink">
	<defs>
		<style type = "text/css"><![CDATA[
rect.attrGroup { fill: ivory ; stroke: black; stroke-width: 1 }
rect.element { fill: ivory ; stroke: black; stroke-width: 1 }
rect.elTypeBkgnd { fill: lightgray ; stroke: none }
text.elName { font-family: helvetica ; font-size : 10 }
text.elType { font-family: helvetica ; font-size : 7 }
text.occurLarge { font-family: helvetica ; font-size : 9; fill : blue }
text.occurSmall { font-family: helvetica ; font-size : 7; fill : blue }
rect.typeIconDark { fill : darkslategray }
circle.occurs { stroke : black ; stroke-width: 1; fill : white }
circle.ellipsis { fill : black }
path.typeIconDark { stroke : lightgray ; stroke-width: 1 }
path.connector { stroke : red ; stroke-width: 1 ; fill: none; }
path.modelGroup { stroke : black ; stroke-width: 1 ; fill: lightgray; }
polyline.connector { stroke : red ; stroke-width: 1 ; fill: none; }
.nodeStyle { fill : blue }
]]></style>
	</defs>
	<rect x = "5" y = "57" width = "72" height = "28" class = "element"/>
	<polygon class = "nodeStyle" points = "11,59 7,63 11,67 15,63"/>
	<text x = "16" y = "68" class = "elName">created-by</text>
	<rect x = "6" y = "72" width = "70" height = "12" class = "elTypeBkgnd"/>
	<image xlink:href = "../dgmTypeComplex.gif" width = "10" height = "10" x = "67" y = "67"/>
	<polyline class = "connector" points = "107,19 87,19 87,71 77,71 87,71 87,106 107,106"/>
	<circle class = "occurs" cx = "113" cy = "19" r = "6"/>
	<text x = "110" y = "22" class = "occurLarge">?</text>
	<rect x = "119" y = "5" width = "74" height = "28" class = "element"/>
	<polygon class = "nodeStyle" points = "125,7 121,11 125,15 129,11"/>
	<text x = "130" y = "16" class = "elName">field-name</text>
	<rect x = "120" y = "20" width = "72" height = "12" class = "elTypeBkgnd"/>
	<image xlink:href = "../dgmDtString.gif" width = "10" height = "10" x = "183" y = "15"/>
	<circle class = "occurs" cx = "113" cy = "54" r = "6"/>
	<text x = "110" y = "57" class = "occurLarge">?</text>
	<rect x = "119" y = "40" width = "88" height = "28" class = "element"/>
	<polygon class = "nodeStyle" points = "125,42 121,46 125,50 129,46"/>
	<text x = "130" y = "51" class = "elName">column-name</text>
	<rect x = "120" y = "55" width = "86" height = "12" class = "elTypeBkgnd"/>
	<image xlink:href = "../dgmDtString.gif" width = "10" height = "10" x = "197" y = "50"/>
	<circle class = "occurs" cx = "113" cy = "106" r = "6"/>
	<text x = "110" y = "109" class = "occurLarge">?</text>
	<polyline class = "connector" points = "149,89 129,89 129,106 119,106 129,106 129,124 149,124"/>
	<polyline class = "connector" points = "149,89 161,89"/>
	<rect x = "161" y = "75" width = "66" height = "28" class = "element"/>
	<polygon class = "nodeStyle" points = "167,77 163,81 167,85 171,81"/>
	<text x = "172" y = "86" class = "elName">jdbc-type</text>
	<rect x = "162" y = "90" width = "64" height = "12" class = "elTypeBkgnd"/>
	<image xlink:href = "../dgmDtString.gif" width = "10" height = "10" x = "217" y = "85"/>
	<polyline class = "connector" points = "149,124 161,124"/>
	<rect x = "161" y = "110" width = "59" height = "28" class = "element"/>
	<polygon class = "nodeStyle" points = "167,112 163,116 167,120 171,116"/>
	<text x = "172" y = "121" class = "elName">sql-type</text>
	<rect x = "162" y = "125" width = "57" height = "12" class = "elTypeBkgnd"/>
	<image xlink:href = "../dgmDtString.gif" width = "10" height = "10" x = "210" y = "120"/>
</svg>