<?xml version = "1.0"?>
<!DOCTYPE svg PUBLIC "-//W3C//DTD SVG 20010904//EN" "http://www.w3.org/TR/2001/REC-SVG-20010904/DTD/svg10.dtd">
<svg width = "302pt" height = "248pt" viewBox = "0 0 302 248" xmlns = "http://www.w3.org/2000/svg" xmlns:xlink = "http://www.w3.org/1999/xlink">
	<defs>
		<style type = "text/css"><![CDATA[
rect.attrGroup { fill: ivory ; stroke: black; stroke-width: 1 }
rect.element { fill: ivory ; stroke: black; stroke-width: 1 }
rect.elTypeBkgnd { fill: lightgray ; stroke: none }
text.elName { font-family: helvetica ; font-size : 10 }
text.elType { font-family: helvetica ; font-size : 7 }
text.occurLarge { font-family: helvetica ; font-size : 9; fill : blue }
text.occurSmall { font-family: helvetica ; font-size : 7; fill : blue }
rect.typeIconDark { fill : darkslategray }
circle.occurs { stroke : black ; stroke-width: 1; fill : white }
circle.ellipsis { fill : black }
path.typeIconDark { stroke : lightgray ; stroke-width: 1 }
path.connector { stroke : red ; stroke-width: 1 ; fill: none; }
path.modelGroup { stroke : black ; stroke-width: 1 ; fill: lightgray; }
polyline.connector { stroke : red ; stroke-width: 1 ; fill: none; }
.nodeStyle { fill : blue }
]]></style>
	</defs>
	<rect x = "5" y = "110" width = "77" height = "28" class = "element"/>
	<polygon class = "nodeStyle" points = "11,112 7,116 11,120 15,116"/>
	<text x = "16" y = "121" class = "elName">ejb-relation</text>
	<rect x = "6" y = "125" width = "75" height = "12" class = "elTypeBkgnd"/>
	<image xlink:href = "../dgmTypeComplex.gif" width = "10" height = "10" x = "72" y = "120"/>
	<polyline class = "connector" points = "112,19 92,19 92,124 82,124 92,124 92,211 112,211"/>
	<polyline class = "connector" points = "112,19 124,19"/>
	<rect x = "124" y = "5" width = "107" height = "28" class = "element"/>
	<polygon class = "nodeStyle" points = "130,7 126,11 130,15 134,11"/>
	<text x = "135" y = "16" class = "elName">ejb-relation-name</text>
	<rect x = "125" y = "20" width = "105" height = "12" class = "elTypeBkgnd"/>
	<image xlink:href = "../dgmDtString.gif" width = "10" height = "10" x = "221" y = "15"/>
	<circle class = "occurs" cx = "118" cy = "54" r = "6"/>
	<text x = "115" y = "57" class = "occurLarge">?</text>
	<rect x = "124" y = "40" width = "67" height = "28" class = "element"/>
	<polygon class = "nodeStyle" points = "130,42 126,46 130,50 134,46"/>
	<text x = "135" y = "51" class = "elName">read-only</text>
	<rect x = "125" y = "55" width = "65" height = "12" class = "elTypeBkgnd"/>
	<image xlink:href = "../dgmDtString.gif" width = "10" height = "10" x = "181" y = "50"/>
	<circle class = "occurs" cx = "118" cy = "89" r = "6"/>
	<text x = "115" y = "92" class = "occurLarge">?</text>
	<rect x = "124" y = "75" width = "86" height = "28" class = "element"/>
	<polygon class = "nodeStyle" points = "130,77 126,81 130,85 134,81"/>
	<text x = "135" y = "86" class = "elName">read-time-out</text>
	<rect x = "125" y = "90" width = "84" height = "12" class = "elTypeBkgnd"/>
	<image xlink:href = "../dgmDtString.gif" width = "10" height = "10" x = "200" y = "85"/>
	<circle class = "occurs" cx = "118" cy = "141" r = "6"/>
	<text x = "115" y = "144" class = "occurLarge">?</text>
	<polyline class = "connector" points = "154,124 134,141 124,141 134,141 154,159"/>
	<polyline class = "connector" points = "154,124 166,124"/>
	<rect x = "166" y = "110" width = "119" height = "28" class = "element"/>
	<polygon class = "nodeStyle" points = "172,112 168,116 172,120 176,116"/>
	<text x = "177" y = "121" class = "elName">foreign-key-mapping</text>
	<rect x = "167" y = "125" width = "117" height = "12" class = "elTypeBkgnd"/>
	<image xlink:href = "../dgmTypeEmpty.gif" width = "10" height = "10" x = "275" y = "120"/>
	<polyline class = "connector" points = "154,159 166,159"/>
	<rect x = "166" y = "145" width = "131" height = "28" class = "element"/>
	<polygon class = "nodeStyle" points = "172,147 168,151 172,155 176,151"/>
	<text x = "177" y = "156" class = "elName">relation-table-mapping</text>
	<rect x = "167" y = "160" width = "129" height = "12" class = "elTypeBkgnd"/>
	<image xlink:href = "../dgmTypeComplex.gif" width = "10" height = "10" x = "287" y = "155"/>
	<circle class = "occurs" cx = "118" cy = "211" r = "6"/>
	<text x = "115" y = "214" class = "occurLarge">?</text>
	<polyline class = "connector" points = "154,194 134,194 134,211 124,211 134,211 134,229 154,229"/>
	<polyline class = "connector" points = "154,194 166,194"/>
	<rect x = "166" y = "180" width = "117" height = "28" class = "element"/>
	<polygon class = "nodeStyle" points = "172,182 168,186 172,190 176,186"/>
	<text x = "177" y = "191" class = "elName">ejb-relationship-role</text>
	<rect x = "167" y = "195" width = "115" height = "12" class = "elTypeBkgnd"/>
	<image xlink:href = "../dgmTypeComplex.gif" width = "10" height = "10" x = "273" y = "190"/>
	<polyline class = "connector" points = "154,229 166,229"/>
	<rect x = "166" y = "215" width = "117" height = "28" class = "element"/>
	<polygon class = "nodeStyle" points = "172,217 168,221 172,225 176,221"/>
	<text x = "177" y = "226" class = "elName">ejb-relationship-role</text>
	<rect x = "167" y = "230" width = "115" height = "12" class = "elTypeBkgnd"/>
	<image xlink:href = "../dgmTypeComplex.gif" width = "10" height = "10" x = "273" y = "225"/>
</svg>