<?xml version = "1.0"?>
<!DOCTYPE svg PUBLIC "-//W3C//DTD SVG 20010904//EN" "http://www.w3.org/TR/2001/REC-SVG-20010904/DTD/svg10.dtd">
<svg width = "273pt" height = "563pt" viewBox = "0 0 273 563" xmlns = "http://www.w3.org/2000/svg" xmlns:xlink = "http://www.w3.org/1999/xlink">
	<defs>
		<style type = "text/css"><![CDATA[
rect.attrGroup { fill: ivory ; stroke: black; stroke-width: 1 }
rect.element { fill: ivory ; stroke: black; stroke-width: 1 }
rect.elTypeBkgnd { fill: lightgray ; stroke: none }
text.elName { font-family: helvetica ; font-size : 10 }
text.elType { font-family: helvetica ; font-size : 7 }
text.occurLarge { font-family: helvetica ; font-size : 9; fill : blue }
text.occurSmall { font-family: helvetica ; font-size : 7; fill : blue }
rect.typeIconDark { fill : darkslategray }
circle.occurs { stroke : black ; stroke-width: 1; fill : white }
circle.ellipsis { fill : black }
path.typeIconDark { stroke : lightgray ; stroke-width: 1 }
path.connector { stroke : red ; stroke-width: 1 ; fill: none; }
path.modelGroup { stroke : black ; stroke-width: 1 ; fill: lightgray; }
polyline.connector { stroke : red ; stroke-width: 1 ; fill: none; }
.nodeStyle { fill : blue }
]]></style>
	</defs>
	<rect x = "5" y = "267" width = "60" height = "28" class = "element"/>
	<polygon class = "nodeStyle" points = "11,269 7,273 11,277 15,273"/>
	<text x = "16" y = "278" class = "elName">defaults</text>
	<rect x = "6" y = "282" width = "58" height = "12" class = "elTypeBkgnd"/>
	<image xlink:href = "../dgmTypeComplex.gif" width = "10" height = "10" x = "55" y = "277"/>
	<polyline class = "connector" points = "95,36 75,36 75,281 65,281 75,281 75,544 95,544"/>
	<circle class = "occurs" cx = "101" cy = "36" r = "6"/>
	<text x = "98" y = "39" class = "occurLarge">?</text>
	<polyline class = "connector" points = "137,19 117,19 117,36 107,36 117,36 117,54 137,54"/>
	<polyline class = "connector" points = "137,19 149,19"/>
	<rect x = "149" y = "5" width = "74" height = "28" class = "element"/>
	<polygon class = "nodeStyle" points = "155,7 151,11 155,15 159,11"/>
	<text x = "160" y = "16" class = "elName">datasource</text>
	<rect x = "150" y = "20" width = "72" height = "12" class = "elTypeBkgnd"/>
	<image xlink:href = "../dgmDtString.gif" width = "10" height = "10" x = "213" y = "15"/>
	<polyline class = "connector" points = "137,54 149,54"/>
	<rect x = "149" y = "40" width = "119" height = "28" class = "element"/>
	<polygon class = "nodeStyle" points = "155,42 151,46 155,50 159,46"/>
	<text x = "160" y = "51" class = "elName">datasource-mapping</text>
	<rect x = "150" y = "55" width = "117" height = "12" class = "elTypeBkgnd"/>
	<image xlink:href = "../dgmDtString.gif" width = "10" height = "10" x = "258" y = "50"/>
	<circle class = "occurs" cx = "101" cy = "89" r = "6"/>
	<text x = "98" y = "92" class = "occurLarge">?</text>
	<rect x = "107" y = "75" width = "79" height = "28" class = "element"/>
	<polygon class = "nodeStyle" points = "113,77 109,81 113,85 117,81"/>
	<text x = "118" y = "86" class = "elName">create-table</text>
	<rect x = "108" y = "90" width = "77" height = "12" class = "elTypeBkgnd"/>
	<image xlink:href = "../dgmDtString.gif" width = "10" height = "10" x = "176" y = "85"/>
	<circle class = "occurs" cx = "101" cy = "124" r = "6"/>
	<text x = "98" y = "127" class = "occurLarge">?</text>
	<rect x = "107" y = "110" width = "85" height = "28" class = "element"/>
	<polygon class = "nodeStyle" points = "113,112 109,116 113,120 117,116"/>
	<text x = "118" y = "121" class = "elName">remove-table</text>
	<rect x = "108" y = "125" width = "83" height = "12" class = "elTypeBkgnd"/>
	<image xlink:href = "../dgmDtString.gif" width = "10" height = "10" x = "182" y = "120"/>
	<circle class = "occurs" cx = "101" cy = "159" r = "6"/>
	<text x = "98" y = "162" class = "occurLarge">?</text>
	<rect x = "107" y = "145" width = "101" height = "28" class = "element"/>
	<polygon class = "nodeStyle" points = "113,147 109,151 113,155 117,151"/>
	<text x = "118" y = "156" class = "elName">post-table-create</text>
	<rect x = "108" y = "160" width = "99" height = "12" class = "elTypeBkgnd"/>
	<image xlink:href = "../dgmTypeComplex.gif" width = "10" height = "10" x = "198" y = "155"/>
	<circle class = "occurs" cx = "101" cy = "194" r = "6"/>
	<text x = "98" y = "197" class = "occurLarge">?</text>
	<rect x = "107" y = "180" width = "67" height = "28" class = "element"/>
	<polygon class = "nodeStyle" points = "113,182 109,186 113,190 117,186"/>
	<text x = "118" y = "191" class = "elName">read-only</text>
	<rect x = "108" y = "195" width = "65" height = "12" class = "elTypeBkgnd"/>
	<image xlink:href = "../dgmDtString.gif" width = "10" height = "10" x = "164" y = "190"/>
	<circle class = "occurs" cx = "101" cy = "229" r = "6"/>
	<text x = "98" y = "232" class = "occurLarge">?</text>
	<rect x = "107" y = "215" width = "86" height = "28" class = "element"/>
	<polygon class = "nodeStyle" points = "113,217 109,221 113,225 117,221"/>
	<text x = "118" y = "226" class = "elName">read-time-out</text>
	<rect x = "108" y = "230" width = "84" height = "12" class = "elTypeBkgnd"/>
	<image xlink:href = "../dgmDtString.gif" width = "10" height = "10" x = "183" y = "225"/>
	<circle class = "occurs" cx = "101" cy = "264" r = "6"/>
	<text x = "98" y = "267" class = "occurLarge">?</text>
	<rect x = "107" y = "250" width = "75" height = "28" class = "element"/>
	<polygon class = "nodeStyle" points = "113,252 109,256 113,260 117,256"/>
	<text x = "118" y = "261" class = "elName">row-locking</text>
	<rect x = "108" y = "265" width = "73" height = "12" class = "elTypeBkgnd"/>
	<image xlink:href = "../dgmDtString.gif" width = "10" height = "10" x = "172" y = "260"/>
	<circle class = "occurs" cx = "101" cy = "299" r = "6"/>
	<text x = "98" y = "302" class = "occurLarge">?</text>
	<rect x = "107" y = "285" width = "81" height = "28" class = "element"/>
	<polygon class = "nodeStyle" points = "113,287 109,291 113,295 117,291"/>
	<text x = "118" y = "296" class = "elName">pk-constraint</text>
	<rect x = "108" y = "300" width = "79" height = "12" class = "elTypeBkgnd"/>
	<image xlink:href = "../dgmDtString.gif" width = "10" height = "10" x = "178" y = "295"/>
	<circle class = "occurs" cx = "101" cy = "334" r = "6"/>
	<text x = "98" y = "337" class = "occurLarge">?</text>
	<rect x = "107" y = "320" width = "78" height = "28" class = "element"/>
	<polygon class = "nodeStyle" points = "113,322 109,326 113,330 117,326"/>
	<text x = "118" y = "331" class = "elName">fk-constraint</text>
	<rect x = "108" y = "335" width = "76" height = "12" class = "elTypeBkgnd"/>
	<image xlink:href = "../dgmDtString.gif" width = "10" height = "10" x = "175" y = "330"/>
	<circle class = "occurs" cx = "101" cy = "369" r = "6"/>
	<text x = "98" y = "372" class = "occurLarge">?</text>
	<rect x = "107" y = "355" width = "149" height = "28" class = "element"/>
	<polygon class = "nodeStyle" points = "113,357 109,361 113,365 117,361"/>
	<text x = "118" y = "366" class = "elName">preferred-relation-mapping</text>
	<rect x = "108" y = "370" width = "147" height = "12" class = "elTypeBkgnd"/>
	<image xlink:href = "../dgmDtString.gif" width = "10" height = "10" x = "246" y = "365"/>
	<circle class = "occurs" cx = "101" cy = "404" r = "6"/>
	<text x = "98" y = "407" class = "occurLarge">?</text>
	<rect x = "107" y = "390" width = "77" height = "28" class = "element"/>
	<polygon class = "nodeStyle" points = "113,392 109,396 113,400 117,396"/>
	<text x = "118" y = "401" class = "elName">read-ahead</text>
	<rect x = "108" y = "405" width = "75" height = "12" class = "elTypeBkgnd"/>
	<image xlink:href = "../dgmTypeComplex.gif" width = "10" height = "10" x = "174" y = "400"/>
	<circle class = "occurs" cx = "101" cy = "439" r = "6"/>
	<text x = "98" y = "442" class = "occurLarge">?</text>
	<rect x = "107" y = "425" width = "90" height = "28" class = "element"/>
	<polygon class = "nodeStyle" points = "113,427 109,431 113,435 117,431"/>
	<text x = "118" y = "436" class = "elName">list-cache-max</text>
	<rect x = "108" y = "440" width = "88" height = "12" class = "elTypeBkgnd"/>
	<image xlink:href = "../dgmDtString.gif" width = "10" height = "10" x = "187" y = "435"/>
	<circle class = "occurs" cx = "101" cy = "474" r = "6"/>
	<text x = "98" y = "477" class = "occurLarge">?</text>
	<rect x = "107" y = "460" width = "67" height = "28" class = "element"/>
	<polygon class = "nodeStyle" points = "113,462 109,466 113,470 117,466"/>
	<text x = "118" y = "471" class = "elName">fetch-size</text>
	<rect x = "108" y = "475" width = "65" height = "12" class = "elTypeBkgnd"/>
	<image xlink:href = "../dgmDtString.gif" width = "10" height = "10" x = "164" y = "470"/>
	<circle class = "occurs" cx = "101" cy = "509" r = "6"/>
	<text x = "98" y = "512" class = "occurLarge">?</text>
	<rect x = "107" y = "495" width = "77" height = "28" class = "element"/>
	<polygon class = "nodeStyle" points = "113,497 109,501 113,505 117,501"/>
	<text x = "118" y = "506" class = "elName">unknown-pk</text>
	<rect x = "108" y = "510" width = "75" height = "12" class = "elTypeBkgnd"/>
	<image xlink:href = "../dgmTypeComplex.gif" width = "10" height = "10" x = "174" y = "505"/>
	<circle class = "occurs" cx = "101" cy = "544" r = "6"/>
	<text x = "98" y = "547" class = "occurLarge">?</text>
	<rect x = "107" y = "530" width = "99" height = "28" class = "element"/>
	<polygon class = "nodeStyle" points = "113,532 109,536 113,540 117,536"/>
	<text x = "118" y = "541" class = "elName">entity-command</text>
	<rect x = "108" y = "545" width = "97" height = "12" class = "elTypeBkgnd"/>
	<image xlink:href = "../dgmTypeComplex.gif" width = "10" height = "10" x = "196" y = "540"/>
</svg>