<?xml version = "1.0"?>
<!DOCTYPE svg PUBLIC "-//W3C//DTD SVG 20010904//EN" "http://www.w3.org/TR/2001/REC-SVG-20010904/DTD/svg10.dtd">
<svg width = "236pt" height = "73pt" viewBox = "0 0 236 73" xmlns = "http://www.w3.org/2000/svg" xmlns:xlink = "http://www.w3.org/1999/xlink">
	<defs>
		<style type = "text/css"><![CDATA[
rect.attrGroup { fill: ivory ; stroke: black; stroke-width: 1 }
rect.element { fill: ivory ; stroke: black; stroke-width: 1 }
rect.elTypeBkgnd { fill: lightgray ; stroke: none }
text.elName { font-family: helvetica ; font-size : 10 }
text.elType { font-family: helvetica ; font-size : 7 }
text.occurLarge { font-family: helvetica ; font-size : 9; fill : blue }
text.occurSmall { font-family: helvetica ; font-size : 7; fill : blue }
rect.typeIconDark { fill : darkslategray }
circle.occurs { stroke : black ; stroke-width: 1; fill : white }
circle.ellipsis { fill : black }
path.typeIconDark { stroke : lightgray ; stroke-width: 1 }
path.connector { stroke : red ; stroke-width: 1 ; fill: none; }
path.modelGroup { stroke : black ; stroke-width: 1 ; fill: lightgray; }
polyline.connector { stroke : red ; stroke-width: 1 ; fill: none; }
.nodeStyle { fill : blue }
]]></style>
	</defs>
	<rect x = "5" y = "22" width = "88" height = "28" class = "element"/>
	<polygon class = "nodeStyle" points = "11,24 7,28 11,32 15,28"/>
	<text x = "16" y = "33" class = "elName">query-method</text>
	<rect x = "6" y = "37" width = "86" height = "12" class = "elTypeBkgnd"/>
	<image xlink:href = "../dgmTypeComplex.gif" width = "10" height = "10" x = "83" y = "32"/>
	<polyline class = "connector" points = "123,19 103,19 103,36 93,36 103,36 103,54 123,54"/>
	<polyline class = "connector" points = "123,19 135,19"/>
	<rect x = "135" y = "5" width = "89" height = "28" class = "element"/>
	<polygon class = "nodeStyle" points = "141,7 137,11 141,15 145,11"/>
	<text x = "146" y = "16" class = "elName">method-name</text>
	<rect x = "136" y = "20" width = "87" height = "12" class = "elTypeBkgnd"/>
	<image xlink:href = "../dgmDtString.gif" width = "10" height = "10" x = "214" y = "15"/>
	<polyline class = "connector" points = "123,54 135,54"/>
	<rect x = "135" y = "40" width = "96" height = "28" class = "element"/>
	<polygon class = "nodeStyle" points = "141,42 137,46 141,50 145,46"/>
	<text x = "146" y = "51" class = "elName">method-params</text>
	<rect x = "136" y = "55" width = "94" height = "12" class = "elTypeBkgnd"/>
	<image xlink:href = "../dgmTypeComplex.gif" width = "10" height = "10" x = "221" y = "50"/>
</svg>