<?xml version = "1.0"?>
<!DOCTYPE svg PUBLIC "-//W3C//DTD SVG 20010904//EN" "http://www.w3.org/TR/2001/REC-SVG-20010904/DTD/svg10.dtd">
<svg width = "254pt" height = "108pt" viewBox = "0 0 254 108" xmlns = "http://www.w3.org/2000/svg" xmlns:xlink = "http://www.w3.org/1999/xlink">
	<defs>
		<style type = "text/css"><![CDATA[
rect.attrGroup { fill: ivory ; stroke: black; stroke-width: 1 }
rect.element { fill: ivory ; stroke: black; stroke-width: 1 }
rect.elTypeBkgnd { fill: lightgray ; stroke: none }
text.elName { font-family: helvetica ; font-size : 10 }
text.elType { font-family: helvetica ; font-size : 7 }
text.occurLarge { font-family: helvetica ; font-size : 9; fill : blue }
text.occurSmall { font-family: helvetica ; font-size : 7; fill : blue }
rect.typeIconDark { fill : darkslategray }
circle.occurs { stroke : black ; stroke-width: 1; fill : white }
circle.ellipsis { fill : black }
path.typeIconDark { stroke : lightgray ; stroke-width: 1 }
path.connector { stroke : red ; stroke-width: 1 ; fill: none; }
path.modelGroup { stroke : black ; stroke-width: 1 ; fill: lightgray; }
polyline.connector { stroke : red ; stroke-width: 1 ; fill: none; }
.nodeStyle { fill : blue }
]]></style>
	</defs>
	<rect x = "5" y = "40" width = "128" height = "28" class = "element"/>
	<polygon class = "nodeStyle" points = "11,42 7,46 11,50 15,46"/>
	<text x = "16" y = "51" class = "elName">dependent-value-class</text>
	<rect x = "6" y = "55" width = "126" height = "12" class = "elTypeBkgnd"/>
	<image xlink:href = "../dgmTypeComplex.gif" width = "10" height = "10" x = "123" y = "50"/>
	<polyline class = "connector" points = "163,19 143,19 143,54 133,54 143,54 143,89 163,89"/>
	<circle class = "occurs" cx = "169" cy = "19" r = "6"/>
	<text x = "166" y = "22" class = "occurLarge">?</text>
	<rect x = "175" y = "5" width = "74" height = "28" class = "element"/>
	<polygon class = "nodeStyle" points = "181,7 177,11 181,15 185,11"/>
	<text x = "186" y = "16" class = "elName">description</text>
	<rect x = "176" y = "20" width = "72" height = "12" class = "elTypeBkgnd"/>
	<image xlink:href = "../dgmDtString.gif" width = "10" height = "10" x = "239" y = "15"/>
	<rect x = "175" y = "40" width = "45" height = "28" class = "element"/>
	<polygon class = "nodeStyle" points = "181,42 177,46 181,50 185,46"/>
	<text x = "186" y = "51" class = "elName">class</text>
	<rect x = "176" y = "55" width = "43" height = "12" class = "elTypeBkgnd"/>
	<image xlink:href = "../dgmDtString.gif" width = "10" height = "10" x = "210" y = "50"/>
	<circle class = "occurs" cx = "169" cy = "89" r = "6"/>
	<text x = "166" y = "92" class = "occurLarge">+</text>
	<rect x = "175" y = "75" width = "61" height = "28" class = "element"/>
	<polygon class = "nodeStyle" points = "181,77 177,81 181,85 185,81"/>
	<text x = "186" y = "86" class = "elName">property</text>
	<rect x = "176" y = "90" width = "59" height = "12" class = "elTypeBkgnd"/>
	<image xlink:href = "../dgmTypeComplex.gif" width = "10" height = "10" x = "226" y = "85"/>
</svg>