<?xml version = "1.0"?>
<!DOCTYPE svg PUBLIC "-//W3C//DTD SVG 20010904//EN" "http://www.w3.org/TR/2001/REC-SVG-20010904/DTD/svg10.dtd">
<svg width = "230pt" height = "108pt" viewBox = "0 0 230 108" xmlns = "http://www.w3.org/2000/svg" xmlns:xlink = "http://www.w3.org/1999/xlink">
	<defs>
		<style type = "text/css"><![CDATA[
rect.attrGroup { fill: ivory ; stroke: black; stroke-width: 1 }
rect.element { fill: ivory ; stroke: black; stroke-width: 1 }
rect.elTypeBkgnd { fill: lightgray ; stroke: none }
text.elName { font-family: helvetica ; font-size : 10 }
text.elType { font-family: helvetica ; font-size : 7 }
text.occurLarge { font-family: helvetica ; font-size : 9; fill : blue }
text.occurSmall { font-family: helvetica ; font-size : 7; fill : blue }
rect.typeIconDark { fill : darkslategray }
circle.occurs { stroke : black ; stroke-width: 1; fill : white }
circle.ellipsis { fill : black }
path.typeIconDark { stroke : lightgray ; stroke-width: 1 }
path.connector { stroke : red ; stroke-width: 1 ; fill: none; }
path.modelGroup { stroke : black ; stroke-width: 1 ; fill: lightgray; }
polyline.connector { stroke : red ; stroke-width: 1 ; fill: none; }
.nodeStyle { fill : blue }
]]></style>
	</defs>
	<rect x = "5" y = "40" width = "74" height = "28" class = "element"/>
	<polygon class = "nodeStyle" points = "11,42 7,46 11,50 15,46"/>
	<text x = "16" y = "51" class = "elName">load-group</text>
	<rect x = "6" y = "55" width = "72" height = "12" class = "elTypeBkgnd"/>
	<image xlink:href = "../dgmTypeComplex.gif" width = "10" height = "10" x = "69" y = "50"/>
	<polyline class = "connector" points = "109,19 89,19 89,54 79,54 89,54 89,89 109,89"/>
	<circle class = "occurs" cx = "115" cy = "19" r = "6"/>
	<text x = "112" y = "22" class = "occurLarge">?</text>
	<rect x = "121" y = "5" width = "74" height = "28" class = "element"/>
	<polygon class = "nodeStyle" points = "127,7 123,11 127,15 131,11"/>
	<text x = "132" y = "16" class = "elName">description</text>
	<rect x = "122" y = "20" width = "72" height = "12" class = "elTypeBkgnd"/>
	<image xlink:href = "../dgmDtString.gif" width = "10" height = "10" x = "185" y = "15"/>
	<rect x = "121" y = "40" width = "104" height = "28" class = "element"/>
	<polygon class = "nodeStyle" points = "127,42 123,46 127,50 131,46"/>
	<text x = "132" y = "51" class = "elName">load-group-name</text>
	<rect x = "122" y = "55" width = "102" height = "12" class = "elTypeBkgnd"/>
	<image xlink:href = "../dgmDtString.gif" width = "10" height = "10" x = "215" y = "50"/>
	<circle class = "occurs" cx = "115" cy = "89" r = "6"/>
	<text x = "112" y = "92" class = "occurLarge">+</text>
	<rect x = "121" y = "75" width = "74" height = "28" class = "element"/>
	<polygon class = "nodeStyle" points = "127,77 123,81 127,85 131,81"/>
	<text x = "132" y = "86" class = "elName">field-name</text>
	<rect x = "122" y = "90" width = "72" height = "12" class = "elTypeBkgnd"/>
	<image xlink:href = "../dgmDtString.gif" width = "10" height = "10" x = "185" y = "85"/>
</svg>