<?xml version = "1.0"?>
<!DOCTYPE svg PUBLIC "-//W3C//DTD SVG 20010904//EN" "http://www.w3.org/TR/2001/REC-SVG-20010904/DTD/svg10.dtd">
<svg width = "221pt" height = "178pt" viewBox = "0 0 221 178" xmlns = "http://www.w3.org/2000/svg" xmlns:xlink = "http://www.w3.org/1999/xlink">
	<defs>
		<style type = "text/css"><![CDATA[
rect.attrGroup { fill: ivory ; stroke: black; stroke-width: 1 }
rect.element { fill: ivory ; stroke: black; stroke-width: 1 }
rect.elTypeBkgnd { fill: lightgray ; stroke: none }
text.elName { font-family: helvetica ; font-size : 10 }
text.elType { font-family: helvetica ; font-size : 7 }
text.occurLarge { font-family: helvetica ; font-size : 9; fill : blue }
text.occurSmall { font-family: helvetica ; font-size : 7; fill : blue }
rect.typeIconDark { fill : darkslategray }
circle.occurs { stroke : black ; stroke-width: 1; fill : white }
circle.ellipsis { fill : black }
path.typeIconDark { stroke : lightgray ; stroke-width: 1 }
path.connector { stroke : red ; stroke-width: 1 ; fill: none; }
path.modelGroup { stroke : black ; stroke-width: 1 ; fill: lightgray; }
polyline.connector { stroke : red ; stroke-width: 1 ; fill: none; }
.nodeStyle { fill : blue }
]]></style>
	</defs>
	<rect x = "5" y = "75" width = "61" height = "28" class = "element"/>
	<polygon class = "nodeStyle" points = "11,77 7,81 11,85 15,81"/>
	<text x = "16" y = "86" class = "elName">property</text>
	<rect x = "6" y = "90" width = "59" height = "12" class = "elTypeBkgnd"/>
	<image xlink:href = "../dgmTypeComplex.gif" width = "10" height = "10" x = "56" y = "85"/>
	<polyline class = "connector" points = "96,19 76,19 76,89 66,89 76,89 76,141 96,141"/>
	<polyline class = "connector" points = "96,19 108,19"/>
	<rect x = "108" y = "5" width = "91" height = "28" class = "element"/>
	<polygon class = "nodeStyle" points = "114,7 110,11 114,15 118,11"/>
	<text x = "119" y = "16" class = "elName">property-name</text>
	<rect x = "109" y = "20" width = "89" height = "12" class = "elTypeBkgnd"/>
	<image xlink:href = "../dgmDtString.gif" width = "10" height = "10" x = "189" y = "15"/>
	<circle class = "occurs" cx = "102" cy = "54" r = "6"/>
	<text x = "99" y = "57" class = "occurLarge">?</text>
	<rect x = "108" y = "40" width = "88" height = "28" class = "element"/>
	<polygon class = "nodeStyle" points = "114,42 110,46 114,50 118,46"/>
	<text x = "119" y = "51" class = "elName">column-name</text>
	<rect x = "109" y = "55" width = "86" height = "12" class = "elTypeBkgnd"/>
	<image xlink:href = "../dgmDtString.gif" width = "10" height = "10" x = "186" y = "50"/>
	<circle class = "occurs" cx = "102" cy = "89" r = "6"/>
	<text x = "99" y = "92" class = "occurLarge">?</text>
	<rect x = "108" y = "75" width = "59" height = "28" class = "element"/>
	<polygon class = "nodeStyle" points = "114,77 110,81 114,85 118,81"/>
	<text x = "119" y = "86" class = "elName">not-null</text>
	<rect x = "109" y = "90" width = "57" height = "12" class = "elTypeBkgnd"/>
	<image xlink:href = "../dgmTypeEmpty.gif" width = "10" height = "10" x = "157" y = "85"/>
	<circle class = "occurs" cx = "102" cy = "141" r = "6"/>
	<text x = "99" y = "144" class = "occurLarge">?</text>
	<polyline class = "connector" points = "138,124 118,124 118,141 108,141 118,141 118,159 138,159"/>
	<polyline class = "connector" points = "138,124 150,124"/>
	<rect x = "150" y = "110" width = "66" height = "28" class = "element"/>
	<polygon class = "nodeStyle" points = "156,112 152,116 156,120 160,116"/>
	<text x = "161" y = "121" class = "elName">jdbc-type</text>
	<rect x = "151" y = "125" width = "64" height = "12" class = "elTypeBkgnd"/>
	<image xlink:href = "../dgmDtString.gif" width = "10" height = "10" x = "206" y = "120"/>
	<polyline class = "connector" points = "138,159 150,159"/>
	<rect x = "150" y = "145" width = "59" height = "28" class = "element"/>
	<polygon class = "nodeStyle" points = "156,147 152,151 156,155 160,151"/>
	<text x = "161" y = "156" class = "elName">sql-type</text>
	<rect x = "151" y = "160" width = "57" height = "12" class = "elTypeBkgnd"/>
	<image xlink:href = "../dgmDtString.gif" width = "10" height = "10" x = "199" y = "155"/>
</svg>