<?xml version = "1.0"?>
<!DOCTYPE svg PUBLIC "-//W3C//DTD SVG 20010904//EN" "http://www.w3.org/TR/2001/REC-SVG-20010904/DTD/svg10.dtd">
<svg width = "249pt" height = "318pt" viewBox = "0 0 249 318" xmlns = "http://www.w3.org/2000/svg" xmlns:xlink = "http://www.w3.org/1999/xlink">
	<defs>
		<style type = "text/css"><![CDATA[
rect.attrGroup { fill: ivory ; stroke: black; stroke-width: 1 }
rect.element { fill: ivory ; stroke: black; stroke-width: 1 }
rect.elTypeBkgnd { fill: lightgray ; stroke: none }
text.elName { font-family: helvetica ; font-size : 10 }
text.elType { font-family: helvetica ; font-size : 7 }
text.occurLarge { font-family: helvetica ; font-size : 9; fill : blue }
text.occurSmall { font-family: helvetica ; font-size : 7; fill : blue }
rect.typeIconDark { fill : darkslategray }
circle.occurs { stroke : black ; stroke-width: 1; fill : white }
circle.ellipsis { fill : black }
path.typeIconDark { stroke : lightgray ; stroke-width: 1 }
path.connector { stroke : red ; stroke-width: 1 ; fill: none; }
path.modelGroup { stroke : black ; stroke-width: 1 ; fill: lightgray; }
polyline.connector { stroke : red ; stroke-width: 1 ; fill: none; }
.nodeStyle { fill : blue }
]]></style>
	</defs>
	<rect x = "5" y = "145" width = "77" height = "28" class = "element"/>
	<polygon class = "nodeStyle" points = "11,147 7,151 11,155 15,151"/>
	<text x = "16" y = "156" class = "elName">unknown-pk</text>
	<rect x = "6" y = "160" width = "75" height = "12" class = "elTypeBkgnd"/>
	<image xlink:href = "../dgmTypeComplex.gif" width = "10" height = "10" x = "72" y = "155"/>
	<polyline class = "connector" points = "112,19 92,19 92,159 82,159 92,159 92,299 112,299"/>
	<circle class = "occurs" cx = "118" cy = "19" r = "6"/>
	<text x = "115" y = "22" class = "occurLarge">?</text>
	<rect x = "124" y = "5" width = "120" height = "28" class = "element"/>
	<polygon class = "nodeStyle" points = "130,7 126,11 130,15 134,11"/>
	<text x = "135" y = "16" class = "elName">key-generator-factory</text>
	<rect x = "125" y = "20" width = "118" height = "12" class = "elTypeBkgnd"/>
	<image xlink:href = "../dgmDtString.gif" width = "10" height = "10" x = "234" y = "15"/>
	<rect x = "124" y = "40" width = "102" height = "28" class = "element"/>
	<polygon class = "nodeStyle" points = "130,42 126,46 130,50 134,46"/>
	<text x = "135" y = "51" class = "elName">unknown-pk-class</text>
	<rect x = "125" y = "55" width = "100" height = "12" class = "elTypeBkgnd"/>
	<image xlink:href = "../dgmDtString.gif" width = "10" height = "10" x = "216" y = "50"/>
	<circle class = "occurs" cx = "118" cy = "89" r = "6"/>
	<text x = "115" y = "92" class = "occurLarge">?</text>
	<rect x = "124" y = "75" width = "74" height = "28" class = "element"/>
	<polygon class = "nodeStyle" points = "130,77 126,81 130,85 134,81"/>
	<text x = "135" y = "86" class = "elName">field-name</text>
	<rect x = "125" y = "90" width = "72" height = "12" class = "elTypeBkgnd"/>
	<image xlink:href = "../dgmDtString.gif" width = "10" height = "10" x = "188" y = "85"/>
	<circle class = "occurs" cx = "118" cy = "124" r = "6"/>
	<text x = "115" y = "127" class = "occurLarge">?</text>
	<rect x = "124" y = "110" width = "67" height = "28" class = "element"/>
	<polygon class = "nodeStyle" points = "130,112 126,116 130,120 134,116"/>
	<text x = "135" y = "121" class = "elName">read-only</text>
	<rect x = "125" y = "125" width = "65" height = "12" class = "elTypeBkgnd"/>
	<image xlink:href = "../dgmDtString.gif" width = "10" height = "10" x = "181" y = "120"/>
	<circle class = "occurs" cx = "118" cy = "159" r = "6"/>
	<text x = "115" y = "162" class = "occurLarge">?</text>
	<rect x = "124" y = "145" width = "86" height = "28" class = "element"/>
	<polygon class = "nodeStyle" points = "130,147 126,151 130,155 134,151"/>
	<text x = "135" y = "156" class = "elName">read-time-out</text>
	<rect x = "125" y = "160" width = "84" height = "12" class = "elTypeBkgnd"/>
	<image xlink:href = "../dgmDtString.gif" width = "10" height = "10" x = "200" y = "155"/>
	<circle class = "occurs" cx = "118" cy = "194" r = "6"/>
	<text x = "115" y = "197" class = "occurLarge">?</text>
	<rect x = "124" y = "180" width = "88" height = "28" class = "element"/>
	<polygon class = "nodeStyle" points = "130,182 126,186 130,190 134,186"/>
	<text x = "135" y = "191" class = "elName">column-name</text>
	<rect x = "125" y = "195" width = "86" height = "12" class = "elTypeBkgnd"/>
	<image xlink:href = "../dgmDtString.gif" width = "10" height = "10" x = "202" y = "190"/>
	<circle class = "occurs" cx = "118" cy = "246" r = "6"/>
	<text x = "115" y = "249" class = "occurLarge">?</text>
	<polyline class = "connector" points = "154,229 134,229 134,246 124,246 134,246 134,264 154,264"/>
	<polyline class = "connector" points = "154,229 166,229"/>
	<rect x = "166" y = "215" width = "66" height = "28" class = "element"/>
	<polygon class = "nodeStyle" points = "172,217 168,221 172,225 176,221"/>
	<text x = "177" y = "226" class = "elName">jdbc-type</text>
	<rect x = "167" y = "230" width = "64" height = "12" class = "elTypeBkgnd"/>
	<image xlink:href = "../dgmDtString.gif" width = "10" height = "10" x = "222" y = "225"/>
	<polyline class = "connector" points = "154,264 166,264"/>
	<rect x = "166" y = "250" width = "59" height = "28" class = "element"/>
	<polygon class = "nodeStyle" points = "172,252 168,256 172,260 176,256"/>
	<text x = "177" y = "261" class = "elName">sql-type</text>
	<rect x = "167" y = "265" width = "57" height = "12" class = "elTypeBkgnd"/>
	<image xlink:href = "../dgmDtString.gif" width = "10" height = "10" x = "215" y = "260"/>
	<circle class = "occurs" cx = "118" cy = "299" r = "6"/>
	<text x = "115" y = "302" class = "occurLarge">?</text>
	<rect x = "124" y = "285" width = "94" height = "28" class = "element"/>
	<polygon class = "nodeStyle" points = "130,287 126,291 130,295 134,291"/>
	<text x = "135" y = "296" class = "elName">auto-increment</text>
	<rect x = "125" y = "300" width = "92" height = "12" class = "elTypeBkgnd"/>
	<image xlink:href = "../dgmTypeEmpty.gif" width = "10" height = "10" x = "208" y = "295"/>
</svg>