<?xml version = "1.0"?>
<!DOCTYPE svg PUBLIC "-//W3C//DTD SVG 20010904//EN" "http://www.w3.org/TR/2001/REC-SVG-20010904/DTD/svg10.dtd">
<svg width = "223pt" height = "213pt" viewBox = "0 0 223 213" xmlns = "http://www.w3.org/2000/svg" xmlns:xlink = "http://www.w3.org/1999/xlink">
	<defs>
		<style type = "text/css"><![CDATA[
rect.attrGroup { fill: ivory ; stroke: black; stroke-width: 1 }
rect.element { fill: ivory ; stroke: black; stroke-width: 1 }
rect.elTypeBkgnd { fill: lightgray ; stroke: none }
text.elName { font-family: helvetica ; font-size : 10 }
text.elType { font-family: helvetica ; font-size : 7 }
text.occurLarge { font-family: helvetica ; font-size : 9; fill : blue }
text.occurSmall { font-family: helvetica ; font-size : 7; fill : blue }
rect.typeIconDark { fill : darkslategray }
circle.occurs { stroke : black ; stroke-width: 1; fill : white }
circle.ellipsis { fill : black }
path.typeIconDark { stroke : lightgray ; stroke-width: 1 }
path.connector { stroke : red ; stroke-width: 1 ; fill: none; }
path.modelGroup { stroke : black ; stroke-width: 1 ; fill: lightgray; }
polyline.connector { stroke : red ; stroke-width: 1 ; fill: none; }
.nodeStyle { fill : blue }
]]></style>
	</defs>
	<rect x = "5" y = "92" width = "49" height = "28" class = "element"/>
	<polygon class = "nodeStyle" points = "11,94 7,98 11,102 15,98"/>
	<text x = "16" y = "103" class = "elName">query</text>
	<rect x = "6" y = "107" width = "47" height = "12" class = "elTypeBkgnd"/>
	<image xlink:href = "../dgmTypeComplex.gif" width = "10" height = "10" x = "44" y = "102"/>
	<polyline class = "connector" points = "84,19 64,19 64,106 54,106 64,106 64,194 84,194"/>
	<circle class = "occurs" cx = "90" cy = "19" r = "6"/>
	<text x = "87" y = "22" class = "occurLarge">?</text>
	<rect x = "96" y = "5" width = "74" height = "28" class = "element"/>
	<polygon class = "nodeStyle" points = "102,7 98,11 102,15 106,11"/>
	<text x = "107" y = "16" class = "elName">description</text>
	<rect x = "97" y = "20" width = "72" height = "12" class = "elTypeBkgnd"/>
	<image xlink:href = "../dgmDtString.gif" width = "10" height = "10" x = "160" y = "15"/>
	<rect x = "96" y = "40" width = "88" height = "28" class = "element"/>
	<polygon class = "nodeStyle" points = "102,42 98,46 102,50 106,46"/>
	<text x = "107" y = "51" class = "elName">query-method</text>
	<rect x = "97" y = "55" width = "86" height = "12" class = "elTypeBkgnd"/>
	<image xlink:href = "../dgmTypeComplex.gif" width = "10" height = "10" x = "174" y = "50"/>
	<circle class = "occurs" cx = "90" cy = "124" r = "6"/>
	<text x = "87" y = "127" class = "occurLarge">?</text>
	<polyline class = "connector" points = "126,89 106,124 96,124 106,124 126,159"/>
	<polyline class = "connector" points = "126,89 138,89"/>
	<rect x = "138" y = "75" width = "58" height = "28" class = "element"/>
	<polygon class = "nodeStyle" points = "144,77 140,81 144,85 148,81"/>
	<text x = "149" y = "86" class = "elName">jboss-ql</text>
	<rect x = "139" y = "90" width = "56" height = "12" class = "elTypeBkgnd"/>
	<image xlink:href = "../dgmDtString.gif" width = "10" height = "10" x = "186" y = "85"/>
	<rect x = "138" y = "110" width = "75" height = "28" class = "element"/>
	<polygon class = "nodeStyle" points = "144,112 140,116 144,120 148,116"/>
	<text x = "149" y = "121" class = "elName">dynamic-ql</text>
	<rect x = "139" y = "125" width = "73" height = "12" class = "elTypeBkgnd"/>
	<image xlink:href = "../dgmTypeEmpty.gif" width = "10" height = "10" x = "203" y = "120"/>
	<polyline class = "connector" points = "126,159 138,159"/>
	<rect x = "138" y = "145" width = "80" height = "28" class = "element"/>
	<polygon class = "nodeStyle" points = "144,147 140,151 144,155 148,151"/>
	<text x = "149" y = "156" class = "elName">declared-sql</text>
	<rect x = "139" y = "160" width = "78" height = "12" class = "elTypeBkgnd"/>
	<image xlink:href = "../dgmTypeComplex.gif" width = "10" height = "10" x = "208" y = "155"/>
	<circle class = "occurs" cx = "90" cy = "194" r = "6"/>
	<text x = "87" y = "197" class = "occurLarge">?</text>
	<rect x = "96" y = "180" width = "77" height = "28" class = "element"/>
	<polygon class = "nodeStyle" points = "102,182 98,186 102,190 106,186"/>
	<text x = "107" y = "191" class = "elName">read-ahead</text>
	<rect x = "97" y = "195" width = "75" height = "12" class = "elTypeBkgnd"/>
	<image xlink:href = "../dgmTypeComplex.gif" width = "10" height = "10" x = "163" y = "190"/>
</svg>