<?xml version = "1.0"?>
<!DOCTYPE svg PUBLIC "-//W3C//DTD SVG 20010904//EN" "http://www.w3.org/TR/2001/REC-SVG-20010904/DTD/svg10.dtd">
<svg width = "344pt" height = "283pt" viewBox = "0 0 344 283" xmlns = "http://www.w3.org/2000/svg" xmlns:xlink = "http://www.w3.org/1999/xlink">
	<defs>
		<style type = "text/css"><![CDATA[
rect.attrGroup { fill: ivory ; stroke: black; stroke-width: 1 }
rect.element { fill: ivory ; stroke: black; stroke-width: 1 }
rect.elTypeBkgnd { fill: lightgray ; stroke: none }
text.elName { font-family: helvetica ; font-size : 10 }
text.elType { font-family: helvetica ; font-size : 7 }
text.occurLarge { font-family: helvetica ; font-size : 9; fill : blue }
text.occurSmall { font-family: helvetica ; font-size : 7; fill : blue }
rect.typeIconDark { fill : darkslategray }
circle.occurs { stroke : black ; stroke-width: 1; fill : white }
circle.ellipsis { fill : black }
path.typeIconDark { stroke : lightgray ; stroke-width: 1 }
path.connector { stroke : red ; stroke-width: 1 ; fill: none; }
path.modelGroup { stroke : black ; stroke-width: 1 ; fill: lightgray; }
polyline.connector { stroke : red ; stroke-width: 1 ; fill: none; }
.nodeStyle { fill : blue }
]]></style>
	</defs>
	<rect x = "5" y = "127" width = "131" height = "28" class = "element"/>
	<polygon class = "nodeStyle" points = "11,129 7,133 11,137 15,133"/>
	<text x = "16" y = "138" class = "elName">relation-table-mapping</text>
	<rect x = "6" y = "142" width = "129" height = "12" class = "elTypeBkgnd"/>
	<image xlink:href = "../dgmTypeComplex.gif" width = "10" height = "10" x = "126" y = "137"/>
	<polyline class = "connector" points = "166,19 146,19 146,141 136,141 146,141 146,264 166,264"/>
	<circle class = "occurs" cx = "172" cy = "19" r = "6"/>
	<text x = "169" y = "22" class = "occurLarge">?</text>
	<rect x = "178" y = "5" width = "77" height = "28" class = "element"/>
	<polygon class = "nodeStyle" points = "184,7 180,11 184,15 188,11"/>
	<text x = "189" y = "16" class = "elName">table-name</text>
	<rect x = "179" y = "20" width = "75" height = "12" class = "elTypeBkgnd"/>
	<image xlink:href = "../dgmDtString.gif" width = "10" height = "10" x = "245" y = "15"/>
	<circle class = "occurs" cx = "172" cy = "71" r = "6"/>
	<text x = "169" y = "74" class = "occurLarge">?</text>
	<polyline class = "connector" points = "208,54 188,54 188,71 178,71 188,71 188,89 208,89"/>
	<polyline class = "connector" points = "208,54 220,54"/>
	<rect x = "220" y = "40" width = "74" height = "28" class = "element"/>
	<polygon class = "nodeStyle" points = "226,42 222,46 226,50 230,46"/>
	<text x = "231" y = "51" class = "elName">datasource</text>
	<rect x = "221" y = "55" width = "72" height = "12" class = "elTypeBkgnd"/>
	<image xlink:href = "../dgmDtString.gif" width = "10" height = "10" x = "284" y = "50"/>
	<polyline class = "connector" points = "208,89 220,89"/>
	<rect x = "220" y = "75" width = "119" height = "28" class = "element"/>
	<polygon class = "nodeStyle" points = "226,77 222,81 226,85 230,81"/>
	<text x = "231" y = "86" class = "elName">datasource-mapping</text>
	<rect x = "221" y = "90" width = "117" height = "12" class = "elTypeBkgnd"/>
	<image xlink:href = "../dgmDtString.gif" width = "10" height = "10" x = "329" y = "85"/>
	<circle class = "occurs" cx = "172" cy = "124" r = "6"/>
	<text x = "169" y = "127" class = "occurLarge">?</text>
	<rect x = "178" y = "110" width = "79" height = "28" class = "element"/>
	<polygon class = "nodeStyle" points = "184,112 180,116 184,120 188,116"/>
	<text x = "189" y = "121" class = "elName">create-table</text>
	<rect x = "179" y = "125" width = "77" height = "12" class = "elTypeBkgnd"/>
	<image xlink:href = "../dgmDtString.gif" width = "10" height = "10" x = "247" y = "120"/>
	<circle class = "occurs" cx = "172" cy = "159" r = "6"/>
	<text x = "169" y = "162" class = "occurLarge">?</text>
	<rect x = "178" y = "145" width = "85" height = "28" class = "element"/>
	<polygon class = "nodeStyle" points = "184,147 180,151 184,155 188,151"/>
	<text x = "189" y = "156" class = "elName">remove-table</text>
	<rect x = "179" y = "160" width = "83" height = "12" class = "elTypeBkgnd"/>
	<image xlink:href = "../dgmDtString.gif" width = "10" height = "10" x = "253" y = "155"/>
	<circle class = "occurs" cx = "172" cy = "194" r = "6"/>
	<text x = "169" y = "197" class = "occurLarge">?</text>
	<rect x = "178" y = "180" width = "101" height = "28" class = "element"/>
	<polygon class = "nodeStyle" points = "184,182 180,186 184,190 188,186"/>
	<text x = "189" y = "191" class = "elName">post-table-create</text>
	<rect x = "179" y = "195" width = "99" height = "12" class = "elTypeBkgnd"/>
	<image xlink:href = "../dgmTypeComplex.gif" width = "10" height = "10" x = "269" y = "190"/>
	<circle class = "occurs" cx = "172" cy = "229" r = "6"/>
	<text x = "169" y = "232" class = "occurLarge">?</text>
	<rect x = "178" y = "215" width = "75" height = "28" class = "element"/>
	<polygon class = "nodeStyle" points = "184,217 180,221 184,225 188,221"/>
	<text x = "189" y = "226" class = "elName">row-locking</text>
	<rect x = "179" y = "230" width = "73" height = "12" class = "elTypeBkgnd"/>
	<image xlink:href = "../dgmDtString.gif" width = "10" height = "10" x = "243" y = "225"/>
	<circle class = "occurs" cx = "172" cy = "264" r = "6"/>
	<text x = "169" y = "267" class = "occurLarge">?</text>
	<rect x = "178" y = "250" width = "81" height = "28" class = "element"/>
	<polygon class = "nodeStyle" points = "184,252 180,256 184,260 188,256"/>
	<text x = "189" y = "261" class = "elName">pk-constraint</text>
	<rect x = "179" y = "265" width = "79" height = "12" class = "elTypeBkgnd"/>
	<image xlink:href = "../dgmDtString.gif" width = "10" height = "10" x = "249" y = "260"/>
</svg>