<?xml version = "1.0"?>
<!DOCTYPE svg PUBLIC "-//W3C//DTD SVG 20010904//EN" "http://www.w3.org/TR/2001/REC-SVG-20010904/DTD/svg10.dtd">
<svg width = "168pt" height = "81pt" viewBox = "0 0 168 81" xmlns = "http://www.w3.org/2000/svg" xmlns:xlink = "http://www.w3.org/1999/xlink">
	<defs>
		<style type = "text/css"><![CDATA[
rect.attrGroup { fill: ivory ; stroke: black; stroke-width: 1 }
rect.element { fill: ivory ; stroke: black; stroke-width: 1 }
rect.elTypeBkgnd { fill: lightgray ; stroke: none }
text.elName { font-family: helvetica ; font-size : 10 }
text.elType { font-family: helvetica ; font-size : 7 }
text.occurLarge { font-family: helvetica ; font-size : 9; fill : blue }
text.occurSmall { font-family: helvetica ; font-size : 7; fill : blue }
rect.typeIconDark { fill : darkslategray }
circle.occurs { stroke : black ; stroke-width: 1; fill : white }
circle.ellipsis { fill : black }
path.typeIconDark { stroke : lightgray ; stroke-width: 1 }
path.connector { stroke : red ; stroke-width: 1 ; fill: none; }
path.modelGroup { stroke : black ; stroke-width: 1 ; fill: lightgray; }
polyline.connector { stroke : red ; stroke-width: 1 ; fill: none; }
.nodeStyle { fill : blue }
]]></style>
	</defs>
	<rect x = "80" y = "5" width = "60" height = "38" class = "attrGroup" rx = "5" ry = "5"/>
	<rect x = "85" y = "10" width = "50" height = "28" class = "element" rx = "5" ry = "5"/>
	<circle class = "nodeStyle" cx = "91" cy = "16" r = "4"/>
	<text x = "96" y = "21" class = "elName">name</text>
	<rect x = "86" y = "11" width = "48" height = "26" class = "elTypeBkgnd" rx = "5" ry = "5" clip-path = "url(#e:Role/a:name)"/>
	<defs/>
	<clipPath id = "e:Role/a:name">
		<rect x = "85" y = "25" width = "50" height = "12"/>
	</clipPath>
	<text x = "86" y = "33" class = "elType">string</text>
	<image xlink:href = "../dgmDtString.gif" width = "10" height = "10" x = "125" y = "20"/>
	<rect x = "5" y = "48" width = "45" height = "28" class = "element"/>
	<polygon class = "nodeStyle" points = "11,50 7,54 11,58 15,54"/>
	<text x = "16" y = "59" class = "elName">Role</text>
	<rect x = "6" y = "63" width = "43" height = "12" class = "elTypeBkgnd"/>
	<image xlink:href = "../dgmTypeComplex.gif" width = "10" height = "10" x = "40" y = "58"/>
	<polyline class = "connector" points = "50,62 80,62"/>
	<polyline class = "connector" points = "50,60 58,60 58,24 80,24"/>
	<circle class = "occurs" cx = "86" cy = "62" r = "6"/>
	<text x = "83" y = "65" class = "occurLarge">+</text>
	<rect x = "92" y = "48" width = "71" height = "28" class = "element"/>
	<polygon class = "nodeStyle" points = "98,50 94,54 98,58 102,54"/>
	<text x = "103" y = "59" class = "elName">UserName</text>
	<rect x = "93" y = "63" width = "69" height = "12" class = "elTypeBkgnd"/>
	<image xlink:href = "../dgmDtString.gif" width = "10" height = "10" x = "153" y = "58"/>
</svg>