<?xml version = "1.0"?>
<!DOCTYPE svg PUBLIC "-//W3C//DTD SVG 20010904//EN" "http://www.w3.org/TR/2001/REC-SVG-20010904/DTD/svg10.dtd">
<svg width = "264pt" height = "108pt" viewBox = "0 0 264 108" xmlns = "http://www.w3.org/2000/svg" xmlns:xlink = "http://www.w3.org/1999/xlink">
	<defs>
		<style type = "text/css"><![CDATA[
rect.attrGroup { fill: ivory ; stroke: black; stroke-width: 1 }
rect.element { fill: ivory ; stroke: black; stroke-width: 1 }
rect.elTypeBkgnd { fill: lightgray ; stroke: none }
text.elName { font-family: helvetica ; font-size : 10 }
text.elType { font-family: helvetica ; font-size : 7 }
text.occurLarge { font-family: helvetica ; font-size : 9; fill : blue }
text.occurSmall { font-family: helvetica ; font-size : 7; fill : blue }
rect.typeIconDark { fill : darkslategray }
circle.occurs { stroke : black ; stroke-width: 1; fill : white }
circle.ellipsis { fill : black }
path.typeIconDark { stroke : lightgray ; stroke-width: 1 }
path.connector { stroke : red ; stroke-width: 1 ; fill: none; }
path.modelGroup { stroke : black ; stroke-width: 1 ; fill: lightgray; }
polyline.connector { stroke : red ; stroke-width: 1 ; fill: none; }
.nodeStyle { fill : blue }
]]></style>
	</defs>
	<rect x = "5" y = "40" width = "90" height = "28" class = "element"/>
	<polygon class = "nodeStyle" points = "11,42 7,46 11,50 15,46"/>
	<text x = "16" y = "51" class = "elName">StateManager</text>
	<rect x = "6" y = "55" width = "88" height = "12" class = "elTypeBkgnd"/>
	<image xlink:href = "../dgmTypeComplex.gif" width = "10" height = "10" x = "85" y = "50"/>
	<polyline class = "connector" points = "125,19 105,19 105,54 95,54 105,54 105,89 125,89"/>
	<polyline class = "connector" points = "125,19 137,19"/>
	<rect x = "137" y = "5" width = "47" height = "28" class = "element"/>
	<polygon class = "nodeStyle" points = "143,7 139,11 143,15 147,11"/>
	<text x = "148" y = "16" class = "elName">Users</text>
	<rect x = "138" y = "20" width = "45" height = "12" class = "elTypeBkgnd"/>
	<image xlink:href = "../dgmTypeComplex.gif" width = "10" height = "10" x = "174" y = "15"/>
	<rect x = "137" y = "40" width = "49" height = "28" class = "element"/>
	<polygon class = "nodeStyle" points = "143,42 139,46 143,50 147,46"/>
	<text x = "148" y = "51" class = "elName">Roles</text>
	<rect x = "138" y = "55" width = "47" height = "12" class = "elTypeBkgnd"/>
	<image xlink:href = "../dgmTypeComplex.gif" width = "10" height = "10" x = "176" y = "50"/>
	<polyline class = "connector" points = "125,89 137,89"/>
	<rect x = "137" y = "75" width = "122" height = "28" class = "element"/>
	<polygon class = "nodeStyle" points = "143,77 139,81 143,85 147,81"/>
	<text x = "148" y = "86" class = "elName">DurableSubscriptions</text>
	<rect x = "138" y = "90" width = "120" height = "12" class = "elTypeBkgnd"/>
	<image xlink:href = "../dgmTypeComplex.gif" width = "10" height = "10" x = "249" y = "85"/>
</svg>